<svg width="276" height="217" viewBox="0 0 276 217" fill="none" xmlns="http://www.w3.org/2000/svg">
<path d="M48.6933 156.4H58.6648V186.015H48.6933V156.4ZM39.4824 186.015H29.511V156.4H39.4824V186.015ZM49.3694 175.1H38.8064V166.892H49.3694V175.1Z" fill="#ED1846"/>
<path d="M72.3421 186.015V173.027L74.6237 178.992L61.1877 156.4H71.7084L80.7925 171.842H74.666L83.8346 156.4H93.4681L80.1165 178.992L82.3136 173.027V186.015H72.3421Z" fill="#ED1846"/>
<path d="M95.579 186.015V156.4H110.156C113.452 156.4 116.353 157.006 118.86 158.219C121.367 159.404 123.324 161.096 124.733 163.296C126.141 165.496 126.845 168.119 126.845 171.165C126.845 174.24 126.141 176.891 124.733 179.119C123.324 181.319 121.367 183.026 118.86 184.238C116.353 185.423 113.452 186.015 110.156 186.015H95.579ZM105.55 178.231H109.733C111.142 178.231 112.367 177.963 113.409 177.427C114.48 176.891 115.311 176.101 115.902 175.058C116.494 173.986 116.789 172.688 116.789 171.165C116.789 169.671 116.494 168.401 115.902 167.358C115.311 166.314 114.48 165.524 113.409 164.988C112.367 164.453 111.142 164.185 109.733 164.185H105.55V178.231Z" fill="#ED1846"/>
<path d="M130.486 186.015V156.4H144.725C147.486 156.4 149.866 156.851 151.866 157.754C153.894 158.656 155.457 159.954 156.556 161.646C157.654 163.31 158.204 165.285 158.204 167.569C158.204 169.854 157.654 171.828 156.556 173.492C155.457 175.128 153.894 176.383 151.866 177.258C149.866 178.132 147.486 178.569 144.725 178.569H136.021L140.458 174.465V186.015H130.486ZM148.19 186.015L140.923 175.227H151.485L158.837 186.015H148.19ZM140.458 175.565L136.021 171.038H144.091C145.472 171.038 146.486 170.728 147.134 170.108C147.81 169.487 148.148 168.641 148.148 167.569C148.148 166.497 147.81 165.651 147.134 165.031C146.486 164.41 145.472 164.1 144.091 164.1H136.021L140.458 159.573V175.565Z" fill="#ED1846"/>
<path d="M160.025 186.015L172.954 156.4H182.757L195.686 186.015H185.376L175.827 161.138H179.715L170.166 186.015H160.025ZM167.715 180.854L170.25 173.662H183.855L186.39 180.854H167.715Z" fill="#ED1846"/>
<path d="M201.164 186.015V164.142H192.503V156.4H219.797V164.142H211.136V186.015H201.164Z" fill="#ED1846"/>
<path d="M232.359 167.4H245.541V174.592H232.359V167.4ZM233.035 178.485H247.823V186.015H223.232V156.4H247.274V163.931H233.035V178.485Z" fill="#ED1846"/>
<path d="M103.584 27.8547C103.584 27.3355 104.006 26.9127 104.524 26.9327C117.312 27.427 127.527 37.9635 127.527 50.8889V57.7532C127.527 61.3534 126.667 64.9013 125.018 68.1006L120.311 77.2332C120.15 77.546 120.377 77.9188 120.729 77.9188H158.269C158.62 77.9188 158.847 77.546 158.686 77.2332L153.979 68.1006C152.331 64.9013 151.47 61.3534 151.47 57.7532V50.8889C151.47 37.9635 161.685 27.427 174.473 26.9327C174.991 26.9127 175.413 27.3355 175.413 27.8547V55.5846C175.413 56.7846 175.7 57.9673 176.249 59.0337L201.362 107.762C207.281 119.248 203.029 133.302 191.892 139.613C191.44 139.869 190.872 139.687 190.634 139.226L171.657 102.402C171.496 102.09 171.174 101.893 170.822 101.893H108.175C107.824 101.893 107.502 102.09 107.34 102.402L88.3633 139.226C88.1255 139.687 87.557 139.869 87.1057 139.613C75.9684 133.302 71.716 119.248 77.6355 107.762L102.748 59.0337C103.298 57.9673 103.584 56.7846 103.584 55.5846V27.8547Z" fill="#ED1846"/>
</svg>
