<svg width="684" height="168" viewBox="0 0 684 168" fill="none" xmlns="http://www.w3.org/2000/svg">
<path d="M225.858 48.8522H247.294V112.444H225.858V48.8522ZM206.057 112.444H184.621V48.8522H206.057V112.444ZM227.311 89.0057H204.604V71.3818H227.311V89.0057Z" fill="#ED1846"/>
<path d="M276.696 112.444V84.5543L281.601 97.3635L252.717 48.8522H275.334L294.862 82.0106H281.692L301.402 48.8522H322.111L293.409 97.3635L298.132 84.5543V112.444H276.696Z" fill="#ED1846"/>
<path d="M326.649 112.444V48.8522H357.986C365.07 48.8522 371.307 50.1543 376.697 52.7585C382.086 55.3022 386.294 58.936 389.322 63.6599C392.35 68.3839 393.863 74.0163 393.863 80.5571C393.863 87.1585 392.35 92.8515 389.322 97.636C386.294 102.36 382.086 106.024 376.697 108.628C371.307 111.172 365.07 112.444 357.986 112.444H326.649ZM348.085 95.7283H357.077C360.105 95.7283 362.739 95.1529 364.979 94.0022C367.281 92.8515 369.067 91.1557 370.338 88.9149C371.61 86.6135 372.246 83.8275 372.246 80.5571C372.246 77.3473 371.61 74.6219 370.338 72.3811C369.067 70.1402 367.281 68.4444 364.979 67.2937C362.739 66.143 360.105 65.5677 357.077 65.5677H348.085V95.7283Z" fill="#ED1846"/>
<path d="M401.69 112.444V48.8522H432.3C438.234 48.8522 443.351 49.8212 447.65 51.7592C452.01 53.6972 455.371 56.4832 457.732 60.117C460.094 63.6902 461.275 67.9296 461.275 72.8353C461.275 77.7409 460.094 81.9804 457.732 85.5536C455.371 89.0663 452.01 91.7613 447.65 93.6388C443.351 95.5163 438.234 96.455 432.3 96.455H413.589L423.126 87.643V112.444H401.69ZM439.748 112.444L424.125 89.2782H446.833L462.637 112.444H439.748ZM423.126 90.005L413.589 80.2846H430.938C433.905 80.2846 436.085 79.6184 437.477 78.286C438.931 76.9536 439.657 75.1367 439.657 72.8353C439.657 70.5339 438.931 68.717 437.477 67.3846C436.085 66.0522 433.905 65.386 430.938 65.386H413.589L423.126 55.6656V90.005Z" fill="#ED1846"/>
<path d="M465.191 112.444L492.985 48.8522H514.058L541.852 112.444H519.689L499.162 59.0268H507.518L486.99 112.444H465.191ZM481.722 101.361L487.172 85.917H516.419L521.869 101.361H481.722Z" fill="#ED1846"/>
<path d="M553.629 112.444V65.4768H535.009V48.8522H593.685V65.4768H575.065V112.444H553.629Z" fill="#ED1846"/>
<path d="M620.688 72.4719H649.027V87.9156H620.688V72.4719ZM622.142 96.2733H653.932V112.444H601.069V48.8522H652.751V65.0226H622.142V96.2733Z" fill="#ED1846"/>
<path d="M50.6315 28.8288C50.6315 28.3149 51.0496 27.8964 51.563 27.9162C64.2338 28.4055 74.3558 38.8337 74.3558 51.6265V58.4203C74.3558 61.9835 73.5033 65.495 71.8696 68.6614L67.206 77.7002C67.0462 78.0099 67.271 78.3788 67.6194 78.3788H104.817C105.165 78.3788 105.39 78.0099 105.23 77.7002L100.567 68.6614C98.9329 65.495 98.0804 61.9835 98.0804 58.4203V51.6265C98.0804 38.8337 108.202 28.4055 120.873 27.9162C121.387 27.8964 121.805 28.3149 121.805 28.8288V56.2739C121.805 57.4616 122.089 58.6321 122.633 59.6876L147.517 107.916C153.382 119.284 149.169 133.194 138.133 139.44C137.686 139.693 137.122 139.513 136.887 139.056L118.083 102.611C117.923 102.301 117.604 102.107 117.256 102.107H55.1801C54.832 102.107 54.513 102.301 54.3534 102.611L35.5494 139.056C35.3137 139.513 34.7504 139.693 34.3032 139.44C23.2676 133.194 19.054 119.284 24.9195 107.916L49.8028 59.6876C50.3474 58.6321 50.6315 57.4616 50.6315 56.2739V28.8288Z" fill="#ED1846"/>
</svg>
