<svg width="481" height="167" viewBox="0 0 481 167" fill="none" xmlns="http://www.w3.org/2000/svg">
<path d="M182.932 115.329V51.6864H204.388V98.6908H233.118V115.329H182.932Z" fill="#ED1846"/>
<path d="M237.59 115.329L265.411 51.6864H286.504L314.325 115.329H292.141L271.594 61.8692H279.958L259.411 115.329H237.59ZM254.137 104.237L259.593 88.7808H288.868L294.323 104.237H254.137Z" fill="#ED1846"/>
<path d="M319.113 115.329V102.146L354.571 60.8691L357.208 68.3243H320.022V51.6864H376.118V64.8695L340.661 106.146L338.024 98.6908H377.573V115.329H319.113Z" fill="#ED1846"/>
<path d="M404.714 115.329V87.417L409.624 100.236L380.712 51.6864H403.35L422.898 84.8714H409.715L429.444 51.6864H450.173L421.443 100.236L426.171 87.417V115.329H404.714Z" fill="#ED1846"/>
<path fill-rule="evenodd" clip-rule="evenodd" d="M60.2714 82.3354C60.5879 82.664 60.5879 83.1967 60.2714 83.5253L38.1456 106.494C30.5494 114.379 30.5494 127.164 38.1456 135.05L38.4322 135.347C38.7487 135.676 39.2619 135.676 39.5784 135.347L75.888 97.6546C83.7216 89.5226 83.7216 76.3381 75.8881 68.2061L39.5784 30.5133C39.2619 30.1847 38.7487 30.1847 38.4322 30.5133L38.1456 30.8107C30.5494 38.6963 30.5494 51.4813 38.1456 59.3669L60.2714 82.3354ZM107.701 82.3354C107.385 82.664 107.385 83.1967 107.701 83.5253L129.827 106.494C137.423 114.379 137.423 127.164 129.827 135.05L129.541 135.347C129.224 135.676 128.711 135.676 128.394 135.347L92.0847 97.6546C84.2511 89.5226 84.2511 76.3381 92.0847 68.2061L128.394 30.5133C128.711 30.1847 129.224 30.1847 129.541 30.5133L129.827 30.8107C137.423 38.6963 137.423 51.4813 129.827 59.3669L107.701 82.3354Z" fill="#ED1846"/>
</svg>
