<svg width="106" height="106" viewBox="0 0 106 106" fill="none" xmlns="http://www.w3.org/2000/svg">
<path d="M80.4036 81.0229C93.6653 81.0229 104.416 91.7736 104.416 105.035C104.416 105.404 104.117 105.702 103.749 105.702H1.9103C1.16313 105.702 0.720166 104.867 1.13953 104.248L71.5596 0.408589C71.7329 0.153039 72.0216 0 72.3303 0H104.479C105.226 0 105.669 0.835624 105.25 1.454L52.2753 79.5689C51.8559 80.1873 52.2989 81.0229 53.046 81.0229H80.4036Z" fill="#ED1846"/>
<path d="M6.67256 24.6794C6.15822 24.6794 5.74126 24.2624 5.74126 23.7481V0.931298C5.74126 0.416956 6.15822 0 6.67256 0H62.6723C63.4194 0 63.8624 0.835627 63.443 1.45401L57.9448 9.56158C51.5326 19.0169 40.8508 24.6794 29.4262 24.6794H6.67256Z" fill="#ED1846"/>
</svg>
