<svg width="124" height="30" viewBox="0 0 124 30" fill="none" xmlns="http://www.w3.org/2000/svg">
<path d="M0.657593 29.3351V0H10.5477V21.6661H23.7904V29.3351H0.657593Z" fill="#ED1846"/>
<path d="M25.8517 29.3351L38.6754 0H48.3979L61.2215 29.3351H50.9961L41.5251 4.69362H45.3805L35.9095 29.3351H25.8517ZM33.4789 24.2224L35.9933 17.0982H49.4874L52.0019 24.2224H33.4789Z" fill="#ED1846"/>
<path d="M63.4285 29.3351V23.2585L79.7723 4.23264L80.9876 7.66903H63.8475V0H89.7043V6.07656L73.3605 25.1025L72.1452 21.6661H90.3749V29.3351H63.4285Z" fill="#ED1846"/>
<path d="M102.885 29.3351V16.4696L105.148 22.3785L91.8216 0H102.257L111.267 15.2962H105.19L114.284 0H123.839L110.596 22.3785L112.775 16.4696V29.3351H102.885Z" fill="#ED1846"/>
</svg>
