<svg width="481" height="167" viewBox="0 0 481 167" fill="none" xmlns="http://www.w3.org/2000/svg">
<rect width="480" height="167" transform="translate(0.00292969)" fill="white"/>
<path d="M182.932 115.329V51.6864H204.388V98.6908H233.118V115.329H182.932Z" fill="#ED1846"/>
<path d="M237.59 115.329L265.411 51.6864H286.504L314.325 115.329H292.141L271.594 61.8692H279.958L259.411 115.329H237.59ZM254.137 104.237L259.593 88.7808H288.868L294.323 104.237H254.137Z" fill="#ED1846"/>
<path d="M319.113 115.329V102.146L354.571 60.8691L357.208 68.3243H320.022V51.6864H376.118V64.8695L340.661 106.146L338.024 98.6908H377.573V115.329H319.113Z" fill="#ED1846"/>
<path d="M404.714 115.329V87.417L409.624 100.236L380.712 51.6864H403.35L422.898 84.8714H409.715L429.444 51.6864H450.173L421.443 100.236L426.171 87.417V115.329H404.714Z" fill="#ED1846"/>
<path d="M111.023 111.289C124.285 111.289 135.035 122.039 135.035 135.301C135.035 135.669 134.737 135.968 134.368 135.968H32.5308C31.7836 135.968 31.3407 135.132 31.76 134.514L102.179 30.6754C102.352 30.4199 102.641 30.2668 102.95 30.2668H135.098C135.845 30.2668 136.288 31.1025 135.869 31.7208L82.8951 109.835C82.4758 110.453 82.9187 111.289 83.6659 111.289H111.023Z" fill="#ED1846"/>
<path d="M37.293 54.9459C36.7786 54.9459 36.3617 54.529 36.3617 54.0146V31.1981C36.3617 30.6838 36.7786 30.2668 37.293 30.2668H93.292C94.0391 30.2668 94.4821 31.1025 94.0627 31.7208L88.5646 39.8283C82.1524 49.2835 71.4707 54.9459 60.0463 54.9459H37.293Z" fill="#ED1846"/>
</svg>
