<svg width="183" height="217" viewBox="0 0 183 217" fill="none" xmlns="http://www.w3.org/2000/svg">
<rect width="183" height="217" fill="white"/>
<path d="M30 186V156.665H39.8901V178.331H53.1328V186H30Z" fill="#ED1846"/>
<path d="M55.1941 186L68.0178 156.665H77.7403L90.5639 186H80.3385L70.8675 161.359H74.7229L65.2519 186H55.1941ZM62.8213 180.887L65.3357 173.763H78.8298L81.3443 180.887H62.8213Z" fill="#ED1846"/>
<path d="M92.7709 186V179.923L109.115 160.898L110.33 164.334H93.19V156.665H119.047V162.741L102.703 181.767L101.488 178.331H119.717V186H92.7709Z" fill="#ED1846"/>
<path d="M132.228 186V173.134L134.491 179.043L121.164 156.665H131.599L140.609 171.961H134.532L143.626 156.665H153.181L139.939 179.043L142.118 173.134V186H132.228Z" fill="#ED1846"/>
<path d="M117.941 111.021C131.202 111.021 141.952 121.771 141.952 135.032C141.952 135.401 141.654 135.699 141.285 135.699H39.4495C38.7023 135.699 38.2594 134.864 38.6787 134.246L109.097 30.4086C109.27 30.153 109.559 30 109.868 30H142.015C142.763 30 143.205 30.8356 142.786 31.454L89.8131 109.567C89.3937 110.185 89.8367 111.021 90.5838 111.021H117.941Z" fill="#ED1846"/>
<path d="M44.2116 54.6787C43.6973 54.6787 43.2803 54.2618 43.2803 53.7475V30.9313C43.2803 30.4169 43.6973 30 44.2116 30H100.21C100.957 30 101.4 30.8356 100.981 31.454L95.4825 39.5613C89.0704 49.0164 78.3889 54.6787 66.9646 54.6787H44.2116Z" fill="#ED1846"/>
</svg>
