<svg width="120" height="117" viewBox="0 0 120 117" fill="none" xmlns="http://www.w3.org/2000/svg">
<path fill-rule="evenodd" clip-rule="evenodd" d="M32.9476 57.6345C33.3113 57.9982 33.3113 58.5879 32.9476 58.9515L7.52378 84.3754C-1.20471 93.1039 -1.2047 107.256 7.52379 115.984L7.85305 116.313C8.21674 116.677 8.80639 116.677 9.17008 116.313L50.8921 74.5912C59.8934 65.59 59.8934 50.9961 50.8921 41.9948L9.17008 0.272765C8.80639 -0.0909222 8.21674 -0.0909214 7.85305 0.272766L7.52379 0.602023C-1.2047 9.33052 -1.2047 23.4822 7.52379 32.2107L32.9476 57.6345ZM87.4475 57.6345C87.0838 57.9982 87.0838 58.5879 87.4475 58.9515L112.871 84.3754C121.6 93.1039 121.6 107.256 112.871 115.984L112.542 116.313C112.178 116.677 111.589 116.677 111.225 116.313L69.503 74.5912C60.5018 65.59 60.5018 50.9961 69.503 41.9948L111.225 0.272765C111.589 -0.0909222 112.178 -0.0909214 112.542 0.272766L112.871 0.602023C121.6 9.33052 121.6 23.4822 112.871 32.2107L87.4475 57.6345Z" fill="#ED1846"/>
</svg>
