<svg width="183" height="217" viewBox="0 0 183 217" fill="none" xmlns="http://www.w3.org/2000/svg">
<rect width="183" height="217" fill="white"/>
<path d="M32 186V156.665H41.8901V178.331H55.1328V186H32Z" fill="#ED1846"/>
<path d="M57.1941 186L70.0178 156.665H79.7403L92.5639 186H82.3385L72.8675 161.359H76.7229L67.2519 186H57.1941ZM64.8213 180.887L67.3357 173.763H80.8298L83.3443 180.887H64.8213Z" fill="#ED1846"/>
<path d="M94.7709 186V179.923L111.115 160.898L112.33 164.334H95.19V156.665H121.047V162.741L104.703 181.767L103.488 178.331H121.717V186H94.7709Z" fill="#ED1846"/>
<path d="M134.228 186V173.134L136.491 179.043L123.164 156.665H133.599L142.609 171.961H136.532L145.626 156.665H155.181L141.939 179.043L144.118 173.134V186H134.228Z" fill="#ED1846"/>
<path fill-rule="evenodd" clip-rule="evenodd" d="M64.9476 82.1345C65.3113 82.4982 65.3113 83.0879 64.9476 83.4515L39.5238 108.875C30.7953 117.604 30.7953 131.756 39.5238 140.484L39.853 140.813C40.2167 141.177 40.8064 141.177 41.1701 140.813L82.8921 99.0912C91.8934 90.09 91.8934 75.4961 82.8921 66.4948L41.1701 24.7728C40.8064 24.4091 40.2167 24.4091 39.853 24.7728L39.5238 25.102C30.7953 33.8305 30.7953 47.9822 39.5238 56.7107L64.9476 82.1345ZM119.448 82.1345C119.084 82.4982 119.084 83.0879 119.448 83.4515L144.871 108.875C153.6 117.604 153.6 131.756 144.871 140.484L144.542 140.813C144.178 141.177 143.589 141.177 143.225 140.813L101.503 99.0912C92.5018 90.09 92.5018 75.4961 101.503 66.4948L143.225 24.7728C143.589 24.4091 144.178 24.4091 144.542 24.7728L144.871 25.102C153.6 33.8305 153.6 47.9822 144.871 56.7107L119.448 82.1345Z" fill="#ED1846"/>
</svg>
