<svg width="454" height="167" viewBox="0 0 454 167" fill="none" xmlns="http://www.w3.org/2000/svg">
<rect width="454" height="167" fill="white"/>
<path d="M243.618 74.7794V74.5988C243.618 68.0885 241.623 63.3873 237.819 59.5893C233.38 55.1593 226.222 52.3564 214.987 52.3564H184V115.644H205.202V97.5622H209.732L221.691 115.644H245.881L231.114 94.1277C238.814 90.4199 243.618 84.0006 243.618 74.7794ZM222.507 76.3161C222.507 80.2044 219.426 82.4635 214.352 82.4635H205.202V70.0762H214.444C219.336 70.0762 222.507 72.0665 222.507 76.1355V76.3161ZM257.107 115.644H278.306V52.3563H257.107L257.107 115.644ZM325.323 51C305.754 51 290.622 65.6463 290.622 84.0003V84.181C290.622 102.534 305.572 117 325.142 117C344.713 117 359.842 102.354 359.842 84.0005V83.8198C359.842 65.4656 344.894 51 325.323 51ZM338.462 84.181C338.462 91.5955 333.388 98.2846 325.323 98.2841C317.17 98.2841 312.004 91.5031 312.004 84.0003V83.8197C312.004 76.4063 317.079 69.7151 325.142 69.7151C333.297 69.7151 338.462 76.4966 338.462 84.0003V84.181ZM365.9 52.3564V70.2588H384.565V115.643H405.764V70.2588H424.429V52.3563L365.9 52.3564Z" fill="#ED1846"/>
<path d="M30 31.6471C30 30.7374 30.7374 30 31.6471 30L105.321 30C125.026 30 141 46.0278 141 65.7992V72.1075C141 73.0172 140.263 73.7546 139.353 73.7546H118.861C117.952 73.7546 117.214 73.0171 117.214 72.1075V65.7992C117.214 59.2087 111.89 53.8661 105.321 53.8661H55.4328C54.5231 53.8661 53.7857 54.6035 53.7857 55.5132L53.7857 135.751C53.7857 136.66 53.0459 137.404 52.1384 137.341C39.7704 136.492 30 126.157 30 113.531L30 31.6471Z" fill="#ED1846"/>
<path d="M75.2542 77.7323C74.3446 77.7323 73.6013 78.4721 73.6629 79.3796C74.5063 91.7921 84.8082 101.598 97.3929 101.598H113.25C115.439 101.598 117.214 103.379 117.214 105.576V135.751C117.214 136.66 117.954 137.404 118.862 137.341C131.23 136.492 141 126.157 141 113.531V105.576C141 90.1983 128.576 77.7323 113.25 77.7323H75.2542Z" fill="#ED1846"/>
</svg>
