<svg width="111" height="116" viewBox="0 0 111 116" fill="none" xmlns="http://www.w3.org/2000/svg">
<path d="M0 1.64706C0 0.737413 0.737411 0 1.64706 0C1.64706 0 1.64706 0 1.64706 0C1.64706 0 52.6167 0 72.3214 0C92.0262 0 108 16.0278 108 35.7992V42.1075C108 43.0172 107.263 43.7546 106.353 43.7546H85.8613C84.9517 43.7546 84.2143 43.0171 84.2143 42.1075V35.7992C84.2143 29.2087 78.8897 23.8661 72.3214 23.8661H25.4328C24.5231 23.8661 23.7857 24.6035 23.7857 25.5132V105.751C23.7857 106.66 23.0459 107.404 22.1384 107.341C9.77036 106.492 0 96.1567 0 83.5314V1.64706Z" fill="#ED1846"/>
<path d="M45.2542 47.7323C44.3446 47.7323 43.6013 48.4721 43.6629 49.3796C44.5063 61.7921 54.8082 71.5984 67.3929 71.5984H83.25C85.4394 71.5984 87.2143 73.3792 87.2143 75.5761V105.751C87.2143 106.66 87.9541 107.404 88.8616 107.341C101.23 106.492 111 96.1567 111 83.5314V75.5761C111 60.1983 98.5759 47.7323 83.25 47.7323H45.2542Z" fill="#ED1846"/>
</svg>
