<svg xmlns="http://www.w3.org/2000/svg" viewBox="0 0 320 320"><defs><style>.rectangle{fill:#ed1846;}.text{fill:#fff;}</style></defs><title>Riot Icon</title><rect class="rectangle" x="5" y="5" width="310" height="310" rx="10" ry="10"/><path class="text" d="M105.1337,151.6063v-.18c0-6.4989-1.9867-11.1914-5.7759-14.9826-4.422-4.422-11.5518-7.22-22.7431-7.22H45.7488v63.1736h21.119V174.3483H71.38l11.9123,18.0491h24.0964L92.6786,170.92C100.3491,167.2188,105.1337,160.811,105.1337,151.6063ZM84.1054,153.14c0,3.8813-3.0685,6.1364-8.1231,6.1364H66.8678v-12.365h9.2066c4.8727,0,8.031,1.9867,8.031,6.0483Zm34.4653,39.2569h21.117V129.2234h-21.117ZM186.52,127.8695c-19.4927,0-34.5653,14.62-34.5653,32.9412v.18c0,18.32,14.8923,32.76,34.3851,32.76,19.4947,0,34.5654-14.62,34.5654-32.94v-.18C220.9051,142.3092,206.0146,127.8695,186.52,127.8695Zm13.088,33.1215c0,7.4013-5.0549,14.0784-13.0879,14.0778-8.1212,0-13.2662-6.7688-13.2662-14.2581v-.18c0-7.4,5.0548-14.0793,13.0859-14.0793,8.1231,0,13.2682,6.7692,13.2682,14.26Zm27.3315-31.7675v17.87h18.5915v45.3032h21.1169V147.0939h18.5914v-17.87Z"/></svg>
