<svg xmlns="http://www.w3.org/2000/svg" viewBox="0 0 320 160"><defs><style>.rectangle{fill:#ed1846;}.text{fill:#fff;}</style></defs><title>Riot Logo</title><rect class="rectangle" x="5" y="5" width="310" height="149.5256" rx="8.9465" ry="8.9465"/><path class="text" d="M62.018,53.2512h26.93c9.7643,0,15.9849,2.4411,19.8431,6.2993,3.306,3.3078,5.0394,7.4019,5.0394,13.0721V72.78c0,8.0309-4.1745,13.6216-10.8669,16.8508l12.8344,18.7388H94.7742L84.3809,92.622H80.444v15.7473H62.018Zm26.3783,26.221c4.41,0,7.0873-1.9675,7.0873-5.3539V73.961c0-3.5437-2.7556-5.2771-7.007-5.2771H80.444V79.4722Z"/><path class="text" d="M125.5541,53.2512h18.4243v55.1182H125.5541Z"/><path class="text" d="M154.681,80.9679v-.1573c0-15.9849,13.1507-28.7407,30.1578-28.7407,17.0089,0,30.0006,12.5985,30.0006,28.5835v.1573c0,15.9841-13.149,28.74-30.1578,28.74C167.6744,109.5506,154.681,96.952,154.681,80.9679Zm41.5769,0v-.1573c0-6.5352-4.489-12.4413-11.5763-12.4413-7.007,0-11.4173,5.8275-11.4173,12.284v.1573c0,6.5343,4.489,12.44,11.5746,12.44C191.8476,93.2511,196.2579,87.4254,196.2579,80.9679Z"/><path class="text" d="M236.3251,68.8429H220.1043V53.2512H270.97V68.8429H254.7493v39.5264H236.3251Z"/></svg>
