<svg width="171" height="217" viewBox="0 0 171 217" fill="none" xmlns="http://www.w3.org/2000/svg">
<path d="M0 0H171V217H0V0Z" fill="white"/>
<path d="M57.524 167.214V167.13C57.524 164.125 56.6031 161.954 54.8469 160.201C52.7974 158.156 49.4928 156.861 44.3058 156.861H30V186.08H39.7883V177.732H41.8797L47.4008 186.08H58.5691L51.7512 176.146C55.3064 174.434 57.524 171.471 57.524 167.214ZM47.7777 167.923C47.7777 169.718 46.3555 170.761 44.0127 170.761H39.7883V165.042H44.0554C46.3138 165.042 47.7777 165.961 47.7777 167.84V167.923ZM63.7515 186.08H73.5389V156.861H63.7518L63.7515 186.08ZM95.2452 156.235C86.2106 156.235 79.2247 162.997 79.2247 171.471V171.554C79.2247 180.027 86.127 186.706 95.1616 186.706C104.197 186.706 111.182 179.944 111.182 171.471V171.387C111.182 162.914 104.281 156.235 95.2452 156.235ZM101.311 171.554C101.311 174.977 98.9686 178.065 95.2452 178.065C91.4812 178.065 89.0965 174.935 89.0965 171.471V171.387C89.0965 167.965 91.4392 164.876 95.1617 164.876C98.9266 164.876 101.311 168.006 101.311 171.471V171.554ZM113.979 156.861V165.127H122.596V186.08H132.383V165.127H141V156.861L113.979 156.861Z" fill="#ED1846"/>
<path d="M30 31.6471C30 30.7374 30.7374 30 31.6471 30C31.6471 30 31.6471 30 31.6471 30C31.6471 30 82.6167 30 102.321 30C122.026 30 138 46.0278 138 65.7992V72.1075C138 73.0172 137.263 73.7546 136.353 73.7546H115.861C114.952 73.7546 114.214 73.0171 114.214 72.1075V65.7992C114.214 59.2087 108.89 53.8661 102.321 53.8661H55.4328C54.5231 53.8661 53.7857 54.6035 53.7857 55.5132V135.751C53.7857 136.66 53.0459 137.404 52.1384 137.341C39.7704 136.492 30 126.157 30 113.531V31.6471Z" fill="#ED1846"/>
<path d="M75.2542 77.7323C74.3446 77.7323 73.6013 78.4721 73.6629 79.3796C74.5063 91.7921 84.8082 101.598 97.3929 101.598H113.25C115.439 101.598 117.214 103.379 117.214 105.576V135.751C117.214 136.66 117.954 137.404 118.862 137.341C131.23 136.492 141 126.157 141 113.531V105.576C141 90.1983 128.576 77.7323 113.25 77.7323H75.2542Z" fill="#ED1846"/>
</svg>
