<svg width="171" height="217" viewBox="0 0 171 217" fill="none" xmlns="http://www.w3.org/2000/svg">
<path d="M57.524 167.214V167.13C57.524 164.125 56.6031 161.954 54.8469 160.201C52.7974 158.156 49.4928 156.861 44.3058 156.861H30V186.08H39.7883V177.732H41.8797L47.4008 186.08H58.5691L51.7512 176.146C55.3064 174.434 57.524 171.471 57.524 167.214ZM47.7777 167.923C47.7777 169.718 46.3555 170.761 44.0127 170.761H39.7883V165.042H44.0554C46.3138 165.042 47.7777 165.961 47.7777 167.84V167.923ZM63.7515 186.08H73.5389V156.861H63.7518L63.7515 186.08ZM95.2452 156.235C86.2106 156.235 79.2247 162.997 79.2247 171.471V171.554C79.2247 180.027 86.127 186.706 95.1616 186.706C104.197 186.706 111.182 179.944 111.182 171.471V171.387C111.182 162.914 104.281 156.235 95.2452 156.235ZM101.311 171.554C101.311 174.977 98.9686 178.065 95.2452 178.065C91.4812 178.065 89.0965 174.935 89.0965 171.471V171.387C89.0965 167.965 91.4392 164.876 95.1617 164.876C98.9266 164.876 101.311 168.006 101.311 171.471V171.554ZM113.979 156.861V165.127H122.596V186.08H132.383V165.127H141V156.861L113.979 156.861Z" fill="#ED1846"/>
<path d="M30 31.0034C30 30.4492 30.4477 30 31 30L105.321 30C125.026 30 140 46.0278 140 65.7992V69.7512C140 71.9603 138.209 73.7512 136 73.7512H119.214C118.11 73.7512 117.214 72.8573 117.214 71.7528C117.214 69.6623 117.214 66.5781 117.214 65.7992C117.214 59.2087 111.89 53.8661 105.321 53.8661H54.7857C54.2334 53.8661 53.7857 54.3154 53.7857 54.8695L53.7857 136.394C53.7857 136.948 53.3367 137.4 52.7849 137.377C40.1126 136.851 30 126.376 30 113.531L30 31.0034Z" fill="#ED1846"/>
<path d="M74.6071 77.7323C74.0549 77.7323 73.605 78.1828 73.6278 78.7365C74.1524 91.4516 84.5916 101.598 97.3928 101.598H113.25C115.439 101.598 117.214 103.379 117.214 105.576V136.394C117.214 136.948 117.663 137.4 118.215 137.377C130.887 136.851 141 126.376 141 113.531V105.576C141 90.1984 128.576 77.7323 113.25 77.7323H74.6071Z" fill="#ED1846"/>
</svg>
