<svg width="305" height="31" viewBox="0 0 305 31" fill="none" xmlns="http://www.w3.org/2000/svg">
<path d="M19.865 0.670528H29.7553V30.0062H19.865V0.670528ZM10.729 30.0062H0.838745V0.670528H10.729V30.0062ZM20.5355 19.1939H10.0585V11.0637H20.5355V19.1939Z" fill="#ED1846"/>
<path d="M50.32 30.6767C47.9452 30.6767 45.7381 30.2995 43.6986 29.5452C41.687 28.7908 39.9408 27.7292 38.4601 26.3602C36.9793 24.9632 35.8199 23.3288 34.9817 21.4569C34.1715 19.585 33.7664 17.5455 33.7664 15.3383C33.7664 13.1032 34.1715 11.0637 34.9817 9.21977C35.8199 7.34788 36.9793 5.72743 38.4601 4.35844C39.9408 2.9615 41.687 1.88586 43.6986 1.13152C45.7381 0.377173 47.9452 0 50.32 0C52.7228 0 54.9299 0.377173 56.9415 1.13152C58.9531 1.88586 60.6993 2.9615 62.18 4.35844C63.6608 5.72743 64.8062 7.34788 65.6165 9.21977C66.4546 11.0637 66.8737 13.1032 66.8737 15.3383C66.8737 17.5455 66.4546 19.585 65.6165 21.4569C64.8062 23.3288 63.6608 24.9632 62.18 26.3602C60.6993 27.7292 58.9531 28.7908 56.9415 29.5452C54.9299 30.2995 52.7228 30.6767 50.32 30.6767ZM50.32 22.6723C51.242 22.6723 52.0941 22.5046 52.8764 22.1694C53.6866 21.8341 54.3851 21.3591 54.9718 20.7445C55.5865 20.1019 56.0614 19.3336 56.3967 18.4395C56.732 17.5176 56.8996 16.4838 56.8996 15.3383C56.8996 14.1929 56.732 13.1731 56.3967 12.2791C56.0614 11.3571 55.5865 10.5888 54.9718 9.97412C54.3851 9.33152 53.6866 8.8426 52.8764 8.50733C52.0941 8.17207 51.242 8.00444 50.32 8.00444C49.3981 8.00444 48.532 8.17207 47.7217 8.50733C46.9394 8.8426 46.241 9.33152 45.6263 9.97412C45.0396 10.5888 44.5786 11.3571 44.2434 12.2791C43.9081 13.1731 43.7405 14.1929 43.7405 15.3383C43.7405 16.4838 43.9081 17.5176 44.2434 18.4395C44.5786 19.3336 45.0396 20.1019 45.6263 20.7445C46.241 21.3591 46.9394 21.8341 47.7217 22.1694C48.532 22.5046 49.3981 22.6723 50.32 22.6723Z" fill="#ED1846"/>
<path d="M76.8334 30.0062V8.3397H68.2423V0.670528H95.3149V8.3397H86.7237V30.0062H76.8334Z" fill="#ED1846"/>
<path d="M97.3792 21.4569V14.3326H109.952V21.4569H97.3792Z" fill="#ED1846"/>
<path d="M115.888 30.0062V0.670528H130.011C132.749 0.670528 135.11 1.11755 137.093 2.01158C139.105 2.90562 140.655 4.1908 141.745 5.86713C142.835 7.51551 143.379 9.47122 143.379 11.7343C143.379 13.9973 142.835 15.953 141.745 17.6014C140.655 19.2218 139.105 20.4651 137.093 21.3312C135.11 22.1973 132.749 22.6303 130.011 22.6303H121.378L125.778 18.5653V30.0062H115.888ZM133.447 30.0062L126.239 19.3196H136.716L144.008 30.0062H133.447ZM125.778 19.6549L121.378 15.1707H129.382C130.751 15.1707 131.757 14.8634 132.4 14.2487C133.07 13.6341 133.405 12.7959 133.405 11.7343C133.405 10.6726 133.07 9.83442 132.4 9.21977C131.757 8.60512 130.751 8.29779 129.382 8.29779H121.378L125.778 3.81363V19.6549Z" fill="#ED1846"/>
<path d="M157.843 11.5666H170.918V18.691H157.843V11.5666ZM158.513 22.5465H173.181V30.0062H148.791V0.670528H172.636V8.13016H158.513V22.5465Z" fill="#ED1846"/>
<path d="M178.665 30.0062V0.670528H188.555V22.337H201.798V30.0062H178.665Z" fill="#ED1846"/>
<path d="M219.91 30.6767C217.535 30.6767 215.328 30.2995 213.289 29.5452C211.277 28.7908 209.531 27.7292 208.05 26.3602C206.569 24.9632 205.41 23.3288 204.572 21.4569C203.762 19.585 203.356 17.5455 203.356 15.3383C203.356 13.1032 203.762 11.0637 204.572 9.21977C205.41 7.34788 206.569 5.72743 208.05 4.35844C209.531 2.9615 211.277 1.88586 213.289 1.13152C215.328 0.377173 217.535 0 219.91 0C222.313 0 224.52 0.377173 226.532 1.13152C228.543 1.88586 230.289 2.9615 231.77 4.35844C233.251 5.72743 234.396 7.34788 235.207 9.21977C236.045 11.0637 236.464 13.1032 236.464 15.3383C236.464 17.5455 236.045 19.585 235.207 21.4569C234.396 23.3288 233.251 24.9632 231.77 26.3602C230.289 27.7292 228.543 28.7908 226.532 29.5452C224.52 30.2995 222.313 30.6767 219.91 30.6767ZM219.91 22.6723C220.832 22.6723 221.684 22.5046 222.466 22.1694C223.277 21.8341 223.975 21.3591 224.562 20.7445C225.177 20.1019 225.651 19.3336 225.987 18.4395C226.322 17.5176 226.49 16.4838 226.49 15.3383C226.49 14.1929 226.322 13.1731 225.987 12.2791C225.651 11.3571 225.177 10.5888 224.562 9.97412C223.975 9.33152 223.277 8.8426 222.466 8.50733C221.684 8.17207 220.832 8.00444 219.91 8.00444C218.988 8.00444 218.122 8.17207 217.312 8.50733C216.529 8.8426 215.831 9.33152 215.216 9.97412C214.63 10.5888 214.169 11.3571 213.833 12.2791C213.498 13.1731 213.331 14.1929 213.331 15.3383C213.331 16.4838 213.498 17.5176 213.833 18.4395C214.169 19.3336 214.63 20.1019 215.216 20.7445C215.831 21.3591 216.529 21.8341 217.312 22.1694C218.122 22.5046 218.988 22.6723 219.91 22.6723Z" fill="#ED1846"/>
<path d="M235.611 30.0062L248.435 0.670528H258.158L270.982 30.0062H260.756L251.285 5.36423H255.14L245.669 30.0062H235.611ZM243.238 24.8934L245.753 17.769H259.247L261.762 24.8934H243.238Z" fill="#ED1846"/>
<path d="M273.817 30.0062V0.670528H288.276C291.544 0.670528 294.422 1.27121 296.909 2.47258C299.395 3.646 301.337 5.32232 302.734 7.50154C304.131 9.68076 304.829 12.2791 304.829 15.2964C304.829 18.3418 304.131 20.968 302.734 23.1751C301.337 25.3544 299.395 27.0447 296.909 28.246C294.422 29.4194 291.544 30.0062 288.276 30.0062H273.817ZM283.708 22.2951H287.856C289.253 22.2951 290.469 22.0297 291.502 21.4988C292.564 20.968 293.388 20.1857 293.975 19.152C294.562 18.0903 294.855 16.8051 294.855 15.2964C294.855 13.8157 294.562 12.5584 293.975 11.5247C293.388 10.491 292.564 9.7087 291.502 9.17786C290.469 8.64703 289.253 8.38161 287.856 8.38161H283.708V22.2951Z" fill="#ED1846"/>
</svg>
