<svg width="140" height="113" viewBox="0 0 140 113" fill="none" xmlns="http://www.w3.org/2000/svg">
<path d="M122.216 35.6576C122.58 35.2939 123.169 35.2939 123.533 35.6576L139.008 51.1327C139.372 51.4963 139.372 52.086 139.008 52.4497L86.2023 105.255C77.1789 114.279 62.5492 114.279 53.5258 105.255C53.2751 105.005 53.2751 104.598 53.5258 104.348L88.3895 69.484C88.9762 68.8973 88.5607 67.8942 87.731 67.8942H26.3337C26.0867 67.8942 25.8498 67.9923 25.6752 68.1669L17.4769 76.3653C17.1132 76.729 16.5235 76.729 16.1598 76.3653L0.684752 60.8902C0.321065 60.5265 0.321066 59.9369 0.684752 59.5732L53.4904 6.76753C62.5138 -2.25584 77.1436 -2.25584 86.1669 6.76752C86.4176 7.01817 86.4176 7.42456 86.1669 7.67521L51.2712 42.5709C50.6845 43.1576 51.1 44.1607 51.9297 44.1607H113.327C113.574 44.1607 113.811 44.0626 113.986 43.888L122.216 35.6576Z" fill="#ED1846"/>
</svg>
