<svg width="873" height="167" viewBox="0 0 873 167" fill="none" xmlns="http://www.w3.org/2000/svg">
<rect width="872" height="167" transform="translate(0.00292969)" fill="white"/>
<path d="M224.209 51.7441H245.666V115.388H224.209V51.7441ZM204.389 115.388H182.932V51.7441H204.389V115.388ZM225.664 91.9305H202.934V74.2921H225.664V91.9305Z" fill="#ED1846"/>
<path d="M290.281 116.842C285.129 116.842 280.341 116.024 275.916 114.388C271.552 112.751 267.764 110.448 264.551 107.478C261.339 104.447 258.823 100.901 257.005 96.8401C255.247 92.7791 254.368 88.3543 254.368 83.5659C254.368 78.7169 255.247 74.2921 257.005 70.2917C258.823 66.2306 261.339 62.7151 264.551 59.745C267.764 56.7144 271.552 54.3808 275.916 52.7443C280.341 51.1077 285.129 50.2894 290.281 50.2894C295.494 50.2894 300.282 51.1077 304.647 52.7443C309.011 54.3808 312.799 56.7144 316.011 59.745C319.224 62.7151 321.709 66.2306 323.467 70.2917C325.285 74.2921 326.194 78.7169 326.194 83.5659C326.194 88.3543 325.285 92.7791 323.467 96.8401C321.709 100.901 319.224 104.447 316.011 107.478C312.799 110.448 309.011 112.751 304.647 114.388C300.282 116.024 295.494 116.842 290.281 116.842ZM290.281 99.4768C292.282 99.4768 294.13 99.1131 295.827 98.3858C297.585 97.6584 299.101 96.628 300.373 95.2945C301.707 93.9004 302.737 92.2335 303.465 90.2939C304.192 88.2937 304.556 86.051 304.556 83.5659C304.556 81.0808 304.192 78.8684 303.465 76.9288C302.737 74.9286 301.707 73.2617 300.373 71.9282C299.101 70.5341 297.585 69.4734 295.827 68.7461C294.13 68.0187 292.282 67.655 290.281 67.655C288.281 67.655 286.402 68.0187 284.644 68.7461C282.947 69.4734 281.432 70.5341 280.098 71.9282C278.825 73.2617 277.825 74.9286 277.098 76.9288C276.371 78.8684 276.007 81.0808 276.007 83.5659C276.007 86.051 276.371 88.2937 277.098 90.2939C277.825 92.2335 278.825 93.9004 280.098 95.2945C281.432 96.628 282.947 97.6584 284.644 98.3858C286.402 99.1131 288.281 99.4768 290.281 99.4768Z" fill="#ED1846"/>
<path d="M347.802 115.388V68.3824H329.164V51.7441H387.897V68.3824H369.259V115.388H347.802Z" fill="#ED1846"/>
<path d="M392.376 96.8401V81.3838H419.652V96.8401H392.376Z" fill="#ED1846"/>
<path d="M432.53 115.388V51.7441H463.17C469.11 51.7441 474.232 52.7139 478.535 54.6536C482.9 56.5932 486.264 59.3814 488.628 63.0181C490.991 66.5943 492.173 70.8372 492.173 75.7468C492.173 80.6565 490.991 84.8994 488.628 88.4755C486.264 91.9911 482.9 94.6884 478.535 96.5674C474.232 98.4464 469.11 99.3859 463.17 99.3859H444.441L453.987 90.5667V115.388H432.53ZM470.625 115.388L454.987 92.2032H477.717L493.537 115.388H470.625ZM453.987 92.9306L444.441 83.2022H461.806C464.776 83.2022 466.958 82.5355 468.352 81.202C469.807 79.8685 470.535 78.0501 470.535 75.7468C470.535 73.4435 469.807 71.6252 468.352 70.2917C466.958 68.9582 464.776 68.2915 461.806 68.2915H444.441L453.987 58.5631V92.9306Z" fill="#ED1846"/>
<path d="M523.551 75.3832H551.918V90.8394H523.551V75.3832ZM525.006 99.204H556.828V115.388H503.913V51.7441H555.646V67.9278H525.006V99.204Z" fill="#ED1846"/>
<path d="M568.725 115.388V51.7441H590.182V98.7494H618.912V115.388H568.725Z" fill="#ED1846"/>
<path d="M658.206 116.842C653.054 116.842 648.266 116.024 643.841 114.388C639.477 112.751 635.689 110.448 632.476 107.478C629.264 104.447 626.748 100.901 624.93 96.8401C623.172 92.7791 622.293 88.3543 622.293 83.5659C622.293 78.7169 623.172 74.2921 624.93 70.2917C626.748 66.2306 629.264 62.7151 632.476 59.745C635.689 56.7144 639.477 54.3808 643.841 52.7443C648.266 51.1077 653.054 50.2894 658.206 50.2894C663.419 50.2894 668.207 51.1077 672.571 52.7443C676.936 54.3808 680.724 56.7144 683.936 59.745C687.149 62.7151 689.634 66.2306 691.392 70.2917C693.21 74.2921 694.119 78.7169 694.119 83.5659C694.119 88.3543 693.21 92.7791 691.392 96.8401C689.634 100.901 687.149 104.447 683.936 107.478C680.724 110.448 676.936 112.751 672.571 114.388C668.207 116.024 663.419 116.842 658.206 116.842ZM658.206 99.4768C660.206 99.4768 662.055 99.1131 663.752 98.3858C665.51 97.6584 667.025 96.628 668.298 95.2945C669.632 93.9004 670.662 92.2335 671.39 90.2939C672.117 88.2937 672.481 86.051 672.481 83.5659C672.481 81.0808 672.117 78.8684 671.39 76.9288C670.662 74.9286 669.632 73.2617 668.298 71.9282C667.025 70.5341 665.51 69.4734 663.752 68.7461C662.055 68.0187 660.206 67.655 658.206 67.655C656.206 67.655 654.327 68.0187 652.569 68.7461C650.872 69.4734 649.357 70.5341 648.023 71.9282C646.75 73.2617 645.75 74.9286 645.023 76.9288C644.296 78.8684 643.932 81.0808 643.932 83.5659C643.932 86.051 644.296 88.2937 645.023 90.2939C645.75 92.2335 646.75 93.9004 648.023 95.2945C649.357 96.628 650.872 97.6584 652.569 98.3858C654.327 99.1131 656.206 99.4768 658.206 99.4768Z" fill="#ED1846"/>
<path d="M692.27 115.388L720.091 51.7441H741.184L769.006 115.388H746.821L726.274 61.9271H734.638L714.09 115.388H692.27ZM708.817 104.296L714.272 88.8392H743.548L749.003 104.296H708.817Z" fill="#ED1846"/>
<path d="M775.158 115.388V51.7441H806.525C813.616 51.7441 819.86 53.0473 825.254 55.6537C830.649 58.1994 834.861 61.8362 837.892 66.564C840.923 71.2918 842.438 76.9288 842.438 83.475C842.438 90.0818 840.923 95.7794 837.892 100.568C834.861 105.296 830.649 108.963 825.254 111.569C819.86 114.115 813.616 115.388 806.525 115.388H775.158ZM796.615 98.6585H805.616C808.646 98.6585 811.283 98.0827 813.526 96.931C815.829 95.7794 817.617 94.0822 818.89 91.8396C820.163 89.5363 820.799 86.7481 820.799 83.475C820.799 80.2625 820.163 77.5349 818.89 75.2922C817.617 73.0496 815.829 71.3524 813.526 70.2008C811.283 69.0491 808.646 68.4733 805.616 68.4733H796.615V98.6585Z" fill="#ED1846"/>
<path d="M136.174 63.1308C136.538 62.7671 137.127 62.7671 137.491 63.1308L152.966 78.606C153.33 78.9697 153.33 79.5593 152.966 79.923L100.16 132.729C91.1367 141.753 76.5068 141.753 67.4834 132.729C67.2327 132.478 67.2327 132.072 67.4834 131.821L102.347 96.9574C102.934 96.3707 102.519 95.3676 101.689 95.3676H40.2911C40.0441 95.3676 39.8072 95.4657 39.6326 95.6404L31.4341 103.839C31.0705 104.202 30.4808 104.202 30.1171 103.839L14.6419 88.3636C14.2782 87.9999 14.2782 87.4103 14.6419 87.0466L67.448 34.2405C76.4714 25.217 91.1013 25.217 100.125 34.2405C100.375 34.4911 100.375 34.8975 100.125 35.1482L65.2288 70.0442C64.6421 70.6309 65.0576 71.634 65.8873 71.634H127.285C127.532 71.634 127.769 71.5359 127.944 71.3612L136.174 63.1308Z" fill="#ED1846"/>
</svg>
