<svg width="364" height="217" viewBox="0 0 364 217" fill="none" xmlns="http://www.w3.org/2000/svg">
<path d="M49.0263 156.677H58.9166V186.012H49.0263V156.677ZM39.8903 186.012H30V156.677H39.8903V186.012ZM49.6968 175.2H39.2198V167.07H49.6968V175.2Z" fill="#ED1846"/>
<path d="M79.4813 186.683C77.1065 186.683 74.8993 186.306 72.8598 185.551C70.8482 184.797 69.1021 183.735 67.6213 182.366C66.1406 180.969 64.9811 179.335 64.1429 177.463C63.3327 175.591 62.9276 173.552 62.9276 171.345C62.9276 169.109 63.3327 167.07 64.1429 165.226C64.9811 163.354 66.1406 161.734 67.6213 160.365C69.1021 158.968 70.8482 157.892 72.8598 157.138C74.8993 156.383 77.1065 156.006 79.4813 156.006C81.884 156.006 84.0912 156.383 86.1028 157.138C88.1143 157.892 89.8605 158.968 91.3413 160.365C92.822 161.734 93.9675 163.354 94.7777 165.226C95.6159 167.07 96.035 169.109 96.035 171.345C96.035 173.552 95.6159 175.591 94.7777 177.463C93.9675 179.335 92.822 180.969 91.3413 182.366C89.8605 183.735 88.1143 184.797 86.1028 185.551C84.0912 186.306 81.884 186.683 79.4813 186.683ZM79.4813 178.678C80.4033 178.678 81.2554 178.511 82.0377 178.176C82.8479 177.84 83.5464 177.365 84.1331 176.751C84.7477 176.108 85.2227 175.34 85.558 174.446C85.8932 173.524 86.0609 172.49 86.0609 171.345C86.0609 170.199 85.8932 169.179 85.558 168.285C85.2227 167.363 84.7477 166.595 84.1331 165.98C83.5464 165.338 82.8479 164.849 82.0377 164.514C81.2554 164.178 80.4033 164.011 79.4813 164.011C78.5593 164.011 77.6932 164.178 76.883 164.514C76.1007 164.849 75.4022 165.338 74.7876 165.98C74.2009 166.595 73.7399 167.363 73.4046 168.285C73.0694 169.179 72.9017 170.199 72.9017 171.345C72.9017 172.49 73.0694 173.524 73.4046 174.446C73.7399 175.34 74.2009 176.108 74.7876 176.751C75.4022 177.365 76.1007 177.84 76.883 178.176C77.6932 178.511 78.5593 178.678 79.4813 178.678Z" fill="#ED1846"/>
<path d="M105.995 186.012V164.346H97.4035V156.677H124.476V164.346H115.885V186.012H105.995Z" fill="#ED1846"/>
<path d="M126.54 177.463V170.339H139.113V177.463H126.54Z" fill="#ED1846"/>
<path d="M145.049 186.012V156.677H159.172C161.91 156.677 164.271 157.124 166.255 158.018C168.266 158.912 169.817 160.197 170.906 161.873C171.996 163.522 172.541 165.477 172.541 167.74C172.541 170.004 171.996 171.959 170.906 173.608C169.817 175.228 168.266 176.471 166.255 177.337C164.271 178.204 161.91 178.637 159.172 178.637H150.539L154.939 174.571V186.012H145.049ZM162.609 186.012L155.4 175.326H165.877L173.169 186.012H162.609ZM154.939 175.661L150.539 171.177H158.543C159.912 171.177 160.918 170.87 161.561 170.255C162.231 169.64 162.567 168.802 162.567 167.74C162.567 166.679 162.231 165.841 161.561 165.226C160.918 164.611 159.912 164.304 158.543 164.304H150.539L154.939 159.82V175.661Z" fill="#ED1846"/>
<path d="M187.004 167.573H200.079V174.697H187.004V167.573ZM187.674 178.553H202.342V186.012H177.952V156.677H201.797V164.136H187.674V178.553Z" fill="#ED1846"/>
<path d="M207.826 186.012V156.677H217.716V178.343H230.959V186.012H207.826Z" fill="#ED1846"/>
<path d="M249.071 186.683C246.697 186.683 244.489 186.306 242.45 185.551C240.438 184.797 238.692 183.735 237.211 182.366C235.731 180.969 234.571 179.335 233.733 177.463C232.923 175.591 232.518 173.552 232.518 171.345C232.518 169.109 232.923 167.07 233.733 165.226C234.571 163.354 235.731 161.734 237.211 160.365C238.692 158.968 240.438 157.892 242.45 157.138C244.489 156.383 246.697 156.006 249.071 156.006C251.474 156.006 253.681 156.383 255.693 157.138C257.704 157.892 259.451 158.968 260.931 160.365C262.412 161.734 263.558 163.354 264.368 165.226C265.206 167.07 265.625 169.109 265.625 171.345C265.625 173.552 265.206 175.591 264.368 177.463C263.558 179.335 262.412 180.969 260.931 182.366C259.451 183.735 257.704 184.797 255.693 185.551C253.681 186.306 251.474 186.683 249.071 186.683ZM249.071 178.678C249.993 178.678 250.845 178.511 251.628 178.176C252.438 177.84 253.136 177.365 253.723 176.751C254.338 176.108 254.813 175.34 255.148 174.446C255.483 173.524 255.651 172.49 255.651 171.345C255.651 170.199 255.483 169.179 255.148 168.285C254.813 167.363 254.338 166.595 253.723 165.98C253.136 165.338 252.438 164.849 251.628 164.514C250.845 164.178 249.993 164.011 249.071 164.011C248.149 164.011 247.283 164.178 246.473 164.514C245.691 164.849 244.992 165.338 244.378 165.98C243.791 166.595 243.33 167.363 242.995 168.285C242.659 169.179 242.492 170.199 242.492 171.345C242.492 172.49 242.659 173.524 242.995 174.446C243.33 175.34 243.791 176.108 244.378 176.751C244.992 177.365 245.691 177.84 246.473 178.176C247.283 178.511 248.149 178.678 249.071 178.678Z" fill="#ED1846"/>
<path d="M264.772 186.012L277.596 156.677H287.319L300.143 186.012H289.917L280.446 161.37H284.302L274.83 186.012H264.772ZM272.4 180.9L274.914 173.775H288.409L290.923 180.9H272.4Z" fill="#ED1846"/>
<path d="M302.979 186.012V156.677H317.437C320.706 156.677 323.583 157.277 326.07 158.479C328.556 159.652 330.498 161.329 331.895 163.508C333.292 165.687 333.99 168.285 333.99 171.303C333.99 174.348 333.292 176.974 331.895 179.181C330.498 181.361 328.556 183.051 326.07 184.252C323.583 185.426 320.706 186.012 317.437 186.012H302.979ZM312.869 178.301H317.018C318.415 178.301 319.63 178.036 320.664 177.505C321.725 176.974 322.55 176.192 323.136 175.158C323.723 174.097 324.016 172.811 324.016 171.303C324.016 169.822 323.723 168.565 323.136 167.531C322.55 166.497 321.725 165.715 320.664 165.184C319.63 164.653 318.415 164.388 317.018 164.388H312.869V178.301Z" fill="#ED1846"/>
<path d="M236.174 62.4784C235.855 62.159 235.337 62.159 235.018 62.4784L226.719 70.7772C226.544 70.9516 226.308 71.0495 226.061 71.0495H164.746C163.918 71.0495 163.503 70.0478 164.088 69.4619L198.812 34.7377C199.132 34.4183 199.132 33.9005 198.812 33.5811C189.87 24.639 175.372 24.639 166.43 33.5811L129.103 70.9076C120.161 79.8499 120.161 94.3483 129.103 103.291C129.423 103.61 129.94 103.61 130.26 103.291L138.526 95.0238C138.701 94.8494 138.937 94.7514 139.184 94.7514H200.5C201.328 94.7514 201.743 95.7532 201.157 96.339L166.465 131.031C166.146 131.351 166.146 131.868 166.465 132.188C175.407 141.13 189.906 141.13 198.848 132.188L236.174 94.8613C245.117 85.919 245.117 71.4207 236.174 62.4784Z" fill="#ED1846"/>
</svg>
