<svg width="121" height="113" viewBox="0 0 121 113" fill="none" xmlns="http://www.w3.org/2000/svg">
<path d="M114.174 36.1019C113.855 35.7825 113.337 35.7825 113.018 36.1019L104.719 44.4007C104.544 44.5751 104.308 44.6731 104.061 44.6731H42.746C41.9177 44.6731 41.5026 43.6713 42.0884 43.0855L76.8122 8.36121C77.1319 8.04185 77.1319 7.52404 76.8122 7.20468C67.8702 -1.7375 53.3719 -1.7375 44.4299 7.20468L7.10304 44.5312C-1.83903 53.4735 -1.83903 67.9718 7.10304 76.9141C7.42274 77.2335 7.94043 77.2335 8.25968 76.9141L16.5265 68.6473C16.7009 68.4729 16.9375 68.3749 17.184 68.3749H78.4997C79.3281 68.3749 79.7431 69.3767 79.1573 69.9625L44.4648 104.655C44.1456 104.974 44.1456 105.492 44.4648 105.811C53.4074 114.754 67.9056 114.754 76.8476 105.811L114.174 68.4848C123.117 59.5425 123.117 45.0442 114.174 36.1019Z" fill="#ED1846"/>
</svg>
