<svg width="462" height="395" viewBox="0 0 462 395" fill="none" xmlns="http://www.w3.org/2000/svg">
<rect width="462" height="395" fill="white"/>
<path d="M146.609 323.17H142.979V326.69H139.019V323.17H135.389V319.43H139.019V315.91H142.979V319.43H146.609V323.17Z" fill="#B7B7B7"/>
<path d="M232.609 323.17H228.979V326.69H225.019V323.17H221.389V319.43H225.019V315.91H228.979V319.43H232.609V323.17Z" fill="#B7B7B7"/>
<path d="M307.389 316.57H318.609V320.31H307.389V316.57ZM307.389 322.29H318.609V326.03H307.389V322.29Z" fill="#B7B7B7"/>
<path d="M152.07 362L156.578 352.2H157.292L161.8 362H161.03L156.774 352.648H157.082L152.84 362H152.07ZM153.722 359.242L153.96 358.64H159.826L160.064 359.242H153.722ZM166.925 354.636C167.522 354.636 168.04 354.753 168.479 354.986C168.927 355.21 169.272 355.555 169.515 356.022C169.767 356.479 169.893 357.049 169.893 357.73V362H169.193V357.786C169.193 356.965 168.983 356.339 168.563 355.91C168.152 355.481 167.574 355.266 166.827 355.266C166.258 355.266 165.763 355.383 165.343 355.616C164.923 355.849 164.601 356.176 164.377 356.596C164.162 357.016 164.055 357.52 164.055 358.108V362H163.355V354.692H164.027V356.722L163.929 356.498C164.153 355.919 164.522 355.467 165.035 355.14C165.548 354.804 166.178 354.636 166.925 354.636ZM172.775 362V354.692H173.475V362H172.775ZM173.125 352.914C172.966 352.914 172.831 352.858 172.719 352.746C172.607 352.634 172.551 352.503 172.551 352.354C172.551 352.195 172.607 352.06 172.719 351.948C172.831 351.836 172.966 351.78 173.125 351.78C173.293 351.78 173.428 351.836 173.531 351.948C173.643 352.051 173.699 352.181 173.699 352.34C173.699 352.499 173.643 352.634 173.531 352.746C173.428 352.858 173.293 352.914 173.125 352.914ZM185.525 354.636C186.113 354.636 186.622 354.753 187.051 354.986C187.49 355.21 187.831 355.555 188.073 356.022C188.316 356.479 188.437 357.049 188.437 357.73V362H187.737V357.786C187.737 356.965 187.537 356.339 187.135 355.91C186.734 355.481 186.174 355.266 185.455 355.266C184.905 355.266 184.429 355.383 184.027 355.616C183.626 355.849 183.318 356.176 183.103 356.596C182.889 357.016 182.781 357.52 182.781 358.108V362H182.081V357.786C182.081 356.965 181.881 356.339 181.479 355.91C181.078 355.481 180.518 355.266 179.799 355.266C179.249 355.266 178.773 355.383 178.371 355.616C177.97 355.849 177.662 356.176 177.447 356.596C177.233 357.016 177.125 357.52 177.125 358.108V362H176.425V354.692H177.097V356.708L176.999 356.484C177.214 355.915 177.573 355.467 178.077 355.14C178.581 354.804 179.188 354.636 179.897 354.636C180.625 354.636 181.237 354.823 181.731 355.196C182.235 355.56 182.553 356.106 182.683 356.834L182.445 356.736C182.641 356.111 183.01 355.607 183.551 355.224C184.093 354.832 184.751 354.636 185.525 354.636ZM194.184 362.056C193.484 362.056 192.858 361.897 192.308 361.58C191.766 361.263 191.332 360.824 191.006 360.264C190.688 359.704 190.53 359.065 190.53 358.346C190.53 357.618 190.688 356.979 191.006 356.428C191.332 355.868 191.766 355.429 192.308 355.112C192.858 354.795 193.484 354.636 194.184 354.636C194.884 354.636 195.509 354.795 196.06 355.112C196.61 355.429 197.044 355.868 197.362 356.428C197.679 356.979 197.838 357.618 197.838 358.346C197.838 359.065 197.679 359.704 197.362 360.264C197.044 360.824 196.61 361.263 196.06 361.58C195.509 361.897 194.884 362.056 194.184 362.056ZM194.184 361.426C194.744 361.426 195.248 361.3 195.696 361.048C196.144 360.787 196.494 360.423 196.746 359.956C196.998 359.489 197.124 358.953 197.124 358.346C197.124 357.73 196.998 357.193 196.746 356.736C196.494 356.269 196.144 355.91 195.696 355.658C195.248 355.397 194.744 355.266 194.184 355.266C193.624 355.266 193.12 355.397 192.672 355.658C192.233 355.91 191.883 356.269 191.622 356.736C191.37 357.193 191.244 357.73 191.244 358.346C191.244 358.953 191.37 359.489 191.622 359.956C191.883 360.423 192.233 360.787 192.672 361.048C193.12 361.3 193.624 361.426 194.184 361.426ZM200.009 362V354.692H200.681V356.694L200.611 356.47C200.817 355.882 201.162 355.429 201.647 355.112C202.133 354.795 202.739 354.636 203.467 354.636V355.322C203.439 355.322 203.411 355.322 203.383 355.322C203.355 355.313 203.327 355.308 203.299 355.308C202.487 355.308 201.853 355.565 201.395 356.078C200.938 356.582 200.709 357.287 200.709 358.192V362H200.009ZM208.296 362.056C207.558 362.056 206.905 361.897 206.336 361.58C205.776 361.263 205.332 360.824 205.006 360.264C204.688 359.704 204.53 359.065 204.53 358.346C204.53 357.618 204.679 356.979 204.978 356.428C205.286 355.868 205.706 355.429 206.238 355.112C206.77 354.795 207.367 354.636 208.03 354.636C208.692 354.636 209.285 354.79 209.808 355.098C210.34 355.406 210.755 355.84 211.054 356.4C211.362 356.951 211.516 357.59 211.516 358.318C211.516 358.346 211.511 358.379 211.502 358.416C211.502 358.444 211.502 358.477 211.502 358.514H205.048V357.968H211.124L210.844 358.234C210.853 357.665 210.732 357.156 210.48 356.708C210.237 356.251 209.906 355.896 209.486 355.644C209.066 355.383 208.58 355.252 208.03 355.252C207.488 355.252 207.003 355.383 206.574 355.644C206.154 355.896 205.822 356.251 205.58 356.708C205.337 357.156 205.216 357.669 205.216 358.248V358.374C205.216 358.971 205.346 359.503 205.608 359.97C205.878 360.427 206.247 360.787 206.714 361.048C207.18 361.3 207.712 361.426 208.31 361.426C208.776 361.426 209.21 361.342 209.612 361.174C210.022 361.006 210.368 360.749 210.648 360.404L211.054 360.866C210.736 361.258 210.335 361.557 209.85 361.762C209.374 361.958 208.856 362.056 208.296 362.056Z" fill="#666666"/>
<path d="M89.512 362L87.174 358.724C86.8287 358.771 86.5113 358.794 86.222 358.794H83.422V362H82.708V352.2H86.222C87.454 352.2 88.42 352.494 89.12 353.082C89.82 353.661 90.17 354.468 90.17 355.504C90.17 356.279 89.9693 356.932 89.568 357.464C89.176 357.987 88.6113 358.355 87.874 358.57L90.324 362H89.512ZM86.222 358.164C87.2673 358.164 88.0653 357.935 88.616 357.478C89.1667 357.011 89.442 356.353 89.442 355.504C89.442 354.655 89.1667 354.001 88.616 353.544C88.0653 353.077 87.2673 352.844 86.222 352.844H83.422V358.164H86.222ZM92.5602 354.692H93.2602V362H92.5602V354.692ZM92.9102 352.914C92.7515 352.914 92.6162 352.863 92.5042 352.76C92.3922 352.648 92.3362 352.513 92.3362 352.354C92.3362 352.195 92.3922 352.06 92.5042 351.948C92.6162 351.836 92.7515 351.78 92.9102 351.78C93.0688 351.78 93.2042 351.836 93.3162 351.948C93.4282 352.051 93.4842 352.181 93.4842 352.34C93.4842 352.499 93.4282 352.634 93.3162 352.746C93.2042 352.858 93.0688 352.914 92.9102 352.914ZM99.0666 362.056C98.3759 362.056 97.7506 361.897 97.1906 361.58C96.6399 361.263 96.2059 360.824 95.8886 360.264C95.5712 359.695 95.4126 359.055 95.4126 358.346C95.4126 357.637 95.5712 357.002 95.8886 356.442C96.2059 355.873 96.6399 355.429 97.1906 355.112C97.7506 354.795 98.3759 354.636 99.0666 354.636C99.7572 354.636 100.378 354.795 100.929 355.112C101.489 355.429 101.927 355.873 102.245 356.442C102.562 357.002 102.721 357.637 102.721 358.346C102.721 359.055 102.562 359.695 102.245 360.264C101.927 360.824 101.489 361.263 100.929 361.58C100.378 361.897 99.7572 362.056 99.0666 362.056ZM99.0666 361.426C99.6266 361.426 100.126 361.295 100.565 361.034C101.013 360.773 101.363 360.409 101.615 359.942C101.876 359.475 102.007 358.943 102.007 358.346C102.007 357.749 101.876 357.217 101.615 356.75C101.363 356.283 101.013 355.919 100.565 355.658C100.126 355.397 99.6266 355.266 99.0666 355.266C98.5066 355.266 98.0026 355.397 97.5546 355.658C97.1159 355.919 96.7659 356.283 96.5046 356.75C96.2526 357.217 96.1266 357.749 96.1266 358.346C96.1266 358.943 96.2526 359.475 96.5046 359.942C96.7659 360.409 97.1159 360.773 97.5546 361.034C98.0026 361.295 98.5066 361.426 99.0666 361.426ZM108.518 361.538C108.341 361.706 108.117 361.837 107.846 361.93C107.585 362.014 107.31 362.056 107.02 362.056C106.386 362.056 105.896 361.883 105.55 361.538C105.205 361.183 105.032 360.693 105.032 360.068V355.294H103.688V354.692H105.032V353.096H105.732V354.692H108.056V355.294H105.732V359.998C105.732 360.474 105.844 360.838 106.068 361.09C106.302 361.333 106.642 361.454 107.09 361.454C107.548 361.454 107.926 361.319 108.224 361.048L108.518 361.538Z" fill="#666666"/>
<path d="M258.708 362V352.2H262.222C263.043 352.2 263.748 352.331 264.336 352.592C264.924 352.853 265.377 353.231 265.694 353.726C266.011 354.211 266.17 354.804 266.17 355.504C266.17 356.185 266.011 356.773 265.694 357.268C265.377 357.763 264.924 358.141 264.336 358.402C263.748 358.663 263.043 358.794 262.222 358.794H259.1L259.422 358.458V362H258.708ZM259.422 358.5L259.1 358.15H262.222C263.277 358.15 264.075 357.921 264.616 357.464C265.167 356.997 265.442 356.344 265.442 355.504C265.442 354.655 265.167 354.001 264.616 353.544C264.075 353.077 263.277 352.844 262.222 352.844H259.1L259.422 352.494V358.5ZM268.492 362V351.612H269.192V362H268.492ZM276.748 362V360.334L276.72 360.082V357.338C276.72 356.657 276.534 356.139 276.16 355.784C275.796 355.429 275.26 355.252 274.55 355.252C274.046 355.252 273.575 355.341 273.136 355.518C272.707 355.686 272.338 355.905 272.03 356.176L271.68 355.672C272.044 355.345 272.483 355.093 272.996 354.916C273.51 354.729 274.046 354.636 274.606 354.636C275.512 354.636 276.207 354.865 276.692 355.322C277.178 355.779 277.42 356.461 277.42 357.366V362H276.748ZM274.116 362.056C273.575 362.056 273.104 361.972 272.702 361.804C272.31 361.627 272.007 361.379 271.792 361.062C271.587 360.745 271.484 360.381 271.484 359.97C271.484 359.597 271.568 359.261 271.736 358.962C271.914 358.654 272.203 358.407 272.604 358.22C273.006 358.024 273.542 357.926 274.214 357.926H276.902V358.472H274.228C273.472 358.472 272.94 358.612 272.632 358.892C272.334 359.172 272.184 359.522 272.184 359.942C272.184 360.409 272.362 360.782 272.716 361.062C273.071 361.342 273.57 361.482 274.214 361.482C274.83 361.482 275.348 361.342 275.768 361.062C276.198 360.782 276.515 360.376 276.72 359.844L276.916 360.32C276.72 360.852 276.384 361.277 275.908 361.594C275.442 361.902 274.844 362.056 274.116 362.056ZM280 364.772C279.664 364.772 279.346 364.716 279.048 364.604C278.758 364.492 278.511 364.329 278.306 364.114L278.656 363.582C278.842 363.778 279.043 363.923 279.258 364.016C279.482 364.109 279.734 364.156 280.014 364.156C280.35 364.156 280.644 364.063 280.896 363.876C281.157 363.689 281.4 363.349 281.624 362.854L282.128 361.734L282.226 361.608L285.32 354.692H286.034L282.282 362.994C282.086 363.442 281.871 363.792 281.638 364.044C281.414 364.305 281.166 364.492 280.896 364.604C280.625 364.716 280.326 364.772 280 364.772ZM282.114 362.182L278.726 354.692H279.468L282.548 361.566L282.114 362.182Z" fill="#666666"/>
<path d="M79.0714 303.313C79.0714 303.14 79.2114 303 79.3842 303H102.628C108.79 303 113.473 308.001 113.473 314.169V315.399C113.473 316.09 112.913 316.651 112.222 316.651H106.972C106.627 316.651 106.347 316.371 106.347 316.025V314.169C106.347 312.113 104.682 310.446 102.628 310.446H86.8229C86.6502 310.446 86.5102 310.586 86.5102 310.759V336.35C86.5102 336.523 86.3698 336.664 86.1972 336.657C82.234 336.493 79.0714 333.225 79.0714 329.217V303.313Z" fill="#ED1846"/>
<path d="M93.0219 317.892C92.8492 317.892 92.7085 318.032 92.7156 318.205C92.8797 322.172 96.1445 325.338 100.148 325.338H105.107C105.792 325.338 106.347 325.893 106.347 326.579V336.35C106.347 336.523 106.487 336.664 106.66 336.657C110.623 336.493 113.786 333.225 113.786 329.217V326.579C113.786 321.781 109.9 317.892 105.107 317.892H93.0219Z" fill="#ED1846"/>
<path d="M289.5 321L259.5 338.321L259.5 303.679L289.5 321Z" fill="#B7B7B7"/>
<path d="M163.073 337L177.889 303.757H185.488L200.352 337H192.279L180.122 307.651H183.161L170.956 337H163.073ZM170.481 329.876L172.523 324.035H189.62L191.709 329.876H170.481Z" fill="#B7B7B7"/>
<rect width="282" height="217" transform="translate(90 25)" fill="white"/>
<path d="M120 210.999L132.824 181.664H142.547L155.37 210.999H145.145L135.674 186.357H139.529L130.058 210.999H120ZM127.627 205.887L130.142 198.762H143.636L146.151 205.887H127.627Z" fill="#ED1846"/>
<path d="M158.625 210.999V181.664H166.755L181.675 199.517H177.903V181.664H187.542V210.999H179.412L164.492 193.147H168.264V210.999H158.625Z" fill="#ED1846"/>
<path d="M193.564 210.999V181.664H203.455V210.999H193.564Z" fill="#ED1846"/>
<path d="M209.054 210.999V181.664H217.184L228.919 200.816H224.644L236.043 181.664H244.173L244.257 210.999H235.247L235.163 195.242H236.588L228.793 208.359H224.434L216.304 195.242H218.064V210.999H209.054Z" fill="#ED1846"/>
<path d="M264.838 211.67C262.463 211.67 260.256 211.293 258.217 210.538C256.205 209.784 254.459 208.722 252.978 207.353C251.497 205.956 250.338 204.322 249.5 202.45C248.689 200.578 248.284 198.539 248.284 196.332C248.284 194.096 248.689 192.057 249.5 190.213C250.338 188.341 251.497 186.721 252.978 185.352C254.459 183.955 256.205 182.879 258.217 182.125C260.256 181.37 262.463 180.993 264.838 180.993C267.241 180.993 269.448 181.37 271.46 182.125C273.471 182.879 275.217 183.955 276.698 185.352C278.179 186.721 279.324 188.341 280.134 190.213C280.973 192.057 281.392 194.096 281.392 196.332C281.392 198.539 280.973 200.578 280.134 202.45C279.324 204.322 278.179 205.956 276.698 207.353C275.217 208.722 273.471 209.784 271.46 210.538C269.448 211.293 267.241 211.67 264.838 211.67ZM264.838 203.665C265.76 203.665 266.612 203.498 267.394 203.163C268.205 202.827 268.903 202.352 269.49 201.738C270.104 201.095 270.579 200.327 270.915 199.433C271.25 198.511 271.418 197.477 271.418 196.332C271.418 195.186 271.25 194.166 270.915 193.272C270.579 192.35 270.104 191.582 269.49 190.967C268.903 190.325 268.205 189.836 267.394 189.501C266.612 189.165 265.76 188.998 264.838 188.998C263.916 188.998 263.05 189.165 262.24 189.501C261.457 189.836 260.759 190.325 260.144 190.967C259.558 191.582 259.097 192.35 258.761 193.272C258.426 194.166 258.258 195.186 258.258 196.332C258.258 197.477 258.426 198.511 258.761 199.433C259.097 200.327 259.558 201.095 260.144 201.738C260.759 202.352 261.457 202.827 262.24 203.163C263.05 203.498 263.916 203.665 264.838 203.665Z" fill="#ED1846"/>
<path d="M285.4 210.999V181.664H299.524C302.262 181.664 304.622 182.111 306.606 183.005C308.618 183.899 310.168 185.184 311.258 186.86C312.347 188.509 312.892 190.464 312.892 192.727C312.892 194.99 312.347 196.946 311.258 198.595C310.168 200.215 308.618 201.458 306.606 202.324C304.622 203.19 302.262 203.624 299.524 203.624H290.89L295.291 199.558V210.999H285.4ZM302.96 210.999L295.752 200.313H306.229L313.521 210.999H302.96ZM295.291 200.648L290.89 196.164H298.895C300.264 196.164 301.27 195.857 301.912 195.242C302.583 194.627 302.918 193.789 302.918 192.727C302.918 191.666 302.583 190.828 301.912 190.213C301.27 189.598 300.264 189.291 298.895 189.291H290.89L295.291 184.807V200.648Z" fill="#ED1846"/>
<path d="M326.517 192.56H339.593V199.684H326.517V192.56ZM327.188 203.54H341.856V210.999H317.465V181.664H341.311V189.123H327.188V203.54Z" fill="#ED1846"/>
<path fill-rule="evenodd" clip-rule="evenodd" d="M259.682 125.608C260.302 125.967 260.302 126.863 259.682 127.221L186.775 169.314C186.154 169.673 185.378 169.225 185.378 168.508L185.378 47.9327C185.378 47.2158 186.154 46.7677 186.775 47.1262L291.23 107.433C291.843 107.787 291.852 108.669 291.247 109.036L285.45 112.552C275.568 118.544 263.208 118.676 253.2 112.898L210.523 88.2588C209.902 87.9003 209.126 88.3484 209.126 89.0653L209.126 127.375C209.126 128.092 209.902 128.54 210.523 128.182L217.773 123.995C229.875 117.008 244.786 117.008 256.888 123.995L259.682 125.608Z" fill="#ED1846"/>
<path fill-rule="evenodd" clip-rule="evenodd" d="M378.149 330.243C378.451 330.417 378.451 330.853 378.149 331.027L342.68 351.506C342.378 351.68 342 351.462 342 351.113L342 292.454C342 292.105 342.378 291.887 342.68 292.061L393.497 321.401C393.795 321.573 393.8 322.002 393.505 322.18L390.685 323.891C385.878 326.806 379.864 326.87 374.995 324.059L354.233 312.072C353.931 311.898 353.553 312.116 353.553 312.465L353.553 331.102C353.553 331.451 353.931 331.669 354.233 331.495L357.76 329.458C363.648 326.059 370.902 326.059 376.789 329.458L378.149 330.243Z" fill="#ED1846"/>
</svg>
