<svg width="462" height="395" viewBox="0 0 462 395" fill="none" xmlns="http://www.w3.org/2000/svg">
<rect width="462" height="395" fill="white"/>
<path fill-rule="evenodd" clip-rule="evenodd" d="M217.085 302C215.894 302 214.929 302.965 214.929 304.156V334.344C214.929 335.535 215.894 336.5 217.085 336.5H253.022C254.213 336.5 255.179 335.535 255.179 334.344V304.156C255.179 302.965 254.213 302 253.022 302H217.085ZM219.241 332.188V306.312H250.866V332.188H219.241ZM227.152 311.179C226.267 310.382 224.904 310.454 224.107 311.339C223.311 312.224 223.382 313.587 224.268 314.384L229.674 319.25L224.268 324.116C223.382 324.913 223.311 326.276 224.107 327.161C224.904 328.046 226.267 328.118 227.152 327.321L234.34 320.853C234.794 320.444 235.054 319.861 235.054 319.25C235.054 318.639 234.794 318.056 234.34 317.647L227.152 311.179ZM237.21 323.563C236.019 323.563 235.054 324.528 235.054 325.719C235.054 326.91 236.019 327.875 237.21 327.875H244.397C245.588 327.875 246.554 326.91 246.554 325.719C246.554 324.528 245.588 323.563 244.397 323.563H237.21Z" fill="#B7B7B7"/>
<path d="M195.537 323.17H191.907V326.69H187.947V323.17H184.317V319.43H187.947V315.91H191.907V319.43H195.537V323.17Z" fill="#B7B7B7"/>
<path d="M279.389 316.57H290.609V320.31H279.389V316.57ZM279.389 322.29H290.609V326.03H279.389V322.29Z" fill="#B7B7B7"/>
<path d="M229.111 362.07C228.383 362.07 227.706 361.949 227.081 361.706C226.465 361.454 225.928 361.104 225.471 360.656C225.013 360.208 224.659 359.685 224.407 359.088C224.155 358.481 224.029 357.819 224.029 357.1C224.029 356.381 224.155 355.723 224.407 355.126C224.659 354.519 225.013 353.992 225.471 353.544C225.937 353.096 226.479 352.751 227.095 352.508C227.711 352.256 228.383 352.13 229.111 352.13C229.801 352.13 230.445 352.242 231.043 352.466C231.649 352.69 232.167 353.031 232.597 353.488L232.149 353.95C231.729 353.539 231.262 353.245 230.749 353.068C230.245 352.881 229.708 352.788 229.139 352.788C228.513 352.788 227.93 352.895 227.389 353.11C226.857 353.325 226.39 353.628 225.989 354.02C225.597 354.412 225.289 354.869 225.065 355.392C224.85 355.915 224.743 356.484 224.743 357.1C224.743 357.716 224.85 358.285 225.065 358.808C225.289 359.331 225.597 359.788 225.989 360.18C226.39 360.572 226.857 360.875 227.389 361.09C227.93 361.305 228.513 361.412 229.139 361.412C229.708 361.412 230.245 361.323 230.749 361.146C231.262 360.959 231.729 360.656 232.149 360.236L232.597 360.698C232.167 361.155 231.649 361.501 231.043 361.734C230.445 361.958 229.801 362.07 229.111 362.07ZM234.988 362V352.2H235.702V361.356H241.344V362H234.988ZM243.178 362V352.2H243.892V362H243.178Z" fill="#666666"/>
<path d="M142.441 362L140.103 358.724C139.757 358.771 139.44 358.794 139.151 358.794H136.351V362H135.637V352.2H139.151C140.383 352.2 141.349 352.494 142.049 353.082C142.749 353.661 143.099 354.468 143.099 355.504C143.099 356.279 142.898 356.932 142.497 357.464C142.105 357.987 141.54 358.355 140.803 358.57L143.253 362H142.441ZM139.151 358.164C140.196 358.164 140.994 357.935 141.545 357.478C142.095 357.011 142.371 356.353 142.371 355.504C142.371 354.655 142.095 354.001 141.545 353.544C140.994 353.077 140.196 352.844 139.151 352.844H136.351V358.164H139.151ZM145.489 354.692H146.189V362H145.489V354.692ZM145.839 352.914C145.68 352.914 145.545 352.863 145.433 352.76C145.321 352.648 145.265 352.513 145.265 352.354C145.265 352.195 145.321 352.06 145.433 351.948C145.545 351.836 145.68 351.78 145.839 351.78C145.998 351.78 146.133 351.836 146.245 351.948C146.357 352.051 146.413 352.181 146.413 352.34C146.413 352.499 146.357 352.634 146.245 352.746C146.133 352.858 145.998 352.914 145.839 352.914ZM151.995 362.056C151.305 362.056 150.679 361.897 150.119 361.58C149.569 361.263 149.135 360.824 148.817 360.264C148.5 359.695 148.341 359.055 148.341 358.346C148.341 357.637 148.5 357.002 148.817 356.442C149.135 355.873 149.569 355.429 150.119 355.112C150.679 354.795 151.305 354.636 151.995 354.636C152.686 354.636 153.307 354.795 153.857 355.112C154.417 355.429 154.856 355.873 155.173 356.442C155.491 357.002 155.649 357.637 155.649 358.346C155.649 359.055 155.491 359.695 155.173 360.264C154.856 360.824 154.417 361.263 153.857 361.58C153.307 361.897 152.686 362.056 151.995 362.056ZM151.995 361.426C152.555 361.426 153.055 361.295 153.493 361.034C153.941 360.773 154.291 360.409 154.543 359.942C154.805 359.475 154.935 358.943 154.935 358.346C154.935 357.749 154.805 357.217 154.543 356.75C154.291 356.283 153.941 355.919 153.493 355.658C153.055 355.397 152.555 355.266 151.995 355.266C151.435 355.266 150.931 355.397 150.483 355.658C150.045 355.919 149.695 356.283 149.433 356.75C149.181 357.217 149.055 357.749 149.055 358.346C149.055 358.943 149.181 359.475 149.433 359.942C149.695 360.409 150.045 360.773 150.483 361.034C150.931 361.295 151.435 361.426 151.995 361.426ZM161.447 361.538C161.27 361.706 161.046 361.837 160.775 361.93C160.514 362.014 160.238 362.056 159.949 362.056C159.314 362.056 158.824 361.883 158.479 361.538C158.134 361.183 157.961 360.693 157.961 360.068V355.294H156.617V354.692H157.961V353.096H158.661V354.692H160.985V355.294H158.661V359.998C158.661 360.474 158.773 360.838 158.997 361.09C159.23 361.333 159.571 361.454 160.019 361.454C160.476 361.454 160.854 361.319 161.153 361.048L161.447 361.538Z" fill="#666666"/>
<path d="M132 303.313C132 303.14 132.14 303 132.313 303H155.556C161.719 303 166.402 308.001 166.402 314.169V315.399C166.402 316.09 165.841 316.651 165.151 316.651H159.901C159.556 316.651 159.276 316.371 159.276 316.025V314.169C159.276 312.113 157.61 310.446 155.556 310.446H139.752C139.579 310.446 139.439 310.586 139.439 310.759V336.35C139.439 336.523 139.298 336.664 139.126 336.657C135.163 336.493 132 333.225 132 329.217V303.313Z" fill="#ED1846"/>
<path d="M145.95 317.892C145.778 317.892 145.637 318.032 145.644 318.205C145.808 322.172 149.073 325.338 153.077 325.338H158.036C158.72 325.338 159.276 325.893 159.276 326.579V336.35C159.276 336.523 159.416 336.664 159.589 336.657C163.552 336.493 166.714 333.225 166.714 329.217V326.579C166.714 321.781 162.829 317.892 158.036 317.892H145.95Z" fill="#ED1846"/>
<rect width="180" height="217" transform="translate(141 25)" fill="white"/>
<path d="M210.029 211.671C207.682 211.671 205.503 211.308 203.491 210.581C201.507 209.827 199.775 208.765 198.295 207.396C196.842 206.027 195.71 204.407 194.9 202.535C194.09 200.663 193.685 198.596 193.685 196.333C193.685 194.07 194.09 192.003 194.9 190.131C195.71 188.259 196.842 186.638 198.295 185.269C199.775 183.9 201.507 182.853 203.491 182.126C205.503 181.372 207.682 180.995 210.029 180.995C212.906 180.995 215.449 181.498 217.656 182.504C219.891 183.509 221.735 184.962 223.188 186.862L216.943 192.436C216.077 191.346 215.113 190.508 214.052 189.921C213.018 189.306 211.845 188.999 210.532 188.999C209.498 188.999 208.562 189.167 207.724 189.502C206.886 189.837 206.159 190.326 205.545 190.969C204.958 191.611 204.497 192.394 204.162 193.316C203.826 194.21 203.659 195.215 203.659 196.333C203.659 197.45 203.826 198.47 204.162 199.392C204.497 200.286 204.958 201.054 205.545 201.697C206.159 202.34 206.886 202.829 207.724 203.164C208.562 203.499 209.498 203.667 210.532 203.667C211.845 203.667 213.018 203.373 214.052 202.787C215.113 202.172 216.077 201.32 216.943 200.23L223.188 205.804C221.735 207.676 219.891 209.129 217.656 210.162C215.449 211.168 212.906 211.671 210.029 211.671Z" fill="#ED1846"/>
<path d="M227.719 211V181.665H237.609V203.331H250.852V211H227.719Z" fill="#ED1846"/>
<path d="M255.26 211V181.665H265.15V211H255.26Z" fill="#ED1846"/>
<path d="M217.09 107.227C217.454 107.591 217.454 108.18 217.09 108.544L171.188 154.446C170.937 154.697 170.937 155.103 171.188 155.354C180.211 164.377 194.841 164.377 203.864 155.354L250.674 108.544C251.038 108.18 251.038 107.591 250.674 107.227L203.864 60.4169C194.841 51.3936 180.211 51.3936 171.188 60.4169C170.937 60.6675 170.937 61.0739 171.188 61.3246L217.09 107.227Z" fill="#ED1846"/>
<path d="M289.725 160.962C290.239 160.962 290.656 160.545 290.656 160.03V139.077C290.656 138.048 289.822 137.214 288.794 137.214H247.874C235.114 137.214 224.769 147.559 224.769 160.32C224.769 160.674 225.056 160.962 225.411 160.962H289.725Z" fill="#ED1846"/>
<path d="M336.423 323.066C336.6 323.242 336.6 323.529 336.423 323.706L314.091 346.038C313.97 346.16 313.97 346.357 314.091 346.479C318.481 350.869 325.599 350.869 329.989 346.479L352.762 323.706C352.939 323.529 352.939 323.242 352.762 323.066L329.989 300.292C325.599 295.903 318.481 295.903 314.091 300.292C313.97 300.414 313.97 300.612 314.091 300.734L336.423 323.066Z" fill="#ED1846"/>
<path d="M371.76 349.208C372.01 349.208 372.213 349.005 372.213 348.754V338.56C372.213 338.06 371.807 337.654 371.307 337.654H351.4C345.191 337.654 340.159 342.687 340.159 348.895C340.159 349.068 340.298 349.208 340.471 349.208H371.76Z" fill="#ED1846"/>
</svg>
