<svg width="462" height="395" viewBox="0 0 462 395" fill="none" xmlns="http://www.w3.org/2000/svg">
<rect width="462" height="395" fill="white"/>
<path d="M128.772 211.68C126.406 211.68 124.208 211.313 122.18 210.579C120.18 209.817 118.434 208.745 116.941 207.362C115.476 205.979 114.336 204.342 113.519 202.451C112.702 200.56 112.293 198.471 112.293 196.185C112.293 193.899 112.702 191.81 113.519 189.919C114.336 188.028 115.476 186.391 116.941 185.008C118.434 183.625 120.18 182.567 122.18 181.833C124.208 181.071 126.406 180.69 128.772 180.69C131.673 180.69 134.236 181.198 136.462 182.214C138.715 183.23 140.574 184.698 142.039 186.617L135.743 192.248C134.87 191.147 133.898 190.3 132.828 189.708C131.786 189.087 130.603 188.776 129.279 188.776C128.236 188.776 127.293 188.945 126.448 189.284C125.603 189.623 124.87 190.117 124.251 190.766C123.659 191.415 123.194 192.205 122.856 193.137C122.518 194.04 122.349 195.056 122.349 196.185C122.349 197.314 122.518 198.344 122.856 199.275C123.194 200.179 123.659 200.955 124.251 201.604C124.87 202.253 125.603 202.747 126.448 203.086C127.293 203.424 128.236 203.594 129.279 203.594C130.603 203.594 131.786 203.297 132.828 202.705C133.898 202.084 134.87 201.223 135.743 200.122L142.039 205.753C140.574 207.644 138.715 209.112 136.462 210.156C134.236 211.172 131.673 211.68 128.772 211.68Z" fill="#ED1846"/>
<path d="M159.805 211.68C157.411 211.68 155.186 211.299 153.13 210.537C151.101 209.775 149.341 208.702 147.848 207.319C146.355 205.908 145.186 204.257 144.341 202.366C143.524 200.475 143.116 198.415 143.116 196.185C143.116 193.927 143.524 191.867 144.341 190.004C145.186 188.113 146.355 186.476 147.848 185.093C149.341 183.682 151.101 182.595 153.13 181.833C155.186 181.071 157.411 180.69 159.805 180.69C162.228 180.69 164.453 181.071 166.481 181.833C168.509 182.595 170.27 183.682 171.763 185.093C173.256 186.476 174.41 188.113 175.227 190.004C176.072 191.867 176.495 193.927 176.495 196.185C176.495 198.415 176.072 200.475 175.227 202.366C174.41 204.257 173.256 205.908 171.763 207.319C170.27 208.702 168.509 209.775 166.481 210.537C164.453 211.299 162.228 211.68 159.805 211.68ZM159.805 203.594C160.735 203.594 161.594 203.424 162.383 203.086C163.2 202.747 163.904 202.267 164.495 201.646C165.115 200.997 165.594 200.221 165.932 199.318C166.27 198.386 166.439 197.342 166.439 196.185C166.439 195.028 166.27 193.998 165.932 193.094C165.594 192.163 165.115 191.387 164.495 190.766C163.904 190.117 163.2 189.623 162.383 189.284C161.594 188.945 160.735 188.776 159.805 188.776C158.876 188.776 158.003 188.945 157.186 189.284C156.397 189.623 155.693 190.117 155.073 190.766C154.482 191.387 154.017 192.163 153.679 193.094C153.341 193.998 153.172 195.028 153.172 196.185C153.172 197.342 153.341 198.386 153.679 199.318C154.017 200.221 154.482 200.997 155.073 201.646C155.693 202.267 156.397 202.747 157.186 203.086C158.003 203.424 158.876 203.594 159.805 203.594Z" fill="#ED1846"/>
<path d="M180.114 211.003V181.367H188.311L200.141 200.715H195.832L207.324 181.367H215.521L215.606 211.003H206.521L206.437 195.084H207.873L200.015 208.335H195.62L187.424 195.084H189.198V211.003H180.114Z" fill="#ED1846"/>
<path d="M220.427 211.003V181.367H234.665C237.426 181.367 239.806 181.819 241.806 182.722C243.834 183.625 245.397 184.924 246.496 186.617C247.594 188.282 248.144 190.258 248.144 192.544C248.144 194.83 247.594 196.806 246.496 198.471C245.397 200.136 243.834 201.435 241.806 202.366C239.806 203.269 237.426 203.721 234.665 203.721H225.962L230.398 199.445V211.003H220.427ZM230.398 200.546L225.962 196.016H234.032C235.412 196.016 236.426 195.705 237.074 195.084C237.75 194.463 238.088 193.617 238.088 192.544C238.088 191.472 237.75 190.625 237.074 190.004C236.426 189.383 235.412 189.072 234.032 189.072H225.962L230.398 184.543V200.546Z" fill="#ED1846"/>
<path d="M251.414 211.003V181.367H261.385V211.003H251.414Z" fill="#ED1846"/>
<path d="M266.186 211.003V181.367H276.157V203.255H289.509V211.003H266.186Z" fill="#ED1846"/>
<path d="M301.389 192.375H314.572V199.572H301.389V192.375ZM302.065 203.467H316.854V211.003H292.263V181.367H316.304V188.903H302.065V203.467Z" fill="#ED1846"/>
<path d="M320.692 211.003V181.367H334.931C337.691 181.367 340.072 181.819 342.072 182.722C344.1 183.625 345.663 184.924 346.762 186.617C347.86 188.282 348.409 190.258 348.409 192.544C348.409 194.83 347.86 196.806 346.762 198.471C345.663 200.108 344.1 201.364 342.072 202.239C340.072 203.114 337.691 203.551 334.931 203.551H326.227L330.664 199.445V211.003H320.692ZM338.396 211.003L331.128 200.207H341.691L349.043 211.003H338.396ZM330.664 200.546L326.227 196.016H334.297C335.677 196.016 336.692 195.705 337.339 195.084C338.015 194.463 338.353 193.617 338.353 192.544C338.353 191.472 338.015 190.625 337.339 190.004C336.692 189.383 335.677 189.072 334.297 189.072H326.227L330.664 184.543V200.546Z" fill="#ED1846"/>
<path d="M284.404 51.9312C284.771 51.9312 285.069 52.2295 285.069 52.5976C285.069 65.479 274.647 75.9216 261.791 75.9216L215.4 75.9216C215.065 75.9216 214.755 76.1009 214.587 76.392L196.455 107.86C196.287 108.151 196.287 108.51 196.455 108.801L214.587 140.269C214.755 140.56 215.065 140.74 215.4 140.74L261.791 140.74C274.647 140.74 285.069 151.182 285.069 164.064C285.069 164.432 284.771 164.73 284.404 164.73L201.577 164.73C201.242 164.73 200.932 164.551 200.764 164.26L168.808 108.801C168.641 108.51 168.641 108.151 168.808 107.86L200.764 52.4016C200.932 52.1105 201.242 51.9312 201.577 51.9312L284.404 51.9312Z" fill="#ED1846"/>
<path d="M230.741 108.379C230.741 106.814 232.005 105.557 233.551 105.557H241.031C253.886 105.557 264.308 95.1142 264.308 82.2327C264.308 81.8647 264.01 81.5664 263.643 81.5664H233.551C218.77 81.5664 206.799 93.5768 206.799 108.379C206.799 123.182 218.77 135.192 233.551 135.192H263.643C264.01 135.192 264.308 134.894 264.308 134.526C264.308 121.644 253.886 111.202 241.031 111.202H233.551C232.005 111.202 230.741 109.944 230.741 108.379Z" fill="#ED1846"/>
<path d="M170.947 326.69V315.91H174.907V326.69H170.947ZM167.317 323.17V319.43H178.537V323.17H167.317Z" fill="#B7B7B7"/>
<path d="M255.317 320.31V316.57H266.537V320.31H255.317ZM255.317 326.03V322.29H266.537V326.03H255.317Z" fill="#B7B7B7"/>
<path d="M189.781 362.07C189.053 362.07 188.376 361.949 187.751 361.706C187.135 361.454 186.598 361.104 186.141 360.656C185.683 360.208 185.329 359.685 185.077 359.088C184.825 358.481 184.699 357.819 184.699 357.1C184.699 356.381 184.825 355.723 185.077 355.126C185.329 354.519 185.683 353.992 186.141 353.544C186.607 353.096 187.149 352.751 187.765 352.508C188.381 352.256 189.053 352.13 189.781 352.13C190.471 352.13 191.115 352.242 191.713 352.466C192.319 352.69 192.837 353.031 193.267 353.488L192.819 353.95C192.399 353.539 191.932 353.245 191.419 353.068C190.915 352.881 190.378 352.788 189.809 352.788C189.183 352.788 188.6 352.895 188.059 353.11C187.527 353.325 187.06 353.628 186.659 354.02C186.267 354.412 185.959 354.869 185.735 355.392C185.52 355.915 185.413 356.484 185.413 357.1C185.413 357.716 185.52 358.285 185.735 358.808C185.959 359.331 186.267 359.788 186.659 360.18C187.06 360.572 187.527 360.875 188.059 361.09C188.6 361.305 189.183 361.412 189.809 361.412C190.378 361.412 190.915 361.323 191.419 361.146C191.932 360.959 192.399 360.656 192.819 360.236L193.267 360.698C192.837 361.155 192.319 361.501 191.713 361.734C191.115 361.958 190.471 362.07 189.781 362.07ZM197.948 362.056C197.248 362.056 196.623 361.897 196.072 361.58C195.531 361.263 195.097 360.824 194.77 360.264C194.453 359.704 194.294 359.065 194.294 358.346C194.294 357.618 194.453 356.979 194.77 356.428C195.097 355.868 195.531 355.429 196.072 355.112C196.623 354.795 197.248 354.636 197.948 354.636C198.648 354.636 199.274 354.795 199.824 355.112C200.375 355.429 200.809 355.868 201.126 356.428C201.444 356.979 201.602 357.618 201.602 358.346C201.602 359.065 201.444 359.704 201.126 360.264C200.809 360.824 200.375 361.263 199.824 361.58C199.274 361.897 198.648 362.056 197.948 362.056ZM197.948 361.426C198.508 361.426 199.012 361.3 199.46 361.048C199.908 360.787 200.258 360.423 200.51 359.956C200.762 359.489 200.888 358.953 200.888 358.346C200.888 357.73 200.762 357.193 200.51 356.736C200.258 356.269 199.908 355.91 199.46 355.658C199.012 355.397 198.508 355.266 197.948 355.266C197.388 355.266 196.884 355.397 196.436 355.658C195.998 355.91 195.648 356.269 195.386 356.736C195.134 357.193 195.008 357.73 195.008 358.346C195.008 358.953 195.134 359.489 195.386 359.956C195.648 360.423 195.998 360.787 196.436 361.048C196.884 361.3 197.388 361.426 197.948 361.426ZM212.874 354.636C213.462 354.636 213.971 354.753 214.4 354.986C214.839 355.21 215.179 355.555 215.422 356.022C215.665 356.479 215.786 357.049 215.786 357.73V362H215.086V357.786C215.086 356.965 214.885 356.339 214.484 355.91C214.083 355.481 213.523 355.266 212.804 355.266C212.253 355.266 211.777 355.383 211.376 355.616C210.975 355.849 210.667 356.176 210.452 356.596C210.237 357.016 210.13 357.52 210.13 358.108V362H209.43V357.786C209.43 356.965 209.229 356.339 208.828 355.91C208.427 355.481 207.867 355.266 207.148 355.266C206.597 355.266 206.121 355.383 205.72 355.616C205.319 355.849 205.011 356.176 204.796 356.596C204.581 357.016 204.474 357.52 204.474 358.108V362H203.774V354.692H204.446V356.708L204.348 356.484C204.563 355.915 204.922 355.467 205.426 355.14C205.93 354.804 206.537 354.636 207.246 354.636C207.974 354.636 208.585 354.823 209.08 355.196C209.584 355.56 209.901 356.106 210.032 356.834L209.794 356.736C209.99 356.111 210.359 355.607 210.9 355.224C211.441 354.832 212.099 354.636 212.874 354.636ZM222.344 362.056C221.7 362.056 221.117 361.907 220.594 361.608C220.081 361.309 219.67 360.885 219.362 360.334C219.064 359.774 218.914 359.111 218.914 358.346C218.914 357.581 219.064 356.923 219.362 356.372C219.67 355.812 220.081 355.383 220.594 355.084C221.117 354.785 221.7 354.636 222.344 354.636C223.035 354.636 223.651 354.795 224.192 355.112C224.743 355.42 225.172 355.854 225.48 356.414C225.798 356.974 225.956 357.618 225.956 358.346C225.956 359.074 225.798 359.718 225.48 360.278C225.172 360.838 224.743 361.277 224.192 361.594C223.651 361.902 223.035 362.056 222.344 362.056ZM218.676 364.716V354.692H219.348V357.086L219.236 358.36L219.376 359.634V364.716H218.676ZM222.302 361.426C222.862 361.426 223.366 361.3 223.814 361.048C224.262 360.787 224.612 360.423 224.864 359.956C225.126 359.489 225.256 358.953 225.256 358.346C225.256 357.73 225.126 357.193 224.864 356.736C224.612 356.269 224.262 355.91 223.814 355.658C223.366 355.397 222.862 355.266 222.302 355.266C221.742 355.266 221.238 355.397 220.79 355.658C220.352 355.91 220.002 356.269 219.74 356.736C219.488 357.193 219.362 357.73 219.362 358.346C219.362 358.953 219.488 359.489 219.74 359.956C220.002 360.423 220.352 360.787 220.79 361.048C221.238 361.3 221.742 361.426 222.302 361.426ZM228.124 362V354.692H228.824V362H228.124ZM228.474 352.914C228.315 352.914 228.18 352.858 228.068 352.746C227.956 352.634 227.9 352.503 227.9 352.354C227.9 352.195 227.956 352.06 228.068 351.948C228.18 351.836 228.315 351.78 228.474 351.78C228.642 351.78 228.777 351.836 228.88 351.948C228.992 352.051 229.048 352.181 229.048 352.34C229.048 352.499 228.992 352.634 228.88 352.746C228.777 352.858 228.642 352.914 228.474 352.914ZM231.774 362V351.612H232.474V362H231.774ZM238.392 362.056C237.655 362.056 237.002 361.897 236.432 361.58C235.872 361.263 235.429 360.824 235.102 360.264C234.785 359.704 234.626 359.065 234.626 358.346C234.626 357.618 234.776 356.979 235.074 356.428C235.382 355.868 235.802 355.429 236.334 355.112C236.866 354.795 237.464 354.636 238.126 354.636C238.789 354.636 239.382 354.79 239.904 355.098C240.436 355.406 240.852 355.84 241.15 356.4C241.458 356.951 241.612 357.59 241.612 358.318C241.612 358.346 241.608 358.379 241.598 358.416C241.598 358.444 241.598 358.477 241.598 358.514H235.144V357.968H241.22L240.94 358.234C240.95 357.665 240.828 357.156 240.576 356.708C240.334 356.251 240.002 355.896 239.582 355.644C239.162 355.383 238.677 355.252 238.126 355.252C237.585 355.252 237.1 355.383 236.67 355.644C236.25 355.896 235.919 356.251 235.676 356.708C235.434 357.156 235.312 357.669 235.312 358.248V358.374C235.312 358.971 235.443 359.503 235.704 359.97C235.975 360.427 236.344 360.787 236.81 361.048C237.277 361.3 237.809 361.426 238.406 361.426C238.873 361.426 239.307 361.342 239.708 361.174C240.119 361.006 240.464 360.749 240.744 360.404L241.15 360.866C240.833 361.258 240.432 361.557 239.946 361.762C239.47 361.958 238.952 362.056 238.392 362.056ZM243.778 362V354.692H244.45V356.694L244.38 356.47C244.585 355.882 244.931 355.429 245.416 355.112C245.901 354.795 246.508 354.636 247.236 354.636V355.322C247.208 355.322 247.18 355.322 247.152 355.322C247.124 355.313 247.096 355.308 247.068 355.308C246.256 355.308 245.621 355.565 245.164 356.078C244.707 356.582 244.478 357.287 244.478 358.192V362H243.778Z" fill="#666666"/>
<path d="M118.637 362V352.2H122.151C122.972 352.2 123.677 352.331 124.265 352.592C124.853 352.853 125.305 353.231 125.623 353.726C125.94 354.211 126.099 354.804 126.099 355.504C126.099 356.185 125.94 356.773 125.623 357.268C125.305 357.753 124.853 358.131 124.265 358.402C123.677 358.663 122.972 358.794 122.151 358.794H119.029L119.351 358.458V362H118.637ZM125.441 362L122.893 358.444H123.705L126.253 362H125.441ZM119.351 358.5L119.029 358.164H122.151C123.205 358.164 124.003 357.931 124.545 357.464C125.095 356.997 125.371 356.344 125.371 355.504C125.371 354.655 125.095 354.001 124.545 353.544C124.003 353.077 123.205 352.844 122.151 352.844H119.029L119.351 352.494V358.5ZM128.489 362V354.692H129.189V362H128.489ZM128.839 352.914C128.68 352.914 128.545 352.858 128.433 352.746C128.321 352.634 128.265 352.503 128.265 352.354C128.265 352.195 128.321 352.06 128.433 351.948C128.545 351.836 128.68 351.78 128.839 351.78C129.007 351.78 129.142 351.836 129.245 351.948C129.357 352.051 129.413 352.181 129.413 352.34C129.413 352.499 129.357 352.634 129.245 352.746C129.142 352.858 129.007 352.914 128.839 352.914ZM134.995 362.056C134.295 362.056 133.67 361.897 133.119 361.58C132.578 361.263 132.144 360.824 131.817 360.264C131.5 359.704 131.341 359.065 131.341 358.346C131.341 357.618 131.5 356.979 131.817 356.428C132.144 355.868 132.578 355.429 133.119 355.112C133.67 354.795 134.295 354.636 134.995 354.636C135.695 354.636 136.321 354.795 136.871 355.112C137.422 355.429 137.856 355.868 138.173 356.428C138.491 356.979 138.649 357.618 138.649 358.346C138.649 359.065 138.491 359.704 138.173 360.264C137.856 360.824 137.422 361.263 136.871 361.58C136.321 361.897 135.695 362.056 134.995 362.056ZM134.995 361.426C135.555 361.426 136.059 361.3 136.507 361.048C136.955 360.787 137.305 360.423 137.557 359.956C137.809 359.489 137.935 358.953 137.935 358.346C137.935 357.73 137.809 357.193 137.557 356.736C137.305 356.269 136.955 355.91 136.507 355.658C136.059 355.397 135.555 355.266 134.995 355.266C134.435 355.266 133.931 355.397 133.483 355.658C133.045 355.91 132.695 356.269 132.433 356.736C132.181 357.193 132.055 357.73 132.055 358.346C132.055 358.953 132.181 359.489 132.433 359.956C132.695 360.423 133.045 360.787 133.483 361.048C133.931 361.3 134.435 361.426 134.995 361.426ZM142.949 362.056C142.305 362.056 141.81 361.879 141.465 361.524C141.129 361.169 140.961 360.684 140.961 360.068V353.096H141.661V359.998C141.661 360.465 141.778 360.824 142.011 361.076C142.244 361.328 142.58 361.454 143.019 361.454C143.476 361.454 143.854 361.319 144.153 361.048L144.447 361.538C144.26 361.715 144.032 361.846 143.761 361.93C143.5 362.014 143.229 362.056 142.949 362.056ZM139.617 355.294V354.692H143.985V355.294H139.617Z" fill="#666666"/>
<path d="M115 303.313C115 303.14 115.14 303 115.313 303H138.556C144.719 303 149.402 308.001 149.402 314.169V315.399C149.402 316.09 148.841 316.651 148.151 316.651H142.901C142.556 316.651 142.276 316.371 142.276 316.025V314.169C142.276 312.113 140.61 310.446 138.556 310.446H122.752C122.579 310.446 122.439 310.586 122.439 310.759V336.35C122.439 336.523 122.298 336.664 122.126 336.657C118.163 336.493 115 333.225 115 329.217V303.313Z" fill="#ED1846"/>
<path d="M128.95 317.892C128.778 317.892 128.637 318.032 128.644 318.205C128.808 322.172 132.073 325.338 136.077 325.338H141.036C141.72 325.338 142.276 325.893 142.276 326.579V336.35C142.276 336.523 142.416 336.664 142.589 336.657C146.552 336.493 149.714 333.225 149.714 329.217V326.579C149.714 321.781 145.829 317.892 141.036 317.892H128.95Z" fill="#ED1846"/>
<path d="M215.28 337.57C212.715 337.57 210.325 337.158 208.109 336.335C205.924 335.48 204.024 334.277 202.41 332.726C200.795 331.175 199.529 329.354 198.611 327.265C197.724 325.175 197.281 322.88 197.281 320.378C197.281 317.877 197.724 315.582 198.611 313.492C199.529 311.403 200.795 309.582 202.41 308.031C204.056 306.48 205.971 305.293 208.156 304.469C210.341 303.615 212.731 303.187 215.327 303.187C218.208 303.187 220.804 303.694 223.115 304.707C225.458 305.688 227.421 307.145 229.004 309.076L224.065 313.635C222.925 312.337 221.659 311.371 220.266 310.738C218.873 310.073 217.353 309.741 215.707 309.741C214.156 309.741 212.731 309.994 211.433 310.501C210.135 311.007 209.011 311.735 208.061 312.685C207.111 313.635 206.367 314.759 205.829 316.057C205.322 317.355 205.069 318.795 205.069 320.378C205.069 321.961 205.322 323.402 205.829 324.7C206.367 325.998 207.111 327.122 208.061 328.072C209.011 329.022 210.135 329.75 211.433 330.256C212.731 330.763 214.156 331.016 215.707 331.016C217.353 331.016 218.873 330.7 220.266 330.066C221.659 329.402 222.925 328.404 224.065 327.075L229.004 331.634C227.421 333.565 225.458 335.037 223.115 336.05C220.804 337.063 218.192 337.57 215.28 337.57Z" fill="#B7B7B7"/>
<path d="M346.597 292C346.78 292 346.929 292.148 346.929 292.331C346.929 298.738 341.735 303.932 335.329 303.932L312.21 303.932C312.043 303.932 311.888 304.021 311.805 304.166L302.769 319.816C302.685 319.961 302.685 320.139 302.769 320.284L311.805 335.935C311.888 336.08 312.043 336.169 312.21 336.169L335.329 336.169C341.735 336.169 346.929 341.362 346.929 347.769C346.929 347.952 346.78 348.1 346.597 348.1L305.321 348.1C305.154 348.1 305 348.011 304.916 347.866L288.991 320.284C288.908 320.139 288.908 319.961 288.991 319.816L304.916 292.234C305 292.089 305.154 292 305.321 292L346.597 292Z" fill="#ED1846"/>
<path d="M319.855 320.074C319.855 319.296 320.485 318.671 321.255 318.671H324.983C331.389 318.671 336.583 313.477 336.583 307.07C336.583 306.887 336.434 306.739 336.251 306.739H321.255C313.889 306.739 307.923 312.712 307.923 320.074C307.923 327.436 313.889 333.41 321.255 333.41H336.251C336.434 333.41 336.583 333.261 336.583 333.078C336.583 326.672 331.389 321.478 324.983 321.478H321.255C320.485 321.478 319.855 320.853 319.855 320.074Z" fill="#ED1846"/>
</svg>
