<svg width="462" height="395" viewBox="0 0 462 395" fill="none" xmlns="http://www.w3.org/2000/svg">
<rect width="462" height="395" fill="white"/>
<path d="M120.109 323.17H116.479V326.69H112.519V323.17H108.889V319.43H112.519V315.91H116.479V319.43H120.109V323.17Z" fill="#B7B7B7"/>
<path d="M209.609 323.17H205.979V326.69H202.019V323.17H198.389V319.43H202.019V315.91H205.979V319.43H209.609V323.17Z" fill="#B7B7B7"/>
<path d="M323.389 316.57H334.609V320.31H323.389V316.57ZM323.389 322.29H334.609V326.03H323.389V322.29Z" fill="#B7B7B7"/>
<path d="M133.995 362.07C133.267 362.07 132.59 361.949 131.965 361.706C131.349 361.454 130.812 361.104 130.355 360.656C129.897 360.208 129.543 359.685 129.291 359.088C129.039 358.481 128.913 357.819 128.913 357.1C128.913 356.381 129.039 355.723 129.291 355.126C129.543 354.519 129.897 353.992 130.355 353.544C130.821 353.096 131.363 352.751 131.979 352.508C132.595 352.256 133.267 352.13 133.995 352.13C134.685 352.13 135.329 352.242 135.927 352.466C136.533 352.69 137.051 353.031 137.481 353.488L137.033 353.95C136.613 353.539 136.146 353.245 135.633 353.068C135.129 352.881 134.592 352.788 134.023 352.788C133.397 352.788 132.814 352.895 132.273 353.11C131.741 353.325 131.274 353.628 130.873 354.02C130.481 354.412 130.173 354.869 129.949 355.392C129.734 355.915 129.627 356.484 129.627 357.1C129.627 357.716 129.734 358.285 129.949 358.808C130.173 359.331 130.481 359.788 130.873 360.18C131.274 360.572 131.741 360.875 132.273 361.09C132.814 361.305 133.397 361.412 134.023 361.412C134.592 361.412 135.129 361.323 135.633 361.146C136.146 360.959 136.613 360.656 137.033 360.236L137.481 360.698C137.051 361.155 136.533 361.501 135.927 361.734C135.329 361.958 134.685 362.07 133.995 362.07ZM142.356 362.056C141.731 362.056 141.19 361.944 140.732 361.72C140.275 361.487 139.92 361.141 139.668 360.684C139.426 360.217 139.304 359.643 139.304 358.962V354.692H140.004V358.906C140.004 359.727 140.214 360.353 140.634 360.782C141.054 361.211 141.647 361.426 142.412 361.426C142.963 361.426 143.439 361.309 143.84 361.076C144.242 360.843 144.55 360.516 144.764 360.096C144.979 359.667 145.086 359.163 145.086 358.584V354.692H145.786V362H145.114V359.97L145.212 360.208C144.998 360.777 144.638 361.23 144.134 361.566C143.64 361.893 143.047 362.056 142.356 362.056ZM150.602 362.056C149.995 362.056 149.426 361.967 148.894 361.79C148.371 361.613 147.965 361.389 147.676 361.118L147.998 360.558C148.278 360.801 148.651 361.011 149.118 361.188C149.584 361.356 150.088 361.44 150.63 361.44C151.395 361.44 151.946 361.314 152.282 361.062C152.618 360.81 152.786 360.479 152.786 360.068C152.786 359.769 152.697 359.536 152.52 359.368C152.352 359.191 152.123 359.055 151.834 358.962C151.544 358.869 151.227 358.794 150.882 358.738C150.536 358.673 150.191 358.603 149.846 358.528C149.5 358.453 149.183 358.346 148.894 358.206C148.604 358.066 148.371 357.875 148.194 357.632C148.026 357.38 147.942 357.049 147.942 356.638C147.942 356.265 148.044 355.929 148.25 355.63C148.455 355.331 148.763 355.093 149.174 354.916C149.584 354.729 150.098 354.636 150.714 354.636C151.171 354.636 151.628 354.701 152.086 354.832C152.552 354.963 152.93 355.135 153.22 355.35L152.898 355.91C152.59 355.677 152.244 355.509 151.862 355.406C151.479 355.303 151.092 355.252 150.7 355.252C149.99 355.252 149.468 355.383 149.132 355.644C148.805 355.905 148.642 356.232 148.642 356.624C148.642 356.932 148.726 357.179 148.894 357.366C149.071 357.543 149.304 357.683 149.594 357.786C149.883 357.879 150.2 357.959 150.546 358.024C150.891 358.08 151.236 358.145 151.582 358.22C151.927 358.295 152.244 358.402 152.534 358.542C152.823 358.673 153.052 358.859 153.22 359.102C153.397 359.335 153.486 359.653 153.486 360.054C153.486 360.455 153.374 360.805 153.15 361.104C152.935 361.403 152.613 361.636 152.184 361.804C151.754 361.972 151.227 362.056 150.602 362.056ZM157.567 362.056C156.923 362.056 156.428 361.879 156.083 361.524C155.747 361.169 155.579 360.684 155.579 360.068V353.096H156.279V359.998C156.279 360.465 156.396 360.824 156.629 361.076C156.862 361.328 157.198 361.454 157.637 361.454C158.094 361.454 158.472 361.319 158.771 361.048L159.065 361.538C158.878 361.715 158.65 361.846 158.379 361.93C158.118 362.014 157.847 362.056 157.567 362.056ZM154.235 355.294V354.692H158.603V355.294H154.235ZM163.613 362.056C162.913 362.056 162.288 361.897 161.737 361.58C161.196 361.263 160.762 360.824 160.435 360.264C160.118 359.704 159.959 359.065 159.959 358.346C159.959 357.618 160.118 356.979 160.435 356.428C160.762 355.868 161.196 355.429 161.737 355.112C162.288 354.795 162.913 354.636 163.613 354.636C164.313 354.636 164.939 354.795 165.489 355.112C166.04 355.429 166.474 355.868 166.791 356.428C167.109 356.979 167.267 357.618 167.267 358.346C167.267 359.065 167.109 359.704 166.791 360.264C166.474 360.824 166.04 361.263 165.489 361.58C164.939 361.897 164.313 362.056 163.613 362.056ZM163.613 361.426C164.173 361.426 164.677 361.3 165.125 361.048C165.573 360.787 165.923 360.423 166.175 359.956C166.427 359.489 166.553 358.953 166.553 358.346C166.553 357.73 166.427 357.193 166.175 356.736C165.923 356.269 165.573 355.91 165.125 355.658C164.677 355.397 164.173 355.266 163.613 355.266C163.053 355.266 162.549 355.397 162.101 355.658C161.663 355.91 161.313 356.269 161.051 356.736C160.799 357.193 160.673 357.73 160.673 358.346C160.673 358.953 160.799 359.489 161.051 359.956C161.313 360.423 161.663 360.787 162.101 361.048C162.549 361.3 163.053 361.426 163.613 361.426ZM178.539 354.636C179.127 354.636 179.636 354.753 180.065 354.986C180.504 355.21 180.844 355.555 181.087 356.022C181.33 356.479 181.451 357.049 181.451 357.73V362H180.751V357.786C180.751 356.965 180.55 356.339 180.149 355.91C179.748 355.481 179.188 355.266 178.469 355.266C177.918 355.266 177.442 355.383 177.041 355.616C176.64 355.849 176.332 356.176 176.117 356.596C175.902 357.016 175.795 357.52 175.795 358.108V362H175.095V357.786C175.095 356.965 174.894 356.339 174.493 355.91C174.092 355.481 173.532 355.266 172.813 355.266C172.262 355.266 171.786 355.383 171.385 355.616C170.984 355.849 170.676 356.176 170.461 356.596C170.246 357.016 170.139 357.52 170.139 358.108V362H169.439V354.692H170.111V356.708L170.013 356.484C170.228 355.915 170.587 355.467 171.091 355.14C171.595 354.804 172.202 354.636 172.911 354.636C173.639 354.636 174.25 354.823 174.745 355.196C175.249 355.56 175.566 356.106 175.697 356.834L175.459 356.736C175.655 356.111 176.024 355.607 176.565 355.224C177.106 354.832 177.764 354.636 178.539 354.636ZM124.684 370.708H129.99V371.338H124.684V370.708ZM124.768 375.356H130.816V376H124.054V366.2H130.606V366.844H124.768V375.356ZM133.195 376V365.612H133.895V376H133.195ZM139.813 376.056C139.076 376.056 138.423 375.897 137.853 375.58C137.293 375.263 136.85 374.824 136.523 374.264C136.206 373.704 136.047 373.065 136.047 372.346C136.047 371.618 136.197 370.979 136.495 370.428C136.803 369.868 137.223 369.429 137.755 369.112C138.287 368.795 138.885 368.636 139.547 368.636C140.21 368.636 140.803 368.79 141.325 369.098C141.857 369.406 142.273 369.84 142.571 370.4C142.879 370.951 143.033 371.59 143.033 372.318C143.033 372.346 143.029 372.379 143.019 372.416C143.019 372.444 143.019 372.477 143.019 372.514H136.565V371.968H142.641L142.361 372.234C142.371 371.665 142.249 371.156 141.997 370.708C141.755 370.251 141.423 369.896 141.003 369.644C140.583 369.383 140.098 369.252 139.547 369.252C139.006 369.252 138.521 369.383 138.091 369.644C137.671 369.896 137.34 370.251 137.097 370.708C136.855 371.156 136.733 371.669 136.733 372.248V372.374C136.733 372.971 136.864 373.503 137.125 373.97C137.396 374.427 137.765 374.787 138.231 375.048C138.698 375.3 139.23 375.426 139.827 375.426C140.294 375.426 140.728 375.342 141.129 375.174C141.54 375.006 141.885 374.749 142.165 374.404L142.571 374.866C142.254 375.258 141.853 375.557 141.367 375.762C140.891 375.958 140.373 376.056 139.813 376.056ZM154.299 368.636C154.887 368.636 155.396 368.753 155.825 368.986C156.264 369.21 156.604 369.555 156.847 370.022C157.09 370.479 157.211 371.049 157.211 371.73V376H156.511V371.786C156.511 370.965 156.31 370.339 155.909 369.91C155.508 369.481 154.948 369.266 154.229 369.266C153.678 369.266 153.202 369.383 152.801 369.616C152.4 369.849 152.092 370.176 151.877 370.596C151.662 371.016 151.555 371.52 151.555 372.108V376H150.855V371.786C150.855 370.965 150.654 370.339 150.253 369.91C149.852 369.481 149.292 369.266 148.573 369.266C148.022 369.266 147.546 369.383 147.145 369.616C146.744 369.849 146.436 370.176 146.221 370.596C146.006 371.016 145.899 371.52 145.899 372.108V376H145.199V368.692H145.871V370.708L145.773 370.484C145.988 369.915 146.347 369.467 146.851 369.14C147.355 368.804 147.962 368.636 148.671 368.636C149.399 368.636 150.01 368.823 150.505 369.196C151.009 369.56 151.326 370.106 151.457 370.834L151.219 370.736C151.415 370.111 151.784 369.607 152.325 369.224C152.866 368.832 153.524 368.636 154.299 368.636ZM163.069 376.056C162.332 376.056 161.679 375.897 161.109 375.58C160.549 375.263 160.106 374.824 159.779 374.264C159.462 373.704 159.303 373.065 159.303 372.346C159.303 371.618 159.453 370.979 159.751 370.428C160.059 369.868 160.479 369.429 161.011 369.112C161.543 368.795 162.141 368.636 162.803 368.636C163.466 368.636 164.059 368.79 164.581 369.098C165.113 369.406 165.529 369.84 165.827 370.4C166.135 370.951 166.289 371.59 166.289 372.318C166.289 372.346 166.285 372.379 166.275 372.416C166.275 372.444 166.275 372.477 166.275 372.514H159.821V371.968H165.897L165.617 372.234C165.627 371.665 165.505 371.156 165.253 370.708C165.011 370.251 164.679 369.896 164.259 369.644C163.839 369.383 163.354 369.252 162.803 369.252C162.262 369.252 161.777 369.383 161.347 369.644C160.927 369.896 160.596 370.251 160.353 370.708C160.111 371.156 159.989 371.669 159.989 372.248V372.374C159.989 372.971 160.12 373.503 160.381 373.97C160.652 374.427 161.021 374.787 161.487 375.048C161.954 375.3 162.486 375.426 163.083 375.426C163.55 375.426 163.984 375.342 164.385 375.174C164.796 375.006 165.141 374.749 165.421 374.404L165.827 374.866C165.51 375.258 165.109 375.557 164.623 375.762C164.147 375.958 163.629 376.056 163.069 376.056ZM172.025 368.636C172.622 368.636 173.14 368.753 173.579 368.986C174.027 369.21 174.372 369.555 174.615 370.022C174.867 370.479 174.993 371.049 174.993 371.73V376H174.293V371.786C174.293 370.965 174.083 370.339 173.663 369.91C173.252 369.481 172.673 369.266 171.927 369.266C171.357 369.266 170.863 369.383 170.443 369.616C170.023 369.849 169.701 370.176 169.477 370.596C169.262 371.016 169.155 371.52 169.155 372.108V376H168.455V368.692H169.127V370.722L169.029 370.498C169.253 369.919 169.621 369.467 170.135 369.14C170.648 368.804 171.278 368.636 172.025 368.636ZM180.003 376.056C179.359 376.056 178.864 375.879 178.519 375.524C178.183 375.169 178.015 374.684 178.015 374.068V367.096H178.715V373.998C178.715 374.465 178.831 374.824 179.065 375.076C179.298 375.328 179.634 375.454 180.073 375.454C180.53 375.454 180.908 375.319 181.207 375.048L181.501 375.538C181.314 375.715 181.085 375.846 180.815 375.93C180.553 376.014 180.283 376.056 180.003 376.056ZM176.671 369.294V368.692H181.039V369.294H176.671ZM185.301 376.056C184.694 376.056 184.125 375.967 183.593 375.79C183.07 375.613 182.664 375.389 182.375 375.118L182.697 374.558C182.977 374.801 183.35 375.011 183.817 375.188C184.283 375.356 184.787 375.44 185.329 375.44C186.094 375.44 186.645 375.314 186.981 375.062C187.317 374.81 187.485 374.479 187.485 374.068C187.485 373.769 187.396 373.536 187.219 373.368C187.051 373.191 186.822 373.055 186.533 372.962C186.243 372.869 185.926 372.794 185.581 372.738C185.235 372.673 184.89 372.603 184.545 372.528C184.199 372.453 183.882 372.346 183.593 372.206C183.303 372.066 183.07 371.875 182.893 371.632C182.725 371.38 182.641 371.049 182.641 370.638C182.641 370.265 182.743 369.929 182.949 369.63C183.154 369.331 183.462 369.093 183.873 368.916C184.283 368.729 184.797 368.636 185.413 368.636C185.87 368.636 186.327 368.701 186.785 368.832C187.251 368.963 187.629 369.135 187.919 369.35L187.597 369.91C187.289 369.677 186.943 369.509 186.561 369.406C186.178 369.303 185.791 369.252 185.399 369.252C184.689 369.252 184.167 369.383 183.831 369.644C183.504 369.905 183.341 370.232 183.341 370.624C183.341 370.932 183.425 371.179 183.593 371.366C183.77 371.543 184.003 371.683 184.293 371.786C184.582 371.879 184.899 371.959 185.245 372.024C185.59 372.08 185.935 372.145 186.281 372.22C186.626 372.295 186.943 372.402 187.233 372.542C187.522 372.673 187.751 372.859 187.919 373.102C188.096 373.335 188.185 373.653 188.185 374.054C188.185 374.455 188.073 374.805 187.849 375.104C187.634 375.403 187.312 375.636 186.883 375.804C186.453 375.972 185.926 376.056 185.301 376.056Z" fill="#666666"/>
<path d="M61.512 362L59.174 358.724C58.8287 358.771 58.5113 358.794 58.222 358.794H55.422V362H54.708V352.2H58.222C59.454 352.2 60.42 352.494 61.12 353.082C61.82 353.661 62.17 354.468 62.17 355.504C62.17 356.279 61.9693 356.932 61.568 357.464C61.176 357.987 60.6113 358.355 59.874 358.57L62.324 362H61.512ZM58.222 358.164C59.2673 358.164 60.0653 357.935 60.616 357.478C61.1667 357.011 61.442 356.353 61.442 355.504C61.442 354.655 61.1667 354.001 60.616 353.544C60.0653 353.077 59.2673 352.844 58.222 352.844H55.422V358.164H58.222ZM64.5602 354.692H65.2602V362H64.5602V354.692ZM64.9102 352.914C64.7515 352.914 64.6162 352.863 64.5042 352.76C64.3922 352.648 64.3362 352.513 64.3362 352.354C64.3362 352.195 64.3922 352.06 64.5042 351.948C64.6162 351.836 64.7515 351.78 64.9102 351.78C65.0688 351.78 65.2042 351.836 65.3162 351.948C65.4282 352.051 65.4842 352.181 65.4842 352.34C65.4842 352.499 65.4282 352.634 65.3162 352.746C65.2042 352.858 65.0688 352.914 64.9102 352.914ZM71.0666 362.056C70.3759 362.056 69.7506 361.897 69.1906 361.58C68.6399 361.263 68.2059 360.824 67.8886 360.264C67.5712 359.695 67.4126 359.055 67.4126 358.346C67.4126 357.637 67.5712 357.002 67.8886 356.442C68.2059 355.873 68.6399 355.429 69.1906 355.112C69.7506 354.795 70.3759 354.636 71.0666 354.636C71.7572 354.636 72.3779 354.795 72.9286 355.112C73.4886 355.429 73.9272 355.873 74.2446 356.442C74.5619 357.002 74.7206 357.637 74.7206 358.346C74.7206 359.055 74.5619 359.695 74.2446 360.264C73.9272 360.824 73.4886 361.263 72.9286 361.58C72.3779 361.897 71.7572 362.056 71.0666 362.056ZM71.0666 361.426C71.6266 361.426 72.1259 361.295 72.5646 361.034C73.0126 360.773 73.3626 360.409 73.6146 359.942C73.8759 359.475 74.0066 358.943 74.0066 358.346C74.0066 357.749 73.8759 357.217 73.6146 356.75C73.3626 356.283 73.0126 355.919 72.5646 355.658C72.1259 355.397 71.6266 355.266 71.0666 355.266C70.5066 355.266 70.0026 355.397 69.5546 355.658C69.1159 355.919 68.7659 356.283 68.5046 356.75C68.2526 357.217 68.1266 357.749 68.1266 358.346C68.1266 358.943 68.2526 359.475 68.5046 359.942C68.7659 360.409 69.1159 360.773 69.5546 361.034C70.0026 361.295 70.5066 361.426 71.0666 361.426ZM80.5182 361.538C80.3409 361.706 80.1169 361.837 79.8462 361.93C79.5849 362.014 79.3095 362.056 79.0202 362.056C78.3855 362.056 77.8955 361.883 77.5502 361.538C77.2049 361.183 77.0322 360.693 77.0322 360.068V355.294H75.6882V354.692H77.0322V353.096H77.7322V354.692H80.0562V355.294H77.7322V359.998C77.7322 360.474 77.8442 360.838 78.0682 361.09C78.3015 361.333 78.6422 361.454 79.0902 361.454C79.5475 361.454 79.9255 361.319 80.2242 361.048L80.5182 361.538Z" fill="#666666"/>
<path d="M208.892 362L205.56 352.2H206.316L209.48 361.566H209.102L212.364 352.2H213.05L216.284 361.566H215.92L219.112 352.2H219.812L216.494 362H215.738L212.602 352.942H212.784L209.648 362H208.892ZM224.054 362.056C223.316 362.056 222.663 361.897 222.094 361.58C221.534 361.263 221.09 360.824 220.764 360.264C220.446 359.704 220.288 359.065 220.288 358.346C220.288 357.618 220.437 356.979 220.736 356.428C221.044 355.868 221.464 355.429 221.996 355.112C222.528 354.795 223.125 354.636 223.788 354.636C224.45 354.636 225.043 354.79 225.566 355.098C226.098 355.406 226.513 355.84 226.812 356.4C227.12 356.951 227.274 357.59 227.274 358.318C227.274 358.346 227.269 358.379 227.26 358.416C227.26 358.444 227.26 358.477 227.26 358.514H220.806V357.968H226.882L226.602 358.234C226.611 357.665 226.49 357.156 226.238 356.708C225.995 356.251 225.664 355.896 225.244 355.644C224.824 355.383 224.338 355.252 223.788 355.252C223.246 355.252 222.761 355.383 222.332 355.644C221.912 355.896 221.58 356.251 221.338 356.708C221.095 357.156 220.974 357.669 220.974 358.248V358.374C220.974 358.971 221.104 359.503 221.366 359.97C221.636 360.427 222.005 360.787 222.472 361.048C222.938 361.3 223.47 361.426 224.068 361.426C224.534 361.426 224.968 361.342 225.37 361.174C225.78 361.006 226.126 360.749 226.406 360.404L226.812 360.866C226.494 361.258 226.093 361.557 225.608 361.762C225.132 361.958 224.614 362.056 224.054 362.056ZM233.107 362.056C232.463 362.056 231.88 361.907 231.357 361.608C230.844 361.309 230.433 360.88 230.125 360.32C229.826 359.76 229.677 359.102 229.677 358.346C229.677 357.571 229.826 356.909 230.125 356.358C230.433 355.807 230.844 355.383 231.357 355.084C231.88 354.785 232.463 354.636 233.107 354.636C233.798 354.636 234.414 354.795 234.955 355.112C235.506 355.42 235.935 355.854 236.243 356.414C236.56 356.965 236.719 357.609 236.719 358.346C236.719 359.074 236.56 359.718 236.243 360.278C235.935 360.838 235.506 361.277 234.955 361.594C234.414 361.902 233.798 362.056 233.107 362.056ZM229.439 362V351.612H230.139V357.058L229.999 358.332L230.111 359.606V362H229.439ZM233.065 361.426C233.625 361.426 234.129 361.3 234.577 361.048C235.025 360.787 235.375 360.423 235.627 359.956C235.888 359.489 236.019 358.953 236.019 358.346C236.019 357.73 235.888 357.193 235.627 356.736C235.375 356.269 235.025 355.91 234.577 355.658C234.129 355.397 233.625 355.266 233.065 355.266C232.505 355.266 232.001 355.397 231.553 355.658C231.114 355.91 230.764 356.269 230.503 356.736C230.251 357.193 230.125 357.73 230.125 358.346C230.125 358.953 230.251 359.489 230.503 359.956C230.764 360.423 231.114 360.787 231.553 361.048C232.001 361.3 232.505 361.426 233.065 361.426ZM246.85 362.07C246.122 362.07 245.445 361.949 244.82 361.706C244.204 361.454 243.667 361.104 243.21 360.656C242.753 360.208 242.398 359.685 242.146 359.088C241.894 358.481 241.768 357.819 241.768 357.1C241.768 356.381 241.894 355.723 242.146 355.126C242.398 354.519 242.753 353.992 243.21 353.544C243.677 353.096 244.218 352.751 244.834 352.508C245.45 352.256 246.122 352.13 246.85 352.13C247.541 352.13 248.185 352.242 248.782 352.466C249.389 352.69 249.907 353.031 250.336 353.488L249.888 353.95C249.468 353.539 249.001 353.245 248.488 353.068C247.984 352.881 247.447 352.788 246.878 352.788C246.253 352.788 245.669 352.895 245.128 353.11C244.596 353.325 244.129 353.628 243.728 354.02C243.336 354.412 243.028 354.869 242.804 355.392C242.589 355.915 242.482 356.484 242.482 357.1C242.482 357.716 242.589 358.285 242.804 358.808C243.028 359.331 243.336 359.788 243.728 360.18C244.129 360.572 244.596 360.875 245.128 361.09C245.669 361.305 246.253 361.412 246.878 361.412C247.447 361.412 247.984 361.323 248.488 361.146C249.001 360.959 249.468 360.656 249.888 360.236L250.336 360.698C249.907 361.155 249.389 361.501 248.782 361.734C248.185 361.958 247.541 362.07 246.85 362.07ZM255.018 362.056C254.318 362.056 253.692 361.897 253.142 361.58C252.6 361.263 252.166 360.824 251.84 360.264C251.522 359.704 251.364 359.065 251.364 358.346C251.364 357.618 251.522 356.979 251.84 356.428C252.166 355.868 252.6 355.429 253.142 355.112C253.692 354.795 254.318 354.636 255.018 354.636C255.718 354.636 256.343 354.795 256.894 355.112C257.444 355.429 257.878 355.868 258.196 356.428C258.513 356.979 258.672 357.618 258.672 358.346C258.672 359.065 258.513 359.704 258.196 360.264C257.878 360.824 257.444 361.263 256.894 361.58C256.343 361.897 255.718 362.056 255.018 362.056ZM255.018 361.426C255.578 361.426 256.082 361.3 256.53 361.048C256.978 360.787 257.328 360.423 257.58 359.956C257.832 359.489 257.958 358.953 257.958 358.346C257.958 357.73 257.832 357.193 257.58 356.736C257.328 356.269 256.978 355.91 256.53 355.658C256.082 355.397 255.578 355.266 255.018 355.266C254.458 355.266 253.954 355.397 253.506 355.658C253.067 355.91 252.717 356.269 252.456 356.736C252.204 357.193 252.078 357.73 252.078 358.346C252.078 358.953 252.204 359.489 252.456 359.956C252.717 360.423 253.067 360.787 253.506 361.048C253.954 361.3 254.458 361.426 255.018 361.426ZM269.943 354.636C270.531 354.636 271.04 354.753 271.469 354.986C271.908 355.21 272.249 355.555 272.491 356.022C272.734 356.479 272.855 357.049 272.855 357.73V362H272.155V357.786C272.155 356.965 271.955 356.339 271.553 355.91C271.152 355.481 270.592 355.266 269.873 355.266C269.323 355.266 268.847 355.383 268.445 355.616C268.044 355.849 267.736 356.176 267.521 356.596C267.307 357.016 267.199 357.52 267.199 358.108V362H266.499V357.786C266.499 356.965 266.299 356.339 265.897 355.91C265.496 355.481 264.936 355.266 264.217 355.266C263.667 355.266 263.191 355.383 262.789 355.616C262.388 355.849 262.08 356.176 261.865 356.596C261.651 357.016 261.543 357.52 261.543 358.108V362H260.843V354.692H261.515V356.708L261.417 356.484C261.632 355.915 261.991 355.467 262.495 355.14C262.999 354.804 263.606 354.636 264.315 354.636C265.043 354.636 265.655 354.823 266.149 355.196C266.653 355.56 266.971 356.106 267.101 356.834L266.863 356.736C267.059 356.111 267.428 355.607 267.969 355.224C268.511 354.832 269.169 354.636 269.943 354.636ZM279.414 362.056C278.77 362.056 278.186 361.907 277.664 361.608C277.15 361.309 276.74 360.885 276.432 360.334C276.133 359.774 275.984 359.111 275.984 358.346C275.984 357.581 276.133 356.923 276.432 356.372C276.74 355.812 277.15 355.383 277.664 355.084C278.186 354.785 278.77 354.636 279.414 354.636C280.104 354.636 280.72 354.795 281.262 355.112C281.812 355.42 282.242 355.854 282.55 356.414C282.867 356.974 283.026 357.618 283.026 358.346C283.026 359.074 282.867 359.718 282.55 360.278C282.242 360.838 281.812 361.277 281.262 361.594C280.72 361.902 280.104 362.056 279.414 362.056ZM275.746 364.716V354.692H276.418V357.086L276.306 358.36L276.446 359.634V364.716H275.746ZM279.372 361.426C279.932 361.426 280.436 361.3 280.884 361.048C281.332 360.787 281.682 360.423 281.934 359.956C282.195 359.489 282.326 358.953 282.326 358.346C282.326 357.73 282.195 357.193 281.934 356.736C281.682 356.269 281.332 355.91 280.884 355.658C280.436 355.397 279.932 355.266 279.372 355.266C278.812 355.266 278.308 355.397 277.86 355.658C277.421 355.91 277.071 356.269 276.81 356.736C276.558 357.193 276.432 357.73 276.432 358.346C276.432 358.953 276.558 359.489 276.81 359.956C277.071 360.423 277.421 360.787 277.86 361.048C278.308 361.3 278.812 361.426 279.372 361.426ZM288.049 362.056C287.349 362.056 286.724 361.897 286.173 361.58C285.632 361.263 285.198 360.824 284.871 360.264C284.554 359.704 284.395 359.065 284.395 358.346C284.395 357.618 284.554 356.979 284.871 356.428C285.198 355.868 285.632 355.429 286.173 355.112C286.724 354.795 287.349 354.636 288.049 354.636C288.749 354.636 289.374 354.795 289.925 355.112C290.476 355.429 290.91 355.868 291.227 356.428C291.544 356.979 291.703 357.618 291.703 358.346C291.703 359.065 291.544 359.704 291.227 360.264C290.91 360.824 290.476 361.263 289.925 361.58C289.374 361.897 288.749 362.056 288.049 362.056ZM288.049 361.426C288.609 361.426 289.113 361.3 289.561 361.048C290.009 360.787 290.359 360.423 290.611 359.956C290.863 359.489 290.989 358.953 290.989 358.346C290.989 357.73 290.863 357.193 290.611 356.736C290.359 356.269 290.009 355.91 289.561 355.658C289.113 355.397 288.609 355.266 288.049 355.266C287.489 355.266 286.985 355.397 286.537 355.658C286.098 355.91 285.748 356.269 285.487 356.736C285.235 357.193 285.109 357.73 285.109 358.346C285.109 358.953 285.235 359.489 285.487 359.956C285.748 360.423 286.098 360.787 286.537 361.048C286.985 361.3 287.489 361.426 288.049 361.426ZM297.445 354.636C298.042 354.636 298.56 354.753 298.999 354.986C299.447 355.21 299.792 355.555 300.035 356.022C300.287 356.479 300.413 357.049 300.413 357.73V362H299.713V357.786C299.713 356.965 299.503 356.339 299.083 355.91C298.672 355.481 298.093 355.266 297.347 355.266C296.777 355.266 296.283 355.383 295.863 355.616C295.443 355.849 295.121 356.176 294.897 356.596C294.682 357.016 294.575 357.52 294.575 358.108V362H293.875V354.692H294.547V356.722L294.449 356.498C294.673 355.919 295.041 355.467 295.555 355.14C296.068 354.804 296.698 354.636 297.445 354.636ZM306.263 362.056C305.525 362.056 304.872 361.897 304.303 361.58C303.743 361.263 303.299 360.824 302.973 360.264C302.655 359.704 302.497 359.065 302.497 358.346C302.497 357.618 302.646 356.979 302.945 356.428C303.253 355.868 303.673 355.429 304.205 355.112C304.737 354.795 305.334 354.636 305.997 354.636C306.659 354.636 307.252 354.79 307.775 355.098C308.307 355.406 308.722 355.84 309.021 356.4C309.329 356.951 309.483 357.59 309.483 358.318C309.483 358.346 309.478 358.379 309.469 358.416C309.469 358.444 309.469 358.477 309.469 358.514H303.015V357.968H309.091L308.811 358.234C308.82 357.665 308.699 357.156 308.447 356.708C308.204 356.251 307.873 355.896 307.453 355.644C307.033 355.383 306.547 355.252 305.997 355.252C305.455 355.252 304.97 355.383 304.541 355.644C304.121 355.896 303.789 356.251 303.547 356.708C303.304 357.156 303.183 357.669 303.183 358.248V358.374C303.183 358.971 303.313 359.503 303.575 359.97C303.845 360.427 304.214 360.787 304.681 361.048C305.147 361.3 305.679 361.426 306.277 361.426C306.743 361.426 307.177 361.342 307.579 361.174C307.989 361.006 308.335 360.749 308.615 360.404L309.021 360.866C308.703 361.258 308.302 361.557 307.817 361.762C307.341 361.958 306.823 362.056 306.263 362.056ZM315.218 354.636C315.815 354.636 316.333 354.753 316.772 354.986C317.22 355.21 317.565 355.555 317.808 356.022C318.06 356.479 318.186 357.049 318.186 357.73V362H317.486V357.786C317.486 356.965 317.276 356.339 316.856 355.91C316.445 355.481 315.867 355.266 315.12 355.266C314.551 355.266 314.056 355.383 313.636 355.616C313.216 355.849 312.894 356.176 312.67 356.596C312.455 357.016 312.348 357.52 312.348 358.108V362H311.648V354.692H312.32V356.722L312.222 356.498C312.446 355.919 312.815 355.467 313.328 355.14C313.841 354.804 314.471 354.636 315.218 354.636ZM323.196 362.056C322.552 362.056 322.057 361.879 321.712 361.524C321.376 361.169 321.208 360.684 321.208 360.068V353.096H321.908V359.998C321.908 360.465 322.025 360.824 322.258 361.076C322.491 361.328 322.827 361.454 323.266 361.454C323.723 361.454 324.101 361.319 324.4 361.048L324.694 361.538C324.507 361.715 324.279 361.846 324.008 361.93C323.747 362.014 323.476 362.056 323.196 362.056ZM319.864 355.294V354.692H324.232V355.294H319.864ZM328.494 362.056C327.887 362.056 327.318 361.967 326.786 361.79C326.263 361.613 325.857 361.389 325.568 361.118L325.89 360.558C326.17 360.801 326.543 361.011 327.01 361.188C327.477 361.356 327.981 361.44 328.522 361.44C329.287 361.44 329.838 361.314 330.174 361.062C330.51 360.81 330.678 360.479 330.678 360.068C330.678 359.769 330.589 359.536 330.412 359.368C330.244 359.191 330.015 359.055 329.726 358.962C329.437 358.869 329.119 358.794 328.774 358.738C328.429 358.673 328.083 358.603 327.738 358.528C327.393 358.453 327.075 358.346 326.786 358.206C326.497 358.066 326.263 357.875 326.086 357.632C325.918 357.38 325.834 357.049 325.834 356.638C325.834 356.265 325.937 355.929 326.142 355.63C326.347 355.331 326.655 355.093 327.066 354.916C327.477 354.729 327.99 354.636 328.606 354.636C329.063 354.636 329.521 354.701 329.978 354.832C330.445 354.963 330.823 355.135 331.112 355.35L330.79 355.91C330.482 355.677 330.137 355.509 329.754 355.406C329.371 355.303 328.984 355.252 328.592 355.252C327.883 355.252 327.36 355.383 327.024 355.644C326.697 355.905 326.534 356.232 326.534 356.624C326.534 356.932 326.618 357.179 326.786 357.366C326.963 357.543 327.197 357.683 327.486 357.786C327.775 357.879 328.093 357.959 328.438 358.024C328.783 358.08 329.129 358.145 329.474 358.22C329.819 358.295 330.137 358.402 330.426 358.542C330.715 358.673 330.944 358.859 331.112 359.102C331.289 359.335 331.378 359.653 331.378 360.054C331.378 360.455 331.266 360.805 331.042 361.104C330.827 361.403 330.505 361.636 330.076 361.804C329.647 361.972 329.119 362.056 328.494 362.056Z" fill="#666666"/>
<path d="M51.0713 303.313C51.0713 303.14 51.2113 303 51.384 303H74.6274C80.7899 303 85.4728 308.001 85.4728 314.169V315.399C85.4728 316.09 84.9128 316.651 84.2219 316.651H78.9723C78.6268 316.651 78.3468 316.371 78.3468 316.025V314.169C78.3468 312.113 76.6816 310.446 74.6274 310.446H58.8228C58.6501 310.446 58.5101 310.586 58.5101 310.759V336.35C58.5101 336.523 58.3696 336.664 58.1971 336.657C54.2339 336.493 51.0713 333.225 51.0713 329.217V303.313Z" fill="#ED1846"/>
<path d="M65.0218 317.892C64.8491 317.892 64.7084 318.032 64.7155 318.205C64.8796 322.172 68.1444 325.338 72.1478 325.338H77.107C77.7917 325.338 78.3468 325.893 78.3468 326.579V336.35C78.3468 336.523 78.4872 336.664 78.6598 336.657C82.623 336.493 85.7856 333.225 85.7856 329.217V326.579C85.7856 321.781 81.9 317.892 77.107 317.892H65.0218Z" fill="#ED1846"/>
<path d="M157.851 337.57C155.286 337.57 152.896 337.158 150.68 336.335C148.495 335.48 146.596 334.277 144.981 332.726C143.366 331.175 142.1 329.354 141.182 327.265C140.295 325.175 139.852 322.88 139.852 320.378C139.852 317.877 140.295 315.582 141.182 313.492C142.1 311.403 143.366 309.582 144.981 308.031C146.627 306.48 148.543 305.293 150.727 304.469C152.912 303.615 155.302 303.187 157.898 303.187C160.779 303.187 163.375 303.694 165.687 304.707C168.03 305.688 169.992 307.145 171.575 309.076L166.636 313.635C165.497 312.337 164.23 311.371 162.837 310.738C161.444 310.073 159.925 309.741 158.278 309.741C156.727 309.741 155.302 309.994 154.004 310.501C152.706 311.007 151.582 311.735 150.632 312.685C149.683 313.635 148.939 314.759 148.4 316.057C147.894 317.355 147.64 318.795 147.64 320.378C147.64 321.961 147.894 323.402 148.4 324.7C148.939 325.998 149.683 327.122 150.632 328.072C151.582 329.022 152.706 329.75 154.004 330.256C155.302 330.763 156.727 331.016 158.278 331.016C159.925 331.016 161.444 330.7 162.837 330.066C164.23 329.402 165.497 328.404 166.636 327.075L171.575 331.634C169.992 333.565 168.03 335.037 165.687 336.05C163.375 337.063 160.764 337.57 157.851 337.57Z" fill="#B7B7B7"/>
<rect width="461" height="190.547" transform="translate(1 38.2267)" fill="white"/>
<path d="M42.5726 202.152C40.5118 202.152 38.5983 201.833 36.8319 201.195C35.0901 200.533 33.5691 199.6 32.2688 198.398C30.9931 197.196 29.9996 195.773 29.2881 194.13C28.5767 192.486 28.2209 190.67 28.2209 188.683C28.2209 186.696 28.5767 184.881 29.2881 183.237C29.9996 181.593 30.9931 180.17 32.2688 178.968C33.5691 177.766 35.0901 176.846 36.8319 176.208C38.5983 175.546 40.5118 175.215 42.5726 175.215C45.0995 175.215 47.3319 175.656 49.27 176.54C51.2327 177.423 52.8518 178.698 54.1275 180.367L48.6444 185.261C47.8839 184.304 47.0376 183.568 46.1053 183.053C45.1976 182.513 44.1672 182.243 43.0142 182.243C42.1065 182.243 41.2846 182.391 40.5486 182.685C39.8127 182.979 39.1748 183.409 38.6351 183.973C38.1199 184.537 37.7151 185.224 37.4207 186.034C37.1263 186.819 36.9791 187.702 36.9791 188.683C36.9791 189.665 37.1263 190.56 37.4207 191.37C37.7151 192.155 38.1199 192.829 38.6351 193.394C39.1748 193.958 39.8127 194.387 40.5486 194.682C41.2846 194.976 42.1065 195.123 43.0142 195.123C44.1672 195.123 45.1976 194.866 46.1053 194.35C47.0376 193.811 47.8839 193.062 48.6444 192.106L54.1275 197C52.8518 198.644 51.2327 199.919 49.27 200.827C47.3319 201.71 45.0995 202.152 42.5726 202.152Z" fill="#ED1846"/>
<path d="M69.3393 202.152C65.3896 202.152 62.3107 201.085 60.1028 198.95C57.8948 196.816 56.7908 193.823 56.7908 189.971V175.804H65.4754V189.714C65.4754 191.676 65.8312 193.075 66.5426 193.909C67.2541 194.718 68.2108 195.123 69.4129 195.123C70.6396 195.123 71.5964 194.718 72.2833 193.909C72.9947 193.075 73.3504 191.676 73.3504 189.714V175.804H81.8878V189.971C81.8878 193.823 80.7839 196.816 78.5759 198.95C76.368 201.085 73.2891 202.152 69.3393 202.152Z" fill="#ED1846"/>
<path d="M96.2093 202.152C94.0504 202.152 91.9651 201.906 89.9535 201.416C87.9418 200.925 86.2858 200.287 84.9856 199.502L87.7823 193.173C89.0089 193.884 90.3705 194.461 91.867 194.902C93.388 195.319 94.86 195.528 96.2829 195.528C97.117 195.528 97.7671 195.479 98.2332 195.381C98.7239 195.258 99.0796 195.099 99.3004 194.902C99.5212 194.682 99.6316 194.424 99.6316 194.13C99.6316 193.663 99.374 193.295 98.8588 193.026C98.3436 192.756 97.6567 192.535 96.7981 192.363C95.964 192.167 95.044 191.971 94.0381 191.774C93.0323 191.554 92.0142 191.272 90.9838 190.928C89.978 190.585 89.0457 190.131 88.1871 189.566C87.353 189.002 86.6783 188.266 86.1631 187.359C85.648 186.426 85.3904 185.273 85.3904 183.899C85.3904 182.305 85.8319 180.857 86.7151 179.557C87.6228 178.232 88.9599 177.177 90.7262 176.392C92.5171 175.607 94.7373 175.215 97.3869 175.215C99.1287 175.215 100.846 175.399 102.539 175.767C104.232 176.135 105.753 176.699 107.102 177.46L104.489 183.752C103.213 183.114 101.974 182.636 100.772 182.317C99.5948 181.998 98.4418 181.839 97.3133 181.839C96.4792 181.839 95.8168 181.912 95.3261 182.059C94.8355 182.207 94.4797 182.403 94.2589 182.648C94.0627 182.894 93.9646 183.163 93.9646 183.458C93.9646 183.899 94.2221 184.255 94.7373 184.525C95.2525 184.77 95.9272 184.979 96.7613 185.151C97.6199 185.322 98.5522 185.506 99.558 185.703C100.588 185.899 101.606 186.169 102.612 186.512C103.618 186.856 104.538 187.309 105.372 187.874C106.231 188.438 106.918 189.174 107.433 190.082C107.948 190.989 108.206 192.118 108.206 193.467C108.206 195.037 107.752 196.485 106.844 197.809C105.961 199.11 104.636 200.165 102.87 200.974C101.104 201.759 98.8834 202.152 96.2093 202.152Z" fill="#ED1846"/>
<path d="M117.488 201.563V182.538H109.944V175.804H133.716V182.538H126.172V201.563H117.488Z" fill="#ED1846"/>
<path d="M149.477 202.152C147.392 202.152 145.453 201.821 143.663 201.158C141.896 200.496 140.363 199.564 139.063 198.361C137.762 197.135 136.744 195.7 136.008 194.056C135.297 192.412 134.941 190.621 134.941 188.683C134.941 186.721 135.297 184.93 136.008 183.311C136.744 181.667 137.762 180.244 139.063 179.042C140.363 177.815 141.896 176.871 143.663 176.208C145.453 175.546 147.392 175.215 149.477 175.215C151.587 175.215 153.525 175.546 155.291 176.208C157.057 176.871 158.591 177.815 159.891 179.042C161.191 180.244 162.197 181.667 162.909 183.311C163.645 184.93 164.012 186.721 164.012 188.683C164.012 190.621 163.645 192.412 162.909 194.056C162.197 195.7 161.191 197.135 159.891 198.361C158.591 199.564 157.057 200.496 155.291 201.158C153.525 201.821 151.587 202.152 149.477 202.152ZM149.477 195.123C150.286 195.123 151.035 194.976 151.722 194.682C152.433 194.387 153.046 193.97 153.562 193.43C154.101 192.866 154.518 192.191 154.813 191.406C155.107 190.597 155.254 189.689 155.254 188.683C155.254 187.677 155.107 186.782 154.813 185.997C154.518 185.187 154.101 184.513 153.562 183.973C153.046 183.409 152.433 182.979 151.722 182.685C151.035 182.391 150.286 182.243 149.477 182.243C148.667 182.243 147.907 182.391 147.195 182.685C146.508 182.979 145.895 183.409 145.355 183.973C144.84 184.513 144.435 185.187 144.141 185.997C143.847 186.782 143.699 187.677 143.699 188.683C143.699 189.689 143.847 190.597 144.141 191.406C144.435 192.191 144.84 192.866 145.355 193.43C145.895 193.97 146.508 194.387 147.195 194.682C147.907 194.976 148.667 195.123 149.477 195.123Z" fill="#ED1846"/>
<path d="M167.533 201.563V175.804H174.672L184.975 192.621H181.222L191.231 175.804H198.37L198.444 201.563H190.532L190.458 187.727H191.71L184.865 199.245H181.038L173.899 187.727H175.444V201.563H167.533Z" fill="#ED1846"/>
<path d="M203.673 194.056V187.8H214.713V194.056H203.673Z" fill="#ED1846"/>
<path d="M227.874 185.371H239.355V191.627H227.874V185.371ZM228.463 195.013H241.342V201.563H219.925V175.804H240.864V182.354H228.463V195.013Z" fill="#ED1846"/>
<path d="M246.158 201.563V175.804H254.842V194.829H266.471V201.563H246.158Z" fill="#ED1846"/>
<path d="M278.29 185.371H289.771V191.627H278.29V185.371ZM278.879 195.013H291.759V201.563H270.341V175.804H291.28V182.354H278.879V195.013Z" fill="#ED1846"/>
<path d="M296.574 201.563V175.804H303.713L314.017 192.621H310.263L320.272 175.804H327.411L327.485 201.563H319.573L319.5 187.727H320.751L313.906 199.245H310.079L302.94 187.727H304.486V201.563H296.574Z" fill="#ED1846"/>
<path d="M340.736 185.371H352.218V191.627H340.736V185.371ZM341.325 195.013H354.205V201.563H332.788V175.804H353.727V182.354H341.325V195.013Z" fill="#ED1846"/>
<path d="M359.02 201.563V175.804H366.159L379.26 191.48H375.948V175.804H384.411V201.563H377.272L364.172 185.887H367.484V201.563H359.02Z" fill="#ED1846"/>
<path d="M395.293 201.563V182.538H387.75V175.804H411.522V182.538H403.978V201.563H395.293Z" fill="#ED1846"/>
<path d="M424.486 202.152C422.327 202.152 420.242 201.906 418.23 201.416C416.218 200.925 414.563 200.287 413.262 199.502L416.059 193.173C417.286 193.884 418.647 194.461 420.144 194.902C421.665 195.319 423.137 195.528 424.56 195.528C425.394 195.528 426.044 195.479 426.51 195.381C427.001 195.258 427.356 195.099 427.577 194.902C427.798 194.682 427.908 194.424 427.908 194.13C427.908 193.663 427.651 193.295 427.136 193.026C426.62 192.756 425.933 192.535 425.075 192.363C424.241 192.167 423.321 191.971 422.315 191.774C421.309 191.554 420.291 191.272 419.261 190.928C418.255 190.585 417.322 190.131 416.464 189.566C415.63 189.002 414.955 188.266 414.44 187.359C413.925 186.426 413.667 185.273 413.667 183.899C413.667 182.305 414.109 180.857 414.992 179.557C415.9 178.232 417.237 177.177 419.003 176.392C420.794 175.607 423.014 175.215 425.664 175.215C427.405 175.215 429.123 175.399 430.815 175.767C432.508 176.135 434.029 176.699 435.379 177.46L432.766 183.752C431.49 183.114 430.251 182.636 429.049 182.317C427.872 181.998 426.718 181.839 425.59 181.839C424.756 181.839 424.093 181.912 423.603 182.059C423.112 182.207 422.756 182.403 422.536 182.648C422.339 182.894 422.241 183.163 422.241 183.458C422.241 183.899 422.499 184.255 423.014 184.525C423.529 184.77 424.204 184.979 425.038 185.151C425.897 185.322 426.829 185.506 427.835 185.703C428.865 185.899 429.883 186.169 430.889 186.512C431.895 186.856 432.815 187.309 433.649 187.874C434.508 188.438 435.195 189.174 435.71 190.082C436.225 190.989 436.483 192.118 436.483 193.467C436.483 195.037 436.029 196.485 435.121 197.809C434.238 199.11 432.913 200.165 431.147 200.974C429.38 201.759 427.16 202.152 424.486 202.152Z" fill="#ED1846"/>
<path fill-rule="evenodd" clip-rule="evenodd" d="M260.601 62.7832C260.454 62.5301 260.185 62.3743 259.892 62.3743L204.229 62.3743C203.936 62.3743 203.666 62.5301 203.52 62.7832L175.688 110.989C175.542 111.242 175.542 111.554 175.688 111.807L203.52 160.013C203.666 160.267 203.936 160.422 204.229 160.422L259.892 160.422C260.185 160.422 260.454 160.267 260.601 160.013L287.96 112.625C288.275 112.08 287.882 111.398 287.252 111.398H281.586C271.069 111.398 261.35 117.01 256.091 126.118L248.561 139.16C248.415 139.413 248.145 139.569 247.853 139.569L216.268 139.569C215.976 139.569 215.706 139.413 215.56 139.16L199.768 111.807C199.621 111.554 199.621 111.242 199.768 110.989L215.56 83.6363C215.706 83.3833 215.976 83.2274 216.268 83.2274L247.853 83.2274C248.145 83.2274 248.415 83.3833 248.561 83.6363L259.547 102.664C259.998 103.446 260.999 103.714 261.781 103.263L277.007 94.4718C277.79 94.0201 278.058 93.0199 277.606 92.2376L260.601 62.7832Z" fill="#ED1846"/>
<path fill-rule="evenodd" clip-rule="evenodd" d="M404.117 294.227C404.036 294.086 403.887 294 403.725 294L372.886 294C372.724 294 372.575 294.086 372.494 294.227L357.074 320.934C356.993 321.074 356.993 321.246 357.074 321.387L372.494 348.094C372.575 348.234 372.724 348.32 372.886 348.32L403.725 348.32C403.887 348.32 404.036 348.234 404.117 348.094L419.275 321.84C419.449 321.538 419.231 321.16 418.883 321.16H415.744C409.917 321.16 404.532 324.269 401.619 329.315L397.447 336.541C397.366 336.681 397.216 336.767 397.055 336.767L379.556 336.767C379.394 336.767 379.245 336.681 379.164 336.541L370.415 321.387C370.334 321.246 370.334 321.074 370.415 320.934L379.164 305.78C379.245 305.639 379.394 305.553 379.556 305.553L397.055 305.553C397.216 305.553 397.366 305.639 397.447 305.78L403.533 316.321C403.783 316.755 404.338 316.903 404.771 316.653L413.207 311.783C413.64 311.532 413.789 310.978 413.538 310.545L404.117 294.227Z" fill="#ED1846"/>
<path d="M260.418 306.747L275.911 306.747L283.658 320.164L275.911 333.582L260.418 333.582L252.671 320.164L260.418 306.747Z" stroke="#B7B7B7" stroke-width="7.77532"/>
</svg>
