<svg width="462" height="395" viewBox="0 0 462 395" fill="none" xmlns="http://www.w3.org/2000/svg">
<rect width="462" height="395" fill="white"/>
<path d="M70.3984 211.009V181.426H84.9753C88.271 181.426 91.1723 182.032 93.6792 183.243C96.1862 184.427 98.1438 186.117 99.5522 188.315C100.961 190.512 101.665 193.132 101.665 196.175C101.665 199.246 100.961 201.895 99.5522 204.12C98.1438 206.318 96.1862 208.022 93.6792 209.234C91.1723 210.417 88.271 211.009 84.9753 211.009H70.3984ZM80.3699 203.233H84.5528C85.9612 203.233 87.1865 202.965 88.2287 202.43C89.2991 201.895 90.1301 201.106 90.7216 200.063C91.3131 198.993 91.6089 197.697 91.6089 196.175C91.6089 194.682 91.3131 193.414 90.7216 192.372C90.1301 191.329 89.2991 190.54 88.2287 190.005C87.1865 189.47 85.9612 189.202 84.5528 189.202H80.3699V203.233Z" fill="#ED1846"/>
<path d="M120.812 211.685C118.418 211.685 116.193 211.305 114.136 210.544C112.108 209.783 110.348 208.713 108.855 207.332C107.362 205.923 106.193 204.275 105.348 202.388C104.531 200.5 104.123 198.443 104.123 196.217C104.123 193.964 104.531 191.907 105.348 190.047C106.193 188.16 107.362 186.526 108.855 185.145C110.348 183.736 112.108 182.652 114.136 181.891C116.193 181.13 118.418 180.75 120.812 180.75C123.235 180.75 125.46 181.13 127.488 181.891C129.516 182.652 131.277 183.736 132.769 185.145C134.262 186.526 135.417 188.16 136.234 190.047C137.079 191.907 137.502 193.964 137.502 196.217C137.502 198.443 137.079 200.5 136.234 202.388C135.417 204.275 134.262 205.923 132.769 207.332C131.277 208.713 129.516 209.783 127.488 210.544C125.46 211.305 123.235 211.685 120.812 211.685ZM120.812 203.613C121.742 203.613 122.601 203.444 123.39 203.106C124.206 202.768 124.911 202.289 125.502 201.669C126.122 201.021 126.601 200.246 126.939 199.345C127.277 198.415 127.446 197.373 127.446 196.217C127.446 195.062 127.277 194.034 126.939 193.132C126.601 192.203 126.122 191.428 125.502 190.808C124.911 190.16 124.206 189.667 123.39 189.329C122.601 188.991 121.742 188.822 120.812 188.822C119.883 188.822 119.009 188.991 118.193 189.329C117.404 189.667 116.7 190.16 116.08 190.808C115.488 191.428 115.024 192.203 114.686 193.132C114.348 194.034 114.179 195.062 114.179 196.217C114.179 197.373 114.348 198.415 114.686 199.345C115.024 200.246 115.488 201.021 116.08 201.669C116.7 202.289 117.404 202.768 118.193 203.106C119.009 203.444 119.883 203.613 120.812 203.613Z" fill="#ED1846"/>
<path d="M141.121 211.009V181.426H149.318L161.148 200.739H156.838L168.331 181.426H176.528L176.612 211.009H167.528L167.444 195.119H168.88L161.021 208.346H156.627L148.43 195.119H150.205V211.009H141.121Z" fill="#ED1846"/>
<path d="M180.926 202.388V195.203H193.602V202.388H180.926Z" fill="#ED1846"/>
<path d="M197.897 211.009V181.426H213.699C217.783 181.426 220.797 182.159 222.741 183.624C224.684 185.061 225.656 186.906 225.656 189.16C225.656 190.653 225.234 191.991 224.389 193.175C223.572 194.33 222.375 195.245 220.797 195.922C219.22 196.598 217.276 196.936 214.966 196.936L215.811 194.654C218.121 194.654 220.107 194.978 221.769 195.626C223.459 196.274 224.755 197.218 225.656 198.457C226.586 199.669 227.05 201.134 227.05 202.852C227.05 205.416 225.98 207.417 223.839 208.853C221.727 210.29 218.628 211.009 214.544 211.009H197.897ZM207.699 204.036H213.699C214.797 204.036 215.614 203.839 216.15 203.444C216.713 203.05 216.995 202.472 216.995 201.711C216.995 200.951 216.713 200.373 216.15 199.979C215.614 199.584 214.797 199.387 213.699 199.387H207.023V192.794H212.347C213.474 192.794 214.29 192.611 214.797 192.245C215.333 191.851 215.6 191.301 215.6 190.597C215.6 189.864 215.333 189.315 214.797 188.949C214.29 188.582 213.474 188.399 212.347 188.399H207.699V204.036Z" fill="#ED1846"/>
<path d="M230.576 211.009V181.426H240.547V211.009H230.576Z" fill="#ED1846"/>
<path d="M245.348 211.009V181.426H253.544L268.586 199.429H264.783V181.426H274.501V211.009H266.304L251.263 193.006H255.065V211.009H245.348Z" fill="#ED1846"/>
<path d="M279.306 211.009V181.426H293.883C297.178 181.426 300.08 182.032 302.587 183.243C305.093 184.427 307.051 186.117 308.46 188.315C309.868 190.512 310.572 193.132 310.572 196.175C310.572 199.246 309.868 201.895 308.46 204.12C307.051 206.318 305.093 208.022 302.587 209.234C300.08 210.417 297.178 211.009 293.883 211.009H279.306ZM289.277 203.233H293.46C294.869 203.233 296.094 202.965 297.136 202.43C298.206 201.895 299.037 201.106 299.629 200.063C300.22 198.993 300.516 197.697 300.516 196.175C300.516 194.682 300.22 193.414 299.629 192.372C299.037 191.329 298.206 190.54 297.136 190.005C296.094 189.47 294.869 189.202 293.46 189.202H289.277V203.233Z" fill="#ED1846"/>
<path d="M314.213 211.009V181.426H324.185V211.009H314.213Z" fill="#ED1846"/>
<path d="M328.985 211.009V181.426H337.182L352.223 199.429H348.421V181.426H358.138V211.009H349.942L334.9 193.006H338.703V211.009H328.985Z" fill="#ED1846"/>
<path d="M378.28 211.685C375.886 211.685 373.675 211.319 371.647 210.586C369.647 209.825 367.901 208.755 366.408 207.374C364.943 205.994 363.802 204.36 362.985 202.472C362.168 200.584 361.76 198.5 361.76 196.217C361.76 193.935 362.168 191.851 362.985 189.963C363.802 188.075 364.957 186.441 366.45 185.061C367.943 183.68 369.703 182.624 371.731 181.891C373.788 181.13 376.041 180.75 378.492 180.75C381.421 180.75 384.027 181.243 386.308 182.229C388.618 183.215 390.519 184.624 392.012 186.455L385.632 192.076C384.703 191.005 383.689 190.202 382.59 189.667C381.52 189.104 380.323 188.822 378.999 188.822C377.9 188.822 376.9 188.991 375.999 189.329C375.126 189.667 374.379 190.16 373.759 190.808C373.14 191.456 372.661 192.231 372.323 193.132C371.985 194.034 371.816 195.062 371.816 196.217C371.816 197.316 371.985 198.331 372.323 199.26C372.661 200.162 373.14 200.937 373.759 201.585C374.379 202.233 375.112 202.74 375.957 203.106C376.83 203.444 377.802 203.613 378.872 203.613C379.999 203.613 381.097 203.43 382.168 203.064C383.238 202.669 384.379 202.007 385.59 201.077L391.167 207.924C389.364 209.135 387.308 210.065 384.998 210.713C382.689 211.361 380.449 211.685 378.28 211.685ZM382.506 206.656V195.415H391.167V207.924L382.506 206.656Z" fill="#ED1846"/>
<path d="M263.571 75.8348C263.938 75.8348 264.236 75.537 264.236 75.1696C264.236 62.3109 253.814 51.887 240.958 51.887H177.385C176.866 51.887 176.446 52.3074 176.446 52.8261V74.8957C176.446 75.4143 176.866 75.8348 177.385 75.8348H263.571Z" fill="#ED1846"/>
<path d="M287.513 105.417C287.881 105.417 288.178 105.12 288.178 104.752C288.178 91.8936 277.757 81.4696 264.901 81.4696H177.385C176.866 81.4696 176.446 81.89 176.446 82.4087V104.478C176.446 104.997 176.866 105.417 177.385 105.417H287.513Z" fill="#ED1846"/>
<path d="M288.178 111.717C288.178 124.576 277.757 135 264.901 135H177.385C176.866 135 176.446 134.58 176.446 134.061V111.991C176.446 111.473 176.866 111.052 177.385 111.052H287.513C287.881 111.052 288.178 111.35 288.178 111.717Z" fill="#ED1846"/>
<path d="M240.958 164.583C253.814 164.583 264.236 154.159 264.236 141.3C264.236 140.933 263.938 140.635 263.571 140.635H177.385C176.866 140.635 176.446 141.055 176.446 141.574V163.643C176.446 164.162 176.866 164.583 177.385 164.583H240.958Z" fill="#ED1846"/>
<path d="M122.947 326.69V315.91H126.907V326.69H122.947ZM119.317 323.17V319.43H130.537V323.17H119.317Z" fill="#B7B7B7"/>
<path d="M208.947 326.69V315.91H212.907V326.69H208.947ZM205.317 323.17V319.43H216.537V323.17H205.317Z" fill="#B7B7B7"/>
<path d="M307.317 320.31V316.57H318.537V320.31H307.317ZM307.317 326.03V322.29H318.537V326.03H307.317Z" fill="#B7B7B7"/>
<path d="M152.796 362V352.2H156.674C157.71 352.2 158.62 352.41 159.404 352.83C160.188 353.25 160.795 353.829 161.224 354.566C161.663 355.303 161.882 356.148 161.882 357.1C161.882 358.052 161.663 358.897 161.224 359.634C160.795 360.371 160.188 360.95 159.404 361.37C158.62 361.79 157.71 362 156.674 362H152.796ZM153.51 361.356H156.618C157.542 361.356 158.345 361.174 159.026 360.81C159.707 360.446 160.235 359.947 160.608 359.312C160.981 358.668 161.168 357.931 161.168 357.1C161.168 356.269 160.981 355.537 160.608 354.902C160.235 354.258 159.707 353.754 159.026 353.39C158.345 353.026 157.542 352.844 156.618 352.844H153.51V361.356ZM168.52 362.07C167.792 362.07 167.116 361.949 166.49 361.706C165.874 361.454 165.333 361.104 164.866 360.656C164.409 360.199 164.054 359.671 163.802 359.074C163.55 358.467 163.424 357.809 163.424 357.1C163.424 356.391 163.55 355.737 163.802 355.14C164.054 354.533 164.409 354.006 164.866 353.558C165.333 353.101 165.874 352.751 166.49 352.508C167.116 352.256 167.792 352.13 168.52 352.13C169.248 352.13 169.92 352.256 170.536 352.508C171.162 352.751 171.703 353.096 172.16 353.544C172.618 353.992 172.972 354.519 173.224 355.126C173.486 355.723 173.616 356.381 173.616 357.1C173.616 357.819 173.486 358.481 173.224 359.088C172.972 359.685 172.618 360.208 172.16 360.656C171.703 361.104 171.162 361.454 170.536 361.706C169.92 361.949 169.248 362.07 168.52 362.07ZM168.52 361.412C169.146 361.412 169.724 361.305 170.256 361.09C170.788 360.875 171.25 360.572 171.642 360.18C172.034 359.788 172.338 359.331 172.552 358.808C172.776 358.285 172.888 357.716 172.888 357.1C172.888 356.475 172.776 355.905 172.552 355.392C172.338 354.869 172.034 354.412 171.642 354.02C171.25 353.628 170.788 353.325 170.256 353.11C169.724 352.895 169.146 352.788 168.52 352.788C167.895 352.788 167.316 352.895 166.784 353.11C166.252 353.325 165.786 353.628 165.384 354.02C164.992 354.412 164.684 354.869 164.46 355.392C164.246 355.905 164.138 356.475 164.138 357.1C164.138 357.716 164.246 358.285 164.46 358.808C164.684 359.331 164.992 359.788 165.384 360.18C165.786 360.572 166.252 360.875 166.784 361.09C167.316 361.305 167.895 361.412 168.52 361.412ZM176.093 362V352.2H176.695L181.245 360.054H180.923L185.459 352.2H186.047L186.061 362H185.361L185.347 353.278H185.543L181.245 360.698H180.895L176.583 353.278H176.793V362H176.093Z" fill="#666666"/>
<path d="M70.6367 362V352.2H74.1507C74.972 352.2 75.6767 352.331 76.2647 352.592C76.8527 352.853 77.3054 353.231 77.6227 353.726C77.94 354.211 78.0987 354.804 78.0987 355.504C78.0987 356.185 77.94 356.773 77.6227 357.268C77.3054 357.753 76.8527 358.131 76.2647 358.402C75.6767 358.663 74.972 358.794 74.1507 358.794H71.0287L71.3507 358.458V362H70.6367ZM77.4407 362L74.8927 358.444H75.7047L78.2527 362H77.4407ZM71.3507 358.5L71.0287 358.164H74.1507C75.2054 358.164 76.0034 357.931 76.5447 357.464C77.0954 356.997 77.3707 356.344 77.3707 355.504C77.3707 354.655 77.0954 354.001 76.5447 353.544C76.0034 353.077 75.2054 352.844 74.1507 352.844H71.0287L71.3507 352.494V358.5ZM80.4889 362V354.692H81.1889V362H80.4889ZM80.8389 352.914C80.6802 352.914 80.5449 352.858 80.4329 352.746C80.3209 352.634 80.2649 352.503 80.2649 352.354C80.2649 352.195 80.3209 352.06 80.4329 351.948C80.5449 351.836 80.6802 351.78 80.8389 351.78C81.0069 351.78 81.1422 351.836 81.2449 351.948C81.3569 352.051 81.4129 352.181 81.4129 352.34C81.4129 352.499 81.3569 352.634 81.2449 352.746C81.1422 352.858 81.0069 352.914 80.8389 352.914ZM86.9953 362.056C86.2953 362.056 85.6699 361.897 85.1193 361.58C84.5779 361.263 84.1439 360.824 83.8173 360.264C83.4999 359.704 83.3413 359.065 83.3413 358.346C83.3413 357.618 83.4999 356.979 83.8173 356.428C84.1439 355.868 84.5779 355.429 85.1193 355.112C85.6699 354.795 86.2953 354.636 86.9953 354.636C87.6953 354.636 88.3206 354.795 88.8713 355.112C89.4219 355.429 89.8559 355.868 90.1733 356.428C90.4906 356.979 90.6493 357.618 90.6493 358.346C90.6493 359.065 90.4906 359.704 90.1733 360.264C89.8559 360.824 89.4219 361.263 88.8713 361.58C88.3206 361.897 87.6953 362.056 86.9953 362.056ZM86.9953 361.426C87.5553 361.426 88.0593 361.3 88.5073 361.048C88.9553 360.787 89.3053 360.423 89.5573 359.956C89.8093 359.489 89.9353 358.953 89.9353 358.346C89.9353 357.73 89.8093 357.193 89.5573 356.736C89.3053 356.269 88.9553 355.91 88.5073 355.658C88.0593 355.397 87.5553 355.266 86.9953 355.266C86.4353 355.266 85.9313 355.397 85.4833 355.658C85.0446 355.91 84.6946 356.269 84.4333 356.736C84.1813 357.193 84.0553 357.73 84.0553 358.346C84.0553 358.953 84.1813 359.489 84.4333 359.956C84.6946 360.423 85.0446 360.787 85.4833 361.048C85.9313 361.3 86.4353 361.426 86.9953 361.426ZM94.9489 362.056C94.3049 362.056 93.8102 361.879 93.4649 361.524C93.1289 361.169 92.9609 360.684 92.9609 360.068V353.096H93.6609V359.998C93.6609 360.465 93.7776 360.824 94.0109 361.076C94.2442 361.328 94.5802 361.454 95.0189 361.454C95.4762 361.454 95.8542 361.319 96.1529 361.048L96.4469 361.538C96.2602 361.715 96.0316 361.846 95.7609 361.93C95.4996 362.014 95.2289 362.056 94.9489 362.056ZM91.6169 355.294V354.692H95.9849V355.294H91.6169Z" fill="#666666"/>
<path d="M247.2 362.07C246.472 362.07 245.795 361.949 245.17 361.706C244.554 361.454 244.017 361.104 243.56 360.656C243.102 360.208 242.748 359.685 242.496 359.088C242.244 358.481 242.118 357.819 242.118 357.1C242.118 356.381 242.244 355.723 242.496 355.126C242.748 354.519 243.102 353.992 243.56 353.544C244.026 353.096 244.568 352.751 245.184 352.508C245.8 352.256 246.472 352.13 247.2 352.13C247.89 352.13 248.534 352.242 249.132 352.466C249.738 352.69 250.256 353.031 250.686 353.488L250.238 353.95C249.818 353.539 249.351 353.245 248.838 353.068C248.334 352.881 247.797 352.788 247.228 352.788C246.602 352.788 246.019 352.895 245.478 353.11C244.946 353.325 244.479 353.628 244.078 354.02C243.686 354.412 243.378 354.869 243.154 355.392C242.939 355.915 242.832 356.484 242.832 357.1C242.832 357.716 242.939 358.285 243.154 358.808C243.378 359.331 243.686 359.788 244.078 360.18C244.479 360.572 244.946 360.875 245.478 361.09C246.019 361.305 246.602 361.412 247.228 361.412C247.797 361.412 248.334 361.323 248.838 361.146C249.351 360.959 249.818 360.656 250.238 360.236L250.686 360.698C250.256 361.155 249.738 361.501 249.132 361.734C248.534 361.958 247.89 362.07 247.2 362.07ZM255.367 362.056C254.667 362.056 254.042 361.897 253.491 361.58C252.95 361.263 252.516 360.824 252.189 360.264C251.872 359.704 251.713 359.065 251.713 358.346C251.713 357.618 251.872 356.979 252.189 356.428C252.516 355.868 252.95 355.429 253.491 355.112C254.042 354.795 254.667 354.636 255.367 354.636C256.067 354.636 256.693 354.795 257.243 355.112C257.794 355.429 258.228 355.868 258.545 356.428C258.863 356.979 259.021 357.618 259.021 358.346C259.021 359.065 258.863 359.704 258.545 360.264C258.228 360.824 257.794 361.263 257.243 361.58C256.693 361.897 256.067 362.056 255.367 362.056ZM255.367 361.426C255.927 361.426 256.431 361.3 256.879 361.048C257.327 360.787 257.677 360.423 257.929 359.956C258.181 359.489 258.307 358.953 258.307 358.346C258.307 357.73 258.181 357.193 257.929 356.736C257.677 356.269 257.327 355.91 256.879 355.658C256.431 355.397 255.927 355.266 255.367 355.266C254.807 355.266 254.303 355.397 253.855 355.658C253.417 355.91 253.067 356.269 252.805 356.736C252.553 357.193 252.427 357.73 252.427 358.346C252.427 358.953 252.553 359.489 252.805 359.956C253.067 360.423 253.417 360.787 253.855 361.048C254.303 361.3 254.807 361.426 255.367 361.426ZM264.007 362.056C263.326 362.056 262.71 361.902 262.159 361.594C261.618 361.277 261.188 360.838 260.871 360.278C260.554 359.718 260.395 359.074 260.395 358.346C260.395 357.609 260.554 356.965 260.871 356.414C261.188 355.854 261.618 355.42 262.159 355.112C262.71 354.795 263.326 354.636 264.007 354.636C264.651 354.636 265.23 354.785 265.743 355.084C266.266 355.383 266.676 355.807 266.975 356.358C267.283 356.909 267.437 357.571 267.437 358.346C267.437 359.102 267.288 359.76 266.989 360.32C266.69 360.88 266.28 361.309 265.757 361.608C265.244 361.907 264.66 362.056 264.007 362.056ZM264.049 361.426C264.609 361.426 265.108 361.3 265.547 361.048C265.995 360.787 266.345 360.423 266.597 359.956C266.858 359.489 266.989 358.953 266.989 358.346C266.989 357.73 266.858 357.193 266.597 356.736C266.345 356.269 265.995 355.91 265.547 355.658C265.108 355.397 264.609 355.266 264.049 355.266C263.489 355.266 262.985 355.397 262.537 355.658C262.098 355.91 261.748 356.269 261.487 356.736C261.235 357.193 261.109 357.73 261.109 358.346C261.109 358.953 261.235 359.489 261.487 359.956C261.748 360.423 262.098 360.787 262.537 361.048C262.985 361.3 263.489 361.426 264.049 361.426ZM267.003 362V359.606L267.129 358.332L266.989 357.058V351.612H267.689V362H267.003ZM273.608 362.056C272.871 362.056 272.218 361.897 271.648 361.58C271.088 361.263 270.645 360.824 270.318 360.264C270.001 359.704 269.842 359.065 269.842 358.346C269.842 357.618 269.992 356.979 270.29 356.428C270.598 355.868 271.018 355.429 271.55 355.112C272.082 354.795 272.68 354.636 273.342 354.636C274.005 354.636 274.598 354.79 275.12 355.098C275.652 355.406 276.068 355.84 276.366 356.4C276.674 356.951 276.828 357.59 276.828 358.318C276.828 358.346 276.824 358.379 276.814 358.416C276.814 358.444 276.814 358.477 276.814 358.514H270.36V357.968H276.436L276.156 358.234C276.166 357.665 276.044 357.156 275.792 356.708C275.55 356.251 275.218 355.896 274.798 355.644C274.378 355.383 273.893 355.252 273.342 355.252C272.801 355.252 272.316 355.383 271.886 355.644C271.466 355.896 271.135 356.251 270.892 356.708C270.65 357.156 270.528 357.669 270.528 358.248V358.374C270.528 358.971 270.659 359.503 270.92 359.97C271.191 360.427 271.56 360.787 272.026 361.048C272.493 361.3 273.025 361.426 273.622 361.426C274.089 361.426 274.523 361.342 274.924 361.174C275.335 361.006 275.68 360.749 275.96 360.404L276.366 360.866C276.049 361.258 275.648 361.557 275.162 361.762C274.686 361.958 274.168 362.056 273.608 362.056Z" fill="#666666"/>
<path d="M67 303.313C67 303.14 67.14 303 67.3127 303H90.5561C96.7186 303 101.402 308.001 101.402 314.169V315.399C101.402 316.09 100.841 316.651 100.151 316.651H94.901C94.5555 316.651 94.2755 316.371 94.2755 316.025V314.169C94.2755 312.113 92.6103 310.446 90.5561 310.446H74.7515C74.5788 310.446 74.4388 310.586 74.4388 310.759V336.35C74.4388 336.523 74.2983 336.664 74.1258 336.657C70.1626 336.493 67 333.225 67 329.217V303.313Z" fill="#ED1846"/>
<path d="M80.9505 317.892C80.7778 317.892 80.6371 318.032 80.6442 318.205C80.8083 322.172 84.0731 325.338 88.0765 325.338H93.0357C93.7204 325.338 94.2755 325.893 94.2755 326.579V336.35C94.2755 336.523 94.4159 336.664 94.5885 336.657C98.5517 336.493 101.714 333.225 101.714 329.217V326.579C101.714 321.781 97.8288 317.892 93.0357 317.892H80.9505Z" fill="#ED1846"/>
<path d="M151.37 337V303.757H166.472C170.081 303.757 173.263 304.454 176.018 305.847C178.772 307.208 180.925 309.123 182.476 311.593C184.028 314.062 184.803 316.991 184.803 320.378C184.803 323.734 184.028 326.663 182.476 329.164C180.925 331.634 178.772 333.565 176.018 334.958C173.263 336.319 170.081 337 166.472 337H151.37ZM159.064 330.684H166.092C168.308 330.684 170.224 330.272 171.839 329.449C173.485 328.594 174.751 327.391 175.638 325.84C176.556 324.289 177.015 322.468 177.015 320.378C177.015 318.257 176.556 316.437 175.638 314.917C174.751 313.366 173.485 312.179 171.839 311.355C170.224 310.501 168.308 310.073 166.092 310.073H159.064V330.684Z" fill="#B7B7B7"/>
<path d="M382.816 304.324C382.996 304.324 383.143 304.177 383.143 303.996C383.143 297.668 378.013 292.538 371.685 292.538H340.391C340.136 292.538 339.929 292.745 339.929 293V303.861C339.929 304.117 340.136 304.324 340.391 304.324H382.816Z" fill="#ED1846"/>
<path d="M394.601 318.882C394.782 318.882 394.929 318.736 394.929 318.555C394.929 312.227 389.799 307.097 383.47 307.097H340.391C340.136 307.097 339.929 307.304 339.929 307.559V318.42C339.929 318.675 340.136 318.882 340.391 318.882H394.601Z" fill="#ED1846"/>
<path d="M394.929 321.983C394.929 328.311 389.799 333.441 383.47 333.441H340.391C340.136 333.441 339.929 333.234 339.929 332.979V322.118C339.929 321.862 340.136 321.655 340.391 321.655H394.601C394.782 321.655 394.929 321.802 394.929 321.983Z" fill="#ED1846"/>
<path d="M371.685 348C378.013 348 383.143 342.87 383.143 336.542C383.143 336.361 382.996 336.214 382.816 336.214H340.391C340.136 336.214 339.929 336.421 339.929 336.676V347.538C339.929 347.793 340.136 348 340.391 348H371.685Z" fill="#ED1846"/>
<path d="M233.429 299H268.929" stroke="#B7B7B7" stroke-width="4" stroke-linecap="round"/>
<path d="M237.929 307H273.429" stroke="#B7B7B7" stroke-width="4" stroke-linecap="round"/>
<path d="M233.929 315H279.929" stroke="#B7B7B7" stroke-width="4" stroke-linecap="round"/>
<path d="M241.929 323H279.929" stroke="#B7B7B7" stroke-width="4" stroke-linecap="round"/>
<path d="M247.929 331H283.429" stroke="#B7B7B7" stroke-width="4" stroke-linecap="round"/>
<path d="M235.929 339H268.929" stroke="#B7B7B7" stroke-width="4" stroke-linecap="round"/>
</svg>
