<svg width="462" height="395" viewBox="0 0 462 395" fill="none" xmlns="http://www.w3.org/2000/svg">
<rect width="462" height="395" fill="white"/>
<path d="M118.609 323.17H114.979V326.69H111.019V323.17H107.389V319.43H111.019V315.91H114.979V319.43H118.609V323.17Z" fill="#B7B7B7"/>
<path d="M204.609 323.17H200.979V326.69H197.019V323.17H193.389V319.43H197.019V315.91H200.979V319.43H204.609V323.17Z" fill="#B7B7B7"/>
<path d="M320.389 316.57H331.609V320.31H320.389V316.57ZM320.389 322.29H331.609V326.03H320.389V322.29Z" fill="#B7B7B7"/>
<path d="M132.974 352.2H133.688V362H132.974V352.2ZM126.422 362H125.708V352.2H126.422V362ZM133.058 357.338H126.338V356.708H133.058V357.338ZM139.742 362.056C139.042 362.056 138.417 361.897 137.866 361.58C137.325 361.263 136.891 360.824 136.564 360.264C136.247 359.704 136.088 359.065 136.088 358.346C136.088 357.618 136.247 356.979 136.564 356.428C136.891 355.868 137.325 355.429 137.866 355.112C138.417 354.795 139.042 354.636 139.742 354.636C140.442 354.636 141.068 354.795 141.618 355.112C142.169 355.429 142.603 355.868 142.92 356.428C143.238 356.979 143.396 357.618 143.396 358.346C143.396 359.065 143.238 359.704 142.92 360.264C142.603 360.824 142.169 361.263 141.618 361.58C141.068 361.897 140.442 362.056 139.742 362.056ZM139.742 361.426C140.302 361.426 140.806 361.3 141.254 361.048C141.702 360.787 142.052 360.423 142.304 359.956C142.556 359.489 142.682 358.953 142.682 358.346C142.682 357.73 142.556 357.193 142.304 356.736C142.052 356.269 141.702 355.91 141.254 355.658C140.806 355.397 140.302 355.266 139.742 355.266C139.182 355.266 138.678 355.397 138.23 355.658C137.792 355.91 137.442 356.269 137.18 356.736C136.928 357.193 136.802 357.73 136.802 358.346C136.802 358.953 136.928 359.489 137.18 359.956C137.442 360.423 137.792 360.787 138.23 361.048C138.678 361.3 139.182 361.426 139.742 361.426ZM147.696 362.056C147.052 362.056 146.557 361.879 146.212 361.524C145.876 361.169 145.708 360.684 145.708 360.068V353.096H146.408V359.998C146.408 360.465 146.525 360.824 146.758 361.076C146.991 361.328 147.327 361.454 147.766 361.454C148.223 361.454 148.601 361.319 148.9 361.048L149.194 361.538C149.007 361.715 148.779 361.846 148.508 361.93C148.247 362.014 147.976 362.056 147.696 362.056ZM144.364 355.294V354.692H148.732V355.294H144.364ZM154.966 362V352.2H158.48C159.301 352.2 160.006 352.331 160.594 352.592C161.182 352.853 161.634 353.231 161.952 353.726C162.269 354.211 162.428 354.804 162.428 355.504C162.428 356.185 162.269 356.773 161.952 357.268C161.634 357.753 161.182 358.131 160.594 358.402C160.006 358.663 159.301 358.794 158.48 358.794H155.358L155.68 358.458V362H154.966ZM161.77 362L159.222 358.444H160.034L162.582 362H161.77ZM155.68 358.5L155.358 358.164H158.48C159.534 358.164 160.332 357.931 160.874 357.464C161.424 356.997 161.7 356.344 161.7 355.504C161.7 354.655 161.424 354.001 160.874 353.544C160.332 353.077 159.534 352.844 158.48 352.844H155.358L155.68 352.494V358.5ZM167.786 362.056C167.049 362.056 166.395 361.897 165.826 361.58C165.266 361.263 164.823 360.824 164.496 360.264C164.179 359.704 164.02 359.065 164.02 358.346C164.02 357.618 164.169 356.979 164.468 356.428C164.776 355.868 165.196 355.429 165.728 355.112C166.26 354.795 166.857 354.636 167.52 354.636C168.183 354.636 168.775 354.79 169.298 355.098C169.83 355.406 170.245 355.84 170.544 356.4C170.852 356.951 171.006 357.59 171.006 358.318C171.006 358.346 171.001 358.379 170.992 358.416C170.992 358.444 170.992 358.477 170.992 358.514H164.538V357.968H170.614L170.334 358.234C170.343 357.665 170.222 357.156 169.97 356.708C169.727 356.251 169.396 355.896 168.976 355.644C168.556 355.383 168.071 355.252 167.52 355.252C166.979 355.252 166.493 355.383 166.064 355.644C165.644 355.896 165.313 356.251 165.07 356.708C164.827 357.156 164.706 357.669 164.706 358.248V358.374C164.706 358.971 164.837 359.503 165.098 359.97C165.369 360.427 165.737 360.787 166.204 361.048C166.671 361.3 167.203 361.426 167.8 361.426C168.267 361.426 168.701 361.342 169.102 361.174C169.513 361.006 169.858 360.749 170.138 360.404L170.544 360.866C170.227 361.258 169.825 361.557 169.34 361.762C168.864 361.958 168.346 362.056 167.786 362.056ZM173.172 362V351.612H173.872V362H173.172ZM181.428 362V360.334L181.4 360.082V357.338C181.4 356.657 181.213 356.139 180.84 355.784C180.476 355.429 179.939 355.252 179.23 355.252C178.726 355.252 178.255 355.341 177.816 355.518C177.387 355.686 177.018 355.905 176.71 356.176L176.36 355.672C176.724 355.345 177.163 355.093 177.676 354.916C178.189 354.729 178.726 354.636 179.286 354.636C180.191 354.636 180.887 354.865 181.372 355.322C181.857 355.779 182.1 356.461 182.1 357.366V362H181.428ZM178.796 362.056C178.255 362.056 177.783 361.972 177.382 361.804C176.99 361.627 176.687 361.379 176.472 361.062C176.267 360.745 176.164 360.381 176.164 359.97C176.164 359.597 176.248 359.261 176.416 358.962C176.593 358.654 176.883 358.407 177.284 358.22C177.685 358.024 178.222 357.926 178.894 357.926H181.582V358.472H178.908C178.152 358.472 177.62 358.612 177.312 358.892C177.013 359.172 176.864 359.522 176.864 359.942C176.864 360.409 177.041 360.782 177.396 361.062C177.751 361.342 178.25 361.482 178.894 361.482C179.51 361.482 180.028 361.342 180.448 361.062C180.877 360.782 181.195 360.376 181.4 359.844L181.596 360.32C181.4 360.852 181.064 361.277 180.588 361.594C180.121 361.902 179.524 362.056 178.796 362.056ZM187.798 362.056C187.117 362.056 186.501 361.902 185.95 361.594C185.409 361.277 184.979 360.838 184.662 360.278C184.345 359.718 184.186 359.074 184.186 358.346C184.186 357.609 184.345 356.965 184.662 356.414C184.979 355.854 185.409 355.42 185.95 355.112C186.501 354.795 187.117 354.636 187.798 354.636C188.442 354.636 189.021 354.785 189.534 355.084C190.057 355.383 190.467 355.807 190.766 356.358C191.074 356.909 191.228 357.571 191.228 358.346C191.228 359.102 191.079 359.76 190.78 360.32C190.481 360.88 190.071 361.309 189.548 361.608C189.035 361.907 188.451 362.056 187.798 362.056ZM187.84 361.426C188.4 361.426 188.899 361.3 189.338 361.048C189.786 360.787 190.136 360.423 190.388 359.956C190.649 359.489 190.78 358.953 190.78 358.346C190.78 357.73 190.649 357.193 190.388 356.736C190.136 356.269 189.786 355.91 189.338 355.658C188.899 355.397 188.4 355.266 187.84 355.266C187.28 355.266 186.776 355.397 186.328 355.658C185.889 355.91 185.539 356.269 185.278 356.736C185.026 357.193 184.9 357.73 184.9 358.346C184.9 358.953 185.026 359.489 185.278 359.956C185.539 360.423 185.889 360.787 186.328 361.048C186.776 361.3 187.28 361.426 187.84 361.426ZM190.794 362V359.606L190.92 358.332L190.78 357.058V351.612H191.48V362H190.794Z" fill="#666666"/>
<path d="M65.512 362L63.174 358.724C62.8287 358.771 62.5113 358.794 62.222 358.794H59.422V362H58.708V352.2H62.222C63.454 352.2 64.42 352.494 65.12 353.082C65.82 353.661 66.17 354.468 66.17 355.504C66.17 356.279 65.9693 356.932 65.568 357.464C65.176 357.987 64.6113 358.355 63.874 358.57L66.324 362H65.512ZM62.222 358.164C63.2673 358.164 64.0653 357.935 64.616 357.478C65.1667 357.011 65.442 356.353 65.442 355.504C65.442 354.655 65.1667 354.001 64.616 353.544C64.0653 353.077 63.2673 352.844 62.222 352.844H59.422V358.164H62.222ZM68.5602 354.692H69.2602V362H68.5602V354.692ZM68.9102 352.914C68.7515 352.914 68.6162 352.863 68.5042 352.76C68.3922 352.648 68.3362 352.513 68.3362 352.354C68.3362 352.195 68.3922 352.06 68.5042 351.948C68.6162 351.836 68.7515 351.78 68.9102 351.78C69.0688 351.78 69.2042 351.836 69.3162 351.948C69.4282 352.051 69.4842 352.181 69.4842 352.34C69.4842 352.499 69.4282 352.634 69.3162 352.746C69.2042 352.858 69.0688 352.914 68.9102 352.914ZM75.0666 362.056C74.3759 362.056 73.7506 361.897 73.1906 361.58C72.6399 361.263 72.2059 360.824 71.8886 360.264C71.5712 359.695 71.4126 359.055 71.4126 358.346C71.4126 357.637 71.5712 357.002 71.8886 356.442C72.2059 355.873 72.6399 355.429 73.1906 355.112C73.7506 354.795 74.3759 354.636 75.0666 354.636C75.7572 354.636 76.3779 354.795 76.9286 355.112C77.4886 355.429 77.9272 355.873 78.2446 356.442C78.5619 357.002 78.7206 357.637 78.7206 358.346C78.7206 359.055 78.5619 359.695 78.2446 360.264C77.9272 360.824 77.4886 361.263 76.9286 361.58C76.3779 361.897 75.7572 362.056 75.0666 362.056ZM75.0666 361.426C75.6266 361.426 76.1259 361.295 76.5646 361.034C77.0126 360.773 77.3626 360.409 77.6146 359.942C77.8759 359.475 78.0066 358.943 78.0066 358.346C78.0066 357.749 77.8759 357.217 77.6146 356.75C77.3626 356.283 77.0126 355.919 76.5646 355.658C76.1259 355.397 75.6266 355.266 75.0666 355.266C74.5066 355.266 74.0026 355.397 73.5546 355.658C73.1159 355.919 72.7659 356.283 72.5046 356.75C72.2526 357.217 72.1266 357.749 72.1266 358.346C72.1266 358.943 72.2526 359.475 72.5046 359.942C72.7659 360.409 73.1159 360.773 73.5546 361.034C74.0026 361.295 74.5066 361.426 75.0666 361.426ZM84.5182 361.538C84.3409 361.706 84.1169 361.837 83.8462 361.93C83.5849 362.014 83.3095 362.056 83.0202 362.056C82.3855 362.056 81.8955 361.883 81.5502 361.538C81.2049 361.183 81.0322 360.693 81.0322 360.068V355.294H79.6882V354.692H81.0322V353.096H81.7322V354.692H84.0562V355.294H81.7322V359.998C81.7322 360.474 81.8442 360.838 82.0682 361.09C82.3015 361.333 82.6422 361.454 83.0902 361.454C83.5475 361.454 83.9255 361.319 84.2242 361.048L84.5182 361.538Z" fill="#666666"/>
<path d="M210.708 362V352.2H211.422V361.356H217.064V362H210.708ZM218.673 362V354.692H219.373V362H218.673ZM219.023 352.914C218.865 352.914 218.729 352.858 218.617 352.746C218.505 352.634 218.449 352.503 218.449 352.354C218.449 352.195 218.505 352.06 218.617 351.948C218.729 351.836 218.865 351.78 219.023 351.78C219.191 351.78 219.327 351.836 219.429 351.948C219.541 352.051 219.597 352.181 219.597 352.34C219.597 352.499 219.541 352.634 219.429 352.746C219.327 352.858 219.191 352.914 219.023 352.914ZM225.362 364.772C224.699 364.772 224.069 364.669 223.472 364.464C222.875 364.259 222.389 363.974 222.016 363.61L222.394 363.078C222.758 363.414 223.192 363.675 223.696 363.862C224.209 364.049 224.76 364.142 225.348 364.142C226.328 364.142 227.047 363.913 227.504 363.456C227.971 362.999 228.204 362.28 228.204 361.3V359.27L228.344 358.178L228.232 357.086V354.692H228.904V361.216C228.904 362.439 228.605 363.335 228.008 363.904C227.42 364.483 226.538 364.772 225.362 364.772ZM225.166 361.734C224.475 361.734 223.855 361.585 223.304 361.286C222.763 360.978 222.329 360.558 222.002 360.026C221.685 359.485 221.526 358.869 221.526 358.178C221.526 357.478 221.685 356.862 222.002 356.33C222.329 355.798 222.763 355.383 223.304 355.084C223.855 354.785 224.475 354.636 225.166 354.636C225.829 354.636 226.421 354.781 226.944 355.07C227.476 355.35 227.896 355.756 228.204 356.288C228.512 356.811 228.666 357.441 228.666 358.178C228.666 358.906 228.512 359.536 228.204 360.068C227.896 360.6 227.476 361.011 226.944 361.3C226.421 361.589 225.829 361.734 225.166 361.734ZM225.222 361.104C225.81 361.104 226.328 360.983 226.776 360.74C227.224 360.488 227.574 360.143 227.826 359.704C228.087 359.256 228.218 358.747 228.218 358.178C228.218 357.599 228.087 357.091 227.826 356.652C227.574 356.213 227.224 355.873 226.776 355.63C226.328 355.387 225.81 355.266 225.222 355.266C224.653 355.266 224.139 355.387 223.682 355.63C223.234 355.873 222.879 356.213 222.618 356.652C222.366 357.091 222.24 357.599 222.24 358.178C222.24 358.747 222.366 359.256 222.618 359.704C222.879 360.143 223.234 360.488 223.682 360.74C224.139 360.983 224.653 361.104 225.222 361.104ZM235.437 354.636C236.034 354.636 236.552 354.753 236.991 354.986C237.439 355.21 237.784 355.555 238.027 356.022C238.279 356.479 238.405 357.049 238.405 357.73V362H237.705V357.786C237.705 356.965 237.495 356.339 237.075 355.91C236.664 355.481 236.085 355.266 235.339 355.266C234.769 355.266 234.275 355.383 233.855 355.616C233.435 355.849 233.113 356.176 232.889 356.596C232.674 357.016 232.567 357.52 232.567 358.108V362H231.867V351.612H232.567V356.722L232.441 356.498C232.665 355.919 233.033 355.467 233.547 355.14C234.06 354.804 234.69 354.636 235.437 354.636ZM243.415 362.056C242.771 362.056 242.276 361.879 241.931 361.524C241.595 361.169 241.427 360.684 241.427 360.068V353.096H242.127V359.998C242.127 360.465 242.243 360.824 242.477 361.076C242.71 361.328 243.046 361.454 243.485 361.454C243.942 361.454 244.32 361.319 244.619 361.048L244.913 361.538C244.726 361.715 244.497 361.846 244.227 361.93C243.965 362.014 243.695 362.056 243.415 362.056ZM240.083 355.294V354.692H244.451V355.294H240.083ZM250.435 354.636C251.032 354.636 251.55 354.753 251.989 354.986C252.437 355.21 252.782 355.555 253.025 356.022C253.277 356.479 253.403 357.049 253.403 357.73V362H252.703V357.786C252.703 356.965 252.493 356.339 252.073 355.91C251.662 355.481 251.084 355.266 250.337 355.266C249.768 355.266 249.273 355.383 248.853 355.616C248.433 355.849 248.111 356.176 247.887 356.596C247.672 357.016 247.565 357.52 247.565 358.108V362H246.865V354.692H247.537V356.722L247.439 356.498C247.663 355.919 248.032 355.467 248.545 355.14C249.058 354.804 249.688 354.636 250.435 354.636ZM256.285 362V354.692H256.985V362H256.285ZM256.635 352.914C256.476 352.914 256.341 352.858 256.229 352.746C256.117 352.634 256.061 352.503 256.061 352.354C256.061 352.195 256.117 352.06 256.229 351.948C256.341 351.836 256.476 351.78 256.635 351.78C256.803 351.78 256.938 351.836 257.041 351.948C257.153 352.051 257.209 352.181 257.209 352.34C257.209 352.499 257.153 352.634 257.041 352.746C256.938 352.858 256.803 352.914 256.635 352.914ZM263.505 354.636C264.103 354.636 264.621 354.753 265.059 354.986C265.507 355.21 265.853 355.555 266.095 356.022C266.347 356.479 266.473 357.049 266.473 357.73V362H265.773V357.786C265.773 356.965 265.563 356.339 265.143 355.91C264.733 355.481 264.154 355.266 263.407 355.266C262.838 355.266 262.343 355.383 261.923 355.616C261.503 355.849 261.181 356.176 260.957 356.596C260.743 357.016 260.635 357.52 260.635 358.108V362H259.935V354.692H260.607V356.722L260.509 356.498C260.733 355.919 261.102 355.467 261.615 355.14C262.129 354.804 262.759 354.636 263.505 354.636ZM272.393 364.772C271.73 364.772 271.1 364.669 270.503 364.464C269.906 364.259 269.42 363.974 269.047 363.61L269.425 363.078C269.789 363.414 270.223 363.675 270.727 363.862C271.24 364.049 271.791 364.142 272.379 364.142C273.359 364.142 274.078 363.913 274.535 363.456C275.002 362.999 275.235 362.28 275.235 361.3V359.27L275.375 358.178L275.263 357.086V354.692H275.935V361.216C275.935 362.439 275.636 363.335 275.039 363.904C274.451 364.483 273.569 364.772 272.393 364.772ZM272.197 361.734C271.506 361.734 270.886 361.585 270.335 361.286C269.794 360.978 269.36 360.558 269.033 360.026C268.716 359.485 268.557 358.869 268.557 358.178C268.557 357.478 268.716 356.862 269.033 356.33C269.36 355.798 269.794 355.383 270.335 355.084C270.886 354.785 271.506 354.636 272.197 354.636C272.86 354.636 273.452 354.781 273.975 355.07C274.507 355.35 274.927 355.756 275.235 356.288C275.543 356.811 275.697 357.441 275.697 358.178C275.697 358.906 275.543 359.536 275.235 360.068C274.927 360.6 274.507 361.011 273.975 361.3C273.452 361.589 272.86 361.734 272.197 361.734ZM272.253 361.104C272.841 361.104 273.359 360.983 273.807 360.74C274.255 360.488 274.605 360.143 274.857 359.704C275.118 359.256 275.249 358.747 275.249 358.178C275.249 357.599 275.118 357.091 274.857 356.652C274.605 356.213 274.255 355.873 273.807 355.63C273.359 355.387 272.841 355.266 272.253 355.266C271.684 355.266 271.17 355.387 270.713 355.63C270.265 355.873 269.91 356.213 269.649 356.652C269.397 357.091 269.271 357.599 269.271 358.178C269.271 358.747 269.397 359.256 269.649 359.704C269.91 360.143 270.265 360.488 270.713 360.74C271.17 360.983 271.684 361.104 272.253 361.104ZM282.718 362V352.2H286.806C287.86 352.2 288.686 352.415 289.284 352.844C289.881 353.273 290.18 353.894 290.18 354.706C290.18 355.238 290.054 355.686 289.802 356.05C289.55 356.414 289.2 356.689 288.752 356.876C288.313 357.053 287.818 357.142 287.268 357.142L287.52 356.862C288.192 356.862 288.766 356.96 289.242 357.156C289.718 357.352 290.077 357.637 290.32 358.01C290.572 358.383 290.698 358.85 290.698 359.41C290.698 360.231 290.399 360.871 289.802 361.328C289.204 361.776 288.299 362 287.086 362H282.718ZM283.432 361.384H287.086C288.028 361.384 288.747 361.225 289.242 360.908C289.736 360.581 289.984 360.063 289.984 359.354C289.984 358.654 289.736 358.145 289.242 357.828C288.747 357.501 288.028 357.338 287.086 357.338H283.348V356.722H286.778C287.627 356.722 288.285 356.559 288.752 356.232C289.218 355.905 289.452 355.415 289.452 354.762C289.452 354.118 289.218 353.633 288.752 353.306C288.285 352.979 287.627 352.816 286.778 352.816H283.432V361.384ZM295.877 362.056C295.177 362.056 294.552 361.897 294.001 361.58C293.46 361.263 293.026 360.824 292.699 360.264C292.382 359.704 292.223 359.065 292.223 358.346C292.223 357.618 292.382 356.979 292.699 356.428C293.026 355.868 293.46 355.429 294.001 355.112C294.552 354.795 295.177 354.636 295.877 354.636C296.577 354.636 297.202 354.795 297.753 355.112C298.304 355.429 298.738 355.868 299.055 356.428C299.372 356.979 299.531 357.618 299.531 358.346C299.531 359.065 299.372 359.704 299.055 360.264C298.738 360.824 298.304 361.263 297.753 361.58C297.202 361.897 296.577 362.056 295.877 362.056ZM295.877 361.426C296.437 361.426 296.941 361.3 297.389 361.048C297.837 360.787 298.187 360.423 298.439 359.956C298.691 359.489 298.817 358.953 298.817 358.346C298.817 357.73 298.691 357.193 298.439 356.736C298.187 356.269 297.837 355.91 297.389 355.658C296.941 355.397 296.437 355.266 295.877 355.266C295.317 355.266 294.813 355.397 294.365 355.658C293.926 355.91 293.576 356.269 293.315 356.736C293.063 357.193 292.937 357.73 292.937 358.346C292.937 358.953 293.063 359.489 293.315 359.956C293.576 360.423 293.926 360.787 294.365 361.048C294.813 361.3 295.317 361.426 295.877 361.426ZM301.703 362V351.612H302.403V362H301.703ZM307.385 362.056C306.741 362.056 306.247 361.879 305.901 361.524C305.565 361.169 305.397 360.684 305.397 360.068V353.096H306.097V359.998C306.097 360.465 306.214 360.824 306.447 361.076C306.681 361.328 307.017 361.454 307.455 361.454C307.913 361.454 308.291 361.319 308.589 361.048L308.883 361.538C308.697 361.715 308.468 361.846 308.197 361.93C307.936 362.014 307.665 362.056 307.385 362.056ZM304.053 355.294V354.692H308.421V355.294H304.053Z" fill="#666666"/>
<path d="M55.0713 303.313C55.0713 303.14 55.2113 303 55.384 303H78.6274C84.7899 303 89.4728 308.001 89.4728 314.169V315.399C89.4728 316.09 88.9128 316.651 88.2219 316.651H82.9723C82.6268 316.651 82.3468 316.371 82.3468 316.025V314.169C82.3468 312.113 80.6816 310.446 78.6274 310.446H62.8228C62.6501 310.446 62.5101 310.586 62.5101 310.759V336.35C62.5101 336.523 62.3696 336.664 62.1971 336.657C58.2339 336.493 55.0713 333.225 55.0713 329.217V303.313Z" fill="#ED1846"/>
<path d="M69.0218 317.892C68.8491 317.892 68.7084 318.032 68.7155 318.205C68.8796 322.172 72.1444 325.338 76.1478 325.338H81.107C81.7917 325.338 82.3468 325.893 82.3468 326.579V336.35C82.3468 336.523 82.4872 336.664 82.6598 336.657C86.623 336.493 89.7856 333.225 89.7856 329.217V326.579C89.7856 321.781 85.9 317.892 81.107 317.892H69.0218Z" fill="#ED1846"/>
<path d="M162.237 303.757H169.93V337H162.237V303.757ZM147.135 337H139.442V303.757H147.135V337ZM162.807 323.37H146.565V316.864H162.807V323.37Z" fill="#B7B7B7"/>
<rect width="364" height="217" transform="translate(49 25)" fill="white"/>
<path d="M98.0263 181.677H107.917V211.012H98.0263V181.677ZM88.8903 211.012H79V181.677H88.8903V211.012ZM98.6968 200.2H88.2198V192.07H98.6968V200.2Z" fill="#ED1846"/>
<path d="M128.481 211.683C126.106 211.683 123.899 211.306 121.86 210.551C119.848 209.797 118.102 208.735 116.621 207.366C115.141 205.969 113.981 204.335 113.143 202.463C112.333 200.591 111.928 198.552 111.928 196.345C111.928 194.109 112.333 192.07 113.143 190.226C113.981 188.354 115.141 186.734 116.621 185.365C118.102 183.968 119.848 182.892 121.86 182.138C123.899 181.383 126.106 181.006 128.481 181.006C130.884 181.006 133.091 181.383 135.103 182.138C137.114 182.892 138.861 183.968 140.341 185.365C141.822 186.734 142.967 188.354 143.778 190.226C144.616 192.07 145.035 194.109 145.035 196.345C145.035 198.552 144.616 200.591 143.778 202.463C142.967 204.335 141.822 205.969 140.341 207.366C138.861 208.735 137.114 209.797 135.103 210.551C133.091 211.306 130.884 211.683 128.481 211.683ZM128.481 203.678C129.403 203.678 130.255 203.511 131.038 203.176C131.848 202.84 132.546 202.365 133.133 201.751C133.748 201.108 134.223 200.34 134.558 199.446C134.893 198.524 135.061 197.49 135.061 196.345C135.061 195.199 134.893 194.179 134.558 193.285C134.223 192.363 133.748 191.595 133.133 190.98C132.546 190.338 131.848 189.849 131.038 189.514C130.255 189.178 129.403 189.011 128.481 189.011C127.559 189.011 126.693 189.178 125.883 189.514C125.101 189.849 124.402 190.338 123.788 190.98C123.201 191.595 122.74 192.363 122.405 193.285C122.069 194.179 121.902 195.199 121.902 196.345C121.902 197.49 122.069 198.524 122.405 199.446C122.74 200.34 123.201 201.108 123.788 201.751C124.402 202.365 125.101 202.84 125.883 203.176C126.693 203.511 127.559 203.678 128.481 203.678Z" fill="#ED1846"/>
<path d="M154.995 211.012V189.346H146.404V181.677H173.476V189.346H164.885V211.012H154.995Z" fill="#ED1846"/>
<path d="M175.54 202.463V195.339H188.113V202.463H175.54Z" fill="#ED1846"/>
<path d="M194.049 211.012V181.677H208.172C210.91 181.677 213.271 182.124 215.255 183.018C217.266 183.912 218.817 185.197 219.906 186.873C220.996 188.522 221.541 190.477 221.541 192.74C221.541 195.004 220.996 196.959 219.906 198.608C218.817 200.228 217.266 201.471 215.255 202.337C213.271 203.204 210.91 203.637 208.172 203.637H199.539L203.939 199.571V211.012H194.049ZM211.609 211.012L204.4 200.326H214.877L222.169 211.012H211.609ZM203.939 200.661L199.539 196.177H207.543C208.912 196.177 209.918 195.87 210.561 195.255C211.231 194.64 211.567 193.802 211.567 192.74C211.567 191.679 211.231 190.841 210.561 190.226C209.918 189.611 208.912 189.304 207.543 189.304H199.539L203.939 184.82V200.661Z" fill="#ED1846"/>
<path d="M236.004 192.573H249.079V199.697H236.004V192.573ZM236.674 203.553H251.342V211.012H226.952V181.677H250.797V189.136H236.674V203.553Z" fill="#ED1846"/>
<path d="M256.826 211.012V181.677H266.716V203.343H279.959V211.012H256.826Z" fill="#ED1846"/>
<path d="M298.071 211.683C295.697 211.683 293.489 211.306 291.45 210.551C289.438 209.797 287.692 208.735 286.211 207.366C284.731 205.969 283.571 204.335 282.733 202.463C281.923 200.591 281.518 198.552 281.518 196.345C281.518 194.109 281.923 192.07 282.733 190.226C283.571 188.354 284.731 186.734 286.211 185.365C287.692 183.968 289.438 182.892 291.45 182.138C293.489 181.383 295.697 181.006 298.071 181.006C300.474 181.006 302.681 181.383 304.693 182.138C306.704 182.892 308.451 183.968 309.931 185.365C311.412 186.734 312.558 188.354 313.368 190.226C314.206 192.07 314.625 194.109 314.625 196.345C314.625 198.552 314.206 200.591 313.368 202.463C312.558 204.335 311.412 205.969 309.931 207.366C308.451 208.735 306.704 209.797 304.693 210.551C302.681 211.306 300.474 211.683 298.071 211.683ZM298.071 203.678C298.993 203.678 299.845 203.511 300.628 203.176C301.438 202.84 302.136 202.365 302.723 201.751C303.338 201.108 303.813 200.34 304.148 199.446C304.483 198.524 304.651 197.49 304.651 196.345C304.651 195.199 304.483 194.179 304.148 193.285C303.813 192.363 303.338 191.595 302.723 190.98C302.136 190.338 301.438 189.849 300.628 189.514C299.845 189.178 298.993 189.011 298.071 189.011C297.149 189.011 296.283 189.178 295.473 189.514C294.691 189.849 293.992 190.338 293.378 190.98C292.791 191.595 292.33 192.363 291.995 193.285C291.659 194.179 291.492 195.199 291.492 196.345C291.492 197.49 291.659 198.524 291.995 199.446C292.33 200.34 292.791 201.108 293.378 201.751C293.992 202.365 294.691 202.84 295.473 203.176C296.283 203.511 297.149 203.678 298.071 203.678Z" fill="#ED1846"/>
<path d="M313.772 211.012L326.596 181.677H336.319L349.143 211.012H338.917L329.446 186.37H333.302L323.83 211.012H313.772ZM321.4 205.9L323.914 198.775H337.409L339.923 205.9H321.4Z" fill="#ED1846"/>
<path d="M351.979 211.012V181.677H366.437C369.706 181.677 372.583 182.277 375.07 183.479C377.556 184.652 379.498 186.329 380.895 188.508C382.292 190.687 382.99 193.285 382.99 196.303C382.99 199.348 382.292 201.974 380.895 204.181C379.498 206.361 377.556 208.051 375.07 209.252C372.583 210.426 369.706 211.012 366.437 211.012H351.979ZM361.869 203.301H366.018C367.415 203.301 368.63 203.036 369.664 202.505C370.725 201.974 371.55 201.192 372.136 200.158C372.723 199.097 373.016 197.811 373.016 196.303C373.016 194.822 372.723 193.565 372.136 192.531C371.55 191.497 370.725 190.715 369.664 190.184C368.63 189.653 367.415 189.388 366.018 189.388H361.869V203.301Z" fill="#ED1846"/>
<path d="M285.174 87.4784C284.855 87.159 284.337 87.159 284.018 87.4784L275.719 95.7772C275.544 95.9516 275.308 96.0495 275.061 96.0495H213.746C212.918 96.0495 212.503 95.0478 213.088 94.4619L247.812 59.7377C248.132 59.4183 248.132 58.9005 247.812 58.5811C238.87 49.639 224.372 49.639 215.43 58.5811L178.103 95.9076C169.161 104.85 169.161 119.348 178.103 128.291C178.423 128.61 178.94 128.61 179.26 128.291L187.526 120.024C187.701 119.849 187.937 119.751 188.184 119.751H249.5C250.328 119.751 250.743 120.753 250.157 121.339L215.465 156.031C215.146 156.351 215.146 156.868 215.465 157.188C224.407 166.13 238.906 166.13 247.848 157.188L285.174 119.861C294.117 110.919 294.117 96.4207 285.174 87.4784Z" fill="#ED1846"/>
<path d="M404.066 314.412C403.912 314.258 403.663 314.258 403.509 314.412L399.506 318.415C399.422 318.499 399.308 318.546 399.189 318.546H369.616C369.217 318.546 369.017 318.063 369.299 317.78L386.047 301.033C386.201 300.879 386.201 300.629 386.047 300.475C381.734 296.162 374.741 296.162 370.428 300.475L352.426 318.477C348.113 322.79 348.113 329.783 352.426 334.096C352.58 334.25 352.83 334.25 352.984 334.096L356.971 330.109C357.055 330.025 357.169 329.977 357.288 329.977H386.86C387.26 329.977 387.46 330.46 387.178 330.743L370.445 347.475C370.291 347.629 370.291 347.879 370.445 348.033C374.758 352.346 381.751 352.346 386.064 348.033L404.066 330.03C408.379 325.717 408.379 318.725 404.066 314.412Z" fill="#ED1846"/>
<path d="M255.937 338.298C255.657 338.578 255.323 338.71 254.935 338.694C254.546 338.679 254.211 338.531 253.931 338.252C253.683 338.003 253.543 337.692 253.512 337.319C253.481 336.945 253.574 336.619 253.792 336.339L262.84 323.745L247.728 322.3C246.919 322.237 246.383 321.818 246.118 321.04C245.854 320.263 246.033 319.61 246.655 319.081L266.012 301.73C266.292 301.45 266.627 301.318 267.016 301.332C267.404 301.349 267.738 301.497 268.018 301.776C268.266 302.025 268.406 302.336 268.438 302.709C268.469 303.082 268.375 303.409 268.158 303.689L259.109 316.283L274.221 317.728C275.03 317.791 275.566 318.21 275.83 318.988C276.094 319.765 275.916 320.418 275.294 320.947L255.937 338.298Z" fill="#B7B7B7"/>
</svg>
