<svg width="462" height="395" viewBox="0 0 462 395" fill="none" xmlns="http://www.w3.org/2000/svg">
<rect width="462" height="395" fill="white"/>
<path d="M142.144 181.4H152.116V211.015H142.144V181.4ZM132.933 211.015H122.962V181.4H132.933V211.015ZM142.82 200.1H132.257V191.892H142.82V200.1Z" fill="#ED1846"/>
<path d="M165.793 211.015V198.027L168.075 203.992L154.639 181.4H165.159L174.243 196.842H168.117L177.286 181.4H186.919L173.567 203.992L175.765 198.027V211.015H165.793Z" fill="#ED1846"/>
<path d="M189.03 211.015V181.4H203.607C206.902 181.4 209.804 182.006 212.311 183.219C214.818 184.404 216.775 186.096 218.184 188.296C219.592 190.496 220.296 193.119 220.296 196.165C220.296 199.24 219.592 201.891 218.184 204.119C216.775 206.319 214.818 208.026 212.311 209.238C209.804 210.423 206.902 211.015 203.607 211.015H189.03ZM199.001 203.231H203.184C204.593 203.231 205.818 202.963 206.86 202.427C207.931 201.891 208.762 201.101 209.353 200.058C209.945 198.986 210.24 197.688 210.24 196.165C210.24 194.671 209.945 193.401 209.353 192.358C208.762 191.314 207.931 190.524 206.86 189.988C205.818 189.453 204.593 189.185 203.184 189.185H199.001V203.231Z" fill="#ED1846"/>
<path d="M223.937 211.015V181.4H238.176C240.937 181.4 243.317 181.851 245.317 182.754C247.345 183.656 248.908 184.954 250.007 186.646C251.105 188.31 251.654 190.285 251.654 192.569C251.654 194.854 251.105 196.828 250.007 198.492C248.908 200.128 247.345 201.383 245.317 202.258C243.317 203.132 240.937 203.569 238.176 203.569H229.472L233.909 199.465V211.015H223.937ZM241.641 211.015L234.373 200.227H244.936L252.288 211.015H241.641ZM233.909 200.565L229.472 196.038H237.542C238.923 196.038 239.937 195.728 240.584 195.108C241.26 194.487 241.599 193.641 241.599 192.569C241.599 191.497 241.26 190.651 240.584 190.031C239.937 189.41 238.923 189.1 237.542 189.1H229.472L233.909 184.573V200.565Z" fill="#ED1846"/>
<path d="M253.476 211.015L266.405 181.4H276.208L289.137 211.015H278.827L269.278 186.138H273.166L263.617 211.015H253.476ZM261.166 205.854L263.701 198.662H277.306L279.841 205.854H261.166Z" fill="#ED1846"/>
<path d="M294.615 211.015V189.142H285.954V181.4H313.248V189.142H304.587V211.015H294.615Z" fill="#ED1846"/>
<path d="M325.81 192.4H338.992V199.592H325.81V192.4ZM326.486 203.485H341.274V211.015H316.683V181.4H340.725V188.931H326.486V203.485Z" fill="#ED1846"/>
<path d="M197.035 52.8547C197.035 52.3355 197.457 51.9127 197.975 51.9327C210.763 52.427 220.978 62.9635 220.978 75.8889V82.7532C220.978 86.3534 220.118 89.9013 218.469 93.1006L213.762 102.233C213.601 102.546 213.828 102.919 214.18 102.919H251.72C252.071 102.919 252.298 102.546 252.137 102.233L247.43 93.1006C245.781 89.9013 244.921 86.3534 244.921 82.7532V75.8889C244.921 62.9635 255.136 52.427 267.924 51.9327C268.442 51.9127 268.864 52.3355 268.864 52.8547V80.5846C268.864 81.7846 269.151 82.9673 269.7 84.0337L294.813 132.762C300.732 144.248 296.48 158.302 285.343 164.613C284.891 164.869 284.323 164.687 284.085 164.226L265.108 127.402C264.947 127.09 264.625 126.893 264.273 126.893H201.626C201.274 126.893 200.953 127.09 200.791 127.402L181.814 164.226C181.576 164.687 181.008 164.869 180.557 164.613C169.419 158.302 165.167 144.248 171.086 132.762L196.199 84.0337C196.749 82.9673 197.035 81.7846 197.035 80.5846V52.8547Z" fill="#ED1846"/>
<path d="M128.947 326.69V315.91H132.907V326.69H128.947ZM125.317 323.17V319.43H136.537V323.17H125.317Z" fill="#B7B7B7"/>
<path d="M214.947 326.69V315.91H218.907V326.69H214.947ZM211.317 323.17V319.43H222.537V323.17H211.317Z" fill="#B7B7B7"/>
<path d="M297.317 320.31V316.57H308.537V320.31H297.317ZM297.317 326.03V322.29H308.537V326.03H297.317Z" fill="#B7B7B7"/>
<path d="M154.903 352.2H155.617V362H154.903V352.2ZM148.351 362H147.637V352.2H148.351V362ZM154.987 357.338H148.267V356.708H154.987V357.338ZM158.647 364.772C158.311 364.772 157.994 364.716 157.695 364.604C157.406 364.492 157.158 364.329 156.953 364.114L157.303 363.582C157.49 363.778 157.69 363.923 157.905 364.016C158.129 364.109 158.381 364.156 158.661 364.156C158.997 364.156 159.291 364.063 159.543 363.876C159.804 363.689 160.047 363.349 160.271 362.854L160.775 361.734L160.873 361.608L163.967 354.692H164.681L160.929 362.994C160.733 363.442 160.518 363.792 160.285 364.044C160.061 364.305 159.814 364.492 159.543 364.604C159.272 364.716 158.974 364.772 158.647 364.772ZM160.761 362.182L157.373 354.692H158.115L161.195 361.566L160.761 362.182ZM168.82 362.056C168.139 362.056 167.523 361.902 166.972 361.594C166.431 361.277 166.002 360.838 165.684 360.278C165.367 359.718 165.208 359.074 165.208 358.346C165.208 357.609 165.367 356.965 165.684 356.414C166.002 355.854 166.431 355.42 166.972 355.112C167.523 354.795 168.139 354.636 168.82 354.636C169.464 354.636 170.043 354.785 170.556 355.084C171.079 355.383 171.49 355.807 171.788 356.358C172.096 356.909 172.25 357.571 172.25 358.346C172.25 359.102 172.101 359.76 171.802 360.32C171.504 360.88 171.093 361.309 170.57 361.608C170.057 361.907 169.474 362.056 168.82 362.056ZM168.862 361.426C169.422 361.426 169.922 361.3 170.36 361.048C170.808 360.787 171.158 360.423 171.41 359.956C171.672 359.489 171.802 358.953 171.802 358.346C171.802 357.73 171.672 357.193 171.41 356.736C171.158 356.269 170.808 355.91 170.36 355.658C169.922 355.397 169.422 355.266 168.862 355.266C168.302 355.266 167.798 355.397 167.35 355.658C166.912 355.91 166.562 356.269 166.3 356.736C166.048 357.193 165.922 357.73 165.922 358.346C165.922 358.953 166.048 359.489 166.3 359.956C166.562 360.423 166.912 360.787 167.35 361.048C167.798 361.3 168.302 361.426 168.862 361.426ZM171.816 362V359.606L171.942 358.332L171.802 357.058V351.612H172.502V362H171.816ZM175.454 362V354.692H176.126V356.694L176.056 356.47C176.261 355.882 176.606 355.429 177.092 355.112C177.577 354.795 178.184 354.636 178.912 354.636V355.322C178.884 355.322 178.856 355.322 178.828 355.322C178.8 355.313 178.772 355.308 178.744 355.308C177.932 355.308 177.297 355.565 176.84 356.078C176.382 356.582 176.154 357.287 176.154 358.192V362H175.454ZM184.9 362V360.334L184.872 360.082V357.338C184.872 356.657 184.685 356.139 184.312 355.784C183.948 355.429 183.411 355.252 182.702 355.252C182.198 355.252 181.726 355.341 181.288 355.518C180.858 355.686 180.49 355.905 180.182 356.176L179.832 355.672C180.196 355.345 180.634 355.093 181.148 354.916C181.661 354.729 182.198 354.636 182.758 354.636C183.663 354.636 184.358 354.865 184.844 355.322C185.329 355.779 185.572 356.461 185.572 357.366V362H184.9ZM182.268 362.056C181.726 362.056 181.255 361.972 180.854 361.804C180.462 361.627 180.158 361.379 179.944 361.062C179.738 360.745 179.636 360.381 179.636 359.97C179.636 359.597 179.72 359.261 179.888 358.962C180.065 358.654 180.354 358.407 180.756 358.22C181.157 358.024 181.694 357.926 182.366 357.926H185.054V358.472H182.38C181.624 358.472 181.092 358.612 180.784 358.892C180.485 359.172 180.336 359.522 180.336 359.942C180.336 360.409 180.513 360.782 180.868 361.062C181.222 361.342 181.722 361.482 182.366 361.482C182.982 361.482 183.5 361.342 183.92 361.062C184.349 360.782 184.666 360.376 184.872 359.844L185.068 360.32C184.872 360.852 184.536 361.277 184.06 361.594C183.593 361.902 182.996 362.056 182.268 362.056ZM190.584 362.056C189.94 362.056 189.445 361.879 189.1 361.524C188.764 361.169 188.596 360.684 188.596 360.068V353.096H189.296V359.998C189.296 360.465 189.412 360.824 189.646 361.076C189.879 361.328 190.215 361.454 190.654 361.454C191.111 361.454 191.489 361.319 191.788 361.048L192.082 361.538C191.895 361.715 191.666 361.846 191.396 361.93C191.134 362.014 190.864 362.056 190.584 362.056ZM187.252 355.294V354.692H191.62V355.294H187.252ZM196.742 362.056C196.005 362.056 195.351 361.897 194.782 361.58C194.222 361.263 193.779 360.824 193.452 360.264C193.135 359.704 192.976 359.065 192.976 358.346C192.976 357.618 193.125 356.979 193.424 356.428C193.732 355.868 194.152 355.429 194.684 355.112C195.216 354.795 195.813 354.636 196.476 354.636C197.139 354.636 197.731 354.79 198.254 355.098C198.786 355.406 199.201 355.84 199.5 356.4C199.808 356.951 199.962 357.59 199.962 358.318C199.962 358.346 199.957 358.379 199.948 358.416C199.948 358.444 199.948 358.477 199.948 358.514H193.494V357.968H199.57L199.29 358.234C199.299 357.665 199.178 357.156 198.926 356.708C198.683 356.251 198.352 355.896 197.932 355.644C197.512 355.383 197.027 355.252 196.476 355.252C195.935 355.252 195.449 355.383 195.02 355.644C194.6 355.896 194.269 356.251 194.026 356.708C193.783 357.156 193.662 357.669 193.662 358.248V358.374C193.662 358.971 193.793 359.503 194.054 359.97C194.325 360.427 194.693 360.787 195.16 361.048C195.627 361.3 196.159 361.426 196.756 361.426C197.223 361.426 197.657 361.342 198.058 361.174C198.469 361.006 198.814 360.749 199.094 360.404L199.5 360.866C199.183 361.258 198.781 361.557 198.296 361.762C197.82 361.958 197.302 362.056 196.742 362.056Z" fill="#666666"/>
<path d="M76.6367 362V352.2H80.1507C80.972 352.2 81.6767 352.331 82.2647 352.592C82.8527 352.853 83.3054 353.231 83.6227 353.726C83.94 354.211 84.0987 354.804 84.0987 355.504C84.0987 356.185 83.94 356.773 83.6227 357.268C83.3054 357.753 82.8527 358.131 82.2647 358.402C81.6767 358.663 80.972 358.794 80.1507 358.794H77.0287L77.3507 358.458V362H76.6367ZM83.4407 362L80.8927 358.444H81.7047L84.2527 362H83.4407ZM77.3507 358.5L77.0287 358.164H80.1507C81.2054 358.164 82.0034 357.931 82.5447 357.464C83.0954 356.997 83.3707 356.344 83.3707 355.504C83.3707 354.655 83.0954 354.001 82.5447 353.544C82.0034 353.077 81.2054 352.844 80.1507 352.844H77.0287L77.3507 352.494V358.5ZM86.4889 362V354.692H87.1889V362H86.4889ZM86.8389 352.914C86.6802 352.914 86.5449 352.858 86.4329 352.746C86.3209 352.634 86.2649 352.503 86.2649 352.354C86.2649 352.195 86.3209 352.06 86.4329 351.948C86.5449 351.836 86.6802 351.78 86.8389 351.78C87.0069 351.78 87.1422 351.836 87.2449 351.948C87.3569 352.051 87.4129 352.181 87.4129 352.34C87.4129 352.499 87.3569 352.634 87.2449 352.746C87.1422 352.858 87.0069 352.914 86.8389 352.914ZM92.9953 362.056C92.2953 362.056 91.6699 361.897 91.1193 361.58C90.5779 361.263 90.1439 360.824 89.8173 360.264C89.4999 359.704 89.3413 359.065 89.3413 358.346C89.3413 357.618 89.4999 356.979 89.8173 356.428C90.1439 355.868 90.5779 355.429 91.1193 355.112C91.6699 354.795 92.2953 354.636 92.9953 354.636C93.6953 354.636 94.3206 354.795 94.8713 355.112C95.4219 355.429 95.8559 355.868 96.1733 356.428C96.4906 356.979 96.6493 357.618 96.6493 358.346C96.6493 359.065 96.4906 359.704 96.1733 360.264C95.8559 360.824 95.4219 361.263 94.8713 361.58C94.3206 361.897 93.6953 362.056 92.9953 362.056ZM92.9953 361.426C93.5553 361.426 94.0593 361.3 94.5073 361.048C94.9553 360.787 95.3053 360.423 95.5573 359.956C95.8093 359.489 95.9353 358.953 95.9353 358.346C95.9353 357.73 95.8093 357.193 95.5573 356.736C95.3053 356.269 94.9553 355.91 94.5073 355.658C94.0593 355.397 93.5553 355.266 92.9953 355.266C92.4353 355.266 91.9313 355.397 91.4833 355.658C91.0446 355.91 90.6946 356.269 90.4333 356.736C90.1813 357.193 90.0553 357.73 90.0553 358.346C90.0553 358.953 90.1813 359.489 90.4333 359.956C90.6946 360.423 91.0446 360.787 91.4833 361.048C91.9313 361.3 92.4353 361.426 92.9953 361.426ZM100.949 362.056C100.305 362.056 99.8102 361.879 99.4649 361.524C99.1289 361.169 98.9609 360.684 98.9609 360.068V353.096H99.6609V359.998C99.6609 360.465 99.7776 360.824 100.011 361.076C100.244 361.328 100.58 361.454 101.019 361.454C101.476 361.454 101.854 361.319 102.153 361.048L102.447 361.538C102.26 361.715 102.032 361.846 101.761 361.93C101.5 362.014 101.229 362.056 100.949 362.056ZM97.6169 355.294V354.692H101.985V355.294H97.6169Z" fill="#666666"/>
<path d="M242.267 357.03H247.573V357.674H242.267V357.03ZM242.351 362H241.637V352.2H248.189V352.844H242.351V362ZM250.245 362V351.612H250.945V362H250.245ZM258.501 362V360.334L258.473 360.082V357.338C258.473 356.657 258.286 356.139 257.913 355.784C257.549 355.429 257.012 355.252 256.303 355.252C255.799 355.252 255.328 355.341 254.889 355.518C254.46 355.686 254.091 355.905 253.783 356.176L253.433 355.672C253.797 355.345 254.236 355.093 254.749 354.916C255.262 354.729 255.799 354.636 256.359 354.636C257.264 354.636 257.96 354.865 258.445 355.322C258.93 355.779 259.173 356.461 259.173 357.366V362H258.501ZM255.869 362.056C255.328 362.056 254.856 361.972 254.455 361.804C254.063 361.627 253.76 361.379 253.545 361.062C253.34 360.745 253.237 360.381 253.237 359.97C253.237 359.597 253.321 359.261 253.489 358.962C253.666 358.654 253.956 358.407 254.357 358.22C254.758 358.024 255.295 357.926 255.967 357.926H258.655V358.472H255.981C255.225 358.472 254.693 358.612 254.385 358.892C254.086 359.172 253.937 359.522 253.937 359.942C253.937 360.409 254.114 360.782 254.469 361.062C254.824 361.342 255.323 361.482 255.967 361.482C256.583 361.482 257.101 361.342 257.521 361.062C257.95 360.782 258.268 360.376 258.473 359.844L258.669 360.32C258.473 360.852 258.137 361.277 257.661 361.594C257.194 361.902 256.597 362.056 255.869 362.056ZM263.905 362.056C263.299 362.056 262.729 361.967 262.197 361.79C261.675 361.613 261.269 361.389 260.979 361.118L261.301 360.558C261.581 360.801 261.955 361.011 262.421 361.188C262.888 361.356 263.392 361.44 263.933 361.44C264.699 361.44 265.249 361.314 265.585 361.062C265.921 360.81 266.089 360.479 266.089 360.068C266.089 359.769 266.001 359.536 265.823 359.368C265.655 359.191 265.427 359.055 265.137 358.962C264.848 358.869 264.531 358.794 264.185 358.738C263.84 358.673 263.495 358.603 263.149 358.528C262.804 358.453 262.487 358.346 262.197 358.206C261.908 358.066 261.675 357.875 261.497 357.632C261.329 357.38 261.245 357.049 261.245 356.638C261.245 356.265 261.348 355.929 261.553 355.63C261.759 355.331 262.067 355.093 262.477 354.916C262.888 354.729 263.401 354.636 264.017 354.636C264.475 354.636 264.932 354.701 265.389 354.832C265.856 354.963 266.234 355.135 266.523 355.35L266.201 355.91C265.893 355.677 265.548 355.509 265.165 355.406C264.783 355.303 264.395 355.252 264.003 355.252C263.294 355.252 262.771 355.383 262.435 355.644C262.109 355.905 261.945 356.232 261.945 356.624C261.945 356.932 262.029 357.179 262.197 357.366C262.375 357.543 262.608 357.683 262.897 357.786C263.187 357.879 263.504 357.959 263.849 358.024C264.195 358.08 264.54 358.145 264.885 358.22C265.231 358.295 265.548 358.402 265.837 358.542C266.127 358.673 266.355 358.859 266.523 359.102C266.701 359.335 266.789 359.653 266.789 360.054C266.789 360.455 266.677 360.805 266.453 361.104C266.239 361.403 265.917 361.636 265.487 361.804C265.058 361.972 264.531 362.056 263.905 362.056ZM269.275 359.984L269.289 359.102L274.119 354.692H275.015L271.809 357.702L271.389 358.052L269.275 359.984ZM268.743 362V351.612H269.443V362H268.743ZM274.455 362L271.263 357.996L271.739 357.478L275.323 362H274.455Z" fill="#666666"/>
<path d="M73 303.313C73 303.14 73.14 303 73.3127 303H96.5561C102.719 303 107.402 308.001 107.402 314.169V315.399C107.402 316.09 106.841 316.651 106.151 316.651H100.901C100.556 316.651 100.276 316.371 100.276 316.025V314.169C100.276 312.113 98.6103 310.446 96.5561 310.446H80.7515C80.5788 310.446 80.4388 310.586 80.4388 310.759V336.35C80.4388 336.523 80.2983 336.664 80.1258 336.657C76.1626 336.493 73 333.225 73 329.217V303.313Z" fill="#ED1846"/>
<path d="M86.9505 317.892C86.7778 317.892 86.6371 318.032 86.6442 318.205C86.8083 322.172 90.0731 325.338 94.0765 325.338H99.0357C99.7204 325.338 100.276 325.893 100.276 326.579V336.35C100.276 336.523 100.416 336.664 100.589 336.657C104.552 336.493 107.714 333.225 107.714 329.217V326.579C107.714 321.781 103.829 317.892 99.0357 317.892H86.9505Z" fill="#ED1846"/>
<path d="M180.166 303.757H187.859V337H180.166V303.757ZM165.064 337H157.37V303.757H165.064V337ZM180.735 323.37H164.494V316.864H180.735V323.37Z" fill="#B7B7B7"/>
<path d="M340.677 297.443C340.677 297.194 340.879 296.991 341.128 297C347.271 297.237 352.178 302.292 352.178 308.493V311.786C352.178 313.513 351.765 315.215 350.973 316.75L348.712 321.131C348.634 321.281 348.743 321.46 348.912 321.46H366.945C367.114 321.46 367.223 321.281 367.146 321.131L364.885 316.75C364.093 315.215 363.679 313.513 363.679 311.786V308.493C363.679 302.292 368.586 297.237 374.729 297C374.978 296.991 375.181 297.194 375.181 297.443V310.746C375.181 311.321 375.318 311.889 375.582 312.4L387.646 335.777C390.489 341.287 388.447 348.029 383.097 351.057C382.88 351.18 382.607 351.092 382.492 350.871L373.376 333.206C373.299 333.056 373.144 332.961 372.976 332.961H342.882C342.713 332.961 342.558 333.056 342.481 333.206L333.365 350.871C333.251 351.092 332.978 351.18 332.761 351.057C327.411 348.029 325.368 341.287 328.212 335.777L340.275 312.4C340.539 311.889 340.677 311.321 340.677 310.746V297.443Z" fill="#ED1846"/>
<path d="M275.396 334.464L263.962 315.282V306.385H264.688C265.266 306.385 265.82 306.154 266.228 305.742C266.637 305.331 266.866 304.774 266.866 304.192C266.866 303.611 266.637 303.053 266.228 302.642C265.82 302.231 265.266 302 264.688 302H250.169C249.592 302 249.038 302.231 248.629 302.642C248.221 303.053 247.991 303.611 247.991 304.192C247.991 304.774 248.221 305.331 248.629 305.742C249.038 306.154 249.592 306.385 250.169 306.385H250.895V315.282L243.708 327.339V327.376L239.461 334.464C239.125 335.017 238.941 335.65 238.929 336.299C238.918 336.947 239.078 337.587 239.395 338.151C239.712 338.716 240.172 339.185 240.73 339.51C241.287 339.835 241.921 340.004 242.565 340H272.293C272.937 340.004 273.57 339.835 274.128 339.51C274.685 339.185 275.146 338.716 275.462 338.151C275.779 337.587 275.94 336.947 275.928 336.299C275.916 335.65 275.733 335.017 275.396 334.464ZM254.725 317.364C255.068 316.798 255.25 316.147 255.251 315.483V306.385H259.607V315.483C259.607 316.147 259.789 316.798 260.133 317.364L266.757 328.49C264.162 329.44 260.895 328.326 258.409 327.084C255.16 325.439 252.474 324.836 250.278 324.836L254.725 317.364ZM243.853 335.615L247.175 330.025C249.897 328.362 253.69 329.605 256.449 330.993C259.697 332.637 262.402 333.24 264.616 333.24C266.138 333.258 267.644 332.934 269.026 332.29L271.004 335.615H243.853Z" fill="#B7B7B7"/>
</svg>
