<svg width="462" height="395" viewBox="0 0 462 395" fill="none" xmlns="http://www.w3.org/2000/svg">
<rect width="462" height="395" fill="white"/>
<path d="M146.609 323.17H142.979V326.69H139.019V323.17H135.389V319.43H139.019V315.91H142.979V319.43H146.609V323.17Z" fill="#B7B7B7"/>
<path d="M226.609 323.17H222.979V326.69H219.019V323.17H215.389V319.43H219.019V315.91H222.979V319.43H226.609V323.17Z" fill="#B7B7B7"/>
<path d="M307.389 316.57H318.609V320.31H307.389V316.57ZM307.389 322.29H318.609V326.03H307.389V322.29Z" fill="#B7B7B7"/>
<path d="M165.708 362V352.2H166.422V361.356H172.064V362H165.708ZM178.279 362V360.334L178.251 360.082V357.338C178.251 356.657 178.065 356.139 177.691 355.784C177.327 355.429 176.791 355.252 176.081 355.252C175.577 355.252 175.106 355.341 174.667 355.518C174.238 355.686 173.869 355.905 173.561 356.176L173.211 355.672C173.575 355.345 174.014 355.093 174.527 354.916C175.041 354.729 175.577 354.636 176.137 354.636C177.043 354.636 177.738 354.865 178.223 355.322C178.709 355.779 178.951 356.461 178.951 357.366V362H178.279ZM175.647 362.056C175.106 362.056 174.635 361.972 174.233 361.804C173.841 361.627 173.538 361.379 173.323 361.062C173.118 360.745 173.015 360.381 173.015 359.97C173.015 359.597 173.099 359.261 173.267 358.962C173.445 358.654 173.734 358.407 174.135 358.22C174.537 358.024 175.073 357.926 175.745 357.926H178.433V358.472H175.759C175.003 358.472 174.471 358.612 174.163 358.892C173.865 359.172 173.715 359.522 173.715 359.942C173.715 360.409 173.893 360.782 174.247 361.062C174.602 361.342 175.101 361.482 175.745 361.482C176.361 361.482 176.879 361.342 177.299 361.062C177.729 360.782 178.046 360.376 178.251 359.844L178.447 360.32C178.251 360.852 177.915 361.277 177.439 361.594C176.973 361.902 176.375 362.056 175.647 362.056ZM180.968 362V361.524L185.966 355.056L186.148 355.294H181.038V354.692H186.694V355.168L181.682 361.636L181.472 361.398H186.778V362H180.968ZM188.572 364.772C188.236 364.772 187.919 364.716 187.62 364.604C187.331 364.492 187.083 364.329 186.878 364.114L187.228 363.582C187.415 363.778 187.615 363.923 187.83 364.016C188.054 364.109 188.306 364.156 188.586 364.156C188.922 364.156 189.216 364.063 189.468 363.876C189.729 363.689 189.972 363.349 190.196 362.854L190.7 361.734L190.798 361.608L193.892 354.692H194.606L190.854 362.994C190.658 363.442 190.443 363.792 190.21 364.044C189.986 364.305 189.739 364.492 189.468 364.604C189.197 364.716 188.899 364.772 188.572 364.772ZM190.686 362.182L187.298 354.692H188.04L191.12 361.566L190.686 362.182Z" fill="#666666"/>
<path d="M243.227 352.2H243.941V362H243.227V352.2ZM236.675 362H235.961V352.2H236.675V362ZM243.311 357.338H236.591V356.708H243.311V357.338ZM249.995 362.056C249.295 362.056 248.67 361.897 248.119 361.58C247.578 361.263 247.144 360.824 246.817 360.264C246.5 359.704 246.341 359.065 246.341 358.346C246.341 357.618 246.5 356.979 246.817 356.428C247.144 355.868 247.578 355.429 248.119 355.112C248.67 354.795 249.295 354.636 249.995 354.636C250.695 354.636 251.321 354.795 251.871 355.112C252.422 355.429 252.856 355.868 253.173 356.428C253.491 356.979 253.649 357.618 253.649 358.346C253.649 359.065 253.491 359.704 253.173 360.264C252.856 360.824 252.422 361.263 251.871 361.58C251.321 361.897 250.695 362.056 249.995 362.056ZM249.995 361.426C250.555 361.426 251.059 361.3 251.507 361.048C251.955 360.787 252.305 360.423 252.557 359.956C252.809 359.489 252.935 358.953 252.935 358.346C252.935 357.73 252.809 357.193 252.557 356.736C252.305 356.269 251.955 355.91 251.507 355.658C251.059 355.397 250.555 355.266 249.995 355.266C249.435 355.266 248.931 355.397 248.483 355.658C248.045 355.91 247.695 356.269 247.433 356.736C247.181 357.193 247.055 357.73 247.055 358.346C247.055 358.953 247.181 359.489 247.433 359.956C247.695 360.423 248.045 360.787 248.483 361.048C248.931 361.3 249.435 361.426 249.995 361.426ZM258.789 362.056C258.164 362.056 257.622 361.944 257.165 361.72C256.708 361.487 256.353 361.141 256.101 360.684C255.858 360.217 255.737 359.643 255.737 358.962V354.692H256.437V358.906C256.437 359.727 256.647 360.353 257.067 360.782C257.487 361.211 258.08 361.426 258.845 361.426C259.396 361.426 259.872 361.309 260.273 361.076C260.674 360.843 260.982 360.516 261.197 360.096C261.412 359.667 261.519 359.163 261.519 358.584V354.692H262.219V362H261.547V359.97L261.645 360.208C261.43 360.777 261.071 361.23 260.567 361.566C260.072 361.893 259.48 362.056 258.789 362.056ZM265.186 362V354.692H265.858V356.694L265.788 356.47C265.993 355.882 266.339 355.429 266.824 355.112C267.309 354.795 267.916 354.636 268.644 354.636V355.322C268.616 355.322 268.588 355.322 268.56 355.322C268.532 355.313 268.504 355.308 268.476 355.308C267.664 355.308 267.029 355.565 266.572 356.078C266.115 356.582 265.886 357.287 265.886 358.192V362H265.186ZM273.543 364.772C272.88 364.772 272.25 364.669 271.653 364.464C271.055 364.259 270.57 363.974 270.197 363.61L270.575 363.078C270.939 363.414 271.373 363.675 271.877 363.862C272.39 364.049 272.941 364.142 273.529 364.142C274.509 364.142 275.227 363.913 275.685 363.456C276.151 362.999 276.385 362.28 276.385 361.3V359.27L276.525 358.178L276.413 357.086V354.692H277.085V361.216C277.085 362.439 276.786 363.335 276.189 363.904C275.601 364.483 274.719 364.772 273.543 364.772ZM273.347 361.734C272.656 361.734 272.035 361.585 271.485 361.286C270.943 360.978 270.509 360.558 270.183 360.026C269.865 359.485 269.707 358.869 269.707 358.178C269.707 357.478 269.865 356.862 270.183 356.33C270.509 355.798 270.943 355.383 271.485 355.084C272.035 354.785 272.656 354.636 273.347 354.636C274.009 354.636 274.602 354.781 275.125 355.07C275.657 355.35 276.077 355.756 276.385 356.288C276.693 356.811 276.847 357.441 276.847 358.178C276.847 358.906 276.693 359.536 276.385 360.068C276.077 360.6 275.657 361.011 275.125 361.3C274.602 361.589 274.009 361.734 273.347 361.734ZM273.403 361.104C273.991 361.104 274.509 360.983 274.957 360.74C275.405 360.488 275.755 360.143 276.007 359.704C276.268 359.256 276.399 358.747 276.399 358.178C276.399 357.599 276.268 357.091 276.007 356.652C275.755 356.213 275.405 355.873 274.957 355.63C274.509 355.387 273.991 355.266 273.403 355.266C272.833 355.266 272.32 355.387 271.863 355.63C271.415 355.873 271.06 356.213 270.799 356.652C270.547 357.091 270.421 357.599 270.421 358.178C270.421 358.747 270.547 359.256 270.799 359.704C271.06 360.143 271.415 360.488 271.863 360.74C272.32 360.983 272.833 361.104 273.403 361.104ZM280.047 362V351.612H280.747V362H280.047ZM288.304 362V360.334L288.276 360.082V357.338C288.276 356.657 288.089 356.139 287.716 355.784C287.352 355.429 286.815 355.252 286.106 355.252C285.602 355.252 285.131 355.341 284.692 355.518C284.263 355.686 283.894 355.905 283.586 356.176L283.236 355.672C283.6 355.345 284.039 355.093 284.552 354.916C285.065 354.729 285.602 354.636 286.162 354.636C287.067 354.636 287.763 354.865 288.248 355.322C288.733 355.779 288.976 356.461 288.976 357.366V362H288.304ZM285.672 362.056C285.131 362.056 284.659 361.972 284.258 361.804C283.866 361.627 283.563 361.379 283.348 361.062C283.143 360.745 283.04 360.381 283.04 359.97C283.04 359.597 283.124 359.261 283.292 358.962C283.469 358.654 283.759 358.407 284.16 358.22C284.561 358.024 285.098 357.926 285.77 357.926H288.458V358.472H285.784C285.028 358.472 284.496 358.612 284.188 358.892C283.889 359.172 283.74 359.522 283.74 359.942C283.74 360.409 283.917 360.782 284.272 361.062C284.627 361.342 285.126 361.482 285.77 361.482C286.386 361.482 286.904 361.342 287.324 361.062C287.753 360.782 288.071 360.376 288.276 359.844L288.472 360.32C288.276 360.852 287.94 361.277 287.464 361.594C286.997 361.902 286.4 362.056 285.672 362.056ZM293.708 362.056C293.101 362.056 292.532 361.967 292 361.79C291.477 361.613 291.071 361.389 290.782 361.118L291.104 360.558C291.384 360.801 291.757 361.011 292.224 361.188C292.691 361.356 293.195 361.44 293.736 361.44C294.501 361.44 295.052 361.314 295.388 361.062C295.724 360.81 295.892 360.479 295.892 360.068C295.892 359.769 295.803 359.536 295.626 359.368C295.458 359.191 295.229 359.055 294.94 358.962C294.651 358.869 294.333 358.794 293.988 358.738C293.643 358.673 293.297 358.603 292.952 358.528C292.607 358.453 292.289 358.346 292 358.206C291.711 358.066 291.477 357.875 291.3 357.632C291.132 357.38 291.048 357.049 291.048 356.638C291.048 356.265 291.151 355.929 291.356 355.63C291.561 355.331 291.869 355.093 292.28 354.916C292.691 354.729 293.204 354.636 293.82 354.636C294.277 354.636 294.735 354.701 295.192 354.832C295.659 354.963 296.037 355.135 296.326 355.35L296.004 355.91C295.696 355.677 295.351 355.509 294.968 355.406C294.585 355.303 294.198 355.252 293.806 355.252C293.097 355.252 292.574 355.383 292.238 355.644C291.911 355.905 291.748 356.232 291.748 356.624C291.748 356.932 291.832 357.179 292 357.366C292.177 357.543 292.411 357.683 292.7 357.786C292.989 357.879 293.307 357.959 293.652 358.024C293.997 358.08 294.343 358.145 294.688 358.22C295.033 358.295 295.351 358.402 295.64 358.542C295.929 358.673 296.158 358.859 296.326 359.102C296.503 359.335 296.592 359.653 296.592 360.054C296.592 360.455 296.48 360.805 296.256 361.104C296.041 361.403 295.719 361.636 295.29 361.804C294.861 361.972 294.333 362.056 293.708 362.056ZM300.394 362.056C299.787 362.056 299.218 361.967 298.686 361.79C298.163 361.613 297.757 361.389 297.468 361.118L297.79 360.558C298.07 360.801 298.443 361.011 298.91 361.188C299.376 361.356 299.88 361.44 300.422 361.44C301.187 361.44 301.738 361.314 302.074 361.062C302.41 360.81 302.578 360.479 302.578 360.068C302.578 359.769 302.489 359.536 302.312 359.368C302.144 359.191 301.915 359.055 301.626 358.962C301.336 358.869 301.019 358.794 300.674 358.738C300.328 358.673 299.983 358.603 299.638 358.528C299.292 358.453 298.975 358.346 298.686 358.206C298.396 358.066 298.163 357.875 297.986 357.632C297.818 357.38 297.734 357.049 297.734 356.638C297.734 356.265 297.836 355.929 298.042 355.63C298.247 355.331 298.555 355.093 298.966 354.916C299.376 354.729 299.89 354.636 300.506 354.636C300.963 354.636 301.42 354.701 301.878 354.832C302.344 354.963 302.722 355.135 303.012 355.35L302.69 355.91C302.382 355.677 302.036 355.509 301.654 355.406C301.271 355.303 300.884 355.252 300.492 355.252C299.782 355.252 299.26 355.383 298.924 355.644C298.597 355.905 298.434 356.232 298.434 356.624C298.434 356.932 298.518 357.179 298.686 357.366C298.863 357.543 299.096 357.683 299.386 357.786C299.675 357.879 299.992 357.959 300.338 358.024C300.683 358.08 301.028 358.145 301.374 358.22C301.719 358.295 302.036 358.402 302.326 358.542C302.615 358.673 302.844 358.859 303.012 359.102C303.189 359.335 303.278 359.653 303.278 360.054C303.278 360.455 303.166 360.805 302.942 361.104C302.727 361.403 302.405 361.636 301.976 361.804C301.546 361.972 301.019 362.056 300.394 362.056Z" fill="#666666"/>
<path d="M89.512 362L87.174 358.724C86.8287 358.771 86.5113 358.794 86.222 358.794H83.422V362H82.708V352.2H86.222C87.454 352.2 88.42 352.494 89.12 353.082C89.82 353.661 90.17 354.468 90.17 355.504C90.17 356.279 89.9693 356.932 89.568 357.464C89.176 357.987 88.6113 358.355 87.874 358.57L90.324 362H89.512ZM86.222 358.164C87.2673 358.164 88.0653 357.935 88.616 357.478C89.1667 357.011 89.442 356.353 89.442 355.504C89.442 354.655 89.1667 354.001 88.616 353.544C88.0653 353.077 87.2673 352.844 86.222 352.844H83.422V358.164H86.222ZM92.5602 354.692H93.2602V362H92.5602V354.692ZM92.9102 352.914C92.7515 352.914 92.6162 352.863 92.5042 352.76C92.3922 352.648 92.3362 352.513 92.3362 352.354C92.3362 352.195 92.3922 352.06 92.5042 351.948C92.6162 351.836 92.7515 351.78 92.9102 351.78C93.0688 351.78 93.2042 351.836 93.3162 351.948C93.4282 352.051 93.4842 352.181 93.4842 352.34C93.4842 352.499 93.4282 352.634 93.3162 352.746C93.2042 352.858 93.0688 352.914 92.9102 352.914ZM99.0666 362.056C98.3759 362.056 97.7506 361.897 97.1906 361.58C96.6399 361.263 96.2059 360.824 95.8886 360.264C95.5712 359.695 95.4126 359.055 95.4126 358.346C95.4126 357.637 95.5712 357.002 95.8886 356.442C96.2059 355.873 96.6399 355.429 97.1906 355.112C97.7506 354.795 98.3759 354.636 99.0666 354.636C99.7572 354.636 100.378 354.795 100.929 355.112C101.489 355.429 101.927 355.873 102.245 356.442C102.562 357.002 102.721 357.637 102.721 358.346C102.721 359.055 102.562 359.695 102.245 360.264C101.927 360.824 101.489 361.263 100.929 361.58C100.378 361.897 99.7572 362.056 99.0666 362.056ZM99.0666 361.426C99.6266 361.426 100.126 361.295 100.565 361.034C101.013 360.773 101.363 360.409 101.615 359.942C101.876 359.475 102.007 358.943 102.007 358.346C102.007 357.749 101.876 357.217 101.615 356.75C101.363 356.283 101.013 355.919 100.565 355.658C100.126 355.397 99.6266 355.266 99.0666 355.266C98.5066 355.266 98.0026 355.397 97.5546 355.658C97.1159 355.919 96.7659 356.283 96.5046 356.75C96.2526 357.217 96.1266 357.749 96.1266 358.346C96.1266 358.943 96.2526 359.475 96.5046 359.942C96.7659 360.409 97.1159 360.773 97.5546 361.034C98.0026 361.295 98.5066 361.426 99.0666 361.426ZM108.518 361.538C108.341 361.706 108.117 361.837 107.846 361.93C107.585 362.014 107.31 362.056 107.02 362.056C106.386 362.056 105.896 361.883 105.55 361.538C105.205 361.183 105.032 360.693 105.032 360.068V355.294H103.688V354.692H105.032V353.096H105.732V354.692H108.056V355.294H105.732V359.998C105.732 360.474 105.844 360.838 106.068 361.09C106.302 361.333 106.642 361.454 107.09 361.454C107.548 361.454 107.926 361.319 108.224 361.048L108.518 361.538Z" fill="#666666"/>
<path d="M79.0713 303.313C79.0713 303.14 79.2113 303 79.384 303H102.627C108.79 303 113.473 308.001 113.473 314.169V315.399C113.473 316.09 112.913 316.651 112.222 316.651H106.972C106.627 316.651 106.347 316.371 106.347 316.025V314.169C106.347 312.113 104.682 310.446 102.627 310.446H86.8228C86.6501 310.446 86.5101 310.586 86.5101 310.759V336.35C86.5101 336.523 86.3696 336.664 86.1971 336.657C82.2339 336.493 79.0713 333.225 79.0713 329.217V303.313Z" fill="#ED1846"/>
<path d="M93.0218 317.892C92.8491 317.892 92.7084 318.032 92.7155 318.205C92.8796 322.172 96.1444 325.338 100.148 325.338H105.107C105.792 325.338 106.347 325.893 106.347 326.579V336.35C106.347 336.523 106.487 336.664 106.66 336.657C110.623 336.493 113.786 333.225 113.786 329.217V326.579C113.786 321.781 109.9 317.892 105.107 317.892H93.0218Z" fill="#ED1846"/>
<path d="M167.442 337V303.757H175.135V330.731H191.804V337H167.442Z" fill="#B7B7B7"/>
<rect width="183" height="217" transform="translate(140 25)" fill="white"/>
<path d="M172 211V181.665H181.89V203.331H195.133V211H172Z" fill="#ED1846"/>
<path d="M197.194 211L210.018 181.665H219.74L232.564 211H222.339L212.867 186.359H216.723L207.252 211H197.194ZM204.821 205.887L207.336 198.763H220.83L223.344 205.887H204.821Z" fill="#ED1846"/>
<path d="M234.771 211V204.923L251.115 185.898L252.33 189.334H235.19V181.665H261.047V187.741L244.703 206.767L243.488 203.331H261.717V211H234.771Z" fill="#ED1846"/>
<path d="M274.228 211V198.134L276.491 204.043L263.164 181.665H273.599L282.609 196.961H276.532L285.626 181.665H295.181L281.939 204.043L284.118 198.134V211H274.228Z" fill="#ED1846"/>
<path fill-rule="evenodd" clip-rule="evenodd" d="M204.948 107.135C205.311 107.498 205.311 108.088 204.948 108.452L179.524 133.875C170.795 142.604 170.795 156.756 179.524 165.484L179.853 165.813C180.217 166.177 180.807 166.177 181.17 165.813L222.892 124.091C231.893 115.09 231.894 100.496 222.892 91.4948L181.17 49.7728C180.807 49.4091 180.217 49.4091 179.853 49.7728L179.524 50.102C170.795 58.8305 170.795 72.9822 179.524 81.7107L204.948 107.135ZM259.448 107.135C259.084 107.498 259.084 108.088 259.448 108.452L284.871 133.875C293.6 142.604 293.6 156.756 284.871 165.484L284.542 165.813C284.179 166.177 283.589 166.177 283.225 165.813L241.503 124.091C232.502 115.09 232.502 100.496 241.503 91.4948L283.225 49.7728C283.589 49.4091 284.179 49.4091 284.542 49.7728L284.871 50.102C293.6 58.8305 293.6 72.9822 284.871 81.7107L259.448 107.135Z" fill="#ED1846"/>
<path fill-rule="evenodd" clip-rule="evenodd" d="M349.949 320.33C350.103 320.49 350.103 320.749 349.949 320.909L339.185 332.082C335.49 335.918 335.49 342.138 339.185 345.974L339.325 346.119C339.479 346.279 339.728 346.279 339.882 346.119L357.546 327.782C361.357 323.826 361.357 317.412 357.546 313.456L339.882 295.12C339.728 294.96 339.479 294.96 339.325 295.12L339.185 295.265C335.49 299.101 335.49 305.32 339.185 309.156L349.949 320.33ZM373.022 320.33C372.868 320.49 372.868 320.749 373.022 320.909L383.786 332.082C387.481 335.918 387.481 342.138 383.786 345.974L383.646 346.119C383.492 346.279 383.243 346.279 383.089 346.119L365.425 327.782C361.614 323.826 361.614 317.412 365.425 313.456L383.089 295.12C383.243 294.96 383.492 294.96 383.646 295.12L383.786 295.265C387.481 299.101 387.481 305.32 383.786 309.156L373.022 320.33Z" fill="#ED1846"/>
<path d="M258 301H281V312.5L273.333 320.167L281 327.833V339.333H258V327.833L265.667 320.167L258 312.5V301ZM277.167 328.792L269.5 321.125L261.833 328.792V335.5H277.167V328.792ZM269.5 319.208L277.167 311.542V304.833H261.833V311.542L269.5 319.208ZM265.667 308.667H273.333V310.104L269.5 313.938L265.667 310.104V308.667Z" fill="#B7B7B7"/>
</svg>
