<svg width="462" height="395" viewBox="0 0 462 395" fill="none" xmlns="http://www.w3.org/2000/svg">
<rect width="462" height="395" fill="white"/>
<path d="M337 285C337 284.448 337.448 284 338 284H373.643C383.229 284 391 291.781 391 301.379V304.241C391 304.794 390.552 305.241 390 305.241H380.429C379.876 305.241 379.429 304.794 379.429 304.241V301.379C379.429 298.18 376.838 295.586 373.643 295.586H349.571C349.019 295.586 348.571 296.034 348.571 296.586V335.138C348.571 335.69 348.122 336.142 347.572 336.095C341.649 335.588 337 330.613 337 324.552V285Z" fill="#ED1846"/>
<path d="M359.214 307.172C358.662 307.172 358.21 307.622 358.257 308.172C358.763 314.103 363.731 318.759 369.786 318.759H377.5C378.565 318.759 379.429 319.623 379.429 320.69V335.138C379.429 335.69 379.878 336.142 380.428 336.095C386.351 335.588 391 330.613 391 324.552V320.69C391 313.224 384.956 307.172 377.5 307.172H359.214Z" fill="#ED1846"/>
<path d="M146.609 315.17H142.979V318.69H139.019V315.17H135.389V311.43H139.019V307.91H142.979V311.43H146.609V315.17Z" fill="#B7B7B7"/>
<path d="M190.25 298.875V284.812C190.25 284.357 190.087 283.999 189.762 283.738C189.501 283.413 189.143 283.25 188.688 283.25H185.562C185.107 283.25 184.716 283.413 184.391 283.738C184.13 283.999 184 284.357 184 284.812V299.168C184.521 298.973 185.042 298.875 185.562 298.875H190.25ZM202.75 308.25C202.75 306.492 202.132 305.027 200.895 303.855C199.658 302.618 198.193 302 196.5 302H185.562C185.107 302 184.716 302.163 184.391 302.488C184.13 302.749 184 303.107 184 303.562C184 304.865 184.456 305.971 185.367 306.883C186.279 307.794 187.385 308.25 188.688 308.25H192.105C192.952 308.25 193.375 308.51 193.375 309.031V310.594C193.375 310.789 193.277 310.984 193.082 311.18C192.952 311.31 192.789 311.375 192.594 311.375C190.576 311.505 188.85 312.124 187.418 313.23C186.311 314.142 184.911 315.9 183.219 318.504L182.633 319.383C182.503 319.578 182.307 319.708 182.047 319.773C181.852 319.773 181.689 319.708 181.559 319.578L180.191 318.797C180.061 318.667 179.964 318.504 179.898 318.309C179.833 318.048 179.866 317.82 179.996 317.625L180.582 316.746C182.34 314.142 183.902 312.254 185.27 311.082C183.512 310.496 182.242 309.357 181.461 307.664C180.745 308.055 180.029 308.25 179.312 308.25H176.188C175.016 308.25 173.974 307.859 173.062 307.078C172.151 307.859 171.109 308.25 169.938 308.25H166.812C166.292 308.25 165.771 308.152 165.25 307.957V315.574C165.25 317.202 165.543 318.797 166.129 320.359C166.78 321.857 167.691 323.191 168.863 324.363L171.5 327V333.25H196.5V327L200.016 323.484C200.862 322.638 201.513 321.629 201.969 320.457C202.49 319.285 202.75 318.081 202.75 316.844V308.25ZM199.625 299.461V287.938C199.625 287.482 199.462 287.124 199.137 286.863C198.876 286.538 198.518 286.375 198.062 286.375H194.938C194.482 286.375 194.091 286.538 193.766 286.863C193.505 287.124 193.375 287.482 193.375 287.938V298.875H196.5C197.477 298.875 198.518 299.07 199.625 299.461ZM166.812 305.125H169.938C170.393 305.125 170.751 304.995 171.012 304.734C171.337 304.409 171.5 304.018 171.5 303.562V291.062C171.5 290.607 171.337 290.249 171.012 289.988C170.751 289.663 170.393 289.5 169.938 289.5H166.812C166.357 289.5 165.966 289.663 165.641 289.988C165.38 290.249 165.25 290.607 165.25 291.062V303.562C165.25 304.018 165.38 304.409 165.641 304.734C165.966 304.995 166.357 305.125 166.812 305.125ZM176.188 305.125H179.312C179.768 305.125 180.126 304.995 180.387 304.734C180.712 304.409 180.875 304.018 180.875 303.562V287.938C180.875 287.482 180.712 287.124 180.387 286.863C180.126 286.538 179.768 286.375 179.312 286.375H176.188C175.732 286.375 175.341 286.538 175.016 286.863C174.755 287.124 174.625 287.482 174.625 287.938V303.562C174.625 304.018 174.755 304.409 175.016 304.734C175.341 304.995 175.732 305.125 176.188 305.125Z" fill="#B7B7B7"/>
<path d="M232.609 315.17H228.979V318.69H225.019V315.17H221.389V311.43H225.019V307.91H228.979V311.43H232.609V315.17Z" fill="#B7B7B7"/>
<path d="M253.579 287.717C251.237 294.857 249.918 301.558 249.623 307.817C249.313 314.311 250.102 319.193 251.99 322.463C254.008 325.959 256.475 328.669 259.391 330.594C262.363 332.487 265.501 333.495 268.804 333.617C272.164 333.707 275.422 332.841 278.579 331.018C281.737 329.195 284.088 326.822 285.634 323.9C287.236 320.946 287.932 317.725 287.723 314.237C287.57 310.717 286.484 307.209 284.466 303.713C282.578 300.443 278.744 297.319 272.965 294.341C267.34 291.499 260.878 289.291 253.579 287.717ZM275.454 325.605C273.086 326.972 270.718 327.362 268.349 326.775C265.948 326.132 264.064 324.626 262.697 322.258C262.046 321.131 261.659 319.55 261.537 317.515C261.239 314.004 261.711 309.483 262.954 303.954C268.364 305.642 272.515 307.493 275.407 309.507C277.108 310.63 278.284 311.756 278.935 312.883C280.302 315.251 280.664 317.636 280.02 320.037C279.345 322.382 277.823 324.238 275.454 325.605Z" fill="#B7B7B7"/>
<path d="M307.389 308.57H318.609V312.31H307.389V308.57ZM307.389 314.29H318.609V318.03H307.389V314.29Z" fill="#B7B7B7"/>
<path d="M115.5 306.526V306.409C115.5 302.192 114.179 299.146 111.658 296.686C108.717 293.816 103.974 292 96.5305 292H76V333H90.0473V321.286H93.0487L100.972 333H117L107.215 319.061C112.318 316.659 115.5 312.5 115.5 306.526ZM101.513 307.522C101.513 310.041 99.472 311.504 96.1099 311.504H90.0473V303.48H96.1711C99.4122 303.48 101.513 304.769 101.513 307.405V307.522Z" fill="#B7B7B7"/>
<path d="M174.422 344.844V349.03H179.644V349.674H174.422V354H173.708V344.2H180.26V344.844H174.422ZM182.179 346.692H182.879V354H182.179V346.692ZM182.529 344.914C182.371 344.914 182.235 344.863 182.123 344.76C182.011 344.648 181.955 344.513 181.955 344.354C181.955 344.195 182.011 344.06 182.123 343.948C182.235 343.836 182.371 343.78 182.529 343.78C182.688 343.78 182.823 343.836 182.935 343.948C183.047 344.051 183.103 344.181 183.103 344.34C183.103 344.499 183.047 344.634 182.935 344.746C182.823 344.858 182.688 344.914 182.529 344.914ZM187.678 354.056C187.09 354.056 186.53 353.967 185.998 353.79C185.466 353.613 185.05 353.389 184.752 353.118L185.074 352.558C185.372 352.81 185.755 353.02 186.222 353.188C186.698 353.356 187.192 353.44 187.706 353.44C188.443 353.44 188.984 353.319 189.33 353.076C189.684 352.833 189.862 352.497 189.862 352.068C189.862 351.76 189.764 351.517 189.568 351.34C189.381 351.163 189.148 351.032 188.868 350.948C188.588 350.864 188.2 350.775 187.706 350.682C187.127 350.579 186.66 350.467 186.306 350.346C185.951 350.225 185.648 350.029 185.396 349.758C185.144 349.487 185.018 349.114 185.018 348.638C185.018 348.059 185.256 347.583 185.732 347.21C186.217 346.827 186.903 346.636 187.79 346.636C188.256 346.636 188.718 346.701 189.176 346.832C189.633 346.963 190.006 347.135 190.296 347.35L189.974 347.91C189.675 347.695 189.334 347.532 188.952 347.42C188.569 347.308 188.177 347.252 187.776 347.252C187.094 347.252 186.581 347.378 186.236 347.63C185.89 347.882 185.718 348.213 185.718 348.624C185.718 348.951 185.816 349.207 186.012 349.394C186.208 349.571 186.446 349.707 186.726 349.8C187.015 349.884 187.416 349.977 187.93 350.08C188.499 350.183 188.956 350.295 189.302 350.416C189.656 350.528 189.955 350.715 190.198 350.976C190.44 351.237 190.562 351.597 190.562 352.054C190.562 352.661 190.31 353.146 189.806 353.51C189.302 353.874 188.592 354.056 187.678 354.056ZM196.141 353.538C195.964 353.706 195.74 353.837 195.469 353.93C195.208 354.014 194.933 354.056 194.643 354.056C194.009 354.056 193.519 353.883 193.173 353.538C192.828 353.183 192.655 352.693 192.655 352.068V347.294H191.311V346.692H192.655V345.096H193.355V346.692H195.679V347.294H193.355V351.998C193.355 352.474 193.467 352.838 193.691 353.09C193.925 353.333 194.265 353.454 194.713 353.454C195.171 353.454 195.549 353.319 195.847 353.048L196.141 353.538Z" fill="#666666"/>
<path d="M89.512 354L87.174 350.724C86.8287 350.771 86.5113 350.794 86.222 350.794H83.422V354H82.708V344.2H86.222C87.454 344.2 88.42 344.494 89.12 345.082C89.82 345.661 90.17 346.468 90.17 347.504C90.17 348.279 89.9693 348.932 89.568 349.464C89.176 349.987 88.6113 350.355 87.874 350.57L90.324 354H89.512ZM86.222 350.164C87.2673 350.164 88.0653 349.935 88.616 349.478C89.1667 349.011 89.442 348.353 89.442 347.504C89.442 346.655 89.1667 346.001 88.616 345.544C88.0653 345.077 87.2673 344.844 86.222 344.844H83.422V350.164H86.222ZM92.5602 346.692H93.2602V354H92.5602V346.692ZM92.9102 344.914C92.7515 344.914 92.6162 344.863 92.5042 344.76C92.3922 344.648 92.3362 344.513 92.3362 344.354C92.3362 344.195 92.3922 344.06 92.5042 343.948C92.6162 343.836 92.7515 343.78 92.9102 343.78C93.0688 343.78 93.2042 343.836 93.3162 343.948C93.4282 344.051 93.4842 344.181 93.4842 344.34C93.4842 344.499 93.4282 344.634 93.3162 344.746C93.2042 344.858 93.0688 344.914 92.9102 344.914ZM99.0666 354.056C98.3759 354.056 97.7506 353.897 97.1906 353.58C96.6399 353.263 96.2059 352.824 95.8886 352.264C95.5712 351.695 95.4126 351.055 95.4126 350.346C95.4126 349.637 95.5712 349.002 95.8886 348.442C96.2059 347.873 96.6399 347.429 97.1906 347.112C97.7506 346.795 98.3759 346.636 99.0666 346.636C99.7572 346.636 100.378 346.795 100.929 347.112C101.489 347.429 101.927 347.873 102.245 348.442C102.562 349.002 102.721 349.637 102.721 350.346C102.721 351.055 102.562 351.695 102.245 352.264C101.927 352.824 101.489 353.263 100.929 353.58C100.378 353.897 99.7572 354.056 99.0666 354.056ZM99.0666 353.426C99.6266 353.426 100.126 353.295 100.565 353.034C101.013 352.773 101.363 352.409 101.615 351.942C101.876 351.475 102.007 350.943 102.007 350.346C102.007 349.749 101.876 349.217 101.615 348.75C101.363 348.283 101.013 347.919 100.565 347.658C100.126 347.397 99.6266 347.266 99.0666 347.266C98.5066 347.266 98.0026 347.397 97.5546 347.658C97.1159 347.919 96.7659 348.283 96.5046 348.75C96.2526 349.217 96.1266 349.749 96.1266 350.346C96.1266 350.943 96.2526 351.475 96.5046 351.942C96.7659 352.409 97.1159 352.773 97.5546 353.034C98.0026 353.295 98.5066 353.426 99.0666 353.426ZM108.518 353.538C108.341 353.706 108.117 353.837 107.846 353.93C107.585 354.014 107.31 354.056 107.02 354.056C106.386 354.056 105.896 353.883 105.55 353.538C105.205 353.183 105.032 352.693 105.032 352.068V347.294H103.688V346.692H105.032V345.096H105.732V346.692H108.056V347.294H105.732V351.998C105.732 352.474 105.844 352.838 106.068 353.09C106.302 353.333 106.642 353.454 107.09 353.454C107.548 353.454 107.926 353.319 108.224 353.048L108.518 353.538Z" fill="#666666"/>
<path d="M259.422 344.844V349.03H264.644V349.674H259.422V354H258.708V344.2H265.26V344.844H259.422ZM267.179 346.692H267.879V354H267.179V346.692ZM267.529 344.914C267.371 344.914 267.235 344.863 267.123 344.76C267.011 344.648 266.955 344.513 266.955 344.354C266.955 344.195 267.011 344.06 267.123 343.948C267.235 343.836 267.371 343.78 267.529 343.78C267.688 343.78 267.823 343.836 267.935 343.948C268.047 344.051 268.103 344.181 268.103 344.34C268.103 344.499 268.047 344.634 267.935 344.746C267.823 344.858 267.688 344.914 267.529 344.914ZM271.502 348.288C271.726 347.756 272.076 347.35 272.552 347.07C273.028 346.781 273.606 346.636 274.288 346.636V347.322L274.12 347.308C273.308 347.308 272.673 347.565 272.216 348.078C271.758 348.582 271.53 349.287 271.53 350.192V354H270.83V346.692H271.502V348.288ZM282.322 350.514H276.036C276.055 351.083 276.199 351.592 276.47 352.04C276.741 352.479 277.105 352.819 277.562 353.062C278.029 353.305 278.551 353.426 279.13 353.426C279.606 353.426 280.045 353.342 280.446 353.174C280.857 352.997 281.197 352.74 281.468 352.404L281.874 352.866C281.557 353.249 281.155 353.543 280.67 353.748C280.194 353.953 279.676 354.056 279.116 354.056C278.388 354.056 277.739 353.897 277.17 353.58C276.601 353.263 276.153 352.824 275.826 352.264C275.509 351.704 275.35 351.065 275.35 350.346C275.35 349.637 275.499 349.002 275.798 348.442C276.106 347.873 276.526 347.429 277.058 347.112C277.59 346.795 278.187 346.636 278.85 346.636C279.513 346.636 280.105 346.795 280.628 347.112C281.16 347.42 281.575 347.854 281.874 348.414C282.182 348.974 282.336 349.609 282.336 350.318L282.322 350.514ZM278.85 347.252C278.337 347.252 277.875 347.369 277.464 347.602C277.053 347.826 276.722 348.148 276.47 348.568C276.227 348.979 276.087 349.445 276.05 349.968H281.65C281.622 349.445 281.482 348.979 281.23 348.568C280.978 348.157 280.647 347.835 280.236 347.602C279.825 347.369 279.363 347.252 278.85 347.252Z" fill="#666666"/>
<rect width="171" height="217" transform="translate(145 25)" fill="white"/>
<path d="M202.524 192.214V192.13C202.524 189.125 201.603 186.954 199.847 185.201C197.797 183.156 194.493 181.862 189.306 181.862H175V211.08H184.788V202.732H186.88L192.401 211.08H203.569L196.751 201.146C200.306 199.435 202.524 196.471 202.524 192.214ZM192.778 192.923C192.778 194.718 191.355 195.761 189.013 195.761H184.788V190.042H189.055C191.314 190.042 192.778 190.961 192.778 192.84V192.923ZM208.752 211.08H218.539V181.862H208.752L208.752 211.08ZM240.245 181.235C231.211 181.235 224.225 187.997 224.225 196.471V196.554C224.225 205.027 231.127 211.706 240.162 211.706C249.197 211.706 256.182 204.944 256.182 196.471V196.387C256.182 187.914 249.281 181.235 240.245 181.235ZM246.311 196.554C246.311 199.977 243.969 203.066 240.245 203.065C236.481 203.065 234.097 199.935 234.097 196.471V196.387C234.097 192.965 236.439 189.876 240.162 189.876C243.927 189.876 246.311 193.006 246.311 196.471V196.554ZM258.979 181.862V190.127H267.596V211.08H277.383V190.127H286V181.862L258.979 181.862Z" fill="#ED1846"/>
<path d="M175 56C175 55.4477 175.448 55 176 55L250.321 55C270.026 55 285 70.9738 285 90.6786V94.6071C285 96.8163 283.209 98.6071 281 98.6071H264.214C263.11 98.6071 262.214 97.7117 262.214 96.6071V90.6786C262.214 84.1103 256.89 78.7857 250.321 78.7857H199.786C199.233 78.7857 198.786 79.2334 198.786 79.7857V161.536C198.786 162.088 198.337 162.538 197.785 162.515C185.113 161.991 175 151.551 175 138.75V56Z" fill="#ED1846"/>
<path d="M219.607 102.571C219.055 102.571 218.605 103.02 218.628 103.572C219.152 116.245 229.592 126.357 242.393 126.357H258.25C260.439 126.357 262.214 128.132 262.214 130.321V161.536C262.214 162.088 262.663 162.538 263.215 162.515C275.887 161.991 286 151.551 286 138.75V130.321C286 114.996 273.576 102.571 258.25 102.571H219.607Z" fill="#ED1846"/>
</svg>
