<svg width="462" height="395" viewBox="0 0 462 395" fill="none" xmlns="http://www.w3.org/2000/svg">
<rect width="462" height="395" fill="white"/>
<path d="M146.609 323.17H142.979V326.69H139.019V323.17H135.389V319.43H139.019V315.91H142.979V319.43H146.609V323.17Z" fill="#B7B7B7"/>
<path d="M232.609 323.17H228.979V326.69H225.019V323.17H221.389V319.43H225.019V315.91H228.979V319.43H232.609V323.17Z" fill="#B7B7B7"/>
<path d="M307.389 316.57H318.609V320.31H307.389V316.57ZM307.389 322.29H318.609V326.03H307.389V322.29Z" fill="#B7B7B7"/>
<path d="M150.366 362.07C149.638 362.07 148.961 361.949 148.336 361.706C147.72 361.454 147.179 361.104 146.712 360.656C146.255 360.199 145.9 359.671 145.648 359.074C145.396 358.467 145.27 357.809 145.27 357.1C145.27 356.391 145.396 355.737 145.648 355.14C145.9 354.533 146.255 354.006 146.712 353.558C147.179 353.101 147.72 352.751 148.336 352.508C148.961 352.256 149.638 352.13 150.366 352.13C151.094 352.13 151.766 352.256 152.382 352.508C153.007 352.751 153.549 353.096 154.006 353.544C154.463 353.992 154.818 354.519 155.07 355.126C155.331 355.723 155.462 356.381 155.462 357.1C155.462 357.819 155.331 358.481 155.07 359.088C154.818 359.685 154.463 360.208 154.006 360.656C153.549 361.104 153.007 361.454 152.382 361.706C151.766 361.949 151.094 362.07 150.366 362.07ZM150.366 361.412C150.991 361.412 151.57 361.305 152.102 361.09C152.634 360.875 153.096 360.572 153.488 360.18C153.88 359.788 154.183 359.331 154.398 358.808C154.622 358.285 154.734 357.716 154.734 357.1C154.734 356.475 154.622 355.905 154.398 355.392C154.183 354.869 153.88 354.412 153.488 354.02C153.096 353.628 152.634 353.325 152.102 353.11C151.57 352.895 150.991 352.788 150.366 352.788C149.741 352.788 149.162 352.895 148.63 353.11C148.098 353.325 147.631 353.628 147.23 354.02C146.838 354.412 146.53 354.869 146.306 355.392C146.091 355.905 145.984 356.475 145.984 357.1C145.984 357.716 146.091 358.285 146.306 358.808C146.53 359.331 146.838 359.788 147.23 360.18C147.631 360.572 148.098 360.875 148.63 361.09C149.162 361.305 149.741 361.412 150.366 361.412ZM161.383 362.056C160.739 362.056 160.155 361.907 159.633 361.608C159.119 361.309 158.709 360.88 158.401 360.32C158.102 359.76 157.953 359.102 157.953 358.346C157.953 357.571 158.102 356.909 158.401 356.358C158.709 355.807 159.119 355.383 159.633 355.084C160.155 354.785 160.739 354.636 161.383 354.636C162.073 354.636 162.689 354.795 163.231 355.112C163.781 355.42 164.211 355.854 164.519 356.414C164.836 356.965 164.995 357.609 164.995 358.346C164.995 359.074 164.836 359.718 164.519 360.278C164.211 360.838 163.781 361.277 163.231 361.594C162.689 361.902 162.073 362.056 161.383 362.056ZM157.715 362V351.612H158.415V357.058L158.275 358.332L158.387 359.606V362H157.715ZM161.341 361.426C161.901 361.426 162.405 361.3 162.853 361.048C163.301 360.787 163.651 360.423 163.903 359.956C164.164 359.489 164.295 358.953 164.295 358.346C164.295 357.73 164.164 357.193 163.903 356.736C163.651 356.269 163.301 355.91 162.853 355.658C162.405 355.397 161.901 355.266 161.341 355.266C160.781 355.266 160.277 355.397 159.829 355.658C159.39 355.91 159.04 356.269 158.779 356.736C158.527 357.193 158.401 357.73 158.401 358.346C158.401 358.953 158.527 359.489 158.779 359.956C159.04 360.423 159.39 360.787 159.829 361.048C160.277 361.3 160.781 361.426 161.341 361.426ZM169.01 362.056C168.403 362.056 167.834 361.967 167.302 361.79C166.779 361.613 166.373 361.389 166.084 361.118L166.406 360.558C166.686 360.801 167.059 361.011 167.526 361.188C167.993 361.356 168.497 361.44 169.038 361.44C169.803 361.44 170.354 361.314 170.69 361.062C171.026 360.81 171.194 360.479 171.194 360.068C171.194 359.769 171.105 359.536 170.928 359.368C170.76 359.191 170.531 359.055 170.242 358.962C169.953 358.869 169.635 358.794 169.29 358.738C168.945 358.673 168.599 358.603 168.254 358.528C167.909 358.453 167.591 358.346 167.302 358.206C167.013 358.066 166.779 357.875 166.602 357.632C166.434 357.38 166.35 357.049 166.35 356.638C166.35 356.265 166.453 355.929 166.658 355.63C166.863 355.331 167.171 355.093 167.582 354.916C167.993 354.729 168.506 354.636 169.122 354.636C169.579 354.636 170.037 354.701 170.494 354.832C170.961 354.963 171.339 355.135 171.628 355.35L171.306 355.91C170.998 355.677 170.653 355.509 170.27 355.406C169.887 355.303 169.5 355.252 169.108 355.252C168.399 355.252 167.876 355.383 167.54 355.644C167.213 355.905 167.05 356.232 167.05 356.624C167.05 356.932 167.134 357.179 167.302 357.366C167.479 357.543 167.713 357.683 168.002 357.786C168.291 357.879 168.609 357.959 168.954 358.024C169.299 358.08 169.645 358.145 169.99 358.22C170.335 358.295 170.653 358.402 170.942 358.542C171.231 358.673 171.46 358.859 171.628 359.102C171.805 359.335 171.894 359.653 171.894 360.054C171.894 360.455 171.782 360.805 171.558 361.104C171.343 361.403 171.021 361.636 170.592 361.804C170.163 361.972 169.635 362.056 169.01 362.056ZM176.815 362.056C176.078 362.056 175.425 361.897 174.855 361.58C174.295 361.263 173.852 360.824 173.525 360.264C173.208 359.704 173.049 359.065 173.049 358.346C173.049 357.618 173.199 356.979 173.497 356.428C173.805 355.868 174.225 355.429 174.757 355.112C175.289 354.795 175.887 354.636 176.549 354.636C177.212 354.636 177.805 354.79 178.327 355.098C178.859 355.406 179.275 355.84 179.573 356.4C179.881 356.951 180.035 357.59 180.035 358.318C180.035 358.346 180.031 358.379 180.021 358.416C180.021 358.444 180.021 358.477 180.021 358.514H173.567V357.968H179.643L179.363 358.234C179.373 357.665 179.251 357.156 178.999 356.708C178.757 356.251 178.425 355.896 178.005 355.644C177.585 355.383 177.1 355.252 176.549 355.252C176.008 355.252 175.523 355.383 175.093 355.644C174.673 355.896 174.342 356.251 174.099 356.708C173.857 357.156 173.735 357.669 173.735 358.248V358.374C173.735 358.971 173.866 359.503 174.127 359.97C174.398 360.427 174.767 360.787 175.233 361.048C175.7 361.3 176.232 361.426 176.829 361.426C177.296 361.426 177.73 361.342 178.131 361.174C178.542 361.006 178.887 360.749 179.167 360.404L179.573 360.866C179.256 361.258 178.855 361.557 178.369 361.762C177.893 361.958 177.375 362.056 176.815 362.056ZM182.201 362V354.692H182.873V356.694L182.803 356.47C183.008 355.882 183.354 355.429 183.839 355.112C184.324 354.795 184.931 354.636 185.659 354.636V355.322C185.631 355.322 185.603 355.322 185.575 355.322C185.547 355.313 185.519 355.308 185.491 355.308C184.679 355.308 184.044 355.565 183.587 356.078C183.13 356.582 182.901 357.287 182.901 358.192V362H182.201ZM189.764 362L186.474 354.692H187.216L190.296 361.608H189.96L193.068 354.692H193.782L190.478 362H189.764ZM199.699 362V360.334L199.671 360.082V357.338C199.671 356.657 199.485 356.139 199.111 355.784C198.747 355.429 198.211 355.252 197.501 355.252C196.997 355.252 196.526 355.341 196.087 355.518C195.658 355.686 195.289 355.905 194.981 356.176L194.631 355.672C194.995 355.345 195.434 355.093 195.947 354.916C196.461 354.729 196.997 354.636 197.557 354.636C198.463 354.636 199.158 354.865 199.643 355.322C200.129 355.779 200.371 356.461 200.371 357.366V362H199.699ZM197.067 362.056C196.526 362.056 196.055 361.972 195.653 361.804C195.261 361.627 194.958 361.379 194.743 361.062C194.538 360.745 194.435 360.381 194.435 359.97C194.435 359.597 194.519 359.261 194.687 358.962C194.865 358.654 195.154 358.407 195.555 358.22C195.957 358.024 196.493 357.926 197.165 357.926H199.853V358.472H197.179C196.423 358.472 195.891 358.612 195.583 358.892C195.285 359.172 195.135 359.522 195.135 359.942C195.135 360.409 195.313 360.782 195.667 361.062C196.022 361.342 196.521 361.482 197.165 361.482C197.781 361.482 198.299 361.342 198.719 361.062C199.149 360.782 199.466 360.376 199.671 359.844L199.867 360.32C199.671 360.852 199.335 361.277 198.859 361.594C198.393 361.902 197.795 362.056 197.067 362.056ZM206.924 362.056C206.28 362.056 205.696 361.907 205.174 361.608C204.66 361.309 204.25 360.88 203.942 360.32C203.643 359.76 203.494 359.102 203.494 358.346C203.494 357.571 203.643 356.909 203.942 356.358C204.25 355.807 204.66 355.383 205.174 355.084C205.696 354.785 206.28 354.636 206.924 354.636C207.614 354.636 208.23 354.795 208.772 355.112C209.322 355.42 209.752 355.854 210.06 356.414C210.377 356.965 210.536 357.609 210.536 358.346C210.536 359.074 210.377 359.718 210.06 360.278C209.752 360.838 209.322 361.277 208.772 361.594C208.23 361.902 207.614 362.056 206.924 362.056ZM203.256 362V351.612H203.956V357.058L203.816 358.332L203.928 359.606V362H203.256ZM206.882 361.426C207.442 361.426 207.946 361.3 208.394 361.048C208.842 360.787 209.192 360.423 209.444 359.956C209.705 359.489 209.836 358.953 209.836 358.346C209.836 357.73 209.705 357.193 209.444 356.736C209.192 356.269 208.842 355.91 208.394 355.658C207.946 355.397 207.442 355.266 206.882 355.266C206.322 355.266 205.818 355.397 205.37 355.658C204.931 355.91 204.581 356.269 204.32 356.736C204.068 357.193 203.942 357.73 203.942 358.346C203.942 358.953 204.068 359.489 204.32 359.956C204.581 360.423 204.931 360.787 205.37 361.048C205.818 361.3 206.322 361.426 206.882 361.426ZM212.703 362V351.612H213.403V362H212.703ZM219.321 362.056C218.584 362.056 217.931 361.897 217.361 361.58C216.801 361.263 216.358 360.824 216.031 360.264C215.714 359.704 215.555 359.065 215.555 358.346C215.555 357.618 215.705 356.979 216.003 356.428C216.311 355.868 216.731 355.429 217.263 355.112C217.795 354.795 218.393 354.636 219.055 354.636C219.718 354.636 220.311 354.79 220.833 355.098C221.365 355.406 221.781 355.84 222.079 356.4C222.387 356.951 222.541 357.59 222.541 358.318C222.541 358.346 222.537 358.379 222.527 358.416C222.527 358.444 222.527 358.477 222.527 358.514H216.073V357.968H222.149L221.869 358.234C221.879 357.665 221.757 357.156 221.505 356.708C221.263 356.251 220.931 355.896 220.511 355.644C220.091 355.383 219.606 355.252 219.055 355.252C218.514 355.252 218.029 355.383 217.599 355.644C217.179 355.896 216.848 356.251 216.605 356.708C216.363 357.156 216.241 357.669 216.241 358.248V358.374C216.241 358.971 216.372 359.503 216.633 359.97C216.904 360.427 217.273 360.787 217.739 361.048C218.206 361.3 218.738 361.426 219.335 361.426C219.802 361.426 220.236 361.342 220.637 361.174C221.048 361.006 221.393 360.749 221.673 360.404L222.079 360.866C221.762 361.258 221.361 361.557 220.875 361.762C220.399 361.958 219.881 362.056 219.321 362.056Z" fill="#666666"/>
<path d="M89.512 362L87.174 358.724C86.8287 358.771 86.5113 358.794 86.222 358.794H83.422V362H82.708V352.2H86.222C87.454 352.2 88.42 352.494 89.12 353.082C89.82 353.661 90.17 354.468 90.17 355.504C90.17 356.279 89.9693 356.932 89.568 357.464C89.176 357.987 88.6113 358.355 87.874 358.57L90.324 362H89.512ZM86.222 358.164C87.2673 358.164 88.0653 357.935 88.616 357.478C89.1667 357.011 89.442 356.353 89.442 355.504C89.442 354.655 89.1667 354.001 88.616 353.544C88.0653 353.077 87.2673 352.844 86.222 352.844H83.422V358.164H86.222ZM92.5602 354.692H93.2602V362H92.5602V354.692ZM92.9102 352.914C92.7515 352.914 92.6162 352.863 92.5042 352.76C92.3922 352.648 92.3362 352.513 92.3362 352.354C92.3362 352.195 92.3922 352.06 92.5042 351.948C92.6162 351.836 92.7515 351.78 92.9102 351.78C93.0688 351.78 93.2042 351.836 93.3162 351.948C93.4282 352.051 93.4842 352.181 93.4842 352.34C93.4842 352.499 93.4282 352.634 93.3162 352.746C93.2042 352.858 93.0688 352.914 92.9102 352.914ZM99.0666 362.056C98.3759 362.056 97.7506 361.897 97.1906 361.58C96.6399 361.263 96.2059 360.824 95.8886 360.264C95.5712 359.695 95.4126 359.055 95.4126 358.346C95.4126 357.637 95.5712 357.002 95.8886 356.442C96.2059 355.873 96.6399 355.429 97.1906 355.112C97.7506 354.795 98.3759 354.636 99.0666 354.636C99.7572 354.636 100.378 354.795 100.929 355.112C101.489 355.429 101.927 355.873 102.245 356.442C102.562 357.002 102.721 357.637 102.721 358.346C102.721 359.055 102.562 359.695 102.245 360.264C101.927 360.824 101.489 361.263 100.929 361.58C100.378 361.897 99.7572 362.056 99.0666 362.056ZM99.0666 361.426C99.6266 361.426 100.126 361.295 100.565 361.034C101.013 360.773 101.363 360.409 101.615 359.942C101.876 359.475 102.007 358.943 102.007 358.346C102.007 357.749 101.876 357.217 101.615 356.75C101.363 356.283 101.013 355.919 100.565 355.658C100.126 355.397 99.6266 355.266 99.0666 355.266C98.5066 355.266 98.0026 355.397 97.5546 355.658C97.1159 355.919 96.7659 356.283 96.5046 356.75C96.2526 357.217 96.1266 357.749 96.1266 358.346C96.1266 358.943 96.2526 359.475 96.5046 359.942C96.7659 360.409 97.1159 360.773 97.5546 361.034C98.0026 361.295 98.5066 361.426 99.0666 361.426ZM108.518 361.538C108.341 361.706 108.117 361.837 107.846 361.93C107.585 362.014 107.31 362.056 107.02 362.056C106.386 362.056 105.896 361.883 105.55 361.538C105.205 361.183 105.032 360.693 105.032 360.068V355.294H103.688V354.692H105.032V353.096H105.732V354.692H108.056V355.294H105.732V359.998C105.732 360.474 105.844 360.838 106.068 361.09C106.302 361.333 106.642 361.454 107.09 361.454C107.548 361.454 107.926 361.319 108.224 361.048L108.518 361.538Z" fill="#666666"/>
<path d="M260.838 356.708H266.144V357.338H260.838V356.708ZM260.922 361.356H266.97V362H260.208V352.2H266.76V352.844H260.922V361.356ZM269.004 364.772C268.668 364.772 268.35 364.716 268.052 364.604C267.762 364.492 267.515 364.329 267.309 364.114L267.659 363.582C267.846 363.778 268.047 363.923 268.262 364.016C268.486 364.109 268.738 364.156 269.018 364.156C269.354 364.156 269.648 364.063 269.9 363.876C270.161 363.689 270.404 363.349 270.628 362.854L271.132 361.734L271.23 361.608L274.324 354.692H275.038L271.285 362.994C271.09 363.442 270.875 363.792 270.642 364.044C270.418 364.305 270.17 364.492 269.9 364.604C269.629 364.716 269.33 364.772 269.004 364.772ZM271.118 362.182L267.73 354.692H268.472L271.552 361.566L271.118 362.182ZM279.331 362.056C278.594 362.056 277.94 361.897 277.371 361.58C276.811 361.263 276.368 360.824 276.041 360.264C275.724 359.704 275.565 359.065 275.565 358.346C275.565 357.618 275.714 356.979 276.013 356.428C276.321 355.868 276.741 355.429 277.273 355.112C277.805 354.795 278.402 354.636 279.065 354.636C279.728 354.636 280.32 354.79 280.843 355.098C281.375 355.406 281.79 355.84 282.089 356.4C282.397 356.951 282.551 357.59 282.551 358.318C282.551 358.346 282.546 358.379 282.537 358.416C282.537 358.444 282.537 358.477 282.537 358.514H276.083V357.968H282.159L281.879 358.234C281.888 357.665 281.767 357.156 281.515 356.708C281.272 356.251 280.941 355.896 280.521 355.644C280.101 355.383 279.616 355.252 279.065 355.252C278.524 355.252 278.038 355.383 277.609 355.644C277.189 355.896 276.858 356.251 276.615 356.708C276.372 357.156 276.251 357.669 276.251 358.248V358.374C276.251 358.971 276.382 359.503 276.643 359.97C276.914 360.427 277.282 360.787 277.749 361.048C278.216 361.3 278.748 361.426 279.345 361.426C279.812 361.426 280.246 361.342 280.647 361.174C281.058 361.006 281.403 360.749 281.683 360.404L282.089 360.866C281.772 361.258 281.37 361.557 280.885 361.762C280.409 361.958 279.891 362.056 279.331 362.056Z" fill="#666666"/>
<path d="M79.0714 303.313C79.0714 303.14 79.2114 303 79.3842 303H102.628C108.79 303 113.473 308.001 113.473 314.169V315.399C113.473 316.09 112.913 316.651 112.222 316.651H106.972C106.627 316.651 106.347 316.371 106.347 316.025V314.169C106.347 312.113 104.682 310.446 102.628 310.446H86.8229C86.6502 310.446 86.5102 310.586 86.5102 310.759V336.35C86.5102 336.523 86.3698 336.664 86.1972 336.657C82.234 336.493 79.0714 333.225 79.0714 329.217V303.313Z" fill="#ED1846"/>
<path d="M93.0219 317.892C92.8492 317.892 92.7085 318.032 92.7156 318.205C92.8797 322.172 96.1445 325.338 100.148 325.338H105.107C105.792 325.338 106.347 325.893 106.347 326.579V336.35C106.347 336.523 106.487 336.664 106.66 336.657C110.623 336.493 113.786 333.225 113.786 329.217V326.579C113.786 321.781 109.9 317.892 105.107 317.892H93.0219Z" fill="#ED1846"/>
<path d="M270.175 313.724C270.387 313.701 270.599 313.694 270.811 313.694C274.824 313.694 278.081 316.882 278.081 320.964C278.081 324.978 274.824 328.234 270.811 328.234C266.729 328.234 263.541 324.978 263.541 320.964C263.541 320.752 263.548 320.54 263.571 320.328C264.275 320.668 265.093 320.964 265.964 320.964C268.637 320.964 270.811 318.79 270.811 316.117C270.811 315.246 270.515 314.428 270.175 313.724ZM285.397 310.104C288.941 313.391 291.311 317.261 292.432 320.032C292.682 320.631 292.682 321.297 292.432 321.895C291.311 324.599 288.941 328.469 285.397 331.824C281.83 335.141 276.93 337.928 270.811 337.928C264.692 337.928 259.792 335.141 256.226 331.824C252.682 328.469 250.313 324.599 249.187 321.895C249.063 321.6 249 321.284 249 320.964C249 320.644 249.063 320.327 249.187 320.032C250.313 317.261 252.682 313.391 256.226 310.104C259.792 306.79 264.692 304 270.811 304C276.93 304 281.83 306.79 285.397 310.104ZM270.811 310.058C264.79 310.058 259.905 314.943 259.905 320.964C259.905 326.984 264.79 331.869 270.811 331.869C276.831 331.869 281.716 326.984 281.716 320.964C281.716 314.943 276.831 310.058 270.811 310.058Z" fill="#B7B7B7"/>
<path d="M183.588 337.57C180.96 337.57 178.523 337.142 176.275 336.288C174.059 335.433 172.127 334.23 170.481 332.678C168.866 331.127 167.6 329.307 166.682 327.217C165.795 325.127 165.352 322.848 165.352 320.378C165.352 317.909 165.795 315.629 166.682 313.54C167.6 311.45 168.882 309.63 170.529 308.079C172.175 306.527 174.106 305.324 176.322 304.469C178.539 303.615 180.945 303.187 183.541 303.187C186.169 303.187 188.575 303.615 190.759 304.469C192.975 305.324 194.891 306.527 196.506 308.079C198.152 309.63 199.434 311.45 200.352 313.54C201.27 315.598 201.729 317.877 201.729 320.378C201.729 322.848 201.27 325.143 200.352 327.265C199.434 329.354 198.152 331.175 196.506 332.726C194.891 334.246 192.975 335.433 190.759 336.288C188.575 337.142 186.184 337.57 183.588 337.57ZM183.541 331.016C185.029 331.016 186.39 330.763 187.625 330.256C188.891 329.75 189.999 329.022 190.949 328.072C191.899 327.122 192.627 325.998 193.134 324.7C193.672 323.402 193.941 321.961 193.941 320.378C193.941 318.795 193.672 317.355 193.134 316.057C192.627 314.759 191.899 313.635 190.949 312.685C190.031 311.735 188.939 311.007 187.672 310.501C186.406 309.994 185.029 309.741 183.541 309.741C182.053 309.741 180.676 309.994 179.409 310.501C178.174 311.007 177.082 311.735 176.132 312.685C175.183 313.635 174.439 314.759 173.9 316.057C173.394 317.355 173.14 318.795 173.14 320.378C173.14 321.93 173.394 323.37 173.9 324.7C174.439 325.998 175.167 327.122 176.085 328.072C177.035 329.022 178.143 329.75 179.409 330.256C180.676 330.763 182.053 331.016 183.541 331.016Z" fill="#B7B7B7"/>
<rect width="372" height="217" transform="translate(45 25)" fill="white"/>
<path d="M91.5535 211.672C89.1787 211.672 86.9716 211.294 84.9321 210.54C82.9205 209.786 81.1744 208.724 79.6937 207.355C78.2129 205.958 77.0535 204.324 76.2153 202.452C75.4051 200.58 75 198.54 75 196.333C75 194.098 75.4051 192.059 76.2153 190.215C77.0535 188.343 78.2129 186.722 79.6937 185.354C81.1744 183.957 82.9205 182.881 84.9321 182.127C86.9716 181.372 89.1787 180.995 91.5535 180.995C93.9562 180.995 96.1634 181.372 98.1749 182.127C100.186 182.881 101.933 183.957 103.413 185.354C104.894 186.722 106.04 188.343 106.85 190.215C107.688 192.059 108.107 194.098 108.107 196.333C108.107 198.54 107.688 200.58 106.85 202.452C106.04 204.324 104.894 205.958 103.413 207.355C101.933 208.724 100.186 209.786 98.1749 210.54C96.1634 211.294 93.9562 211.672 91.5535 211.672ZM91.5535 203.667C92.4755 203.667 93.3276 203.5 94.1099 203.164C94.9201 202.829 95.6186 202.354 96.2053 201.739C96.8199 201.097 97.2949 200.329 97.6301 199.434C97.9654 198.513 98.133 197.479 98.133 196.333C98.133 195.188 97.9654 194.168 97.6301 193.274C97.2949 192.352 96.8199 191.584 96.2053 190.969C95.6186 190.327 94.9201 189.838 94.1099 189.502C93.3276 189.167 92.4755 188.999 91.5535 188.999C90.6315 188.999 89.7655 189.167 88.9552 189.502C88.173 189.838 87.4745 190.327 86.8599 190.969C86.2732 191.584 85.8122 192.352 85.4769 193.274C85.1416 194.168 84.974 195.188 84.974 196.333C84.974 197.479 85.1416 198.513 85.4769 199.434C85.8122 200.329 86.2732 201.097 86.8599 201.739C87.4745 202.354 88.173 202.829 88.9552 203.164C89.7655 203.5 90.6315 203.667 91.5535 203.667Z" fill="#ED1846"/>
<path d="M112.116 211.001V181.666H127.789C131.84 181.666 134.83 182.392 136.757 183.845C138.685 185.27 139.649 187.1 139.649 189.335C139.649 190.815 139.23 192.143 138.392 193.316C137.582 194.461 136.394 195.369 134.83 196.04C133.265 196.71 131.337 197.046 129.046 197.046L129.885 194.783C132.176 194.783 134.145 195.104 135.794 195.747C137.47 196.389 138.755 197.325 139.649 198.554C140.571 199.756 141.032 201.209 141.032 202.913C141.032 205.455 139.97 207.439 137.847 208.864C135.752 210.289 132.678 211.001 128.627 211.001H112.116ZM121.838 204.086H127.789C128.879 204.086 129.689 203.891 130.22 203.5C130.779 203.108 131.058 202.536 131.058 201.781C131.058 201.027 130.779 200.454 130.22 200.063C129.689 199.672 128.879 199.476 127.789 199.476H121.168V192.939H126.448C127.566 192.939 128.376 192.757 128.879 192.394C129.41 192.003 129.675 191.458 129.675 190.76C129.675 190.033 129.41 189.488 128.879 189.125C128.376 188.762 127.566 188.58 126.448 188.58H121.838V204.086Z" fill="#ED1846"/>
<path d="M157.143 211.672C154.684 211.672 152.31 211.392 150.019 210.833C147.728 210.275 145.842 209.548 144.361 208.654L147.546 201.446C148.943 202.256 150.494 202.913 152.198 203.416C153.93 203.891 155.606 204.128 157.227 204.128C158.177 204.128 158.917 204.072 159.448 203.96C160.007 203.821 160.412 203.639 160.663 203.416C160.915 203.164 161.04 202.871 161.04 202.536C161.04 202.005 160.747 201.586 160.16 201.278C159.574 200.971 158.791 200.72 157.813 200.524C156.863 200.301 155.816 200.077 154.67 199.854C153.525 199.602 152.365 199.281 151.192 198.89C150.047 198.499 148.985 197.982 148.007 197.339C147.057 196.697 146.289 195.858 145.702 194.825C145.115 193.763 144.822 192.45 144.822 190.885C144.822 189.069 145.325 187.421 146.331 185.94C147.364 184.432 148.887 183.23 150.899 182.336C152.938 181.442 155.467 180.995 158.484 180.995C160.468 180.995 162.423 181.205 164.351 181.624C166.279 182.043 168.011 182.685 169.548 183.551L166.572 190.718C165.119 189.991 163.708 189.446 162.339 189.083C160.998 188.72 159.685 188.538 158.4 188.538C157.45 188.538 156.696 188.622 156.137 188.79C155.578 188.958 155.173 189.181 154.922 189.46C154.698 189.74 154.587 190.047 154.587 190.382C154.587 190.885 154.88 191.29 155.467 191.598C156.053 191.877 156.822 192.115 157.771 192.31C158.749 192.506 159.811 192.715 160.956 192.939C162.13 193.162 163.289 193.47 164.435 193.861C165.58 194.252 166.628 194.769 167.578 195.411C168.556 196.054 169.338 196.892 169.925 197.926C170.511 198.96 170.805 200.245 170.805 201.781C170.805 203.569 170.288 205.218 169.254 206.726C168.248 208.207 166.74 209.408 164.728 210.33C162.717 211.224 160.188 211.672 157.143 211.672Z" fill="#ED1846"/>
<path d="M184.476 192.562H197.551V199.686H184.476V192.562ZM185.147 203.541H199.814V211.001H175.424V181.666H199.27V189.125H185.147V203.541Z" fill="#ED1846"/>
<path d="M205.298 211.001V181.666H219.421C222.159 181.666 224.52 182.113 226.503 183.007C228.515 183.901 230.065 185.186 231.155 186.862C232.245 188.511 232.789 190.466 232.789 192.729C232.789 194.992 232.245 196.948 231.155 198.596C230.065 200.217 228.515 201.46 226.503 202.326C224.52 203.192 222.159 203.625 219.421 203.625H210.788L215.188 199.56V211.001H205.298ZM222.857 211.001L215.649 200.315H226.126L233.418 211.001H222.857ZM215.188 200.65L210.788 196.166H218.792C220.161 196.166 221.167 195.858 221.81 195.244C222.48 194.629 222.815 193.791 222.815 192.729C222.815 191.668 222.48 190.829 221.81 190.215C221.167 189.6 220.161 189.293 218.792 189.293H210.788L215.188 184.809V200.65Z" fill="#ED1846"/>
<path d="M246.163 211.001L233.758 181.666H244.403L254.502 206.433H248.174L258.568 181.666H268.29L255.885 211.001H246.163Z" fill="#ED1846"/>
<path d="M262.512 211.001L275.336 181.666H285.059L297.882 211.001H287.657L278.186 186.359H282.041L272.57 211.001H262.512ZM270.14 205.888L272.654 198.764H286.148L288.663 205.888H270.14Z" fill="#ED1846"/>
<path d="M301.137 211.001V181.666H316.811C320.862 181.666 323.851 182.392 325.779 183.845C327.707 185.27 328.67 187.1 328.67 189.335C328.67 190.815 328.251 192.143 327.413 193.316C326.603 194.461 325.416 195.369 323.851 196.04C322.287 196.71 320.359 197.046 318.068 197.046L318.906 194.783C321.197 194.783 323.167 195.104 324.815 195.747C326.491 196.389 327.776 197.325 328.67 198.554C329.592 199.756 330.053 201.209 330.053 202.913C330.053 205.455 328.992 207.439 326.868 208.864C324.773 210.289 321.7 211.001 317.649 211.001H301.137ZM310.86 204.086H316.811C317.9 204.086 318.71 203.891 319.241 203.5C319.8 203.108 320.079 202.536 320.079 201.781C320.079 201.027 319.8 200.454 319.241 200.063C318.71 199.672 317.9 199.476 316.811 199.476H310.189V192.939H315.47C316.587 192.939 317.397 192.757 317.9 192.394C318.431 192.003 318.696 191.458 318.696 190.76C318.696 190.033 318.431 189.488 317.9 189.125C317.397 188.762 316.587 188.58 315.47 188.58H310.86V204.086Z" fill="#ED1846"/>
<path d="M335.226 211.001V181.666H345.117V203.332H358.359V211.001H335.226Z" fill="#ED1846"/>
<path d="M371.401 192.562H384.476V199.686H371.401V192.562ZM372.071 203.541H386.739V211.001H362.349V181.666H386.194V189.125H372.071V203.541Z" fill="#ED1846"/>
<path fill-rule="evenodd" clip-rule="evenodd" d="M198.515 107.532C198.515 89.1454 213.421 74.2398 231.808 74.2398C246.242 74.2398 259.314 65.7188 265.14 52.5131L265.542 51.6027C265.773 51.08 265.39 50.4927 264.819 50.4927L231.808 50.4927C200.306 50.4927 174.768 76.0302 174.768 107.532C174.768 139.034 200.306 164.572 231.808 164.572C263.31 164.572 288.848 139.034 288.848 107.532C288.848 93.1196 283.493 79.9505 274.687 69.9177C273.33 68.3713 270.961 68.3789 269.507 69.8337L256.667 82.6735C255.939 83.401 255.944 84.5771 256.63 85.3436C261.908 91.2414 265.101 99.0104 265.101 107.532C265.101 125.919 250.195 140.825 231.808 140.825C213.421 140.825 198.515 125.919 198.515 107.532Z" fill="#ED1846"/>
<path fill-rule="evenodd" clip-rule="evenodd" d="M343.552 319.749C343.552 310.804 350.804 303.552 359.749 303.552C366.77 303.552 373.13 299.407 375.964 292.983L376.159 292.54C376.272 292.286 376.085 292 375.807 292H359.749C344.423 292 332 304.423 332 319.749C332 335.074 344.423 347.497 359.749 347.497C375.074 347.497 387.497 335.074 387.497 319.749C387.497 312.737 384.892 306.331 380.609 301.45C379.948 300.698 378.796 300.701 378.088 301.409L371.842 307.655C371.488 308.009 371.49 308.581 371.824 308.954C374.392 311.823 375.945 315.603 375.945 319.749C375.945 328.693 368.693 335.945 359.749 335.945C350.804 335.945 343.552 328.693 343.552 319.749Z" fill="#ED1846"/>
</svg>
