<svg width="462" height="395" viewBox="0 0 462 395" fill="none" xmlns="http://www.w3.org/2000/svg">
<rect width="462" height="395" fill="white"/>
<path d="M192.943 108.891C192.577 108.523 192.577 107.928 192.943 107.56L218.576 81.8788C227.376 73.062 227.376 58.7669 218.576 49.95L218.244 49.6174C217.877 49.2501 217.283 49.2501 216.916 49.6174L174.851 91.7621C165.776 100.854 165.776 115.596 174.851 124.689L216.916 166.833C217.283 167.201 217.877 167.201 218.244 166.833L218.576 166.501C227.376 157.684 227.376 143.389 218.576 134.572L192.943 108.891Z" fill="#ED1846"/>
<path d="M268.676 108.891C269.042 108.523 269.042 107.928 268.676 107.56L243.043 81.8788C234.243 73.062 234.243 58.7669 243.043 49.95L243.375 49.6174C243.742 49.2501 244.336 49.2501 244.703 49.6174L286.768 91.7621C295.843 100.854 295.843 115.596 286.768 124.689L244.703 166.833C244.336 167.201 243.742 167.201 243.375 166.833L243.043 166.501C234.243 157.684 234.243 143.389 243.043 134.572L268.676 108.891Z" fill="#ED1846"/>
<path d="M140.168 209.82V180.188H154.407C157.167 180.188 159.547 180.639 161.547 181.542C163.575 182.446 165.139 183.744 166.237 185.437C167.336 187.102 167.885 189.078 167.885 191.363C167.885 193.649 167.336 195.625 166.237 197.29C165.139 198.955 163.575 200.253 161.547 201.184C159.547 202.088 157.167 202.539 154.407 202.539H145.703L150.139 198.264V209.82H140.168ZM150.139 199.364L145.703 194.835H153.773C155.153 194.835 156.167 194.524 156.815 193.903C157.491 193.283 157.829 192.436 157.829 191.363C157.829 190.291 157.491 189.444 156.815 188.824C156.167 188.203 155.153 187.892 153.773 187.892H145.703L150.139 183.363V199.364Z" fill="#ED1846"/>
<path d="M164.977 209.82L177.906 180.188H187.708L200.637 209.82H190.328L180.779 184.929H184.666L175.117 209.82H164.977ZM172.667 204.656L175.202 197.459H188.807L191.342 204.656H172.667Z" fill="#ED1846"/>
<path d="M203.074 209.82V180.188H217.313C220.073 180.188 222.453 180.639 224.453 181.542C226.481 182.446 228.045 183.744 229.143 185.437C230.242 187.102 230.791 189.078 230.791 191.363C230.791 193.649 230.242 195.625 229.143 197.29C228.045 198.927 226.481 200.183 224.453 201.057C222.453 201.932 220.073 202.37 217.313 202.37H208.609L213.045 198.264V209.82H203.074ZM220.777 209.82L213.51 199.026H224.073L231.425 209.82H220.777ZM213.045 199.364L208.609 194.835H216.679C218.059 194.835 219.073 194.524 219.721 193.903C220.397 193.283 220.735 192.436 220.735 191.363C220.735 190.291 220.397 189.444 219.721 188.824C219.073 188.203 218.059 187.892 216.679 187.892H208.609L213.045 183.363V199.364Z" fill="#ED1846"/>
<path d="M246.429 210.498C243.95 210.498 241.556 210.215 239.246 209.651C236.936 209.086 235.035 208.353 233.542 207.45L236.753 200.169C238.162 200.987 239.725 201.65 241.443 202.158C243.19 202.638 244.88 202.878 246.514 202.878C247.471 202.878 248.218 202.821 248.753 202.708C249.316 202.567 249.725 202.384 249.978 202.158C250.232 201.904 250.358 201.608 250.358 201.269C250.358 200.733 250.063 200.31 249.471 199.999C248.88 199.689 248.091 199.435 247.105 199.237C246.147 199.011 245.091 198.786 243.936 198.56C242.781 198.306 241.612 197.981 240.429 197.586C239.274 197.191 238.204 196.669 237.218 196.02C236.26 195.371 235.486 194.524 234.894 193.48C234.303 192.408 234.007 191.081 234.007 189.501C234.007 187.666 234.514 186.001 235.528 184.506C236.57 182.982 238.105 181.768 240.134 180.865C242.19 179.962 244.739 179.51 247.781 179.51C249.781 179.51 251.753 179.722 253.696 180.145C255.64 180.569 257.386 181.218 258.936 182.093L255.936 189.332C254.471 188.598 253.049 188.047 251.668 187.681C250.316 187.314 248.992 187.13 247.697 187.13C246.739 187.13 245.978 187.215 245.415 187.384C244.852 187.554 244.443 187.779 244.19 188.062C243.964 188.344 243.852 188.654 243.852 188.993C243.852 189.501 244.147 189.91 244.739 190.22C245.331 190.503 246.105 190.743 247.063 190.94C248.049 191.138 249.119 191.349 250.274 191.575C251.457 191.801 252.626 192.111 253.781 192.506C254.936 192.902 255.992 193.424 256.95 194.073C257.936 194.722 258.724 195.568 259.316 196.613C259.907 197.657 260.203 198.955 260.203 200.507C260.203 202.313 259.682 203.978 258.64 205.502C257.626 206.998 256.105 208.212 254.077 209.143C252.049 210.046 249.499 210.498 246.429 210.498Z" fill="#ED1846"/>
<path d="M272.719 191.194H285.902V198.391H272.719V191.194ZM273.395 202.285H288.183V209.82H263.593V180.188H287.634V187.723H273.395V202.285Z" fill="#ED1846"/>
<path d="M292.867 209.82V180.188H307.106C309.866 180.188 312.247 180.639 314.247 181.542C316.275 182.446 317.838 183.744 318.937 185.437C320.035 187.102 320.584 189.078 320.584 191.363C320.584 193.649 320.035 195.625 318.937 197.29C317.838 198.927 316.275 200.183 314.247 201.057C312.247 201.932 309.866 202.37 307.106 202.37H298.402L302.839 198.264V209.82H292.867ZM310.571 209.82L303.303 199.026H313.866L321.218 209.82H310.571ZM302.839 199.364L298.402 194.835H306.472C307.852 194.835 308.867 194.524 309.514 193.903C310.19 193.283 310.528 192.436 310.528 191.363C310.528 190.291 310.19 189.444 309.514 188.824C308.867 188.203 307.852 187.892 306.472 187.892H298.402L302.839 183.363V199.364Z" fill="#ED1846"/>
<path d="M156.947 326.69V315.91H160.907V326.69H156.947ZM153.317 323.17V319.43H164.537V323.17H153.317Z" fill="#B7B7B7"/>
<path d="M285.317 320.31V316.57H296.537V320.31H285.317ZM285.317 326.03V322.29H296.537V326.03H285.317Z" fill="#B7B7B7"/>
<path d="M104.637 362V352.2H108.151C108.972 352.2 109.677 352.331 110.265 352.592C110.853 352.853 111.305 353.231 111.623 353.726C111.94 354.211 112.099 354.804 112.099 355.504C112.099 356.185 111.94 356.773 111.623 357.268C111.305 357.753 110.853 358.131 110.265 358.402C109.677 358.663 108.972 358.794 108.151 358.794H105.029L105.351 358.458V362H104.637ZM111.441 362L108.893 358.444H109.705L112.253 362H111.441ZM105.351 358.5L105.029 358.164H108.151C109.205 358.164 110.003 357.931 110.545 357.464C111.095 356.997 111.371 356.344 111.371 355.504C111.371 354.655 111.095 354.001 110.545 353.544C110.003 353.077 109.205 352.844 108.151 352.844H105.029L105.351 352.494V358.5ZM114.489 362V354.692H115.189V362H114.489ZM114.839 352.914C114.68 352.914 114.545 352.858 114.433 352.746C114.321 352.634 114.265 352.503 114.265 352.354C114.265 352.195 114.321 352.06 114.433 351.948C114.545 351.836 114.68 351.78 114.839 351.78C115.007 351.78 115.142 351.836 115.245 351.948C115.357 352.051 115.413 352.181 115.413 352.34C115.413 352.499 115.357 352.634 115.245 352.746C115.142 352.858 115.007 352.914 114.839 352.914ZM120.995 362.056C120.295 362.056 119.67 361.897 119.119 361.58C118.578 361.263 118.144 360.824 117.817 360.264C117.5 359.704 117.341 359.065 117.341 358.346C117.341 357.618 117.5 356.979 117.817 356.428C118.144 355.868 118.578 355.429 119.119 355.112C119.67 354.795 120.295 354.636 120.995 354.636C121.695 354.636 122.321 354.795 122.871 355.112C123.422 355.429 123.856 355.868 124.173 356.428C124.491 356.979 124.649 357.618 124.649 358.346C124.649 359.065 124.491 359.704 124.173 360.264C123.856 360.824 123.422 361.263 122.871 361.58C122.321 361.897 121.695 362.056 120.995 362.056ZM120.995 361.426C121.555 361.426 122.059 361.3 122.507 361.048C122.955 360.787 123.305 360.423 123.557 359.956C123.809 359.489 123.935 358.953 123.935 358.346C123.935 357.73 123.809 357.193 123.557 356.736C123.305 356.269 122.955 355.91 122.507 355.658C122.059 355.397 121.555 355.266 120.995 355.266C120.435 355.266 119.931 355.397 119.483 355.658C119.045 355.91 118.695 356.269 118.433 356.736C118.181 357.193 118.055 357.73 118.055 358.346C118.055 358.953 118.181 359.489 118.433 359.956C118.695 360.423 119.045 360.787 119.483 361.048C119.931 361.3 120.435 361.426 120.995 361.426ZM128.949 362.056C128.305 362.056 127.81 361.879 127.465 361.524C127.129 361.169 126.961 360.684 126.961 360.068V353.096H127.661V359.998C127.661 360.465 127.778 360.824 128.011 361.076C128.244 361.328 128.58 361.454 129.019 361.454C129.476 361.454 129.854 361.319 130.153 361.048L130.447 361.538C130.26 361.715 130.032 361.846 129.761 361.93C129.5 362.014 129.229 362.056 128.949 362.056ZM125.617 355.294V354.692H129.985V355.294H125.617Z" fill="#666666"/>
<path d="M192.637 362V352.2H196.151C196.972 352.2 197.677 352.331 198.265 352.592C198.853 352.853 199.305 353.231 199.623 353.726C199.94 354.211 200.099 354.804 200.099 355.504C200.099 356.185 199.94 356.773 199.623 357.268C199.305 357.763 198.853 358.141 198.265 358.402C197.677 358.663 196.972 358.794 196.151 358.794H193.029L193.351 358.458V362H192.637ZM193.351 358.5L193.029 358.15H196.151C197.205 358.15 198.003 357.921 198.545 357.464C199.095 356.997 199.371 356.344 199.371 355.504C199.371 354.655 199.095 354.001 198.545 353.544C198.003 353.077 197.205 352.844 196.151 352.844H193.029L193.351 352.494V358.5ZM206.821 362V360.334L206.793 360.082V357.338C206.793 356.657 206.607 356.139 206.233 355.784C205.869 355.429 205.333 355.252 204.623 355.252C204.119 355.252 203.648 355.341 203.209 355.518C202.78 355.686 202.411 355.905 202.103 356.176L201.753 355.672C202.117 355.345 202.556 355.093 203.069 354.916C203.583 354.729 204.119 354.636 204.679 354.636C205.585 354.636 206.28 354.865 206.765 355.322C207.251 355.779 207.493 356.461 207.493 357.366V362H206.821ZM204.189 362.056C203.648 362.056 203.177 361.972 202.775 361.804C202.383 361.627 202.08 361.379 201.865 361.062C201.66 360.745 201.557 360.381 201.557 359.97C201.557 359.597 201.641 359.261 201.809 358.962C201.987 358.654 202.276 358.407 202.677 358.22C203.079 358.024 203.615 357.926 204.287 357.926H206.975V358.472H204.301C203.545 358.472 203.013 358.612 202.705 358.892C202.407 359.172 202.257 359.522 202.257 359.942C202.257 360.409 202.435 360.782 202.789 361.062C203.144 361.342 203.643 361.482 204.287 361.482C204.903 361.482 205.421 361.342 205.841 361.062C206.271 360.782 206.588 360.376 206.793 359.844L206.989 360.32C206.793 360.852 206.457 361.277 205.981 361.594C205.515 361.902 204.917 362.056 204.189 362.056ZM210.378 362V354.692H211.05V356.694L210.98 356.47C211.185 355.882 211.53 355.429 212.016 355.112C212.501 354.795 213.108 354.636 213.836 354.636V355.322C213.808 355.322 213.78 355.322 213.752 355.322C213.724 355.313 213.696 355.308 213.668 355.308C212.856 355.308 212.221 355.565 211.764 356.078C211.306 356.582 211.078 357.287 211.078 358.192V362H210.378ZM217.694 362.056C217.088 362.056 216.518 361.967 215.986 361.79C215.464 361.613 215.058 361.389 214.768 361.118L215.09 360.558C215.37 360.801 215.744 361.011 216.21 361.188C216.677 361.356 217.181 361.44 217.722 361.44C218.488 361.44 219.038 361.314 219.374 361.062C219.71 360.81 219.878 360.479 219.878 360.068C219.878 359.769 219.79 359.536 219.612 359.368C219.444 359.191 219.216 359.055 218.926 358.962C218.637 358.869 218.32 358.794 217.974 358.738C217.629 358.673 217.284 358.603 216.938 358.528C216.593 358.453 216.276 358.346 215.986 358.206C215.697 358.066 215.464 357.875 215.286 357.632C215.118 357.38 215.034 357.049 215.034 356.638C215.034 356.265 215.137 355.929 215.342 355.63C215.548 355.331 215.856 355.093 216.266 354.916C216.677 354.729 217.19 354.636 217.806 354.636C218.264 354.636 218.721 354.701 219.178 354.832C219.645 354.963 220.023 355.135 220.312 355.35L219.99 355.91C219.682 355.677 219.337 355.509 218.954 355.406C218.572 355.303 218.184 355.252 217.792 355.252C217.083 355.252 216.56 355.383 216.224 355.644C215.898 355.905 215.734 356.232 215.734 356.624C215.734 356.932 215.818 357.179 215.986 357.366C216.164 357.543 216.397 357.683 216.686 357.786C216.976 357.879 217.293 357.959 217.638 358.024C217.984 358.08 218.329 358.145 218.674 358.22C219.02 358.295 219.337 358.402 219.626 358.542C219.916 358.673 220.144 358.859 220.312 359.102C220.49 359.335 220.578 359.653 220.578 360.054C220.578 360.455 220.466 360.805 220.242 361.104C220.028 361.403 219.706 361.636 219.276 361.804C218.847 361.972 218.32 362.056 217.694 362.056ZM225.5 362.056C224.763 362.056 224.109 361.897 223.54 361.58C222.98 361.263 222.537 360.824 222.21 360.264C221.893 359.704 221.734 359.065 221.734 358.346C221.734 357.618 221.883 356.979 222.182 356.428C222.49 355.868 222.91 355.429 223.442 355.112C223.974 354.795 224.571 354.636 225.234 354.636C225.897 354.636 226.489 354.79 227.012 355.098C227.544 355.406 227.959 355.84 228.258 356.4C228.566 356.951 228.72 357.59 228.72 358.318C228.72 358.346 228.715 358.379 228.706 358.416C228.706 358.444 228.706 358.477 228.706 358.514H222.252V357.968H228.328L228.048 358.234C228.057 357.665 227.936 357.156 227.684 356.708C227.441 356.251 227.11 355.896 226.69 355.644C226.27 355.383 225.785 355.252 225.234 355.252C224.693 355.252 224.207 355.383 223.778 355.644C223.358 355.896 223.027 356.251 222.784 356.708C222.541 357.156 222.42 357.669 222.42 358.248V358.374C222.42 358.971 222.551 359.503 222.812 359.97C223.083 360.427 223.451 360.787 223.918 361.048C224.385 361.3 224.917 361.426 225.514 361.426C225.981 361.426 226.415 361.342 226.816 361.174C227.227 361.006 227.572 360.749 227.852 360.404L228.258 360.866C227.941 361.258 227.539 361.557 227.054 361.762C226.578 361.958 226.06 362.056 225.5 362.056ZM230.885 362V354.692H231.557V356.694L231.487 356.47C231.693 355.882 232.038 355.429 232.523 355.112C233.009 354.795 233.615 354.636 234.343 354.636V355.322C234.315 355.322 234.287 355.322 234.259 355.322C234.231 355.313 234.203 355.308 234.175 355.308C233.363 355.308 232.729 355.565 232.271 356.078C231.814 356.582 231.585 357.287 231.585 358.192V362H230.885ZM237.843 364.716C237.329 363.867 236.933 362.887 236.653 361.776C236.382 360.665 236.247 359.461 236.247 358.164C236.247 356.867 236.382 355.658 236.653 354.538C236.933 353.409 237.329 352.433 237.843 351.612H238.515C237.964 352.545 237.563 353.553 237.311 354.636C237.059 355.719 236.933 356.895 236.933 358.164C236.933 359.433 237.059 360.609 237.311 361.692C237.563 362.775 237.964 363.783 238.515 364.716H237.843ZM242.528 362V352.844H239V352.2H246.77V352.844H243.242V362H242.528ZM252.513 362V360.334L252.485 360.082V357.338C252.485 356.657 252.298 356.139 251.925 355.784C251.561 355.429 251.024 355.252 250.315 355.252C249.811 355.252 249.34 355.341 248.901 355.518C248.472 355.686 248.103 355.905 247.795 356.176L247.445 355.672C247.809 355.345 248.248 355.093 248.761 354.916C249.274 354.729 249.811 354.636 250.371 354.636C251.276 354.636 251.972 354.865 252.457 355.322C252.942 355.779 253.185 356.461 253.185 357.366V362H252.513ZM249.881 362.056C249.34 362.056 248.868 361.972 248.467 361.804C248.075 361.627 247.772 361.379 247.557 361.062C247.352 360.745 247.249 360.381 247.249 359.97C247.249 359.597 247.333 359.261 247.501 358.962C247.678 358.654 247.968 358.407 248.369 358.22C248.77 358.024 249.307 357.926 249.979 357.926H252.667V358.472H249.993C249.237 358.472 248.705 358.612 248.397 358.892C248.098 359.172 247.949 359.522 247.949 359.942C247.949 360.409 248.126 360.782 248.481 361.062C248.836 361.342 249.335 361.482 249.979 361.482C250.595 361.482 251.113 361.342 251.533 361.062C251.962 360.782 252.28 360.376 252.485 359.844L252.681 360.32C252.485 360.852 252.149 361.277 251.673 361.594C251.206 361.902 250.609 362.056 249.881 362.056ZM259.107 364.772C258.444 364.772 257.814 364.669 257.217 364.464C256.62 364.259 256.134 363.974 255.761 363.61L256.139 363.078C256.503 363.414 256.937 363.675 257.441 363.862C257.954 364.049 258.505 364.142 259.093 364.142C260.073 364.142 260.792 363.913 261.249 363.456C261.716 362.999 261.949 362.28 261.949 361.3V359.27L262.089 358.178L261.977 357.086V354.692H262.649V361.216C262.649 362.439 262.35 363.335 261.753 363.904C261.165 364.483 260.283 364.772 259.107 364.772ZM258.911 361.734C258.22 361.734 257.6 361.585 257.049 361.286C256.508 360.978 256.074 360.558 255.747 360.026C255.43 359.485 255.271 358.869 255.271 358.178C255.271 357.478 255.43 356.862 255.747 356.33C256.074 355.798 256.508 355.383 257.049 355.084C257.6 354.785 258.22 354.636 258.911 354.636C259.574 354.636 260.166 354.781 260.689 355.07C261.221 355.35 261.641 355.756 261.949 356.288C262.257 356.811 262.411 357.441 262.411 358.178C262.411 358.906 262.257 359.536 261.949 360.068C261.641 360.6 261.221 361.011 260.689 361.3C260.166 361.589 259.574 361.734 258.911 361.734ZM258.967 361.104C259.555 361.104 260.073 360.983 260.521 360.74C260.969 360.488 261.319 360.143 261.571 359.704C261.832 359.256 261.963 358.747 261.963 358.178C261.963 357.599 261.832 357.091 261.571 356.652C261.319 356.213 260.969 355.873 260.521 355.63C260.073 355.387 259.555 355.266 258.967 355.266C258.398 355.266 257.884 355.387 257.427 355.63C256.979 355.873 256.624 356.213 256.363 356.652C256.111 357.091 255.985 357.599 255.985 358.178C255.985 358.747 256.111 359.256 256.363 359.704C256.624 360.143 256.979 360.488 257.427 360.74C257.884 360.983 258.398 361.104 258.967 361.104ZM265.458 364.716H264.8C265.341 363.783 265.738 362.775 265.99 361.692C266.242 360.609 266.368 359.433 266.368 358.164C266.368 356.895 266.242 355.719 265.99 354.636C265.738 353.553 265.341 352.545 264.8 351.612H265.458C265.971 352.433 266.368 353.409 266.648 354.538C266.928 355.658 267.068 356.867 267.068 358.164C267.068 359.461 266.928 360.665 266.648 361.776C266.368 362.887 265.971 363.867 265.458 364.716Z" fill="#666666"/>
<path d="M101 303.313C101 303.14 101.14 303 101.313 303H124.556C130.719 303 135.402 308.001 135.402 314.169V315.399C135.402 316.09 134.841 316.651 134.151 316.651H128.901C128.556 316.651 128.276 316.371 128.276 316.025V314.169C128.276 312.113 126.61 310.446 124.556 310.446H108.752C108.579 310.446 108.439 310.586 108.439 310.759V336.35C108.439 336.523 108.298 336.664 108.126 336.657C104.163 336.493 101 333.225 101 329.217V303.313Z" fill="#ED1846"/>
<path d="M114.95 317.892C114.778 317.892 114.637 318.032 114.644 318.205C114.808 322.172 118.073 325.338 122.077 325.338H127.036C127.72 325.338 128.276 325.893 128.276 326.579V336.35C128.276 336.523 128.416 336.664 128.589 336.657C132.552 336.493 135.714 333.225 135.714 329.217V326.579C135.714 321.781 131.829 317.892 127.036 317.892H114.95Z" fill="#ED1846"/>
<path d="M228.478 332.061L205.873 323.465V317.292L228.478 308.696V314.632L208.105 322.041V318.716L228.478 326.125V332.061ZM234.302 332.061V326.125L254.675 318.716V322.041L234.302 314.632V308.696L256.907 317.292V323.465L234.302 332.061Z" fill="#B7B7B7"/>
<path d="M336.214 320.328C336.033 320.147 336.033 319.853 336.214 319.672L348.862 307.024C353.205 302.682 353.205 295.642 348.862 291.299L348.699 291.136C348.518 290.955 348.224 290.955 348.043 291.136L327.287 311.892C322.809 316.37 322.809 323.63 327.287 328.108L348.043 348.864C348.224 349.045 348.518 349.045 348.699 348.864L348.862 348.701C353.205 344.358 353.205 337.318 348.862 332.976L336.214 320.328Z" fill="#ED1846"/>
<path d="M373.583 320.328C373.764 320.147 373.764 319.853 373.583 319.672L360.935 307.024C356.593 302.682 356.593 295.642 360.935 291.299L361.099 291.136C361.28 290.955 361.573 290.955 361.754 291.136L382.51 311.892C386.988 316.37 386.988 323.63 382.51 328.108L361.754 348.864C361.573 349.045 361.28 349.045 361.099 348.864L360.935 348.701C356.593 344.358 356.593 337.318 360.935 332.976L373.583 320.328Z" fill="#ED1846"/>
</svg>
