<svg width="462" height="395" viewBox="0 0 462 395" fill="none" xmlns="http://www.w3.org/2000/svg">
<rect width="462" height="395" fill="white"/>
<path d="M267.889 313.889H255.222L251 309.667L255.222 305.444H267.889V299.111L270 297L272.111 299.111V301.222H284.778L289 305.444L284.778 309.667H272.111V313.889H284.778L289 318.111L284.778 322.333H272.111V335C273.231 335 274.305 335.445 275.097 336.237C275.889 337.028 276.333 338.102 276.333 339.222H263.667C263.667 338.102 264.112 337.028 264.903 336.237C265.695 335.445 266.769 335 267.889 335V313.889Z" fill="#B7B7B7"/>
<path d="M146.609 323.17H142.979V326.69H139.019V323.17H135.389V319.43H139.019V315.91H142.979V319.43H146.609V323.17Z" fill="#B7B7B7"/>
<path d="M232.609 323.17H228.979V326.69H225.019V323.17H221.389V319.43H225.019V315.91H228.979V319.43H232.609V323.17Z" fill="#B7B7B7"/>
<path d="M307.389 316.57H318.609V320.31H307.389V316.57ZM307.389 322.29H318.609V326.03H307.389V322.29Z" fill="#B7B7B7"/>
<path d="M161.708 362V352.2H165.222C166.043 352.2 166.748 352.331 167.336 352.592C167.924 352.853 168.377 353.231 168.694 353.726C169.011 354.211 169.17 354.804 169.17 355.504C169.17 356.185 169.011 356.773 168.694 357.268C168.377 357.753 167.924 358.131 167.336 358.402C166.748 358.663 166.043 358.794 165.222 358.794H162.1L162.422 358.458V362H161.708ZM168.512 362L165.964 358.444H166.776L169.324 362H168.512ZM162.422 358.5L162.1 358.164H165.222C166.277 358.164 167.075 357.931 167.616 357.464C168.167 356.997 168.442 356.344 168.442 355.504C168.442 354.655 168.167 354.001 167.616 353.544C167.075 353.077 166.277 352.844 165.222 352.844H162.1L162.422 352.494V358.5ZM174.416 362.056C173.716 362.056 173.091 361.897 172.54 361.58C171.999 361.263 171.565 360.824 171.238 360.264C170.921 359.704 170.762 359.065 170.762 358.346C170.762 357.618 170.921 356.979 171.238 356.428C171.565 355.868 171.999 355.429 172.54 355.112C173.091 354.795 173.716 354.636 174.416 354.636C175.116 354.636 175.742 354.795 176.292 355.112C176.843 355.429 177.277 355.868 177.594 356.428C177.912 356.979 178.07 357.618 178.07 358.346C178.07 359.065 177.912 359.704 177.594 360.264C177.277 360.824 176.843 361.263 176.292 361.58C175.742 361.897 175.116 362.056 174.416 362.056ZM174.416 361.426C174.976 361.426 175.48 361.3 175.928 361.048C176.376 360.787 176.726 360.423 176.978 359.956C177.23 359.489 177.356 358.953 177.356 358.346C177.356 357.73 177.23 357.193 176.978 356.736C176.726 356.269 176.376 355.91 175.928 355.658C175.48 355.397 174.976 355.266 174.416 355.266C173.856 355.266 173.352 355.397 172.904 355.658C172.466 355.91 172.116 356.269 171.854 356.736C171.602 357.193 171.476 357.73 171.476 358.346C171.476 358.953 171.602 359.489 171.854 359.956C172.116 360.423 172.466 360.787 172.904 361.048C173.352 361.3 173.856 361.426 174.416 361.426ZM183.21 362.056C182.585 362.056 182.043 361.944 181.586 361.72C181.129 361.487 180.774 361.141 180.522 360.684C180.279 360.217 180.158 359.643 180.158 358.962V354.692H180.858V358.906C180.858 359.727 181.068 360.353 181.488 360.782C181.908 361.211 182.501 361.426 183.266 361.426C183.817 361.426 184.293 361.309 184.694 361.076C185.095 360.843 185.403 360.516 185.618 360.096C185.833 359.667 185.94 359.163 185.94 358.584V354.692H186.64V362H185.968V359.97L186.066 360.208C185.851 360.777 185.492 361.23 184.988 361.566C184.493 361.893 183.901 362.056 183.21 362.056ZM191.735 362.056C191.091 362.056 190.597 361.879 190.251 361.524C189.915 361.169 189.747 360.684 189.747 360.068V353.096H190.447V359.998C190.447 360.465 190.564 360.824 190.797 361.076C191.031 361.328 191.367 361.454 191.805 361.454C192.263 361.454 192.641 361.319 192.939 361.048L193.233 361.538C193.047 361.715 192.818 361.846 192.547 361.93C192.286 362.014 192.015 362.056 191.735 362.056ZM188.403 355.294V354.692H192.771V355.294H188.403ZM197.894 362.056C197.156 362.056 196.503 361.897 195.934 361.58C195.374 361.263 194.93 360.824 194.604 360.264C194.286 359.704 194.128 359.065 194.128 358.346C194.128 357.618 194.277 356.979 194.576 356.428C194.884 355.868 195.304 355.429 195.836 355.112C196.368 354.795 196.965 354.636 197.628 354.636C198.29 354.636 198.883 354.79 199.406 355.098C199.938 355.406 200.353 355.84 200.652 356.4C200.96 356.951 201.114 357.59 201.114 358.318C201.114 358.346 201.109 358.379 201.1 358.416C201.1 358.444 201.1 358.477 201.1 358.514H194.646V357.968H200.722L200.442 358.234C200.451 357.665 200.33 357.156 200.078 356.708C199.835 356.251 199.504 355.896 199.084 355.644C198.664 355.383 198.178 355.252 197.628 355.252C197.086 355.252 196.601 355.383 196.172 355.644C195.752 355.896 195.42 356.251 195.178 356.708C194.935 357.156 194.814 357.669 194.814 358.248V358.374C194.814 358.971 194.944 359.503 195.206 359.97C195.476 360.427 195.845 360.787 196.312 361.048C196.778 361.3 197.31 361.426 197.908 361.426C198.374 361.426 198.808 361.342 199.21 361.174C199.62 361.006 199.966 360.749 200.246 360.404L200.652 360.866C200.334 361.258 199.933 361.557 199.448 361.762C198.972 361.958 198.454 362.056 197.894 362.056Z" fill="#666666"/>
<path d="M89.512 362L87.174 358.724C86.8287 358.771 86.5113 358.794 86.222 358.794H83.422V362H82.708V352.2H86.222C87.454 352.2 88.42 352.494 89.12 353.082C89.82 353.661 90.17 354.468 90.17 355.504C90.17 356.279 89.9693 356.932 89.568 357.464C89.176 357.987 88.6113 358.355 87.874 358.57L90.324 362H89.512ZM86.222 358.164C87.2673 358.164 88.0653 357.935 88.616 357.478C89.1667 357.011 89.442 356.353 89.442 355.504C89.442 354.655 89.1667 354.001 88.616 353.544C88.0653 353.077 87.2673 352.844 86.222 352.844H83.422V358.164H86.222ZM92.5602 354.692H93.2602V362H92.5602V354.692ZM92.9102 352.914C92.7515 352.914 92.6162 352.863 92.5042 352.76C92.3922 352.648 92.3362 352.513 92.3362 352.354C92.3362 352.195 92.3922 352.06 92.5042 351.948C92.6162 351.836 92.7515 351.78 92.9102 351.78C93.0688 351.78 93.2042 351.836 93.3162 351.948C93.4282 352.051 93.4842 352.181 93.4842 352.34C93.4842 352.499 93.4282 352.634 93.3162 352.746C93.2042 352.858 93.0688 352.914 92.9102 352.914ZM99.0666 362.056C98.3759 362.056 97.7506 361.897 97.1906 361.58C96.6399 361.263 96.2059 360.824 95.8886 360.264C95.5712 359.695 95.4126 359.055 95.4126 358.346C95.4126 357.637 95.5712 357.002 95.8886 356.442C96.2059 355.873 96.6399 355.429 97.1906 355.112C97.7506 354.795 98.3759 354.636 99.0666 354.636C99.7572 354.636 100.378 354.795 100.929 355.112C101.489 355.429 101.927 355.873 102.245 356.442C102.562 357.002 102.721 357.637 102.721 358.346C102.721 359.055 102.562 359.695 102.245 360.264C101.927 360.824 101.489 361.263 100.929 361.58C100.378 361.897 99.7572 362.056 99.0666 362.056ZM99.0666 361.426C99.6266 361.426 100.126 361.295 100.565 361.034C101.013 360.773 101.363 360.409 101.615 359.942C101.876 359.475 102.007 358.943 102.007 358.346C102.007 357.749 101.876 357.217 101.615 356.75C101.363 356.283 101.013 355.919 100.565 355.658C100.126 355.397 99.6266 355.266 99.0666 355.266C98.5066 355.266 98.0026 355.397 97.5546 355.658C97.1159 355.919 96.7659 356.283 96.5046 356.75C96.2526 357.217 96.1266 357.749 96.1266 358.346C96.1266 358.943 96.2526 359.475 96.5046 359.942C96.7659 360.409 97.1159 360.773 97.5546 361.034C98.0026 361.295 98.5066 361.426 99.0666 361.426ZM108.518 361.538C108.341 361.706 108.117 361.837 107.846 361.93C107.585 362.014 107.31 362.056 107.02 362.056C106.386 362.056 105.896 361.883 105.55 361.538C105.205 361.183 105.032 360.693 105.032 360.068V355.294H103.688V354.692H105.032V353.096H105.732V354.692H108.056V355.294H105.732V359.998C105.732 360.474 105.844 360.838 106.068 361.09C106.302 361.333 106.642 361.454 107.09 361.454C107.548 361.454 107.926 361.319 108.224 361.048L108.518 361.538Z" fill="#666666"/>
<path d="M250.708 362V352.2H254.222C255.043 352.2 255.748 352.331 256.336 352.592C256.924 352.853 257.377 353.231 257.694 353.726C258.011 354.211 258.17 354.804 258.17 355.504C258.17 356.185 258.011 356.773 257.694 357.268C257.377 357.753 256.924 358.131 256.336 358.402C255.748 358.663 255.043 358.794 254.222 358.794H251.1L251.422 358.458V362H250.708ZM257.512 362L254.964 358.444H255.776L258.324 362H257.512ZM251.422 358.5L251.1 358.164H254.222C255.277 358.164 256.075 357.931 256.616 357.464C257.167 356.997 257.442 356.344 257.442 355.504C257.442 354.655 257.167 354.001 256.616 353.544C256.075 353.077 255.277 352.844 254.222 352.844H251.1L251.422 352.494V358.5ZM263.416 362.056C262.716 362.056 262.091 361.897 261.54 361.58C260.999 361.263 260.565 360.824 260.238 360.264C259.921 359.704 259.762 359.065 259.762 358.346C259.762 357.618 259.921 356.979 260.238 356.428C260.565 355.868 260.999 355.429 261.54 355.112C262.091 354.795 262.716 354.636 263.416 354.636C264.116 354.636 264.742 354.795 265.292 355.112C265.843 355.429 266.277 355.868 266.594 356.428C266.912 356.979 267.07 357.618 267.07 358.346C267.07 359.065 266.912 359.704 266.594 360.264C266.277 360.824 265.843 361.263 265.292 361.58C264.742 361.897 264.116 362.056 263.416 362.056ZM263.416 361.426C263.976 361.426 264.48 361.3 264.928 361.048C265.376 360.787 265.726 360.423 265.978 359.956C266.23 359.489 266.356 358.953 266.356 358.346C266.356 357.73 266.23 357.193 265.978 356.736C265.726 356.269 265.376 355.91 264.928 355.658C264.48 355.397 263.976 355.266 263.416 355.266C262.856 355.266 262.352 355.397 261.904 355.658C261.466 355.91 261.116 356.269 260.854 356.736C260.602 357.193 260.476 357.73 260.476 358.346C260.476 358.953 260.602 359.489 260.854 359.956C261.116 360.423 261.466 360.787 261.904 361.048C262.352 361.3 262.856 361.426 263.416 361.426ZM272.21 362.056C271.585 362.056 271.043 361.944 270.586 361.72C270.129 361.487 269.774 361.141 269.522 360.684C269.279 360.217 269.158 359.643 269.158 358.962V354.692H269.858V358.906C269.858 359.727 270.068 360.353 270.488 360.782C270.908 361.211 271.501 361.426 272.266 361.426C272.817 361.426 273.293 361.309 273.694 361.076C274.095 360.843 274.403 360.516 274.618 360.096C274.833 359.667 274.94 359.163 274.94 358.584V354.692H275.64V362H274.968V359.97L275.066 360.208C274.851 360.777 274.492 361.23 273.988 361.566C273.493 361.893 272.901 362.056 272.21 362.056ZM280.735 362.056C280.091 362.056 279.597 361.879 279.251 361.524C278.915 361.169 278.747 360.684 278.747 360.068V353.096H279.447V359.998C279.447 360.465 279.564 360.824 279.797 361.076C280.031 361.328 280.367 361.454 280.805 361.454C281.263 361.454 281.641 361.319 281.939 361.048L282.233 361.538C282.047 361.715 281.818 361.846 281.547 361.93C281.286 362.014 281.015 362.056 280.735 362.056ZM277.403 355.294V354.692H281.771V355.294H277.403ZM286.894 362.056C286.156 362.056 285.503 361.897 284.934 361.58C284.374 361.263 283.93 360.824 283.604 360.264C283.286 359.704 283.128 359.065 283.128 358.346C283.128 357.618 283.277 356.979 283.576 356.428C283.884 355.868 284.304 355.429 284.836 355.112C285.368 354.795 285.965 354.636 286.628 354.636C287.29 354.636 287.883 354.79 288.406 355.098C288.938 355.406 289.353 355.84 289.652 356.4C289.96 356.951 290.114 357.59 290.114 358.318C290.114 358.346 290.109 358.379 290.1 358.416C290.1 358.444 290.1 358.477 290.1 358.514H283.646V357.968H289.722L289.442 358.234C289.451 357.665 289.33 357.156 289.078 356.708C288.835 356.251 288.504 355.896 288.084 355.644C287.664 355.383 287.178 355.252 286.628 355.252C286.086 355.252 285.601 355.383 285.172 355.644C284.752 355.896 284.42 356.251 284.178 356.708C283.935 357.156 283.814 357.669 283.814 358.248V358.374C283.814 358.971 283.944 359.503 284.206 359.97C284.476 360.427 284.845 360.787 285.312 361.048C285.778 361.3 286.31 361.426 286.908 361.426C287.374 361.426 287.808 361.342 288.21 361.174C288.62 361.006 288.966 360.749 289.246 360.404L289.652 360.866C289.334 361.258 288.933 361.557 288.448 361.762C287.972 361.958 287.454 362.056 286.894 362.056Z" fill="#666666"/>
<path d="M79.0714 303.313C79.0714 303.14 79.2114 303 79.3842 303H102.628C108.79 303 113.473 308.001 113.473 314.169V315.399C113.473 316.09 112.913 316.651 112.222 316.651H106.972C106.627 316.651 106.347 316.371 106.347 316.025V314.169C106.347 312.113 104.682 310.446 102.628 310.446H86.8229C86.6502 310.446 86.5102 310.586 86.5102 310.759V336.35C86.5102 336.523 86.3698 336.664 86.1972 336.657C82.234 336.493 79.0714 333.225 79.0714 329.217V303.313Z" fill="#ED1846"/>
<path d="M93.0219 317.892C92.8492 317.892 92.7085 318.032 92.7156 318.205C92.8797 322.172 96.1445 325.338 100.148 325.338H105.107C105.792 325.338 106.347 325.893 106.347 326.579V336.35C106.347 336.523 106.487 336.664 106.66 336.657C110.623 336.493 113.786 333.225 113.786 329.217V326.579C113.786 321.781 109.9 317.892 105.107 317.892H93.0219Z" fill="#ED1846"/>
<path d="M167.442 337V303.757H181.831C184.807 303.757 187.372 304.248 189.525 305.229C191.677 306.179 193.34 307.556 194.511 309.361C195.682 311.165 196.268 313.318 196.268 315.819C196.268 318.289 195.682 320.426 194.511 322.231C193.34 324.004 191.677 325.365 189.525 326.315C187.372 327.265 184.807 327.739 181.831 327.739H171.716L175.135 324.368V337H167.442ZM188.575 337L180.264 324.938H188.48L196.885 337H188.575ZM175.135 325.222L171.716 321.613H181.404C183.778 321.613 185.551 321.107 186.723 320.094C187.894 319.049 188.48 317.624 188.48 315.819C188.48 313.983 187.894 312.558 186.723 311.545C185.551 310.532 183.778 310.026 181.404 310.026H171.716L175.135 306.369V325.222Z" fill="#B7B7B7"/>
<rect width="216" height="217" transform="translate(123 25)" fill="white"/>
<path d="M153 210.994V181.658H167.123C169.861 181.658 172.222 182.105 174.205 182.999C176.217 183.893 177.767 185.179 178.857 186.855C179.947 188.503 180.491 190.459 180.491 192.722C180.491 194.985 179.947 196.941 178.857 198.589C177.767 200.209 176.217 201.453 174.205 202.319C172.222 203.185 169.861 203.618 167.123 203.618H158.49L162.89 199.553V210.994H153ZM170.559 210.994L163.351 200.307H173.828L181.12 210.994H170.559ZM162.89 200.642L158.49 196.158H166.494C167.863 196.158 168.869 195.851 169.512 195.236C170.182 194.622 170.517 193.784 170.517 192.722C170.517 191.66 170.182 190.822 169.512 190.207C168.869 189.593 167.863 189.285 166.494 189.285H158.49L162.89 184.801V200.642Z" fill="#ED1846"/>
<path d="M200.025 211.664C197.65 211.664 195.443 211.287 193.404 210.533C191.392 209.778 189.646 208.717 188.165 207.348C186.685 205.951 185.525 204.316 184.687 202.444C183.877 200.573 183.472 198.533 183.472 196.326C183.472 194.091 183.877 192.051 184.687 190.207C185.525 188.336 186.685 186.715 188.165 185.346C189.646 183.949 191.392 182.874 193.404 182.119C195.443 181.365 197.65 180.988 200.025 180.988C202.428 180.988 204.635 181.365 206.647 182.119C208.658 182.874 210.404 183.949 211.885 185.346C213.366 186.715 214.511 188.336 215.321 190.207C216.16 192.051 216.579 194.091 216.579 196.326C216.579 198.533 216.16 200.573 215.321 202.444C214.511 204.316 213.366 205.951 211.885 207.348C210.404 208.717 208.658 209.778 206.647 210.533C204.635 211.287 202.428 211.664 200.025 211.664ZM200.025 203.66C200.947 203.66 201.799 203.492 202.582 203.157C203.392 202.822 204.09 202.347 204.677 201.732C205.292 201.089 205.767 200.321 206.102 199.427C206.437 198.505 206.605 197.471 206.605 196.326C206.605 195.18 206.437 194.161 206.102 193.267C205.767 192.345 205.292 191.576 204.677 190.962C204.09 190.319 203.392 189.83 202.582 189.495C201.799 189.16 200.947 188.992 200.025 188.992C199.103 188.992 198.237 189.16 197.427 189.495C196.645 189.83 195.946 190.319 195.332 190.962C194.745 191.576 194.284 192.345 193.949 193.267C193.613 194.161 193.446 195.18 193.446 196.326C193.446 197.471 193.613 198.505 193.949 199.427C194.284 200.321 194.745 201.089 195.332 201.732C195.946 202.347 196.645 202.822 197.427 203.157C198.237 203.492 199.103 203.66 200.025 203.66Z" fill="#ED1846"/>
<path d="M235.046 211.664C230.547 211.664 227.041 210.449 224.527 208.018C222.012 205.588 220.755 202.179 220.755 197.793V181.658H230.645V197.499C230.645 199.734 231.05 201.327 231.861 202.277C232.671 203.199 233.76 203.66 235.129 203.66C236.526 203.66 237.616 203.199 238.398 202.277C239.208 201.327 239.613 199.734 239.613 197.499V181.658H249.336V197.793C249.336 202.179 248.079 205.588 245.564 208.018C243.05 210.449 239.544 211.664 235.046 211.664Z" fill="#ED1846"/>
<path d="M261.916 210.994V189.327H253.325V181.658H280.397V189.327H271.806V210.994H261.916Z" fill="#ED1846"/>
<path d="M293.275 192.554H306.35V199.679H293.275V192.554ZM293.946 203.534H308.613V210.994H284.223V181.658H308.068V189.118H293.946V203.534Z" fill="#ED1846"/>
<path d="M197.269 79.6784V136.02C197.269 136.534 197.686 136.951 198.201 136.951H225.057C238.861 136.951 250.92 146.283 254.383 159.646C254.521 160.178 254.118 160.698 253.568 160.698H174.453C173.939 160.698 173.522 160.281 173.522 159.767V55.9313C173.522 55.4169 173.939 55 174.453 55H261.632C261.93 55 262.209 55.1421 262.384 55.3823L300.27 107.3C300.509 107.627 300.509 108.071 300.27 108.398L265.488 156.063C265.116 156.573 264.355 156.573 263.983 156.063L250.437 137.5C250.199 137.173 250.199 136.729 250.437 136.402L270.873 108.398C271.111 108.071 271.111 107.627 270.873 107.3L250.316 79.1295C250.14 78.8892 249.861 78.7472 249.563 78.7472H198.201C197.686 78.7472 197.269 79.1641 197.269 79.6784Z" fill="#ED1846"/>
<path d="M350.602 307.006V334.415C350.602 334.665 350.805 334.868 351.055 334.868H364.12C370.836 334.868 376.702 339.408 378.387 345.908C378.454 346.167 378.258 346.42 377.99 346.42H339.503C339.252 346.42 339.05 346.218 339.05 345.967V295.453C339.05 295.203 339.252 295 339.503 295H381.913C382.058 295 382.194 295.069 382.279 295.186L400.71 320.443C400.826 320.602 400.826 320.818 400.71 320.977L383.789 344.165C383.608 344.413 383.238 344.413 383.057 344.165L376.467 335.135C376.351 334.976 376.351 334.76 376.467 334.601L386.409 320.977C386.525 320.818 386.525 320.602 386.409 320.443L376.408 306.739C376.323 306.622 376.187 306.553 376.042 306.553H351.055C350.805 306.553 350.602 306.755 350.602 307.006Z" fill="#ED1846"/>
</svg>
