<svg width="463" height="395" viewBox="0 0 463 395" fill="none" xmlns="http://www.w3.org/2000/svg">
<rect width="462" height="395" transform="translate(0.5)" fill="white"/>
<path d="M147.109 323.17H143.479V326.69H139.519V323.17H135.889V319.43H139.519V315.91H143.479V319.43H147.109V323.17Z" fill="#B7B7B7"/>
<path d="M233.109 323.17H229.479V326.69H225.519V323.17H221.889V319.43H225.519V315.91H229.479V319.43H233.109V323.17Z" fill="#B7B7B7"/>
<path d="M307.889 316.57H319.109V320.31H307.889V316.57ZM307.889 322.29H319.109V326.03H307.889V322.29Z" fill="#B7B7B7"/>
<path d="M172.215 362.07C171.487 362.07 170.796 361.949 170.143 361.706C169.499 361.454 168.999 361.132 168.645 360.74L168.967 360.208C169.303 360.553 169.76 360.847 170.339 361.09C170.927 361.323 171.547 361.44 172.201 361.44C172.854 361.44 173.386 361.356 173.797 361.188C174.217 361.011 174.525 360.777 174.721 360.488C174.926 360.199 175.029 359.877 175.029 359.522C175.029 359.102 174.917 358.766 174.693 358.514C174.469 358.262 174.175 358.061 173.811 357.912C173.447 357.763 173.05 357.637 172.621 357.534C172.191 357.431 171.757 357.324 171.319 357.212C170.88 357.091 170.479 356.937 170.115 356.75C169.751 356.563 169.457 356.311 169.233 355.994C169.018 355.667 168.911 355.247 168.911 354.734C168.911 354.267 169.032 353.838 169.275 353.446C169.517 353.054 169.895 352.737 170.409 352.494C170.922 352.251 171.58 352.13 172.383 352.13C172.924 352.13 173.456 352.209 173.979 352.368C174.511 352.527 174.963 352.741 175.337 353.012L175.071 353.586C174.66 353.306 174.217 353.101 173.741 352.97C173.274 352.83 172.821 352.76 172.383 352.76C171.757 352.76 171.239 352.849 170.829 353.026C170.418 353.203 170.115 353.441 169.919 353.74C169.723 354.029 169.625 354.356 169.625 354.72C169.625 355.14 169.732 355.476 169.947 355.728C170.171 355.98 170.465 356.181 170.829 356.33C171.193 356.479 171.594 356.605 172.033 356.708C172.471 356.811 172.905 356.923 173.335 357.044C173.764 357.156 174.161 357.305 174.525 357.492C174.889 357.679 175.183 357.931 175.407 358.248C175.631 358.565 175.743 358.976 175.743 359.48C175.743 359.937 175.617 360.367 175.365 360.768C175.113 361.16 174.725 361.477 174.203 361.72C173.689 361.953 173.027 362.07 172.215 362.07ZM180.746 362.07C180.018 362.07 179.327 361.949 178.674 361.706C178.03 361.454 177.531 361.132 177.176 360.74L177.498 360.208C177.834 360.553 178.291 360.847 178.87 361.09C179.458 361.323 180.079 361.44 180.732 361.44C181.385 361.44 181.917 361.356 182.328 361.188C182.748 361.011 183.056 360.777 183.252 360.488C183.457 360.199 183.56 359.877 183.56 359.522C183.56 359.102 183.448 358.766 183.224 358.514C183 358.262 182.706 358.061 182.342 357.912C181.978 357.763 181.581 357.637 181.152 357.534C180.723 357.431 180.289 357.324 179.85 357.212C179.411 357.091 179.01 356.937 178.646 356.75C178.282 356.563 177.988 356.311 177.764 355.994C177.549 355.667 177.442 355.247 177.442 354.734C177.442 354.267 177.563 353.838 177.806 353.446C178.049 353.054 178.427 352.737 178.94 352.494C179.453 352.251 180.111 352.13 180.914 352.13C181.455 352.13 181.987 352.209 182.51 352.368C183.042 352.527 183.495 352.741 183.868 353.012L183.602 353.586C183.191 353.306 182.748 353.101 182.272 352.97C181.805 352.83 181.353 352.76 180.914 352.76C180.289 352.76 179.771 352.849 179.36 353.026C178.949 353.203 178.646 353.441 178.45 353.74C178.254 354.029 178.156 354.356 178.156 354.72C178.156 355.14 178.263 355.476 178.478 355.728C178.702 355.98 178.996 356.181 179.36 356.33C179.724 356.479 180.125 356.605 180.564 356.708C181.003 356.811 181.437 356.923 181.866 357.044C182.295 357.156 182.692 357.305 183.056 357.492C183.42 357.679 183.714 357.931 183.938 358.248C184.162 358.565 184.274 358.976 184.274 359.48C184.274 359.937 184.148 360.367 183.896 360.768C183.644 361.16 183.257 361.477 182.734 361.72C182.221 361.953 181.558 362.07 180.746 362.07ZM186.701 362V352.2H190.215C191.037 352.2 191.741 352.331 192.329 352.592C192.917 352.853 193.37 353.231 193.687 353.726C194.005 354.211 194.163 354.804 194.163 355.504C194.163 356.185 194.005 356.773 193.687 357.268C193.37 357.753 192.917 358.131 192.329 358.402C191.741 358.663 191.037 358.794 190.215 358.794H187.093L187.415 358.458V362H186.701ZM193.505 362L190.957 358.444H191.769L194.317 362H193.505ZM187.415 358.5L187.093 358.164H190.215C191.27 358.164 192.068 357.931 192.609 357.464C193.16 356.997 193.435 356.344 193.435 355.504C193.435 354.655 193.16 354.001 192.609 353.544C192.068 353.077 191.27 352.844 190.215 352.844H187.093L187.415 352.494V358.5Z" fill="#666666"/>
<path d="M90.012 362L87.674 358.724C87.3287 358.771 87.0113 358.794 86.722 358.794H83.922V362H83.208V352.2H86.722C87.954 352.2 88.92 352.494 89.62 353.082C90.32 353.661 90.67 354.468 90.67 355.504C90.67 356.279 90.4693 356.932 90.068 357.464C89.676 357.987 89.1113 358.355 88.374 358.57L90.824 362H90.012ZM86.722 358.164C87.7673 358.164 88.5653 357.935 89.116 357.478C89.6667 357.011 89.942 356.353 89.942 355.504C89.942 354.655 89.6667 354.001 89.116 353.544C88.5653 353.077 87.7673 352.844 86.722 352.844H83.922V358.164H86.722ZM93.0602 354.692H93.7602V362H93.0602V354.692ZM93.4102 352.914C93.2515 352.914 93.1162 352.863 93.0042 352.76C92.8922 352.648 92.8362 352.513 92.8362 352.354C92.8362 352.195 92.8922 352.06 93.0042 351.948C93.1162 351.836 93.2515 351.78 93.4102 351.78C93.5688 351.78 93.7042 351.836 93.8162 351.948C93.9282 352.051 93.9842 352.181 93.9842 352.34C93.9842 352.499 93.9282 352.634 93.8162 352.746C93.7042 352.858 93.5688 352.914 93.4102 352.914ZM99.5666 362.056C98.8759 362.056 98.2506 361.897 97.6906 361.58C97.1399 361.263 96.7059 360.824 96.3886 360.264C96.0712 359.695 95.9126 359.055 95.9126 358.346C95.9126 357.637 96.0712 357.002 96.3886 356.442C96.7059 355.873 97.1399 355.429 97.6906 355.112C98.2506 354.795 98.8759 354.636 99.5666 354.636C100.257 354.636 100.878 354.795 101.429 355.112C101.989 355.429 102.427 355.873 102.745 356.442C103.062 357.002 103.221 357.637 103.221 358.346C103.221 359.055 103.062 359.695 102.745 360.264C102.427 360.824 101.989 361.263 101.429 361.58C100.878 361.897 100.257 362.056 99.5666 362.056ZM99.5666 361.426C100.127 361.426 100.626 361.295 101.065 361.034C101.513 360.773 101.863 360.409 102.115 359.942C102.376 359.475 102.507 358.943 102.507 358.346C102.507 357.749 102.376 357.217 102.115 356.75C101.863 356.283 101.513 355.919 101.065 355.658C100.626 355.397 100.127 355.266 99.5666 355.266C99.0066 355.266 98.5026 355.397 98.0546 355.658C97.6159 355.919 97.2659 356.283 97.0046 356.75C96.7526 357.217 96.6266 357.749 96.6266 358.346C96.6266 358.943 96.7526 359.475 97.0046 359.942C97.2659 360.409 97.6159 360.773 98.0546 361.034C98.5026 361.295 99.0066 361.426 99.5666 361.426ZM109.018 361.538C108.841 361.706 108.617 361.837 108.346 361.93C108.085 362.014 107.81 362.056 107.52 362.056C106.886 362.056 106.396 361.883 106.05 361.538C105.705 361.183 105.532 360.693 105.532 360.068V355.294H104.188V354.692H105.532V353.096H106.232V354.692H108.556V355.294H106.232V359.998C106.232 360.474 106.344 360.838 106.568 361.09C106.802 361.333 107.142 361.454 107.59 361.454C108.048 361.454 108.426 361.319 108.724 361.048L109.018 361.538Z" fill="#666666"/>
<path d="M261.095 357.03H266.401V357.674H261.095V357.03ZM261.179 362H260.465V352.2H267.017V352.844H261.179V362ZM269.073 362V354.692H269.773V362H269.073ZM269.423 352.914C269.264 352.914 269.129 352.858 269.017 352.746C268.905 352.634 268.849 352.503 268.849 352.354C268.849 352.195 268.905 352.06 269.017 351.948C269.129 351.836 269.264 351.78 269.423 351.78C269.591 351.78 269.726 351.836 269.829 351.948C269.941 352.051 269.997 352.181 269.997 352.34C269.997 352.499 269.941 352.634 269.829 352.746C269.726 352.858 269.591 352.914 269.423 352.914ZM272.723 362V351.612H273.423V362H272.723ZM279.342 362.056C278.604 362.056 277.951 361.897 277.382 361.58C276.822 361.263 276.378 360.824 276.052 360.264C275.734 359.704 275.576 359.065 275.576 358.346C275.576 357.618 275.725 356.979 276.024 356.428C276.332 355.868 276.752 355.429 277.284 355.112C277.816 354.795 278.413 354.636 279.076 354.636C279.738 354.636 280.331 354.79 280.854 355.098C281.386 355.406 281.801 355.84 282.1 356.4C282.408 356.951 282.562 357.59 282.562 358.318C282.562 358.346 282.557 358.379 282.548 358.416C282.548 358.444 282.548 358.477 282.548 358.514H276.094V357.968H282.17L281.89 358.234C281.899 357.665 281.778 357.156 281.526 356.708C281.283 356.251 280.952 355.896 280.532 355.644C280.112 355.383 279.626 355.252 279.076 355.252C278.534 355.252 278.049 355.383 277.62 355.644C277.2 355.896 276.868 356.251 276.626 356.708C276.383 357.156 276.262 357.669 276.262 358.248V358.374C276.262 358.971 276.392 359.503 276.654 359.97C276.924 360.427 277.293 360.787 277.76 361.048C278.226 361.3 278.758 361.426 279.356 361.426C279.822 361.426 280.256 361.342 280.658 361.174C281.068 361.006 281.414 360.749 281.694 360.404L282.1 360.866C281.782 361.258 281.381 361.557 280.896 361.762C280.42 361.958 279.902 362.056 279.342 362.056Z" fill="#666666"/>
<path d="M79.5714 303.313C79.5714 303.14 79.7114 303 79.8842 303H103.128C109.29 303 113.973 308.001 113.973 314.169V315.399C113.973 316.09 113.413 316.651 112.722 316.651H107.472C107.127 316.651 106.847 316.371 106.847 316.025V314.169C106.847 312.113 105.182 310.446 103.128 310.446H87.3229C87.1502 310.446 87.0102 310.586 87.0102 310.759V336.35C87.0102 336.523 86.8698 336.664 86.6972 336.657C82.734 336.493 79.5714 333.225 79.5714 329.217V303.313Z" fill="#ED1846"/>
<path d="M93.5219 317.892C93.3492 317.892 93.2085 318.032 93.2156 318.205C93.3797 322.172 96.6445 325.338 100.648 325.338H105.607C106.292 325.338 106.847 325.893 106.847 326.579V336.35C106.847 336.523 106.987 336.664 107.16 336.657C111.123 336.493 114.286 333.225 114.286 329.217V326.579C114.286 321.781 110.4 317.892 105.607 317.892H93.5219Z" fill="#ED1846"/>
<path d="M178.864 337.57C176.205 337.57 173.656 337.222 171.218 336.525C168.781 335.797 166.818 334.863 165.33 333.723L167.942 327.929C169.366 328.943 171.044 329.782 172.976 330.446C174.939 331.08 176.917 331.396 178.912 331.396C180.432 331.396 181.65 331.254 182.569 330.969C183.518 330.652 184.215 330.225 184.658 329.687C185.101 329.148 185.323 328.531 185.323 327.834C185.323 326.948 184.975 326.251 184.278 325.745C183.582 325.207 182.664 324.779 181.524 324.463C180.384 324.114 179.118 323.798 177.725 323.513C176.363 323.196 174.986 322.816 173.593 322.373C172.232 321.93 170.981 321.36 169.841 320.663C168.702 319.967 167.768 319.049 167.039 317.909C166.343 316.769 165.995 315.313 165.995 313.54C165.995 311.64 166.501 309.915 167.514 308.364C168.559 306.781 170.11 305.53 172.168 304.612C174.258 303.662 176.87 303.187 180.004 303.187C182.094 303.187 184.152 303.44 186.178 303.947C188.204 304.422 189.993 305.15 191.544 306.131L189.17 311.973C187.618 311.086 186.067 310.437 184.516 310.026C182.964 309.582 181.445 309.361 179.957 309.361C178.469 309.361 177.25 309.535 176.3 309.883C175.35 310.231 174.669 310.691 174.258 311.26C173.846 311.799 173.64 312.432 173.64 313.16C173.64 314.015 173.989 314.711 174.685 315.25C175.382 315.756 176.3 316.168 177.44 316.484C178.579 316.801 179.83 317.118 181.191 317.434C182.584 317.751 183.962 318.115 185.323 318.526C186.716 318.938 187.982 319.492 189.122 320.189C190.262 320.885 191.18 321.803 191.877 322.943C192.605 324.083 192.969 325.523 192.969 327.265C192.969 329.132 192.447 330.842 191.402 332.393C190.357 333.945 188.79 335.195 186.7 336.145C184.642 337.095 182.03 337.57 178.864 337.57Z" fill="#B7B7B7"/>
<rect width="165" height="217" transform="translate(149.5 25)" fill="white"/>
<path d="M202.282 211.686C199.823 211.686 197.449 211.406 195.158 210.848C192.867 210.289 190.981 209.562 189.5 208.668L192.685 201.46C194.082 202.271 195.633 202.927 197.337 203.43C199.069 203.905 200.745 204.142 202.366 204.142C203.316 204.142 204.056 204.087 204.587 203.975C205.146 203.835 205.551 203.653 205.802 203.43C206.054 203.179 206.179 202.885 206.179 202.55C206.179 202.019 205.886 201.6 205.299 201.293C204.713 200.985 203.93 200.734 202.952 200.538C202.003 200.315 200.955 200.091 199.809 199.868C198.664 199.616 197.504 199.295 196.331 198.904C195.186 198.513 194.124 197.996 193.146 197.353C192.196 196.711 191.428 195.873 190.841 194.839C190.254 193.777 189.961 192.464 189.961 190.9C189.961 189.084 190.464 187.435 191.47 185.954C192.503 184.446 194.026 183.244 196.038 182.35C198.077 181.456 200.606 181.009 203.623 181.009C205.607 181.009 207.562 181.219 209.49 181.638C211.418 182.057 213.15 182.7 214.687 183.566L211.711 190.732C210.258 190.005 208.847 189.461 207.478 189.097C206.137 188.734 204.824 188.553 203.539 188.553C202.589 188.553 201.835 188.637 201.276 188.804C200.717 188.972 200.312 189.195 200.061 189.475C199.837 189.754 199.726 190.061 199.726 190.397C199.726 190.9 200.019 191.305 200.606 191.612C201.192 191.891 201.961 192.129 202.911 192.324C203.888 192.52 204.95 192.73 206.096 192.953C207.269 193.177 208.428 193.484 209.574 193.875C210.719 194.266 211.767 194.783 212.717 195.426C213.695 196.068 214.477 196.906 215.064 197.94C215.651 198.974 215.944 200.259 215.944 201.796C215.944 203.584 215.427 205.232 214.393 206.741C213.387 208.221 211.879 209.423 209.867 210.345C207.856 211.239 205.327 211.686 202.282 211.686Z" fill="#ED1846"/>
<path d="M231.501 211.686C229.043 211.686 226.668 211.406 224.377 210.848C222.086 210.289 220.2 209.562 218.719 208.668L221.904 201.46C223.301 202.271 224.852 202.927 226.556 203.43C228.288 203.905 229.965 204.142 231.585 204.142C232.535 204.142 233.275 204.087 233.806 203.975C234.365 203.835 234.77 203.653 235.021 203.43C235.273 203.179 235.399 202.885 235.399 202.55C235.399 202.019 235.105 201.6 234.519 201.293C233.932 200.985 233.15 200.734 232.172 200.538C231.222 200.315 230.174 200.091 229.029 199.868C227.883 199.616 226.724 199.295 225.55 198.904C224.405 198.513 223.343 197.996 222.365 197.353C221.415 196.711 220.647 195.873 220.06 194.839C219.474 193.777 219.18 192.464 219.18 190.9C219.18 189.084 219.683 187.435 220.689 185.954C221.723 184.446 223.245 183.244 225.257 182.35C227.296 181.456 229.825 181.009 232.842 181.009C234.826 181.009 236.782 181.219 238.709 181.638C240.637 182.057 242.369 182.7 243.906 183.566L240.93 190.732C239.478 190.005 238.067 189.461 236.698 189.097C235.357 188.734 234.044 188.553 232.758 188.553C231.808 188.553 231.054 188.637 230.495 188.804C229.937 188.972 229.531 189.195 229.28 189.475C229.057 189.754 228.945 190.061 228.945 190.397C228.945 190.9 229.238 191.305 229.825 191.612C230.412 191.891 231.18 192.129 232.13 192.324C233.108 192.52 234.169 192.73 235.315 192.953C236.488 193.177 237.648 193.484 238.793 193.875C239.939 194.266 240.986 194.783 241.936 195.426C242.914 196.068 243.696 196.906 244.283 197.94C244.87 198.974 245.163 200.259 245.163 201.796C245.163 203.584 244.646 205.232 243.613 206.741C242.607 208.221 241.098 209.423 239.086 210.345C237.075 211.239 234.546 211.686 231.501 211.686Z" fill="#ED1846"/>
<path d="M249.363 211.015V181.68H263.486C266.224 181.68 268.585 182.127 270.569 183.021C272.58 183.915 274.131 185.2 275.221 186.876C276.31 188.525 276.855 190.48 276.855 192.743C276.855 195.007 276.31 196.962 275.221 198.611C274.131 200.231 272.58 201.474 270.569 202.34C268.585 203.206 266.224 203.64 263.486 203.64H254.853L259.254 199.574V211.015H249.363ZM266.923 211.015L259.715 200.329H270.192L277.484 211.015H266.923ZM259.254 200.664L254.853 196.18H262.858C264.227 196.18 265.233 195.873 265.875 195.258C266.546 194.643 266.881 193.805 266.881 192.743C266.881 191.682 266.546 190.844 265.875 190.229C265.233 189.614 264.227 189.307 262.858 189.307H254.853L259.254 184.823V200.664Z" fill="#ED1846"/>
<path fill-rule="evenodd" clip-rule="evenodd" d="M287.5 162.219L287.5 55.9367C287.5 55.4194 287.081 55 286.563 55H177.437C176.919 55 176.5 55.4194 176.5 55.9367V109.329C176.5 109.846 176.919 110.266 177.437 110.266H230.361C231.395 110.266 232.234 111.105 232.234 112.139L232.234 136.426C232.234 136.981 231.785 137.43 231.23 137.43H212.563C205.838 137.43 200.386 131.978 200.386 125.253V119.633C200.386 118.598 199.547 117.759 198.513 117.759H179.95C178.045 117.759 176.5 119.304 176.5 121.21L176.5 126.492C176.5 145.725 192.092 161.316 211.325 161.316C219.786 161.316 235.796 161.316 235.796 161.316H255.116C255.671 161.316 256.12 160.867 256.12 160.312V90.3629V87.3164C256.12 86.7991 255.701 86.3797 255.184 86.3797H201.323C200.805 86.3797 200.386 85.9604 200.386 85.443V79.8228C200.386 79.3054 200.805 78.8861 201.323 78.8861H261.741C262.775 78.8861 263.614 79.7248 263.614 80.7595L263.614 139.338C263.614 152.193 273.769 162.676 286.495 163.203C287.049 163.226 287.5 162.774 287.5 162.219Z" fill="#ED1846"/>
<path fill-rule="evenodd" clip-rule="evenodd" d="M394.294 348.462L394.294 296.954C394.294 296.703 394.091 296.5 393.84 296.5H340.954C340.703 296.5 340.5 296.703 340.5 296.954V322.829C340.5 323.08 340.703 323.283 340.954 323.283H366.603C367.104 323.283 367.51 323.69 367.51 324.191L367.51 335.962C367.51 336.23 367.293 336.448 367.024 336.448H357.977C354.718 336.448 352.076 333.806 352.076 330.547V327.823C352.076 327.322 351.669 326.915 351.168 326.915H342.172C341.249 326.915 340.5 327.664 340.5 328.587L340.5 331.147C340.5 340.468 348.056 348.024 357.377 348.024C361.478 348.024 369.237 348.024 369.237 348.024H378.6C378.868 348.024 379.086 347.806 379.086 347.537V313.638V312.162C379.086 311.911 378.883 311.708 378.632 311.708H352.53C352.279 311.708 352.076 311.504 352.076 311.254V308.53C352.076 308.279 352.279 308.076 352.53 308.076H381.81C382.312 308.076 382.718 308.482 382.718 308.984L382.718 337.372C382.718 343.602 387.64 348.683 393.807 348.938C394.075 348.949 394.294 348.73 394.294 348.462Z" fill="#ED1846"/>
<path d="M254.861 329.227L263.114 337.633C263.344 337.867 263.655 338 263.981 338L280.273 338C280.952 338 281.5 337.441 281.5 336.75L281.5 304.25C281.5 303.559 280.952 303 280.273 303L255.727 303C255.048 303 254.5 303.559 254.5 304.25L254.5 328.34C254.5 328.672 254.63 328.992 254.861 329.227ZM257.33 327.766L264.548 327.766L264.548 335.117L257.33 327.766ZM257.261 305.813L278.739 305.813L278.739 335.187L267.156 335.187L267.156 326.75C267.156 326.315 266.987 325.898 266.684 325.59C266.382 325.282 265.973 325.109 265.545 325.109L257.261 325.109L257.261 305.813Z" fill="#B7B7B7" stroke="#B7B7B7" stroke-width="2.5"/>
</svg>
