<svg width="282" height="217" viewBox="0 0 282 217" fill="none" xmlns="http://www.w3.org/2000/svg">
<path d="M30 185.999L42.8239 156.664H52.5466L65.3704 185.999H55.1449L45.6736 161.357H49.5292L40.0579 185.999H30ZM37.6273 180.887L40.1418 173.762H53.6362L56.1507 180.887H37.6273Z" fill="#ED1846"/>
<path d="M68.6252 185.999V156.664H76.7554L91.6747 174.517H87.9029V156.664H97.5418V185.999H89.4116L74.4923 168.147H78.2641V185.999H68.6252Z" fill="#ED1846"/>
<path d="M103.564 185.999V156.664H113.455V185.999H103.564Z" fill="#ED1846"/>
<path d="M119.054 185.999V156.664H127.184L138.919 175.816H134.644L146.043 156.664H154.173L154.257 185.999H145.247L145.163 170.242H146.588L138.793 183.359H134.434L126.304 170.242H128.064V185.999H119.054Z" fill="#ED1846"/>
<path d="M174.838 186.67C172.463 186.67 170.256 186.293 168.217 185.538C166.205 184.784 164.459 183.722 162.978 182.353C161.497 180.956 160.338 179.322 159.5 177.45C158.689 175.578 158.284 173.539 158.284 171.332C158.284 169.096 158.689 167.057 159.5 165.213C160.338 163.341 161.497 161.721 162.978 160.352C164.459 158.955 166.205 157.879 168.217 157.125C170.256 156.37 172.463 155.993 174.838 155.993C177.241 155.993 179.448 156.37 181.46 157.125C183.471 157.879 185.217 158.955 186.698 160.352C188.179 161.721 189.324 163.341 190.134 165.213C190.973 167.057 191.392 169.096 191.392 171.332C191.392 173.539 190.973 175.578 190.134 177.45C189.324 179.322 188.179 180.956 186.698 182.353C185.217 183.722 183.471 184.784 181.46 185.538C179.448 186.293 177.241 186.67 174.838 186.67ZM174.838 178.665C175.76 178.665 176.612 178.498 177.394 178.163C178.205 177.827 178.903 177.352 179.49 176.738C180.104 176.095 180.579 175.327 180.915 174.433C181.25 173.511 181.418 172.477 181.418 171.332C181.418 170.186 181.25 169.166 180.915 168.272C180.579 167.35 180.104 166.582 179.49 165.967C178.903 165.325 178.205 164.836 177.394 164.501C176.612 164.165 175.76 163.998 174.838 163.998C173.916 163.998 173.05 164.165 172.24 164.501C171.457 164.836 170.759 165.325 170.144 165.967C169.558 166.582 169.097 167.35 168.761 168.272C168.426 169.166 168.258 170.186 168.258 171.332C168.258 172.477 168.426 173.511 168.761 174.433C169.097 175.327 169.558 176.095 170.144 176.738C170.759 177.352 171.457 177.827 172.24 178.163C173.05 178.498 173.916 178.665 174.838 178.665Z" fill="#ED1846"/>
<path d="M195.401 185.999V156.664H209.524C212.262 156.664 214.622 157.111 216.606 158.005C218.618 158.899 220.168 160.184 221.258 161.86C222.347 163.509 222.892 165.464 222.892 167.727C222.892 169.99 222.347 171.946 221.258 173.595C220.168 175.215 218.618 176.458 216.606 177.324C214.622 178.19 212.262 178.624 209.524 178.624H200.89L205.291 174.558V185.999H195.401ZM212.96 185.999L205.752 175.313H216.229L223.521 185.999H212.96ZM205.291 175.648L200.89 171.164H208.895C210.264 171.164 211.27 170.857 211.912 170.242C212.583 169.627 212.918 168.789 212.918 167.727C212.918 166.666 212.583 165.828 211.912 165.213C211.27 164.598 210.264 164.291 208.895 164.291H200.89L205.291 159.807V175.648Z" fill="#ED1846"/>
<path d="M236.517 167.56H249.593V174.684H236.517V167.56ZM237.188 178.54H251.856V185.999H227.465V156.664H251.311V164.123H237.188V178.54Z" fill="#ED1846"/>
<path fill-rule="evenodd" clip-rule="evenodd" d="M169.682 100.608C170.302 100.967 170.302 101.863 169.682 102.221L96.7746 144.314C96.1538 144.673 95.3777 144.225 95.3777 143.508L95.3777 22.9327C95.3777 22.2158 96.1538 21.7677 96.7746 22.1262L201.23 82.4333C201.843 82.7874 201.852 83.6691 201.247 84.0362L195.45 87.5516C185.568 93.5436 173.208 93.6765 163.2 87.8984L120.523 63.2588C119.902 62.9003 119.126 63.3484 119.126 64.0653L119.126 102.375C119.126 103.092 119.902 103.54 120.523 103.182L127.774 98.9953C139.875 92.0082 154.786 92.0082 166.888 98.9953L169.682 100.608Z" fill="#ED1846"/>
</svg>
