<svg width="689" height="167" viewBox="0 0 689 167" fill="none" xmlns="http://www.w3.org/2000/svg">
<path d="M177.561 115.388L205.382 51.7441H226.475L254.297 115.388H232.112L211.564 61.9271H219.929L199.381 115.388H177.561ZM194.108 104.296L199.563 88.8393H228.839L234.294 104.296H194.108Z" fill="#ED1846"/>
<path d="M261.358 115.388V51.7441H278.996L311.363 90.4758H303.181V51.7441H324.092V115.388H306.454L274.086 76.6561H282.269V115.388H261.358Z" fill="#ED1846"/>
<path d="M337.158 115.388V51.7441H358.615V115.388H337.158Z" fill="#ED1846"/>
<path d="M370.763 115.388V51.7441H388.401L413.859 93.2943H404.585L429.315 51.7441H446.954L447.135 115.388H427.588L427.406 81.2021H430.497L413.586 109.66H404.13L386.492 81.2021H390.311V115.388H370.763Z" fill="#ED1846"/>
<path d="M491.786 116.842C486.634 116.842 481.846 116.024 477.421 114.388C473.057 112.751 469.268 110.448 466.056 107.478C462.843 104.447 460.328 100.901 458.51 96.8402C456.752 92.7791 455.873 88.3544 455.873 83.566C455.873 78.7169 456.752 74.2922 458.51 70.2917C460.328 66.2306 462.843 62.7151 466.056 59.7451C469.268 56.7144 473.057 54.3808 477.421 52.7443C481.846 51.1077 486.634 50.2894 491.786 50.2894C496.999 50.2894 501.787 51.1077 506.151 52.7443C510.515 54.3808 514.304 56.7144 517.516 59.7451C520.729 62.7151 523.214 66.2306 524.972 70.2917C526.79 74.2922 527.699 78.7169 527.699 83.566C527.699 88.3544 526.79 92.7791 524.972 96.8402C523.214 100.901 520.729 104.447 517.516 107.478C514.304 110.448 510.515 112.751 506.151 114.388C501.787 116.024 496.999 116.842 491.786 116.842ZM491.786 99.4769C493.786 99.4769 495.635 99.1132 497.332 98.3858C499.09 97.6585 500.605 96.6281 501.878 95.2946C503.212 93.9005 504.242 92.2336 504.969 90.294C505.697 88.2938 506.06 86.0511 506.06 83.566C506.06 81.0808 505.697 78.8685 504.969 76.9288C504.242 74.9286 503.212 73.2617 501.878 71.9283C500.605 70.5342 499.09 69.4734 497.332 68.7461C495.635 68.0187 493.786 67.655 491.786 67.655C489.786 67.655 487.907 68.0187 486.149 68.7461C484.452 69.4734 482.937 70.5342 481.603 71.9283C480.33 73.2617 479.33 74.9286 478.603 76.9288C477.875 78.8685 477.512 81.0808 477.512 83.566C477.512 86.0511 477.875 88.2938 478.603 90.294C479.33 92.2336 480.33 93.9005 481.603 95.2946C482.937 96.6281 484.452 97.6585 486.149 98.3858C487.907 99.1132 489.786 99.4769 491.786 99.4769Z" fill="#ED1846"/>
<path d="M536.396 115.388V51.7441H567.036C572.976 51.7441 578.098 52.7139 582.402 54.6536C586.766 56.5932 590.13 59.3814 592.494 63.0182C594.857 66.5943 596.039 70.8372 596.039 75.7469C596.039 80.6565 594.857 84.8994 592.494 88.4756C590.13 91.9912 586.766 94.6884 582.402 96.5674C578.098 98.4464 572.976 99.3859 567.036 99.3859H548.307L557.853 90.5668V115.388H536.396ZM574.492 115.388L558.853 92.2033H581.583L597.403 115.388H574.492ZM557.853 92.9307L548.307 83.2023H565.672C568.642 83.2023 570.824 82.5355 572.219 81.2021C573.673 79.8686 574.401 78.0502 574.401 75.7469C574.401 73.4436 573.673 71.6252 572.219 70.2917C570.824 68.9582 568.642 68.2915 565.672 68.2915H548.307L557.853 58.5631V92.9307Z" fill="#ED1846"/>
<path d="M625.599 75.3832H653.966V90.8395H625.599V75.3832ZM627.054 99.2041H658.875V115.388H605.96V51.7441H657.693V67.9278H627.054V99.2041Z" fill="#ED1846"/>
<path fill-rule="evenodd" clip-rule="evenodd" d="M115.28 100.959C115.901 101.317 115.901 102.213 115.28 102.572L42.3735 144.664C41.7526 145.023 40.9766 144.575 40.9766 143.858L40.9766 23.2835C40.9766 22.5666 41.7526 22.1185 42.3735 22.477L146.828 82.7838C147.441 83.1378 147.451 84.0195 146.845 84.3867L141.048 87.9021C131.167 93.894 118.806 94.0269 108.798 88.2489L66.1213 63.6094C65.5004 63.2509 64.7244 63.699 64.7244 64.4159L64.7244 102.725C64.7244 103.442 65.5004 103.89 66.1213 103.532L73.3722 99.3457C85.4741 92.3586 100.384 92.3586 112.486 99.3457L115.28 100.959Z" fill="#ED1846"/>
</svg>
