<svg width="107" height="123" viewBox="0 0 107 123" fill="none" xmlns="http://www.w3.org/2000/svg">
<path fill-rule="evenodd" clip-rule="evenodd" d="M74.385 78.6068C75.0059 78.9652 75.0059 79.8614 74.385 80.2198L1.47947 122.312C0.858618 122.67 0.0825586 122.222 0.0825586 121.505L0.08255 0.932665C0.08255 0.21577 0.858611 -0.232291 1.47946 0.126156L105.933 60.4322C106.546 60.7862 106.555 61.6679 105.95 62.035L100.153 65.5503C90.2715 71.5422 77.9109 71.6751 67.9033 65.8972L25.2269 41.258C24.6061 40.8995 23.83 41.3476 23.83 42.0645L23.83 80.3735C23.83 81.0904 24.6061 81.5385 25.2269 81.18L32.4777 76.9938C44.5795 70.0068 59.4895 70.0068 71.5912 76.9938L74.385 78.6068Z" fill="#ED1846"/>
</svg>
