<svg width="223" height="31" viewBox="0 0 223 31" fill="none" xmlns="http://www.w3.org/2000/svg">
<path d="M0.738739 30.0062L13.5626 0.670529H23.2853L36.1092 30.0062H25.8836L16.4124 5.36424H20.2679L10.7967 30.0062H0.738739ZM8.36602 24.8934L10.8805 17.769H24.3749L26.8894 24.8934H8.36602Z" fill="#ED1846"/>
<path d="M39.3639 30.0062V0.670529H47.4941L62.4134 18.5234H58.6417V0.670529H68.2805V30.0062H60.1504L45.2311 12.1534H49.0028V30.0062H39.3639Z" fill="#ED1846"/>
<path d="M74.3032 30.0062V0.670529H84.1935V30.0062H74.3032Z" fill="#ED1846"/>
<path d="M89.7928 30.0062V0.670529H97.923L109.657 19.8225H105.383L116.782 0.670529H124.912L124.996 30.0062H115.985L115.902 14.2488H117.326L109.532 27.366H105.173L97.0429 14.2488H98.8031V30.0062H89.7928Z" fill="#ED1846"/>
<path d="M145.577 30.6767C143.202 30.6767 140.995 30.2996 138.955 29.5452C136.944 28.7909 135.198 27.7292 133.717 26.3602C132.236 24.9633 131.077 23.3288 130.238 21.457C129.428 19.5851 129.023 17.5455 129.023 15.3384C129.023 13.1033 129.428 11.0637 130.238 9.21978C131.077 7.34789 132.236 5.72744 133.717 4.35844C135.198 2.96151 136.944 1.88586 138.955 1.13152C140.995 0.377174 143.202 0 145.577 0C147.98 0 150.187 0.377174 152.198 1.13152C154.21 1.88586 155.956 2.96151 157.437 4.35844C158.918 5.72744 160.063 7.34789 160.873 9.21978C161.711 11.0637 162.13 13.1033 162.13 15.3384C162.13 17.5455 161.711 19.5851 160.873 21.457C160.063 23.3288 158.918 24.9633 157.437 26.3602C155.956 27.7292 154.21 28.7909 152.198 29.5452C150.187 30.2996 147.98 30.6767 145.577 30.6767ZM145.577 22.6723C146.499 22.6723 147.351 22.5047 148.133 22.1694C148.943 21.8341 149.642 21.3592 150.229 20.7445C150.843 20.1019 151.318 19.3336 151.653 18.4396C151.989 17.5176 152.156 16.4839 152.156 15.3384C152.156 14.1929 151.989 13.1731 151.653 12.2791C151.318 11.3571 150.843 10.5888 150.229 9.97413C149.642 9.33154 148.943 8.84261 148.133 8.50735C147.351 8.17208 146.499 8.00445 145.577 8.00445C144.655 8.00445 143.789 8.17208 142.978 8.50735C142.196 8.84261 141.498 9.33154 140.883 9.97413C140.296 10.5888 139.835 11.3571 139.5 12.2791C139.165 13.1731 138.997 14.1929 138.997 15.3384C138.997 16.4839 139.165 17.5176 139.5 18.4396C139.835 19.3336 140.296 20.1019 140.883 20.7445C141.498 21.3592 142.196 21.8341 142.978 22.1694C143.789 22.5047 144.655 22.6723 145.577 22.6723Z" fill="#ED1846"/>
<path d="M166.139 30.0062V0.670529H180.262C183 0.670529 185.361 1.11755 187.345 2.01159C189.356 2.90563 190.907 4.19081 191.997 5.86713C193.086 7.51552 193.631 9.47123 193.631 11.7343C193.631 13.9973 193.086 15.953 191.997 17.6014C190.907 19.2219 189.356 20.4651 187.345 21.3312C185.361 22.1973 183 22.6304 180.262 22.6304H171.629L176.03 18.5653V30.0062H166.139ZM183.699 30.0062L176.491 19.3196H186.968L194.26 30.0062H183.699ZM176.03 19.6549L171.629 15.1707H179.634C181.003 15.1707 182.008 14.8634 182.651 14.2488C183.322 13.6341 183.657 12.7959 183.657 11.7343C183.657 10.6726 183.322 9.83444 182.651 9.21978C182.008 8.60513 181.003 8.29781 179.634 8.29781H171.629L176.03 3.81364V19.6549Z" fill="#ED1846"/>
<path d="M207.256 11.5666H220.331V18.691H207.256V11.5666ZM207.927 22.5466H222.594V30.0062H198.204V0.670529H222.05V8.13017H207.927V22.5466Z" fill="#ED1846"/>
</svg>
