<svg width="454" height="167" viewBox="0 0 454 167" fill="none" xmlns="http://www.w3.org/2000/svg">
<path d="M243.618 74.7794V74.5988C243.618 68.0885 241.623 63.3873 237.819 59.5893C233.38 55.1593 226.222 52.3564 214.987 52.3564H184V115.644H205.202V97.5622H209.732L221.691 115.644H245.881L231.114 94.1277C238.814 90.4199 243.618 84.0006 243.618 74.7794ZM222.507 76.3161C222.507 80.2044 219.426 82.4635 214.352 82.4635H205.202V70.0762H214.444C219.336 70.0762 222.507 72.0665 222.507 76.1355V76.3161ZM257.107 115.644H278.306V52.3563H257.107L257.107 115.644ZM325.323 51C305.754 51 290.622 65.6463 290.622 84.0003V84.181C290.622 102.534 305.572 117 325.142 117C344.713 117 359.842 102.354 359.842 84.0005V83.8198C359.842 65.4656 344.894 51 325.323 51ZM338.462 84.181C338.462 91.5955 333.388 98.2846 325.323 98.2841C317.17 98.2841 312.004 91.5031 312.004 84.0003V83.8197C312.004 76.4063 317.079 69.7151 325.142 69.7151C333.297 69.7151 338.462 76.4966 338.462 84.0003V84.181ZM365.9 52.3564V70.2588H384.565V115.643H405.764V70.2588H424.429V52.3563L365.9 52.3564Z" fill="#ED1846"/>
<path d="M30 31C30 30.4477 30.4477 30 31 30L105.321 30C125.026 30 140 45.9738 140 65.6786V69.6071C140 71.8163 138.209 73.6071 136 73.6071H119.214C118.11 73.6071 117.214 72.7117 117.214 71.6071V65.6786C117.214 59.1103 111.89 53.7857 105.321 53.7857H54.7857C54.2334 53.7857 53.7857 54.2334 53.7857 54.7857L53.7857 136.536C53.7857 137.088 53.3367 137.538 52.7849 137.515C40.1126 136.991 30 126.551 30 113.75L30 31Z" fill="#ED1846"/>
<path d="M74.6071 77.5714C74.0549 77.5714 73.605 78.0205 73.6278 78.5723C74.1524 91.2446 84.5916 101.357 97.3929 101.357H113.25C115.439 101.357 117.214 103.132 117.214 105.321V136.536C117.214 137.088 117.663 137.538 118.215 137.515C130.887 136.991 141 126.551 141 113.75V105.321C141 89.9955 128.576 77.5714 113.25 77.5714H74.6071Z" fill="#ED1846"/>
</svg>
