<svg width="152" height="152" viewBox="0 0 152 152" fill="none" xmlns="http://www.w3.org/2000/svg">
<rect width="152" height="152" fill="white"/>
<path d="M33.7429 34.5357C33.7429 34.0979 34.0978 33.7429 34.5356 33.7429H93.4571C109.079 33.7429 120.95 46.4069 120.95 62.0286V65.1432C120.95 66.8946 119.53 68.3144 117.779 68.3144H104.471C103.596 68.3144 102.886 67.6045 102.886 66.7288V62.0286C102.886 56.8214 98.6644 52.6001 93.4571 52.6001H53.3928C52.9549 52.6001 52.6 52.955 52.6 53.3929V118.204C52.6 118.642 52.244 118.998 51.8065 118.98C41.76 118.564 33.7429 110.288 33.7429 100.139L33.7429 34.5357Z" fill="#ED1846"/>
<path d="M69.1071 71.4572C68.6692 71.4572 68.3126 71.8132 68.3307 72.2507C68.7465 82.2972 77.0227 90.3144 87.1714 90.3144H99.7429C101.479 90.3144 102.886 91.7215 102.886 93.4572V118.204C102.886 118.642 103.242 118.998 103.679 118.98C113.726 118.564 121.743 110.288 121.743 100.139V93.4572C121.743 81.3069 111.893 71.4572 99.7429 71.4572H69.1071Z" fill="#ED1846"/>
</svg>
