<svg width="111" height="116" viewBox="0 0 111 116" fill="none" xmlns="http://www.w3.org/2000/svg">
<path d="M0 1C0 0.447715 0.447713 0 0.999997 0L75.3214 0C95.0262 0 110 15.9738 110 35.6786V39.6071C110 41.8163 108.209 43.6071 106 43.6071H89.2143C88.1097 43.6071 87.2143 42.7117 87.2143 41.6071V35.6786C87.2143 29.1103 81.8897 23.7857 75.3214 23.7857L24.7857 23.7857C24.2334 23.7857 23.7857 24.2334 23.7857 24.7857L23.7857 106.536C23.7857 107.088 23.3367 107.538 22.7849 107.515C10.1126 106.991 0 96.5512 0 83.75L0 1Z" fill="#ED1846"/>
<path d="M44.6071 47.5714C44.0549 47.5714 43.605 48.0205 43.6278 48.5723C44.1524 61.2446 54.5916 71.3571 67.3929 71.3571H83.25C85.4394 71.3571 87.2143 73.132 87.2143 75.3214V106.536C87.2143 107.088 87.6633 107.538 88.2151 107.515C100.887 106.991 111 96.5512 111 83.75V75.3214C111 59.9955 98.5759 47.5714 83.25 47.5714L44.6071 47.5714Z" fill="#ED1846"/>
</svg>
