<svg width="152" height="152" viewBox="0 0 152 152" fill="none" xmlns="http://www.w3.org/2000/svg">
<path d="M26 26.9369C26 26.4195 26.4195 26 26.9369 26L96.5714 26C115.034 26 129.063 40.9665 129.063 59.4286V63.1094C129.063 65.1792 127.385 66.8571 125.315 66.8571H109.588C108.553 66.8571 107.714 66.0182 107.714 64.9833V59.4286C107.714 53.2745 102.725 48.2857 96.5714 48.2857H49.2227C48.7052 48.2857 48.2857 48.7052 48.2857 49.2227L48.2857 125.817C48.2857 126.335 47.865 126.756 47.348 126.735C35.4748 126.243 26 116.462 26 104.468L26 26.9369Z" fill="#ED1846"/>
<path d="M67.7941 70.5714C67.2766 70.5714 66.8551 70.9921 66.8765 71.5092C67.368 83.3823 77.1489 92.8571 89.1429 92.8571H104C106.051 92.8571 107.714 94.5201 107.714 96.5714V125.817C107.714 126.335 108.135 126.756 108.652 126.735C120.525 126.243 130 116.462 130 104.468V96.5714C130 82.212 118.359 70.5714 104 70.5714H67.7941Z" fill="#ED1846"/>
</svg>
