<svg width="111" height="31" viewBox="0 0 111 31" fill="none" xmlns="http://www.w3.org/2000/svg">
<path d="M27.524 11.2137V11.1303C27.524 8.12462 26.6031 5.95422 24.8469 4.20076C22.7974 2.15552 19.4928 0.861498 14.3058 0.861498H8.26793e-07V30.0796H9.78831V21.7319H11.8797L17.4008 30.0799H28.5691L21.7512 20.1463C25.3064 18.4345 27.524 15.4708 27.524 11.2137ZM17.7777 11.9231C17.7777 13.7182 16.3555 14.7612 14.0127 14.7612H9.78831V9.04232H14.0554C16.3138 9.04232 17.7777 9.9612 17.7777 11.8397V11.9231ZM33.7515 30.0796H43.5389V0.861446H33.7518L33.7515 30.0796ZM65.2452 0.23529C56.2106 0.23529 49.2247 6.99714 49.2247 15.4707V15.5541C49.2247 24.0273 56.127 30.7058 65.1616 30.7059C74.1971 30.7059 81.1821 23.944 81.1821 15.4708V15.3874C81.1822 6.91371 74.2807 0.23529 65.2452 0.23529ZM71.3112 15.5541C71.3112 18.9773 68.9686 22.0655 65.2452 22.0652C61.4812 22.0652 59.0965 18.9346 59.0965 15.4707V15.3874C59.0965 11.9648 61.4392 8.87561 65.1617 8.87561C68.9266 8.87561 71.3112 12.0064 71.3112 15.4707V15.5541ZM83.979 0.861498V9.12661H92.5958V30.0796H102.383V9.12661H111V0.861446L83.979 0.861498Z" fill="#ED1846"/>
</svg>
