<svg width="171" height="217" viewBox="0 0 171 217" fill="none" xmlns="http://www.w3.org/2000/svg">
<path d="M57.524 167.214V167.13C57.524 164.125 56.6031 161.954 54.8469 160.201C52.7974 158.156 49.4928 156.862 44.3058 156.862H30V186.08H39.7883V177.732H41.8797L47.4008 186.08H58.5691L51.7512 176.146C55.3064 174.435 57.524 171.471 57.524 167.214ZM47.7777 167.923C47.7777 169.718 46.3555 170.761 44.0127 170.761H39.7883V165.042H44.0554C46.3138 165.042 47.7777 165.961 47.7777 167.84V167.923ZM63.7515 186.08H73.5389V156.862H63.7518L63.7515 186.08ZM95.2452 156.235C86.2106 156.235 79.2247 162.997 79.2247 171.471V171.554C79.2247 180.027 86.127 186.706 95.1616 186.706C104.197 186.706 111.182 179.944 111.182 171.471V171.387C111.182 162.914 104.281 156.235 95.2452 156.235ZM101.311 171.554C101.311 174.977 98.9686 178.066 95.2452 178.065C91.4812 178.065 89.0965 174.935 89.0965 171.471V171.387C89.0965 167.965 91.4392 164.876 95.1617 164.876C98.9266 164.876 101.311 168.006 101.311 171.471V171.554ZM113.979 156.862V165.127H122.596V186.08H132.383V165.127H141V156.862L113.979 156.862Z" fill="#ED1846"/>
<path d="M30 31C30 30.4477 30.4477 30 31 30L105.321 30C125.026 30 140 45.9738 140 65.6786V69.6071C140 71.8163 138.209 73.6071 136 73.6071H119.214C118.11 73.6071 117.214 72.7117 117.214 71.6071V65.6786C117.214 59.1103 111.89 53.7857 105.321 53.7857H54.7857C54.2334 53.7857 53.7857 54.2334 53.7857 54.7857L53.7857 136.536C53.7857 137.088 53.3367 137.538 52.7849 137.515C40.1126 136.991 30 126.551 30 113.75L30 31Z" fill="#ED1846"/>
<path d="M74.6071 77.5714C74.0549 77.5714 73.605 78.0205 73.6278 78.5723C74.1524 91.2446 84.5916 101.357 97.3929 101.357H113.25C115.439 101.357 117.214 103.132 117.214 105.321V136.536C117.214 137.088 117.663 137.538 118.215 137.515C130.887 136.991 141 126.551 141 113.75V105.321C141 89.9955 128.576 77.5714 113.25 77.5714H74.6071Z" fill="#ED1846"/>
</svg>
