<svg width="120" height="109" viewBox="0 0 120 109" fill="none" xmlns="http://www.w3.org/2000/svg">
<path d="M46.4115 53.5775C46.7752 53.9412 46.7752 54.5308 46.4115 54.8945L0.509121 100.797C0.258473 101.048 0.258476 101.454 0.509123 101.705C9.53242 110.728 24.1621 110.728 33.1854 101.705L79.9954 54.8945C80.3591 54.5308 80.3591 53.9412 79.9954 53.5775L33.1854 6.76747C24.1621 -2.25583 9.53243 -2.25582 0.509124 6.76748C0.258477 7.01813 0.258476 7.42451 0.509123 7.67515L46.4115 53.5775Z" fill="#ED1846"/>
<path d="M119.046 107.312C119.56 107.312 119.977 106.895 119.977 106.381V85.4273C119.977 84.3986 119.144 83.5647 118.115 83.5647H77.1956C64.4347 83.5647 54.09 93.9095 54.09 106.67C54.09 107.025 54.3773 107.312 54.7318 107.312H119.046Z" fill="#ED1846"/>
</svg>
