<svg width="180" height="217" viewBox="0 0 180 217" fill="none" xmlns="http://www.w3.org/2000/svg">
<path d="M69.0286 186.671C66.6818 186.671 64.5027 186.308 62.4911 185.581C60.5075 184.827 58.7753 183.765 57.2946 182.396C55.8418 181.027 54.7103 179.407 53.9001 177.535C53.0899 175.663 52.6848 173.596 52.6848 171.333C52.6848 169.07 53.0899 167.003 53.9001 165.131C54.7103 163.259 55.8418 161.638 57.2946 160.269C58.7753 158.9 60.5075 157.853 62.4911 157.126C64.5027 156.372 66.6818 155.995 69.0286 155.995C71.9063 155.995 74.4486 156.498 76.6558 157.504C78.8908 158.509 80.7347 159.962 82.1875 161.862L75.9433 167.436C75.0772 166.346 74.1134 165.508 73.0517 164.921C72.018 164.306 70.8446 163.999 69.5315 163.999C68.4978 163.999 67.5619 164.167 66.7237 164.502C65.8856 164.837 65.1592 165.326 64.5446 165.969C63.9579 166.611 63.4969 167.394 63.1616 168.316C62.8264 169.21 62.6587 170.215 62.6587 171.333C62.6587 172.45 62.8264 173.47 63.1616 174.392C63.4969 175.286 63.9579 176.054 64.5446 176.697C65.1592 177.34 65.8856 177.829 66.7237 178.164C67.5619 178.499 68.4978 178.667 69.5315 178.667C70.8446 178.667 72.018 178.373 73.0517 177.787C74.1134 177.172 75.0772 176.32 75.9433 175.23L82.1875 180.804C80.7347 182.676 78.8908 184.129 76.6558 185.162C74.4486 186.168 71.9063 186.671 69.0286 186.671Z" fill="#ED1846"/>
<path d="M86.7194 186V156.665H96.6095V178.331H109.852V186H86.7194Z" fill="#ED1846"/>
<path d="M114.26 186V156.665H124.15V186H114.26Z" fill="#ED1846"/>
<path d="M76.0903 82.2269C76.454 82.5906 76.454 83.1803 76.0903 83.5439L30.188 129.446C29.9373 129.697 29.9373 130.103 30.188 130.354C39.2113 139.377 53.841 139.377 62.8643 130.354L109.674 83.5439C110.038 83.1803 110.038 82.5906 109.674 82.2269L62.8642 35.4169C53.8409 26.3936 39.2113 26.3936 30.188 35.4169C29.9373 35.6675 29.9373 36.0739 30.188 36.3246L76.0903 82.2269Z" fill="#ED1846"/>
<path d="M148.725 135.962C149.239 135.962 149.656 135.545 149.656 135.03V114.077C149.656 113.048 148.822 112.214 147.794 112.214H106.874C94.1135 112.214 83.7688 122.559 83.7688 135.32C83.7688 135.674 84.0562 135.962 84.4106 135.962H148.725Z" fill="#ED1846"/>
</svg>
