<svg width="366" height="167" viewBox="0 0 366 167" fill="none" xmlns="http://www.w3.org/2000/svg">
<rect width="365" height="167" transform="translate(0.00292969)" fill="white"/>
<path d="M216.131 116.842C211.039 116.842 206.312 116.054 201.947 114.478C197.644 112.842 193.886 110.539 190.673 107.569C187.522 104.599 185.067 101.083 183.309 97.0219C181.551 92.9609 180.672 88.4755 180.672 83.5659C180.672 78.6562 181.551 74.1709 183.309 70.1098C185.067 66.0488 187.522 62.5332 190.673 59.5632C193.886 56.5932 197.644 54.3202 201.947 52.7443C206.312 51.1077 211.039 50.2894 216.131 50.2894C222.374 50.2894 227.89 51.3805 232.678 53.5625C237.527 55.7446 241.528 58.8964 244.68 63.0181L231.133 75.1104C229.254 72.7465 227.162 70.9281 224.859 69.6552C222.616 68.3217 220.071 67.655 217.222 67.655C214.979 67.655 212.949 68.0187 211.13 68.746C209.312 69.4734 207.736 70.5341 206.403 71.9282C205.13 73.3223 204.13 75.0195 203.402 77.0197C202.675 78.9593 202.311 81.1414 202.311 83.5659C202.311 85.9904 202.675 88.2028 203.402 90.203C204.13 92.1426 205.13 93.8094 206.403 95.2035C207.736 96.5976 209.312 97.6584 211.13 98.3857C212.949 99.1131 214.979 99.4767 217.222 99.4767C220.071 99.4767 222.616 98.8403 224.859 97.5674C227.162 96.234 229.254 94.3853 231.133 92.0214L244.68 104.114C241.528 108.175 237.527 111.327 232.678 113.569C227.89 115.751 222.374 116.842 216.131 116.842Z" fill="#ED1846"/>
<path d="M254.512 115.388V51.7441H275.969V98.7494H304.699V115.388H254.512Z" fill="#ED1846"/>
<path d="M314.263 115.388V51.7441H335.72V115.388H314.263Z" fill="#ED1846"/>
<path d="M71.2387 82.9139C71.6024 83.2776 71.6024 83.8672 71.2387 84.2309L25.3357 130.134C25.085 130.385 25.085 130.791 25.3357 131.042C34.3591 140.065 48.989 140.065 58.0125 131.042L104.823 84.2309C105.187 83.8672 105.187 83.2776 104.823 82.9139L58.0125 36.1031C48.989 27.0797 34.3591 27.0797 25.3357 36.1032C25.085 36.3538 25.085 36.7602 25.3357 37.0108L71.2387 82.9139Z" fill="#ED1846"/>
<path d="M143.875 136.649C144.389 136.649 144.806 136.232 144.806 135.718V114.764C144.806 113.735 143.972 112.902 142.943 112.902H102.023C89.2622 112.902 78.9173 123.246 78.9173 136.008C78.9173 136.362 79.2047 136.649 79.5592 136.649H143.875Z" fill="#ED1846"/>
</svg>
