<svg width="72" height="31" viewBox="0 0 72 31" fill="none" xmlns="http://www.w3.org/2000/svg">
<path d="M16.5349 30.6767C14.1881 30.6767 12.0089 30.3135 9.99727 29.5871C8.01362 28.8327 6.28143 27.771 4.80068 26.402C3.34787 25.0331 2.21635 23.4126 1.40613 21.5407C0.595907 19.6688 0.190796 17.6014 0.190796 15.3383C0.190796 13.0753 0.595907 11.0078 1.40613 9.13595C2.21635 7.26405 3.34787 5.64361 4.80068 4.27462C6.28143 2.90562 8.01362 1.85792 9.99727 1.13152C12.0089 0.377173 14.1881 0 16.5349 0C19.4126 0 21.955 0.502896 24.1622 1.50869C26.3973 2.51448 28.2412 3.96729 29.694 5.86712L23.4497 11.4409C22.5836 10.3513 21.6198 9.51312 20.5581 8.92641C19.5244 8.31176 18.3509 8.00443 17.0378 8.00443C16.0041 8.00443 15.0681 8.17206 14.23 8.50733C13.3918 8.84259 12.6654 9.33152 12.0508 9.97411C11.4641 10.6167 11.0031 11.399 10.6678 12.321C10.3325 13.215 10.1649 14.2208 10.1649 15.3383C10.1649 16.4559 10.3325 17.4756 10.6678 18.3976C11.0031 19.2917 11.4641 20.06 12.0508 20.7026C12.6654 21.3451 13.3918 21.8341 14.23 22.1693C15.0681 22.5046 16.0041 22.6722 17.0378 22.6722C18.3509 22.6722 19.5244 22.3789 20.5581 21.7922C21.6198 21.1775 22.5836 20.3254 23.4497 19.2358L29.694 24.8095C28.2412 26.6814 26.3973 28.1342 24.1622 29.168C21.955 30.1738 19.4126 30.6767 16.5349 30.6767Z" fill="#ED1846"/>
<path d="M34.226 30.0061V0.670528H44.1163V22.337H57.3592V30.0061H34.226Z" fill="#ED1846"/>
<path d="M61.7674 30.0061V0.670528H71.6577V30.0061H61.7674Z" fill="#ED1846"/>
</svg>
