<svg width="906" height="168" viewBox="0 0 906 168" fill="none" xmlns="http://www.w3.org/2000/svg">
<path d="M184.677 115.768V52.1709H216.013C223.098 52.1709 229.335 53.4732 234.725 56.0776C240.114 58.6215 244.322 62.2557 247.35 66.98C250.378 71.7044 251.892 77.3373 251.892 83.8788C251.892 90.4808 250.378 96.1743 247.35 100.959C244.322 105.684 240.114 109.348 234.725 111.952C229.335 114.496 223.098 115.768 216.013 115.768H184.677ZM206.113 99.0513H215.105C218.133 99.0513 220.767 98.4759 223.007 97.3251C225.309 96.1743 227.095 94.4783 228.366 92.2373C229.638 89.9357 230.274 87.1495 230.274 83.8788C230.274 80.6686 229.638 77.943 228.366 75.702C227.095 73.4609 225.309 71.765 223.007 70.6142C220.767 69.4634 218.133 68.888 215.105 68.888H206.113V99.0513Z" fill="#ED1846"/>
<path d="M293.054 117.222C287.907 117.222 283.123 116.404 278.703 114.769C274.343 113.134 270.558 110.832 267.349 107.864C264.139 104.836 261.626 101.292 259.81 97.2342C258.054 93.1761 257.176 88.7546 257.176 83.9696C257.176 79.1241 258.054 74.7026 259.81 70.705C261.626 66.6469 264.139 63.1339 267.349 60.166C270.558 57.1376 274.343 54.8057 278.703 53.1703C283.123 51.535 287.907 50.7173 293.054 50.7173C298.261 50.7173 303.045 51.535 307.405 53.1703C311.765 54.8057 315.55 57.1376 318.759 60.166C321.968 63.1339 324.451 66.6469 326.207 70.705C328.024 74.7026 328.932 79.1241 328.932 83.9696C328.932 88.7546 328.024 93.1761 326.207 97.2342C324.451 101.292 321.968 104.836 318.759 107.864C315.55 110.832 311.765 113.134 307.405 114.769C303.045 116.404 298.261 117.222 293.054 117.222ZM293.054 99.869C295.052 99.869 296.899 99.5056 298.595 98.7787C300.351 98.0519 301.864 97.0222 303.136 95.6897C304.468 94.2966 305.498 92.631 306.224 90.6928C306.951 88.694 307.314 86.453 307.314 83.9696C307.314 81.4863 306.951 79.2755 306.224 77.3373C305.498 75.3386 304.468 73.6729 303.136 72.3404C301.864 70.9473 300.351 69.8874 298.595 69.1605C296.899 68.4337 295.052 68.0703 293.054 68.0703C291.056 68.0703 289.178 68.4337 287.422 69.1605C285.727 69.8874 284.213 70.9473 282.881 72.3404C281.609 73.6729 280.61 75.3386 279.883 77.3373C279.157 79.2755 278.793 81.4863 278.793 83.9696C278.793 86.453 279.157 88.694 279.883 90.6928C280.61 92.631 281.609 94.2966 282.881 95.6897C284.213 97.0222 285.727 98.0519 287.422 98.7787C289.178 99.5056 291.056 99.869 293.054 99.869Z" fill="#ED1846"/>
<path d="M336.712 115.768V52.1709H354.334L379.766 93.6909H370.501L395.208 52.1709H412.829L413.01 115.768H393.482L393.3 81.6074H396.388L379.494 110.045H370.047L352.426 81.6074H356.241V115.768H336.712Z" fill="#ED1846"/>
<path d="M422.284 97.2342V81.7892H449.534V97.2342H422.284Z" fill="#ED1846"/>
<path d="M458.767 115.768V52.1709H492.737C501.518 52.1709 507.997 53.7457 512.175 56.8953C516.353 59.9843 518.443 63.9516 518.443 68.7971C518.443 72.0073 517.534 74.8843 515.718 77.4282C513.962 79.9115 511.388 81.88 507.997 83.3337C504.606 84.7873 500.428 85.5141 495.462 85.5141L497.279 80.6081C502.244 80.6081 506.513 81.3046 510.086 82.6977C513.719 84.0908 516.505 86.1198 518.443 88.7849C520.441 91.3893 521.44 94.5389 521.44 98.2336C521.44 103.745 519.139 108.046 514.537 111.135C509.995 114.224 503.334 115.768 494.554 115.768H458.767ZM479.839 100.778H492.737C495.099 100.778 496.855 100.354 498.006 99.5056C499.217 98.6576 499.822 97.4159 499.822 95.7806C499.822 94.1452 499.217 92.9035 498.006 92.0556C496.855 91.2076 495.099 90.7836 492.737 90.7836H478.386V76.6105H489.831C492.253 76.6105 494.009 76.2168 495.099 75.4294C496.249 74.5814 496.825 73.4004 496.825 71.8861C496.825 70.3113 496.249 69.1302 495.099 68.3428C494.009 67.5555 492.253 67.1618 489.831 67.1618H479.839V100.778Z" fill="#ED1846"/>
<path d="M529.019 115.768V52.1709H550.455V115.768H529.019Z" fill="#ED1846"/>
<path d="M560.774 115.768V52.1709H578.395L610.731 90.8745H602.556V52.1709H623.447V115.768H605.826L573.49 77.0648H581.665V115.768H560.774Z" fill="#ED1846"/>
<path d="M633.776 115.768V52.1709H665.113C672.197 52.1709 678.435 53.4732 683.824 56.0776C689.213 58.6215 693.422 62.2557 696.449 66.98C699.477 71.7044 700.991 77.3373 700.991 83.8788C700.991 90.4808 699.477 96.1743 696.449 100.959C693.422 105.684 689.213 109.348 683.824 111.952C678.435 114.496 672.197 115.768 665.113 115.768H633.776ZM655.212 99.0513H664.204C667.232 99.0513 669.866 98.4759 672.107 97.3251C674.408 96.1743 676.194 94.4783 677.466 92.2373C678.737 89.9357 679.373 87.1495 679.373 83.8788C679.373 80.6686 678.737 77.943 677.466 75.702C676.194 73.4609 674.408 71.765 672.107 70.6142C669.866 69.4634 667.232 68.888 664.204 68.888H655.212V99.0513Z" fill="#ED1846"/>
<path d="M708.818 115.768V52.1709H730.254V115.768H708.818Z" fill="#ED1846"/>
<path d="M740.573 115.768V52.1709H758.195L790.53 90.8745H782.356V52.1709H803.247V115.768H785.626L753.29 77.0648H761.465V115.768H740.573Z" fill="#ED1846"/>
<path d="M846.547 117.222C841.4 117.222 836.646 116.435 832.286 114.86C827.987 113.224 824.233 110.923 821.023 107.955C817.875 104.987 815.422 101.474 813.666 97.4159C811.91 93.3578 811.032 88.8757 811.032 83.9696C811.032 79.0635 811.91 74.5814 813.666 70.5233C815.422 66.4652 817.905 62.9522 821.114 59.9843C824.324 57.0165 828.108 54.7451 832.468 53.1703C836.889 51.535 841.733 50.7173 847.001 50.7173C853.299 50.7173 858.9 51.7772 863.805 53.8972C868.77 56.0171 872.858 59.0455 876.067 62.9825L862.352 75.066C860.353 72.7644 858.173 71.0382 855.812 69.8874C853.511 68.676 850.937 68.0703 848.091 68.0703C845.729 68.0703 843.58 68.4337 841.642 69.1605C839.765 69.8874 838.16 70.9473 836.828 72.3404C835.496 73.7335 834.466 75.3991 833.74 77.3373C833.013 79.2755 832.65 81.4863 832.65 83.9696C832.65 86.3318 833.013 88.5123 833.74 90.5111C834.466 92.4493 835.496 94.1149 836.828 95.508C838.16 96.9011 839.735 97.9913 841.551 98.7787C843.428 99.5056 845.518 99.869 847.819 99.869C850.241 99.869 852.602 99.4753 854.903 98.6879C857.204 97.8399 859.657 96.4165 862.261 94.4178L874.25 109.136C870.375 111.74 865.955 113.739 860.989 115.132C856.024 116.525 851.21 117.222 846.547 117.222ZM855.63 106.41V82.2434H874.25V109.136L855.63 106.41Z" fill="#ED1846"/>
<path d="M120.753 51.6478C121.117 51.6478 121.412 51.3527 121.412 50.9886C121.412 38.2469 111.086 27.9177 98.347 27.9177H35.3537C34.8399 27.9177 34.4233 28.3344 34.4233 28.8483V50.7172C34.4233 51.2312 34.8399 51.6478 35.3537 51.6478H120.753Z" fill="#ED1846"/>
<path d="M144.477 80.9614C144.841 80.9614 145.136 80.6663 145.136 80.3023C145.136 67.5606 134.81 57.2314 122.071 57.2314H35.3537C34.8399 57.2314 34.4233 57.648 34.4233 58.1619V80.0308C34.4233 80.5448 34.8399 80.9614 35.3537 80.9614H144.477Z" fill="#ED1846"/>
<path d="M145.136 87.2041C145.136 99.9459 134.81 110.275 122.071 110.275H35.3537C34.8399 110.275 34.4233 109.858 34.4233 109.344V87.4756C34.4233 86.9616 34.8399 86.545 35.3537 86.545H144.477C144.841 86.545 145.136 86.8401 145.136 87.2041Z" fill="#ED1846"/>
<path d="M98.347 139.589C111.086 139.589 121.412 129.259 121.412 116.518C121.412 116.154 121.117 115.859 120.753 115.859H35.3537C34.8399 115.859 34.4233 116.275 34.4233 116.789V138.658C34.4233 139.172 34.8399 139.589 35.3537 139.589H98.347Z" fill="#ED1846"/>
</svg>
