<svg width="379" height="217" viewBox="0 0 379 217" fill="none" xmlns="http://www.w3.org/2000/svg">
<path d="M29 186.009V156.426H43.5769C46.8725 156.426 49.7738 157.032 52.2808 158.243C54.7877 159.427 56.7454 161.117 58.1538 163.315C59.5622 165.512 60.2664 168.132 60.2664 171.175C60.2664 174.246 59.5622 176.895 58.1538 179.12C56.7454 181.318 54.7877 183.022 52.2808 184.234C49.7738 185.417 46.8725 186.009 43.5769 186.009H29ZM38.9714 178.233H43.1544C44.5628 178.233 45.7881 177.965 46.8303 177.43C47.9007 176.895 48.7316 176.106 49.3231 175.063C49.9147 173.993 50.2104 172.697 50.2104 171.175C50.2104 169.682 49.9147 168.414 49.3231 167.372C48.7316 166.329 47.9007 165.54 46.8303 165.005C45.7881 164.47 44.5628 164.202 43.1544 164.202H38.9714V178.233Z" fill="#ED1846"/>
<path d="M79.4137 186.685C77.0195 186.685 74.7942 186.305 72.7379 185.544C70.7098 184.783 68.9493 183.713 67.4564 182.332C65.9636 180.923 64.7946 179.275 63.9495 177.388C63.1327 175.5 62.7242 173.443 62.7242 171.217C62.7242 168.964 63.1327 166.907 63.9495 165.047C64.7946 163.16 65.9636 161.526 67.4564 160.145C68.9493 158.736 70.7098 157.652 72.7379 156.891C74.7942 156.13 77.0195 155.75 79.4137 155.75C81.8362 155.75 84.0614 156.13 86.0895 156.891C88.1176 157.652 89.8781 158.736 91.371 160.145C92.8639 161.526 94.0188 163.16 94.8356 165.047C95.6807 166.907 96.1032 168.964 96.1032 171.217C96.1032 173.443 95.6807 175.5 94.8356 177.388C94.0188 179.275 92.8639 180.923 91.371 182.332C89.8781 183.713 88.1176 184.783 86.0895 185.544C84.0614 186.305 81.8362 186.685 79.4137 186.685ZM79.4137 178.613C80.3433 178.613 81.2024 178.444 81.9911 178.106C82.808 177.768 83.5122 177.289 84.1037 176.669C84.7234 176.021 85.2022 175.246 85.5402 174.345C85.8783 173.415 86.0473 172.373 86.0473 171.217C86.0473 170.062 85.8783 169.034 85.5402 168.132C85.2022 167.203 84.7234 166.428 84.1037 165.808C83.5122 165.16 82.808 164.667 81.9911 164.329C81.2024 163.991 80.3433 163.822 79.4137 163.822C78.4842 163.822 77.611 163.991 76.7941 164.329C76.0054 164.667 75.3012 165.16 74.6815 165.808C74.09 166.428 73.6252 167.203 73.2872 168.132C72.9492 169.034 72.7802 170.062 72.7802 171.217C72.7802 172.373 72.9492 173.415 73.2872 174.345C73.6252 175.246 74.09 176.021 74.6815 176.669C75.3012 177.289 76.0054 177.768 76.7941 178.106C77.611 178.444 78.4842 178.613 79.4137 178.613Z" fill="#ED1846"/>
<path d="M99.7223 186.009V156.426H107.919L119.75 175.739H115.44L126.933 156.426H135.129L135.214 186.009H126.13L126.045 170.119H127.482L119.623 183.346H115.229L107.032 170.119H108.806V186.009H99.7223Z" fill="#ED1846"/>
<path d="M139.528 177.388V170.203H152.203V177.388H139.528Z" fill="#ED1846"/>
<path d="M156.498 186.009V156.426H172.3C176.385 156.426 179.399 157.159 181.342 158.624C183.286 160.061 184.258 161.906 184.258 164.16C184.258 165.653 183.835 166.991 182.99 168.175C182.173 169.33 180.976 170.245 179.399 170.922C177.821 171.598 175.878 171.936 173.568 171.936L174.413 169.654C176.723 169.654 178.709 169.978 180.371 170.626C182.061 171.274 183.356 172.218 184.258 173.457C185.187 174.669 185.652 176.134 185.652 177.852C185.652 180.416 184.582 182.417 182.441 183.853C180.328 185.29 177.23 186.009 173.145 186.009H156.498ZM166.301 179.036H172.3C173.399 179.036 174.216 178.839 174.751 178.444C175.314 178.05 175.596 177.472 175.596 176.711C175.596 175.951 175.314 175.373 174.751 174.979C174.216 174.584 173.399 174.387 172.3 174.387H165.625V167.794H170.948C172.075 167.794 172.892 167.611 173.399 167.245C173.934 166.851 174.202 166.301 174.202 165.597C174.202 164.864 173.934 164.315 173.399 163.949C172.892 163.582 172.075 163.399 170.948 163.399H166.301V179.036Z" fill="#ED1846"/>
<path d="M189.177 186.009V156.426H199.149V186.009H189.177Z" fill="#ED1846"/>
<path d="M203.949 186.009V156.426H212.146L227.188 174.429H223.385V156.426H233.103V186.009H224.906L209.864 168.006H213.667V186.009H203.949Z" fill="#ED1846"/>
<path d="M237.907 186.009V156.426H252.484C255.78 156.426 258.681 157.032 261.188 158.243C263.695 159.427 265.653 161.117 267.061 163.315C268.47 165.512 269.174 168.132 269.174 171.175C269.174 174.246 268.47 176.895 267.061 179.12C265.653 181.318 263.695 183.022 261.188 184.234C258.681 185.417 255.78 186.009 252.484 186.009H237.907ZM247.879 178.233H252.062C253.47 178.233 254.695 177.965 255.738 177.43C256.808 176.895 257.639 176.106 258.23 175.063C258.822 173.993 259.118 172.697 259.118 171.175C259.118 169.682 258.822 168.414 258.23 167.372C257.639 166.329 256.808 165.54 255.738 165.005C254.695 164.47 253.47 164.202 252.062 164.202H247.879V178.233Z" fill="#ED1846"/>
<path d="M272.815 186.009V156.426H282.786V186.009H272.815Z" fill="#ED1846"/>
<path d="M287.586 186.009V156.426H295.783L310.825 174.429H307.022V156.426H316.74V186.009H308.543L293.502 168.006H297.304V186.009H287.586Z" fill="#ED1846"/>
<path d="M336.882 186.685C334.488 186.685 332.277 186.319 330.248 185.586C328.249 184.825 326.502 183.755 325.009 182.374C323.544 180.994 322.404 179.36 321.587 177.472C320.77 175.584 320.362 173.5 320.362 171.217C320.362 168.935 320.77 166.851 321.587 164.963C322.404 163.075 323.559 161.441 325.051 160.061C326.544 158.68 328.305 157.624 330.333 156.891C332.389 156.13 334.643 155.75 337.093 155.75C340.023 155.75 342.628 156.243 344.91 157.229C347.22 158.215 349.121 159.624 350.614 161.455L344.234 167.076C343.304 166.005 342.29 165.202 341.192 164.667C340.121 164.104 338.924 163.822 337.6 163.822C336.502 163.822 335.502 163.991 334.6 164.329C333.727 164.667 332.981 165.16 332.361 165.808C331.741 166.456 331.262 167.231 330.924 168.132C330.586 169.034 330.417 170.062 330.417 171.217C330.417 172.316 330.586 173.331 330.924 174.26C331.262 175.162 331.741 175.937 332.361 176.585C332.981 177.233 333.713 177.74 334.558 178.106C335.431 178.444 336.403 178.613 337.474 178.613C338.6 178.613 339.699 178.43 340.769 178.064C341.84 177.669 342.98 177.007 344.192 176.077L349.769 182.924C347.966 184.135 345.91 185.065 343.6 185.713C341.29 186.361 339.051 186.685 336.882 186.685ZM341.107 181.656V170.415H349.769V182.924L341.107 181.656Z" fill="#ED1846"/>
<path d="M222.172 50.8348C222.54 50.8348 222.838 50.537 222.838 50.1696C222.838 37.3109 212.416 26.887 199.56 26.887H135.987C135.468 26.887 135.048 27.3074 135.048 27.8261V49.8957C135.048 50.4143 135.468 50.8348 135.987 50.8348H222.172Z" fill="#ED1846"/>
<path d="M246.115 80.4174C246.483 80.4174 246.78 80.1196 246.78 79.7522C246.78 66.8936 236.359 56.4696 223.503 56.4696H135.987C135.468 56.4696 135.048 56.89 135.048 57.4087V79.4783C135.048 79.9969 135.468 80.4174 135.987 80.4174H246.115Z" fill="#ED1846"/>
<path d="M246.78 86.7174C246.78 99.576 236.359 110 223.503 110H135.987C135.468 110 135.048 109.58 135.048 109.061V86.9913C135.048 86.4726 135.468 86.0522 135.987 86.0522H246.115C246.483 86.0522 246.78 86.35 246.78 86.7174Z" fill="#ED1846"/>
<path d="M199.56 139.583C212.416 139.583 222.838 129.159 222.838 116.3C222.838 115.933 222.54 115.635 222.172 115.635H135.987C135.468 115.635 135.048 116.055 135.048 116.574V138.643C135.048 139.162 135.468 139.583 135.987 139.583H199.56Z" fill="#ED1846"/>
</svg>
