<svg width="603" height="168" viewBox="0 0 603 168" fill="none" xmlns="http://www.w3.org/2000/svg">
<path d="M47.4651 84.4961C47.1017 84.1327 47.1017 83.5435 47.4651 83.1801L72.8638 57.776C81.5837 49.0543 81.5837 34.9136 72.8638 26.1919L72.5349 25.8629C72.1716 25.4995 71.5825 25.4995 71.2192 25.8629L29.5382 67.5525C20.5458 76.5468 20.5459 91.1293 29.5382 100.124L71.2192 141.813C71.5825 142.177 72.1716 142.177 72.5349 141.813L72.8638 141.484C81.5837 132.763 81.5838 118.622 72.8639 109.9L47.4651 84.4961Z" fill="#ED1846"/>
<path d="M122.506 84.4961C122.87 84.1327 122.87 83.5435 122.506 83.1801L97.1077 57.776C88.3878 49.0543 88.3878 34.9136 97.1077 26.1919L97.4366 25.8629C97.7999 25.4995 98.389 25.4995 98.7523 25.8629L140.433 67.5525C149.426 76.5468 149.426 91.1293 140.433 100.124L98.7523 141.813C98.389 142.177 97.7999 142.177 97.4366 141.813L97.1077 141.484C88.3878 132.763 88.3878 118.622 97.1077 109.9L122.506 84.4961Z" fill="#ED1846"/>
<path d="M183.747 114.833V51.2383H214.357C220.291 51.2383 225.408 52.2073 229.707 54.1455C234.067 56.0836 237.428 58.8697 239.789 62.5037C242.151 66.0771 243.332 70.3167 243.332 75.2226C243.332 80.1285 242.151 84.3682 239.789 87.9416C237.428 91.5151 234.067 94.3011 229.707 96.2998C225.408 98.238 220.291 99.207 214.357 99.207H195.645L205.183 90.0312V114.833H183.747ZM205.183 92.3933L195.645 82.6723H212.994C215.961 82.6723 218.141 82.0061 219.534 80.6736C220.987 79.3412 221.714 77.5242 221.714 75.2226C221.714 72.9211 220.987 71.1041 219.534 69.7716C218.141 68.4392 215.961 67.773 212.994 67.773H195.645L205.183 58.052V92.3933Z" fill="#ED1846"/>
<path d="M237.079 114.833L264.874 51.2383H285.946L313.741 114.833H291.578L271.05 61.4135H279.407L258.879 114.833H237.079ZM253.611 103.75L259.06 88.305H288.308L293.758 103.75H253.611Z" fill="#ED1846"/>
<path d="M318.978 114.833V51.2383H349.588C355.523 51.2383 360.64 52.2073 364.939 54.1455C369.299 56.0836 372.66 58.8697 375.021 62.5037C377.383 66.0771 378.564 70.3167 378.564 75.2226C378.564 80.1285 377.383 84.3682 375.021 87.9416C372.66 91.4545 369.299 94.1497 364.939 96.0273C360.64 97.9048 355.523 98.8436 349.588 98.8436H330.877L340.415 90.0312V114.833H318.978ZM357.037 114.833L341.414 91.6665H364.121L379.926 114.833H357.037ZM340.415 92.3933L330.877 82.6723H348.226C351.193 82.6723 353.373 82.0061 354.766 80.6736C356.219 79.3412 356.946 77.5242 356.946 75.2226C356.946 72.9211 356.219 71.1041 354.766 69.7716C353.373 68.4392 351.193 67.773 348.226 67.773H330.877L340.415 58.052V92.3933Z" fill="#ED1846"/>
<path d="M412.182 116.287C406.853 116.287 401.706 115.681 396.74 114.47C391.775 113.258 387.688 111.684 384.478 109.746L391.381 94.1194C394.409 95.8759 397.77 97.2992 401.464 98.3894C405.218 99.419 408.851 99.9338 412.363 99.9338C414.422 99.9338 416.027 99.8127 417.177 99.5704C418.388 99.2676 419.267 98.8739 419.811 98.3894C420.356 97.8443 420.629 97.2083 420.629 96.4815C420.629 95.3308 419.993 94.4223 418.722 93.756C417.45 93.0898 415.754 92.5447 413.635 92.1207C411.576 91.6362 409.305 91.1517 406.823 90.6671C404.34 90.122 401.827 89.4255 399.284 88.5776C396.801 87.7296 394.5 86.6092 392.381 85.2161C390.322 83.8231 388.656 82.0061 387.385 79.7651C386.113 77.4636 385.477 74.617 385.477 71.2253C385.477 67.2884 386.567 63.715 388.747 60.505C390.988 57.2344 394.288 54.63 398.648 52.6919C403.068 50.7537 408.548 49.7847 415.088 49.7847C419.388 49.7847 423.626 50.2389 427.805 51.1474C431.983 52.0559 435.737 53.4489 439.068 55.3265L432.619 70.8618C429.47 69.2871 426.412 68.1061 423.445 67.3187C420.538 66.5313 417.692 66.1377 414.907 66.1377C412.848 66.1377 411.213 66.3194 410.002 66.6828C408.791 67.0461 407.913 67.5307 407.368 68.1364C406.883 68.742 406.641 69.4083 406.641 70.135C406.641 71.2252 407.277 72.1035 408.548 72.7697C409.82 73.3754 411.485 73.8902 413.544 74.3141C415.664 74.7381 417.965 75.1924 420.447 75.6769C422.991 76.1614 425.504 76.8277 427.986 77.6756C430.469 78.5235 432.74 79.644 434.799 81.037C436.918 82.4301 438.614 84.2471 439.885 86.488C441.157 88.729 441.793 91.5151 441.793 94.8462C441.793 98.7225 440.672 102.296 438.432 105.567C436.252 108.777 432.982 111.381 428.622 113.38C424.262 115.318 418.782 116.287 412.182 116.287Z" fill="#ED1846"/>
<path d="M468.699 74.8592H497.038V90.3037H468.699V74.8592ZM470.152 98.6619H501.943V114.833H449.08V51.2383H500.763V67.4096H470.152V98.6619Z" fill="#ED1846"/>
<path d="M512.012 114.833V51.2383H542.622C548.556 51.2383 553.673 52.2073 557.973 54.1455C562.333 56.0836 565.693 58.8697 568.055 62.5037C570.416 66.0771 571.597 70.3167 571.597 75.2226C571.597 80.1285 570.416 84.3682 568.055 87.9416C565.693 91.4545 562.333 94.1497 557.973 96.0273C553.673 97.9048 548.556 98.8436 542.622 98.8436H523.911L533.448 90.0312V114.833H512.012ZM550.07 114.833L534.447 91.6665H557.155L572.96 114.833H550.07ZM533.448 92.3933L523.911 82.6723H541.26C544.227 82.6723 546.407 82.0061 547.8 80.6736C549.253 79.3412 549.979 77.5242 549.979 75.2226C549.979 72.9211 549.253 71.1041 547.8 69.7716C546.407 68.4392 544.227 67.773 541.26 67.773H523.911L533.448 58.052V92.3933Z" fill="#ED1846"/>
</svg>
