<svg width="238" height="217" viewBox="0 0 238 217" fill="none" xmlns="http://www.w3.org/2000/svg">
<path d="M80.9435 83.8905C80.5768 83.5232 80.5768 82.9275 80.9435 82.5602L106.576 56.8788C115.376 48.062 115.376 33.7669 106.576 24.95L106.244 24.6174C105.878 24.2501 105.283 24.2501 104.916 24.6174L62.8516 66.7621C53.7764 75.8545 53.7764 90.5962 62.8516 99.6886L104.916 141.833C105.283 142.201 105.878 142.201 106.244 141.833L106.576 141.501C115.376 132.684 115.376 118.389 106.576 109.572L80.9435 83.8905Z" fill="#ED1846"/>
<path d="M156.676 83.8905C157.043 83.5232 157.043 82.9275 156.676 82.5602L131.043 56.8788C122.243 48.062 122.243 33.7669 131.043 24.95L131.375 24.6174C131.742 24.2501 132.336 24.2501 132.703 24.6174L174.768 66.7621C183.843 75.8545 183.843 90.5962 174.768 99.6886L132.703 141.833C132.336 142.201 131.742 142.201 131.375 141.833L131.043 141.501C122.243 132.684 122.243 118.389 131.043 109.572L156.676 83.8905Z" fill="#ED1846"/>
<path d="M28.168 184.82V155.188H42.4068C45.1673 155.188 47.5475 155.639 49.5474 156.542C51.5755 157.446 53.1388 158.744 54.2374 160.437C55.3359 162.102 55.8852 164.078 55.8852 166.363C55.8852 168.649 55.3359 170.625 54.2374 172.29C53.1388 173.955 51.5755 175.253 49.5474 176.184C47.5475 177.088 45.1673 177.539 42.4068 177.539H33.703L38.1394 173.264V184.82H28.168ZM38.1394 174.364L33.703 169.835H41.7731C43.1533 169.835 44.1673 169.524 44.8152 168.903C45.4912 168.283 45.8292 167.436 45.8292 166.363C45.8292 165.291 45.4912 164.444 44.8152 163.824C44.1673 163.203 43.1533 162.892 41.7731 162.892H33.703L38.1394 158.363V174.364Z" fill="#ED1846"/>
<path d="M52.9767 184.82L65.9058 155.188H75.7082L88.6373 184.82H78.3279L68.7789 159.929H72.6661L63.1172 184.82H52.9767ZM60.6666 179.656L63.2017 172.459H76.8068L79.3419 179.656H60.6666Z" fill="#ED1846"/>
<path d="M91.0737 184.82V155.188H105.313C108.073 155.188 110.453 155.639 112.453 156.542C114.481 157.446 116.045 158.744 117.143 160.437C118.242 162.102 118.791 164.078 118.791 166.363C118.791 168.649 118.242 170.625 117.143 172.29C116.045 173.927 114.481 175.183 112.453 176.057C110.453 176.932 108.073 177.37 105.313 177.37H96.6087L101.045 173.264V184.82H91.0737ZM108.777 184.82L101.51 174.026H112.073L119.425 184.82H108.777ZM101.045 174.364L96.6087 169.835H104.679C106.059 169.835 107.073 169.524 107.721 168.903C108.397 168.283 108.735 167.436 108.735 166.363C108.735 165.291 108.397 164.444 107.721 163.824C107.073 163.203 106.059 162.892 104.679 162.892H96.6087L101.045 158.363V174.364Z" fill="#ED1846"/>
<path d="M134.429 185.498C131.95 185.498 129.556 185.215 127.246 184.651C124.936 184.086 123.035 183.353 121.542 182.45L124.753 175.169C126.162 175.987 127.725 176.65 129.443 177.158C131.19 177.638 132.88 177.878 134.514 177.878C135.471 177.878 136.218 177.821 136.753 177.708C137.316 177.567 137.725 177.384 137.978 177.158C138.232 176.904 138.358 176.608 138.358 176.269C138.358 175.733 138.063 175.31 137.471 174.999C136.88 174.689 136.091 174.435 135.105 174.237C134.147 174.011 133.091 173.786 131.936 173.56C130.781 173.306 129.612 172.981 128.429 172.586C127.274 172.191 126.204 171.669 125.218 171.02C124.26 170.371 123.486 169.524 122.894 168.48C122.303 167.408 122.007 166.081 122.007 164.501C122.007 162.666 122.514 161.001 123.528 159.506C124.57 157.982 126.105 156.768 128.134 155.865C130.19 154.962 132.739 154.51 135.781 154.51C137.781 154.51 139.753 154.722 141.696 155.145C143.64 155.569 145.386 156.218 146.936 157.093L143.936 164.332C142.471 163.598 141.049 163.047 139.668 162.681C138.316 162.314 136.992 162.13 135.697 162.13C134.739 162.13 133.978 162.215 133.415 162.384C132.852 162.554 132.443 162.779 132.19 163.062C131.964 163.344 131.852 163.654 131.852 163.993C131.852 164.501 132.147 164.91 132.739 165.22C133.331 165.503 134.105 165.743 135.063 165.94C136.049 166.138 137.119 166.349 138.274 166.575C139.457 166.801 140.626 167.111 141.781 167.506C142.936 167.902 143.992 168.424 144.95 169.073C145.936 169.722 146.724 170.568 147.316 171.613C147.907 172.657 148.203 173.955 148.203 175.507C148.203 177.313 147.682 178.978 146.64 180.502C145.626 181.998 144.105 183.212 142.077 184.143C140.049 185.046 137.499 185.498 134.429 185.498Z" fill="#ED1846"/>
<path d="M160.719 166.194H173.902V173.391H160.719V166.194ZM161.395 177.285H176.183V184.82H151.593V155.188H175.634V162.723H161.395V177.285Z" fill="#ED1846"/>
<path d="M180.867 184.82V155.188H195.106C197.866 155.188 200.247 155.639 202.247 156.542C204.275 157.446 205.838 158.744 206.937 160.437C208.035 162.102 208.584 164.078 208.584 166.363C208.584 168.649 208.035 170.625 206.937 172.29C205.838 173.927 204.275 175.183 202.247 176.057C200.247 176.932 197.866 177.37 195.106 177.37H186.402L190.839 173.264V184.82H180.867ZM198.571 184.82L191.303 174.026H201.866L209.218 184.82H198.571ZM190.839 174.364L186.402 169.835H194.472C195.852 169.835 196.867 169.524 197.514 168.903C198.19 168.283 198.528 167.436 198.528 166.363C198.528 165.291 198.19 164.444 197.514 163.824C196.867 163.203 195.852 162.892 194.472 162.892H186.402L190.839 158.363V174.364Z" fill="#ED1846"/>
</svg>
