<svg width="720" height="167" viewBox="0 0 720 167" fill="none" xmlns="http://www.w3.org/2000/svg">
<path d="M216.675 117.165C211.588 117.165 206.865 116.378 202.505 114.804C198.206 113.17 194.451 110.869 191.242 107.903C188.093 104.936 185.641 101.425 183.885 97.3689C182.129 93.3127 181.25 88.8328 181.25 83.9291C181.25 79.0253 182.129 74.5454 183.885 70.4892C185.641 66.4331 188.093 62.9218 191.242 59.9553C194.451 56.9889 198.206 54.7186 202.505 53.1446C206.865 51.51 211.588 50.6927 216.675 50.6927C222.912 50.6927 228.422 51.7825 233.206 53.9619C238.05 56.1413 242.047 59.2894 245.196 63.4061L231.662 75.4838C229.785 73.1227 227.695 71.3065 225.394 70.0352C223.154 68.7033 220.611 68.0374 217.765 68.0374C215.524 68.0374 213.496 68.4006 211.679 69.1271C209.862 69.8536 208.288 70.913 206.956 72.3054C205.684 73.6978 204.685 75.393 203.958 77.3908C203.232 79.328 202.868 81.5075 202.868 83.9291C202.868 86.3506 203.232 88.5603 203.958 90.5582C204.685 92.4954 205.684 94.1603 206.956 95.5527C208.288 96.9451 209.862 98.0045 211.679 98.731C213.496 99.4575 215.524 99.8207 217.765 99.8207C220.611 99.8207 223.154 99.1851 225.394 97.9137C227.695 96.5819 229.785 94.7354 231.662 92.3743L245.196 104.452C242.047 108.508 238.05 111.656 233.206 113.896C228.422 116.076 222.912 117.165 216.675 117.165Z" fill="#ED1846"/>
<path d="M283.389 117.165C278.242 117.165 273.458 116.348 269.038 114.714C264.678 113.079 260.893 110.778 257.684 107.812C254.475 104.785 251.962 101.243 250.145 97.1873C248.389 93.1311 247.511 88.7117 247.511 83.9291C247.511 79.0859 248.389 74.6665 250.145 70.6709C251.962 66.6147 254.475 63.1034 257.684 60.1369C260.893 57.11 264.678 54.7792 269.038 53.1446C273.458 51.51 278.242 50.6927 283.389 50.6927C288.597 50.6927 293.381 51.51 297.741 53.1446C302.1 54.7792 305.885 57.11 309.094 60.1369C312.304 63.1034 314.787 66.6147 316.543 70.6709C318.359 74.6665 319.268 79.0859 319.268 83.9291C319.268 88.7117 318.359 93.1311 316.543 97.1873C314.787 101.243 312.304 104.785 309.094 107.812C305.885 110.778 302.1 113.079 297.741 114.714C293.381 116.348 288.597 117.165 283.389 117.165ZM283.389 99.8207C285.388 99.8207 287.234 99.4575 288.93 98.731C290.686 98.0045 292.2 96.9754 293.472 95.6435C294.804 94.2511 295.833 92.5862 296.56 90.649C297.286 88.6511 297.65 86.4112 297.65 83.9291C297.65 81.4469 297.286 79.2372 296.56 77.3C295.833 75.3021 294.804 73.6373 293.472 72.3054C292.2 70.913 290.686 69.8536 288.93 69.1271C287.234 68.4006 285.388 68.0374 283.389 68.0374C281.391 68.0374 279.514 68.4006 277.758 69.1271C276.062 69.8536 274.548 70.913 273.216 72.3054C271.945 73.6373 270.945 75.3021 270.219 77.3C269.492 79.2372 269.129 81.4469 269.129 83.9291C269.129 86.4112 269.492 88.6511 270.219 90.649C270.945 92.5862 271.945 94.2511 273.216 95.6435C274.548 96.9754 276.062 98.0045 277.758 98.731C279.514 99.4575 281.391 99.8207 283.389 99.8207Z" fill="#ED1846"/>
<path d="M327.048 115.712V52.1457H344.669L370.102 93.6457H360.837L385.543 52.1457H403.164L403.346 115.712H383.817L383.635 81.568H386.724L369.829 109.991H360.383L342.762 81.568H346.576V115.712H327.048Z" fill="#ED1846"/>
<path d="M413.71 115.712V52.1457H444.32C450.254 52.1457 455.371 53.1143 459.67 55.0516C464.03 56.9889 467.391 59.7737 469.753 63.4061C472.114 66.9779 473.295 71.2157 473.295 76.1194C473.295 81.0231 472.114 85.2609 469.753 88.8328C467.391 92.4046 464.03 95.1894 459.67 97.1873C455.371 99.1245 450.254 100.093 444.32 100.093H425.609L435.146 90.9214V115.712H413.71ZM435.146 93.2824L425.609 83.5658H442.957C445.925 83.5658 448.104 82.8999 449.497 81.568C450.951 80.2361 451.677 78.4199 451.677 76.1194C451.677 73.8189 450.951 72.0027 449.497 70.6709C448.104 69.339 445.925 68.673 442.957 68.673H425.609L435.146 58.9564V93.2824Z" fill="#ED1846"/>
<path d="M480.325 115.712V52.1457H501.761V115.712H480.325Z" fill="#ED1846"/>
<path d="M512.081 115.712V52.1457H533.517V99.0943H562.219V115.712H512.081Z" fill="#ED1846"/>
<path d="M587.76 75.7562H616.099V91.1938H587.76V75.7562ZM589.213 99.5483H621.004V115.712H568.14V52.1457H619.823V68.3098H589.213V99.5483Z" fill="#ED1846"/>
<path d="M629.256 115.712V52.1457H659.866C665.8 52.1457 670.917 53.1143 675.217 55.0516C679.576 56.9889 682.937 59.7737 685.299 63.4061C687.66 66.9779 688.841 71.2157 688.841 76.1194C688.841 81.0231 687.66 85.2609 685.299 88.8328C682.937 92.3441 679.576 95.0381 675.217 96.9148C670.917 98.7916 665.8 99.7299 659.866 99.7299H641.155L650.692 90.9214V115.712H629.256ZM667.314 115.712L651.691 92.556H674.399L690.204 115.712H667.314ZM650.692 93.2824L641.155 83.5658H658.504C661.471 83.5658 663.651 82.8999 665.043 81.568C666.497 80.2361 667.223 78.4199 667.223 76.1194C667.223 73.8189 666.497 72.0027 665.043 70.6709C663.651 69.339 661.471 68.673 658.504 68.673H641.155L650.692 58.9564V93.2824Z" fill="#ED1846"/>
<path d="M140.08 27.9043C140.444 27.9043 140.739 28.1993 140.739 28.5632C140.739 41.2987 130.413 51.6229 117.674 51.6229L71.7064 51.6229C71.374 51.6229 71.0669 51.8002 70.9007 52.088L52.9341 83.1998C52.7679 83.4875 52.7679 83.8421 52.9341 84.1299L70.9007 115.242C71.0669 115.529 71.374 115.707 71.7064 115.707L117.674 115.707C130.413 115.707 140.739 126.031 140.739 138.767C140.739 139.13 140.444 139.425 140.08 139.425L58.0092 139.425C57.6768 139.425 57.3697 139.248 57.2035 138.96L25.5397 84.1299C25.3735 83.8421 25.3735 83.4875 25.5397 83.1998L57.2035 28.3694C57.3697 28.0816 57.6768 27.9043 58.0092 27.9043L140.08 27.9043Z" fill="#ED1846"/>
<path d="M86.9076 83.7128C86.9076 82.1659 88.1596 80.9224 89.691 80.9224H97.1028C109.841 80.9224 120.168 70.5982 120.168 57.8626C120.168 57.4988 119.873 57.2038 119.509 57.2038H89.691C75.0454 57.2038 63.1834 69.0781 63.1834 83.7128C63.1834 98.3475 75.0454 110.222 89.691 110.222H119.509C119.873 110.222 120.168 109.927 120.168 109.563C120.168 96.8275 109.841 86.5033 97.1028 86.5033H89.691C88.1596 86.5033 86.9076 85.2598 86.9076 83.7128Z" fill="#ED1846"/>
</svg>
