<svg width="89" height="31" viewBox="0 0 89 31" fill="none" xmlns="http://www.w3.org/2000/svg">
<path d="M12.9895 30.6764C10.5309 30.6764 8.15614 30.3971 5.86518 29.8383C3.57423 29.2795 1.68838 28.5531 0.207642 27.6591L3.39263 20.451C4.78955 21.2612 6.34014 21.9177 8.04438 22.4206C9.77657 22.8956 11.4529 23.1331 13.0733 23.1331C14.0232 23.1331 14.7636 23.0772 15.2944 22.9654C15.8532 22.8257 16.2583 22.6441 16.5097 22.4206C16.7612 22.1692 16.8869 21.8758 16.8869 21.5406C16.8869 21.0097 16.5936 20.5907 16.0068 20.2833C15.4201 19.976 14.6379 19.7246 13.66 19.529C12.7101 19.3055 11.6624 19.082 10.5169 18.8585C9.37146 18.607 8.21201 18.2857 7.0386 17.8946C5.89312 17.5035 4.83146 16.9866 3.85361 16.344C2.9037 15.7014 2.1354 14.8633 1.54869 13.8295C0.96198 12.7679 0.668626 11.4548 0.668626 9.89022C0.668626 8.07422 1.17152 6.42585 2.1773 4.94511C3.21103 3.43643 4.73367 2.23508 6.74524 1.34105C8.78475 0.447016 11.3132 0 14.3305 0C16.3142 0 18.2699 0.209538 20.1976 0.628615C22.1254 1.04769 23.8576 1.69028 25.3942 2.55637L22.4187 9.72259C20.9659 8.99619 19.555 8.45139 18.186 8.08819C16.845 7.72499 15.5319 7.54339 14.2467 7.54339C13.2968 7.54339 12.5425 7.6272 11.9837 7.79483C11.4249 7.96246 11.0198 8.18597 10.7684 8.46536C10.5449 8.74474 10.4331 9.05206 10.4331 9.38733C10.4331 9.89022 10.7265 10.2953 11.3132 10.6026C11.8999 10.882 12.6682 11.1195 13.6181 11.3151C14.596 11.5107 15.6576 11.7202 16.8031 11.9437C17.9765 12.1672 19.136 12.4745 20.2814 12.8657C21.4269 13.2568 22.4746 13.7737 23.4245 14.4163C24.4024 15.0588 25.1846 15.897 25.7713 16.9307C26.358 17.9644 26.6514 19.2496 26.6514 20.7862C26.6514 22.5743 26.1345 24.2227 25.1008 25.7313C24.095 27.2121 22.5864 28.4134 20.5748 29.3354C18.5632 30.2294 16.0348 30.6764 12.9895 30.6764Z" fill="#ED1846"/>
<path d="M42.2087 30.6764C39.7501 30.6764 37.3753 30.3971 35.0843 29.8383C32.7934 29.2795 30.9075 28.5531 29.4268 27.6591L32.6118 20.451C34.0087 21.2612 35.5593 21.9177 37.2635 22.4206C38.9957 22.8956 40.672 23.1331 42.2925 23.1331C43.2424 23.1331 43.9827 23.0772 44.5136 22.9654C45.0723 22.8257 45.4775 22.6441 45.7289 22.4206C45.9803 22.1692 46.1061 21.8758 46.1061 21.5406C46.1061 21.0097 45.8127 20.5907 45.226 20.2833C44.6393 19.976 43.857 19.7246 42.8792 19.529C41.9293 19.3055 40.8816 19.082 39.7361 18.8585C38.5906 18.607 37.4312 18.2857 36.2578 17.8946C35.1123 17.5035 34.0506 16.9866 33.0728 16.344C32.1229 15.7014 31.3546 14.8633 30.7679 13.8295C30.1811 12.7679 29.8878 11.4548 29.8878 9.89022C29.8878 8.07422 30.3907 6.42585 31.3965 4.94511C32.4302 3.43643 33.9528 2.23508 35.9644 1.34105C38.0039 0.447016 40.5323 0 43.5497 0C45.5333 0 47.489 0.209538 49.4168 0.628615C51.3445 1.04769 53.0767 1.69028 54.6133 2.55637L51.6379 9.72259C50.1851 8.99619 48.7742 8.45139 47.4052 8.08819C46.0642 7.72499 44.7511 7.54339 43.4659 7.54339C42.516 7.54339 41.7616 7.6272 41.2029 7.79483C40.6441 7.96246 40.239 8.18597 39.9875 8.46536C39.764 8.74474 39.6523 9.05206 39.6523 9.38733C39.6523 9.89022 39.9456 10.2953 40.5323 10.6026C41.1191 10.882 41.8874 11.1195 42.8373 11.3151C43.8151 11.5107 44.8768 11.7202 46.0223 11.9437C47.1957 12.1672 48.3551 12.4745 49.5006 12.8657C50.6461 13.2568 51.6938 13.7737 52.6437 14.4163C53.6215 15.0588 54.4038 15.897 54.9905 16.9307C55.5772 17.9644 55.8706 19.2496 55.8706 20.7862C55.8706 22.5743 55.3537 24.2227 54.32 25.7313C53.3142 27.2121 51.8055 28.4134 49.7939 29.3354C47.7824 30.2294 45.2539 30.6764 42.2087 30.6764Z" fill="#ED1846"/>
<path d="M60.0708 30.0059V0.670523H74.1937C76.9317 0.670523 79.2925 1.11754 81.2761 2.01157C83.2877 2.9056 84.8383 4.19077 85.9279 5.86708C87.0175 7.51545 87.5623 9.47114 87.5623 11.7342C87.5623 13.9972 87.0175 15.9529 85.9279 17.6012C84.8383 19.2217 83.2877 20.4649 81.2761 21.331C79.2925 22.1971 76.9317 22.6302 74.1937 22.6302H65.5607L69.9611 18.5651V30.0059H60.0708ZM77.6302 30.0059L70.422 19.3195H80.899L88.1909 30.0059H77.6302ZM69.9611 19.6547L65.5607 15.1706H73.5651C74.9341 15.1706 75.9399 14.8633 76.5825 14.2486C77.253 13.634 77.5882 12.7958 77.5882 11.7342C77.5882 10.6725 77.253 9.83434 76.5825 9.21969C75.9399 8.60505 74.9341 8.29773 73.5651 8.29773H65.5607L69.9611 3.8136V19.6547Z" fill="#ED1846"/>
</svg>
