<svg width="402" height="167" viewBox="0 0 402 167" fill="none" xmlns="http://www.w3.org/2000/svg">
<rect width="401" height="167" transform="translate(0.00292969)" fill="white"/>
<path d="M208.868 116.842C203.534 116.842 198.382 116.236 193.412 115.023C188.442 113.811 184.351 112.235 181.138 110.296L188.048 94.6577C191.079 96.4155 194.443 97.8398 198.14 98.9309C201.898 99.9613 205.535 100.476 209.05 100.476C211.111 100.476 212.717 100.355 213.869 100.113C215.081 99.8097 215.96 99.4158 216.506 98.9309C217.051 98.3854 217.324 97.7489 217.324 97.0216C217.324 95.8699 216.687 94.9608 215.414 94.294C214.142 93.6273 212.444 93.0818 210.323 92.6575C208.262 92.1726 205.989 91.6877 203.504 91.2028C201.019 90.6573 198.504 89.9602 195.958 89.1117C193.473 88.2631 191.17 87.1418 189.048 85.7477C186.987 84.3536 185.32 82.5352 184.048 80.2926C182.775 77.9893 182.138 75.1405 182.138 71.7462C182.138 67.8064 183.229 64.2303 185.411 61.0178C187.654 57.7448 190.957 55.1384 195.321 53.1988C199.746 51.2592 205.232 50.2894 211.778 50.2894C216.081 50.2894 220.324 50.744 224.506 51.6532C228.689 52.5624 232.447 53.9565 235.78 55.8355L229.325 71.3825C226.173 69.8066 223.112 68.6247 220.142 67.8367C217.233 67.0488 214.384 66.6548 211.596 66.6548C209.535 66.6548 207.899 66.8366 206.686 67.2003C205.474 67.564 204.595 68.0489 204.05 68.655C203.565 69.2611 203.322 69.9278 203.322 70.6552C203.322 71.7462 203.959 72.6251 205.232 73.2918C206.504 73.898 208.171 74.4132 210.232 74.8374C212.354 75.2617 214.657 75.7163 217.142 76.2012C219.688 76.6861 222.203 77.3529 224.688 78.2014C227.173 79.05 229.446 80.1713 231.507 81.5654C233.629 82.9595 235.326 84.7779 236.599 87.0205C237.871 89.2632 238.508 92.0514 238.508 95.385C238.508 99.2642 237.386 102.84 235.144 106.113C232.962 109.326 229.689 111.932 225.325 113.932C220.961 115.872 215.475 116.842 208.868 116.842Z" fill="#ED1846"/>
<path d="M272.259 116.842C266.925 116.842 261.773 116.236 256.803 115.023C251.833 113.811 247.741 112.235 244.529 110.296L251.439 94.6577C254.469 96.4155 257.833 97.8398 261.531 98.9309C265.289 99.9613 268.926 100.476 272.441 100.476C274.502 100.476 276.108 100.355 277.26 100.113C278.472 99.8097 279.351 99.4158 279.896 98.9309C280.442 98.3854 280.715 97.7489 280.715 97.0216C280.715 95.8699 280.078 94.9608 278.805 94.294C277.532 93.6273 275.835 93.0818 273.714 92.6575C271.653 92.1726 269.38 91.6877 266.895 91.2028C264.41 90.6573 261.894 89.9602 259.349 89.1117C256.864 88.2631 254.56 87.1418 252.439 85.7477C250.378 84.3536 248.711 82.5352 247.438 80.2926C246.166 77.9893 245.529 75.1405 245.529 71.7462C245.529 67.8064 246.62 64.2303 248.802 61.0178C251.045 57.7448 254.348 55.1384 258.712 53.1988C263.137 51.2592 268.622 50.2894 275.169 50.2894C279.472 50.2894 283.715 50.744 287.897 51.6532C292.079 52.5624 295.837 53.9565 299.171 55.8355L292.716 71.3825C289.564 69.8066 286.503 68.6247 283.533 67.8367C280.624 67.0488 277.775 66.6548 274.987 66.6548C272.926 66.6548 271.289 66.8366 270.077 67.2003C268.865 67.564 267.986 68.0489 267.441 68.655C266.956 69.2611 266.713 69.9278 266.713 70.6552C266.713 71.7462 267.35 72.6251 268.622 73.2918C269.895 73.898 271.562 74.4132 273.623 74.8374C275.744 75.2617 278.048 75.7163 280.533 76.2012C283.079 76.6861 285.594 77.3529 288.079 78.2014C290.564 79.05 292.837 80.1713 294.898 81.5654C297.019 82.9595 298.717 84.7779 299.989 87.0205C301.262 89.2632 301.899 92.0514 301.899 95.385C301.899 99.2642 300.777 102.84 298.535 106.113C296.353 109.326 293.08 111.932 288.715 113.932C284.351 115.872 278.866 116.842 272.259 116.842Z" fill="#ED1846"/>
<path d="M311.011 115.387V51.7441H341.651C347.591 51.7441 352.712 52.7139 357.016 54.6535C361.38 56.5931 364.744 59.3813 367.108 63.018C369.472 66.5942 370.654 70.837 370.654 75.7466C370.654 80.6562 369.472 84.8991 367.108 88.4752C364.744 91.9908 361.38 94.688 357.016 96.567C352.712 98.446 347.591 99.3855 341.651 99.3855H322.921L332.468 90.5664V115.387H311.011ZM349.106 115.387L333.468 92.2029H356.198L372.017 115.387H349.106ZM332.468 92.9302L322.921 83.202H340.287C343.257 83.202 345.439 82.5352 346.833 81.2017C348.288 79.8683 349.015 78.0499 349.015 75.7466C349.015 73.4434 348.288 71.625 346.833 70.2915C345.439 68.958 343.257 68.2913 340.287 68.2913H322.921L332.468 58.563V92.9302Z" fill="#ED1846"/>
<path fill-rule="evenodd" clip-rule="evenodd" d="M140.598 136.555L140.598 30.2723C140.598 29.7549 140.179 29.3356 139.661 29.3356H30.5347C30.0173 29.3356 29.5979 29.7549 29.5979 30.2723V83.6647C29.5979 84.182 30.0173 84.6014 30.5347 84.6014H83.4587C84.4933 84.6014 85.3321 85.4401 85.3321 86.4748L85.3321 110.762C85.3321 111.316 84.8825 111.766 84.3279 111.766H65.6612C58.9359 111.766 53.484 106.314 53.484 99.5887V93.9685C53.484 92.9338 52.6452 92.095 51.6105 92.095H33.048C31.1425 92.095 29.5979 93.6397 29.5979 95.5451L29.5979 100.827C29.5979 120.06 45.1896 135.652 64.4228 135.652C72.884 135.652 88.8943 135.652 88.8943 135.652H108.214C108.769 135.652 109.218 135.202 109.218 134.648V64.6984V61.652C109.218 61.1347 108.799 60.7153 108.281 60.7153H54.4207C53.9034 60.7153 53.484 60.2959 53.484 59.7786V54.1583C53.484 53.641 53.9034 53.2216 54.4207 53.2216H114.838C115.873 53.2216 116.712 54.0604 116.712 55.0951L116.712 113.673C116.712 126.528 126.867 137.012 139.593 137.538C140.147 137.561 140.598 137.11 140.598 136.555Z" fill="#ED1846"/>
</svg>
