<svg width="165" height="217" viewBox="0 0 165 217" fill="none" xmlns="http://www.w3.org/2000/svg">
<rect width="165" height="217" fill="white"/>
<path d="M52.7819 186.686C50.3233 186.686 47.9485 186.406 45.6576 185.848C43.3666 185.289 41.4807 184.563 40 183.668L43.185 176.46C44.5819 177.271 46.1325 177.927 47.8368 178.43C49.569 178.905 51.2453 179.142 52.8657 179.142C53.8156 179.142 54.556 179.087 55.0868 178.975C55.6456 178.835 56.0507 178.653 56.3022 178.43C56.5536 178.179 56.6793 177.885 56.6793 177.55C56.6793 177.019 56.386 176.6 55.7993 176.293C55.2126 175.985 54.4303 175.734 53.4524 175.538C52.5025 175.315 51.4548 175.091 50.3093 174.868C49.1639 174.616 48.0044 174.295 46.831 173.904C45.6855 173.513 44.6238 172.996 43.646 172.353C42.6961 171.711 41.9278 170.873 41.3411 169.839C40.7543 168.777 40.461 167.464 40.461 165.9C40.461 164.084 40.9639 162.435 41.9697 160.954C43.0034 159.446 44.526 158.244 46.5376 157.35C48.5771 156.456 51.1056 156.009 54.1229 156.009C56.1066 156.009 58.0623 156.219 59.99 156.638C61.9178 157.057 63.65 157.7 65.1866 158.566L62.2112 165.732C60.7584 165.005 59.3475 164.461 57.9785 164.097C56.6374 163.734 55.3243 163.553 54.0391 163.553C53.0892 163.553 52.3349 163.637 51.7761 163.804C51.2173 163.972 50.8122 164.195 50.5608 164.475C50.3373 164.754 50.2255 165.061 50.2255 165.397C50.2255 165.9 50.5189 166.305 51.1056 166.612C51.6923 166.891 52.4606 167.129 53.4105 167.324C54.3884 167.52 55.45 167.73 56.5955 167.953C57.7689 168.177 58.9284 168.484 60.0739 168.875C61.2193 169.266 62.267 169.783 63.217 170.426C64.1948 171.068 64.9771 171.906 65.5638 172.94C66.1505 173.974 66.4439 175.259 66.4439 176.796C66.4439 178.584 65.927 180.232 64.8933 181.741C63.8875 183.221 62.3788 184.423 60.3672 185.345C58.3556 186.239 55.8272 186.686 52.7819 186.686Z" fill="#ED1846"/>
<path d="M82.0012 186.686C79.5426 186.686 77.1678 186.406 74.8768 185.848C72.5859 185.289 70.7 184.563 69.2193 183.668L72.4043 176.46C73.8012 177.271 75.3518 177.927 77.056 178.43C78.7882 178.905 80.4645 179.142 82.085 179.142C83.0349 179.142 83.7753 179.087 84.3061 178.975C84.8649 178.835 85.27 178.653 85.5214 178.43C85.7729 178.179 85.8986 177.885 85.8986 177.55C85.8986 177.019 85.6052 176.6 85.0185 176.293C84.4318 175.985 83.6495 175.734 82.6717 175.538C81.7218 175.315 80.6741 175.091 79.5286 174.868C78.3831 174.616 77.2237 174.295 76.0503 173.904C74.9048 173.513 73.8431 172.996 72.8653 172.353C71.9153 171.711 71.147 170.873 70.5603 169.839C69.9736 168.777 69.6803 167.464 69.6803 165.9C69.6803 164.084 70.1832 162.435 71.1889 160.954C72.2227 159.446 73.7453 158.244 75.7569 157.35C77.7964 156.456 80.3249 156.009 83.3422 156.009C85.3259 156.009 87.2816 156.219 89.2093 156.638C91.1371 157.057 92.8693 157.7 94.4059 158.566L91.4304 165.732C89.9776 165.005 88.5667 164.461 87.1977 164.097C85.8567 163.734 84.5436 163.553 83.2584 163.553C82.3085 163.553 81.5542 163.637 80.9954 163.804C80.4366 163.972 80.0315 164.195 79.7801 164.475C79.5565 164.754 79.4448 165.061 79.4448 165.397C79.4448 165.9 79.7381 166.305 80.3249 166.612C80.9116 166.891 81.6799 167.129 82.6298 167.324C83.6076 167.52 84.6693 167.73 85.8148 167.953C86.9882 168.177 88.1477 168.484 89.2931 168.875C90.4386 169.266 91.4863 169.783 92.4362 170.426C93.4141 171.068 94.1964 171.906 94.7831 172.94C95.3698 173.974 95.6631 175.259 95.6631 176.796C95.6631 178.584 95.1463 180.232 94.1125 181.741C93.1068 183.221 91.5981 184.423 89.5865 185.345C87.5749 186.239 85.0465 186.686 82.0012 186.686Z" fill="#ED1846"/>
<path d="M99.8634 186.015V156.68H113.986C116.724 156.68 119.085 157.127 121.069 158.021C123.08 158.915 124.631 160.2 125.721 161.876C126.81 163.525 127.355 165.48 127.355 167.743C127.355 170.007 126.81 171.962 125.721 173.611C124.631 175.231 123.08 176.474 121.069 177.34C119.085 178.206 116.724 178.64 113.986 178.64H105.353L109.754 174.574V186.015H99.8634ZM117.423 186.015L110.215 175.329H120.692L127.984 186.015H117.423ZM109.754 175.664L105.353 171.18H113.358C114.727 171.18 115.733 170.873 116.375 170.258C117.046 169.643 117.381 168.805 117.381 167.743C117.381 166.682 117.046 165.844 116.375 165.229C115.733 164.614 114.727 164.307 113.358 164.307H105.353L109.754 159.823V175.664Z" fill="#ED1846"/>
<path fill-rule="evenodd" clip-rule="evenodd" d="M138 137.219L138 30.9367C138 30.4194 137.581 30 137.063 30H27.9368C27.4194 30 27 30.4194 27 30.9367V84.3291C27 84.8464 27.4194 85.2658 27.9368 85.2658H80.8608C81.8954 85.2658 82.7342 86.1046 82.7342 87.1392L82.7342 111.426C82.7342 111.981 82.2846 112.43 81.73 112.43H63.0633C56.338 112.43 50.8861 106.978 50.8861 100.253V94.6329C50.8861 93.5982 50.0473 92.7595 49.0126 92.7595H30.4501C28.5446 92.7595 27 94.3041 27 96.2095L27 101.492C27 120.725 42.5917 136.316 61.8249 136.316C70.2861 136.316 86.2964 136.316 86.2964 136.316H105.616C106.171 136.316 106.62 135.867 106.62 135.312V65.3629V62.3164C106.62 61.7991 106.201 61.3797 105.684 61.3797H51.8228C51.3055 61.3797 50.8861 60.9604 50.8861 60.443V54.8228C50.8861 54.3054 51.3055 53.8861 51.8228 53.8861H112.241C113.275 53.8861 114.114 54.7248 114.114 55.7595L114.114 114.338C114.114 127.193 124.269 137.676 136.995 138.203C137.549 138.226 138 137.774 138 137.219Z" fill="#ED1846"/>
</svg>
