<svg width="165" height="217" viewBox="0 0 165 217" fill="none" xmlns="http://www.w3.org/2000/svg">
<rect width="165" height="217" fill="white"/>
<path d="M51.4834 186.686C49.0248 186.686 46.6501 186.406 44.3591 185.848C42.0681 185.289 40.1823 184.563 38.7015 183.668L41.8865 176.46C43.2835 177.271 44.8341 177.927 46.5383 178.43C48.2705 178.905 49.9468 179.142 51.5673 179.142C52.5172 179.142 53.2575 179.087 53.7884 178.975C54.3471 178.835 54.7522 178.653 55.0037 178.43C55.2551 178.179 55.3809 177.885 55.3809 177.55C55.3809 177.019 55.0875 176.6 54.5008 176.293C53.9141 175.985 53.1318 175.734 52.154 175.538C51.204 175.315 50.1564 175.091 49.0109 174.868C47.8654 174.616 46.7059 174.295 45.5325 173.904C44.387 173.513 43.3254 172.996 42.3475 172.353C41.3976 171.711 40.6293 170.873 40.0426 169.839C39.4559 168.777 39.1625 167.464 39.1625 165.9C39.1625 164.084 39.6654 162.435 40.6712 160.954C41.7049 159.446 43.2276 158.244 45.2392 157.35C47.2787 156.456 49.8071 156.009 52.8245 156.009C54.8081 156.009 56.7638 156.219 58.6916 156.638C60.6193 157.057 62.3515 157.7 63.8882 158.566L60.9127 165.732C59.4599 165.005 58.049 164.461 56.68 164.097C55.339 163.734 54.0258 163.553 52.7407 163.553C51.7908 163.553 51.0364 163.637 50.4776 163.804C49.9189 163.972 49.5138 164.195 49.2623 164.475C49.0388 164.754 48.9271 165.061 48.9271 165.397C48.9271 165.9 49.2204 166.305 49.8071 166.612C50.3938 166.891 51.1621 167.129 52.1121 167.324C53.0899 167.52 54.1516 167.73 55.297 167.953C56.4705 168.177 57.6299 168.484 58.7754 168.875C59.9209 169.266 60.9686 169.783 61.9185 170.426C62.8963 171.068 63.6786 171.906 64.2653 172.94C64.852 173.974 65.1454 175.259 65.1454 176.796C65.1454 178.584 64.6285 180.232 63.5948 181.741C62.589 183.221 61.0803 184.423 59.0688 185.345C57.0572 186.239 54.5287 186.686 51.4834 186.686Z" fill="#ED1846"/>
<path d="M80.7027 186.686C78.2441 186.686 75.8693 186.406 73.5784 185.848C71.2874 185.289 69.4016 184.563 67.9208 183.668L71.1058 176.46C72.5027 177.271 74.0533 177.927 75.7576 178.43C77.4898 178.905 79.1661 179.142 80.7865 179.142C81.7364 179.142 82.4768 179.087 83.0076 178.975C83.5664 178.835 83.9715 178.653 84.223 178.43C84.4744 178.179 84.6001 177.885 84.6001 177.55C84.6001 177.019 84.3068 176.6 83.7201 176.293C83.1334 175.985 82.3511 175.734 81.3732 175.538C80.4233 175.315 79.3756 175.091 78.2301 174.868C77.0847 174.616 75.9252 174.295 74.7518 173.904C73.6063 173.513 72.5446 172.996 71.5668 172.353C70.6169 171.711 69.8486 170.873 69.2619 169.839C68.6752 168.777 68.3818 167.464 68.3818 165.9C68.3818 164.084 68.8847 162.435 69.8905 160.954C70.9242 159.446 72.4469 158.244 74.4584 157.35C76.498 156.456 79.0264 156.009 82.0438 156.009C84.0274 156.009 85.9831 156.219 87.9109 156.638C89.8386 157.057 91.5708 157.7 93.1074 158.566L90.132 165.732C88.6792 165.005 87.2683 164.461 85.8993 164.097C84.5582 163.734 83.2451 163.553 81.9599 163.553C81.01 163.553 80.2557 163.637 79.6969 163.804C79.1381 163.972 78.733 164.195 78.4816 164.475C78.2581 164.754 78.1463 165.061 78.1463 165.397C78.1463 165.9 78.4397 166.305 79.0264 166.612C79.6131 166.891 80.3814 167.129 81.3313 167.324C82.3092 167.52 83.3708 167.73 84.5163 167.953C85.6897 168.177 86.8492 168.484 87.9947 168.875C89.1402 169.266 90.1879 169.783 91.1378 170.426C92.1156 171.068 92.8979 171.906 93.4846 172.94C94.0713 173.974 94.3647 175.259 94.3647 176.796C94.3647 178.584 93.8478 180.232 92.8141 181.741C91.8083 183.221 90.2996 184.423 88.288 185.345C86.2765 186.239 83.748 186.686 80.7027 186.686Z" fill="#ED1846"/>
<path d="M98.565 186.015V156.68H112.688C115.426 156.68 117.787 157.127 119.77 158.021C121.782 158.915 123.332 160.2 124.422 161.876C125.512 163.525 126.057 165.48 126.057 167.743C126.057 170.007 125.512 171.962 124.422 173.611C123.332 175.231 121.782 176.474 119.77 177.34C117.787 178.206 115.426 178.64 112.688 178.64H104.055L108.455 174.574V186.015H98.565ZM116.124 186.015L108.916 175.329H119.393L126.685 186.015H116.124ZM108.455 175.664L104.055 171.18H112.059C113.428 171.18 114.434 170.873 115.077 170.258C115.747 169.643 116.082 168.805 116.082 167.743C116.082 166.682 115.747 165.844 115.077 165.229C114.434 164.614 113.428 164.307 112.059 164.307H104.055L108.455 159.823V175.664Z" fill="#ED1846"/>
<path d="M135.77 136.599L135.77 30.9313C135.77 30.417 135.353 30 134.838 30H31.9313C31.417 30 31 30.417 31 30.9313V83.5489C31 84.0633 31.417 84.4802 31.9313 84.4802H79.4269C80.4556 84.4802 81.2895 85.3141 81.2895 86.3428L81.2895 110.955C81.2895 111.506 80.8425 111.953 80.2911 111.953H65.6233C59.0655 111.953 53.7494 106.637 53.7494 100.079V94.1601C53.7494 93.0573 52.8554 92.1633 51.7526 92.1633H34.9936C32.788 92.1633 31 93.9513 31 96.1569L31 100.079C31 119.753 45.95 135.701 65.6233 135.701L104.039 135.701C104.59 135.701 105.037 135.254 105.037 134.703V61.6637C105.037 61.1494 104.62 60.7324 104.106 60.7324H55.6791C55.1648 60.7324 54.7478 60.3155 54.7478 59.8011V54.6791C54.7478 54.1647 55.1648 53.7478 55.6791 53.7478H110.159C111.188 53.7478 112.022 54.5817 112.022 55.6104L112.022 113.849C112.022 126.63 122.118 137.053 134.77 137.576C135.321 137.599 135.77 137.15 135.77 136.599Z" fill="#ED1846"/>
</svg>
