<svg width="106" height="108" viewBox="0 0 106 108" fill="none" xmlns="http://www.w3.org/2000/svg">
<path d="M105.321 106.599L105.321 0.931286C105.321 0.416951 104.904 0 104.39 0H1.48269C0.96836 0 0.551408 0.416951 0.551408 0.931286V53.5489C0.551408 54.0633 0.968359 54.4802 1.48269 54.4802H48.9783C50.0069 54.4802 50.8408 55.3141 50.8408 56.3428L50.8408 80.9547C50.8408 81.5061 50.3938 81.9531 49.8424 81.9531H35.1746C28.6169 81.9531 23.3007 76.637 23.3007 70.0792V64.1601C23.3007 63.0573 22.4067 62.1633 21.3039 62.1633H4.54498C2.33936 62.1633 0.551362 63.9513 0.551361 66.1569L0.551361 70.0792C0.551359 89.7526 15.5013 105.701 35.1746 105.701H73.5902C74.1416 105.701 74.5886 105.254 74.5886 104.703V31.6637C74.5886 31.1494 74.1717 30.7324 73.6573 30.7324H25.2305C24.7161 30.7324 24.2992 30.3155 24.2992 29.8011V24.6791C24.2992 24.1647 24.7161 23.7478 25.2305 23.7478H79.7107C80.7394 23.7478 81.5733 24.5817 81.5733 25.6104L81.5733 83.8493C81.5733 96.6301 91.6697 107.053 104.322 107.576C104.873 107.599 105.321 107.15 105.321 106.599Z" fill="#ED1846"/>
</svg>
