<svg width="111" height="109" viewBox="0 0 111 109" fill="none" xmlns="http://www.w3.org/2000/svg">
<path fill-rule="evenodd" clip-rule="evenodd" d="M111 107.219L111 0.936708C111 0.419379 110.581 0 110.063 0H0.936752C0.419422 0 4.31847e-05 0.419379 4.31847e-05 0.936709V54.3291C4.31847e-05 54.8464 0.419422 55.2658 0.936752 55.2658H53.8608C54.8954 55.2658 55.7342 56.1046 55.7342 57.1392L55.7342 81.4261C55.7342 81.9807 55.2846 82.4304 54.73 82.4304H36.0633C29.338 82.4304 23.8861 76.9784 23.8861 70.2531V64.6329C23.8861 63.5982 23.0473 62.7595 22.0126 62.7595H3.45006C1.54464 62.7595 -2.05137e-06 64.3041 0 66.2095L5.68666e-06 71.4916C2.63931e-05 90.7248 15.5917 106.316 34.8249 106.316C43.2861 106.316 59.2964 106.316 59.2964 106.316H78.6161C79.1707 106.316 79.6203 105.867 79.6203 105.312V35.3629V32.3164C79.6203 31.7991 79.2009 31.3797 78.6836 31.3797H24.8228C24.3055 31.3797 23.8861 30.9604 23.8861 30.443V24.8228C23.8861 24.3054 24.3055 23.8861 24.8228 23.8861H85.2405C86.2752 23.8861 87.1139 24.7248 87.1139 25.7595L87.1139 84.3375C87.1139 97.1928 97.2692 107.676 109.995 108.203C110.549 108.226 111 107.774 111 107.219Z" fill="#ED1846"/>
</svg>
