<svg width="128" height="106" viewBox="0 0 128 106" fill="none" xmlns="http://www.w3.org/2000/svg">
<path d="M24.2476 24.6789V81.0211C24.2476 81.5355 24.6645 81.9524 25.1789 81.9524H52.0358C65.8401 81.9524 77.8988 91.2845 81.3616 104.647C81.4997 105.18 81.0975 105.7 80.547 105.7H1.43128C0.916947 105.7 0.5 105.283 0.5 104.769V0.931277C0.5 0.416947 0.91695 0 1.43128 0H88.6113C88.9088 0 89.1883 0.142063 89.3636 0.382319L127.25 52.301C127.489 52.6281 127.489 53.0719 127.25 53.399L92.4671 101.065C92.0952 101.574 91.3346 101.574 90.9626 101.065L77.4164 82.5014C77.1777 82.1743 77.1777 81.7305 77.4164 81.4035L97.8521 53.399C98.0908 53.0719 98.0908 52.6281 97.8521 52.301L77.2948 24.1299C77.1194 23.8896 76.8399 23.7476 76.5425 23.7476H25.1789C24.6645 23.7476 24.2476 24.1645 24.2476 24.6789Z" fill="#ED1846"/>
</svg>
