<svg width="552" height="167" viewBox="0 0 552 167" fill="none" xmlns="http://www.w3.org/2000/svg">
<path d="M183.932 115.387V51.7441H214.571C220.511 51.7441 225.633 52.7139 229.937 54.6535C234.301 56.5931 237.665 59.3813 240.028 63.018C242.392 66.5941 243.574 70.837 243.574 75.7465C243.574 80.6561 242.392 84.899 240.028 88.4751C237.665 91.9906 234.301 94.6878 229.937 96.5668C225.633 98.4458 220.511 99.3853 214.571 99.3853H195.842L205.389 90.5662V115.387H183.932ZM222.027 115.387L206.389 92.2027H229.118L244.938 115.387H222.027ZM205.389 92.9301L195.842 83.2018H213.208C216.178 83.2018 218.36 82.5351 219.754 81.2016C221.208 79.8682 221.936 78.0498 221.936 75.7465C221.936 73.4433 221.208 71.6249 219.754 70.2914C218.36 68.958 216.178 68.2913 213.208 68.2913H195.842L205.389 58.563V92.9301Z" fill="#ED1846"/>
<path d="M285.953 116.842C280.801 116.842 276.012 116.023 271.588 114.387C267.224 112.75 263.435 110.447 260.223 107.477C257.011 104.446 254.495 100.901 252.677 96.8396C250.919 92.7786 250.04 88.3539 250.04 83.5655C250.04 78.7165 250.919 74.2919 252.677 70.2914C254.495 66.2304 257.011 62.7149 260.223 59.7449C263.435 56.7143 267.224 54.3808 271.588 52.7442C276.012 51.1077 280.801 50.2894 285.953 50.2894C291.166 50.2894 295.954 51.1077 300.318 52.7442C304.682 54.3808 308.47 56.7143 311.683 59.7449C314.895 62.7149 317.38 66.2304 319.138 70.2914C320.956 74.2919 321.866 78.7165 321.866 83.5655C321.866 88.3539 320.956 92.7786 319.138 96.8396C317.38 100.901 314.895 104.446 311.683 107.477C308.47 110.447 304.682 112.75 300.318 114.387C295.954 116.023 291.166 116.842 285.953 116.842ZM285.953 99.4762C287.953 99.4762 289.802 99.1125 291.499 98.3852C293.257 97.6578 294.772 96.6274 296.045 95.294C297.378 93.8999 298.409 92.2331 299.136 90.2935C299.863 88.2933 300.227 86.0506 300.227 83.5655C300.227 81.0804 299.863 78.8681 299.136 76.9285C298.409 74.9283 297.378 73.2614 296.045 71.928C294.772 70.5339 293.257 69.4732 291.499 68.7458C289.802 68.0185 287.953 67.6548 285.953 67.6548C283.953 67.6548 282.074 68.0185 280.316 68.7458C278.619 69.4732 277.103 70.5339 275.77 71.928C274.497 73.2614 273.497 74.9283 272.77 76.9285C272.042 78.8681 271.679 81.0804 271.679 83.5655C271.679 86.0506 272.042 88.2933 272.77 90.2935C273.497 92.2331 274.497 93.8999 275.77 95.294C277.103 96.6274 278.619 97.6578 280.316 98.3852C282.074 99.1125 283.953 99.4762 285.953 99.4762Z" fill="#ED1846"/>
<path d="M361.929 116.842C352.171 116.842 344.564 114.205 339.109 108.932C333.654 103.658 330.926 96.2638 330.926 86.7477V51.7441H352.383V86.1112C352.383 90.9602 353.262 94.4151 355.019 96.4759C356.777 98.4761 359.141 99.4762 362.111 99.4762C365.142 99.4762 367.506 98.4761 369.203 96.4759C370.96 94.4151 371.839 90.9602 371.839 86.1112V51.7441H392.932V86.7477C392.932 96.2638 390.205 103.658 384.75 108.932C379.295 114.205 371.688 116.842 361.929 116.842Z" fill="#ED1846"/>
<path d="M420.224 115.387V68.3822H401.586V51.7441H460.319V68.3822H441.681V115.387H420.224Z" fill="#ED1846"/>
<path d="M488.258 75.3829H516.625V90.839H488.258V75.3829ZM489.713 99.2035H521.534V115.387H468.62V51.7441H520.352V67.9276H489.713V99.2035Z" fill="#ED1846"/>
<path d="M56.4471 54.9455V111.287C56.4471 111.802 56.864 112.219 57.3783 112.219H84.2351C98.0392 112.219 110.098 121.551 113.561 134.913C113.699 135.446 113.296 135.966 112.746 135.966H33.631C33.1167 135.966 32.6997 135.549 32.6997 135.035V31.1981C32.6997 30.6838 33.1167 30.2668 33.631 30.2668H120.81C121.108 30.2668 121.387 30.4089 121.563 30.6492L159.449 82.5674C159.687 82.8945 159.687 83.3383 159.449 83.6653L124.666 131.331C124.294 131.84 123.533 131.84 123.161 131.331L109.615 112.767C109.377 112.44 109.377 111.997 109.615 111.67L130.051 83.6653C130.29 83.3383 130.29 82.8945 130.051 82.5674L109.494 54.3965C109.318 54.1563 109.039 54.0142 108.742 54.0142H57.3783C56.864 54.0142 56.4471 54.4312 56.4471 54.9455Z" fill="#ED1846"/>
</svg>
