<svg width="216" height="217" viewBox="0 0 216 217" fill="none" xmlns="http://www.w3.org/2000/svg">
<rect width="216" height="217" fill="white"/>
<path d="M30 185.994V156.658H44.1228C46.8608 156.658 49.2216 157.105 51.2052 157.999C53.2168 158.893 54.7674 160.179 55.857 161.855C56.9466 163.503 57.4914 165.459 57.4914 167.722C57.4914 169.985 56.9466 171.941 55.857 173.589C54.7674 175.209 53.2168 176.453 51.2052 177.319C49.2216 178.185 46.8608 178.618 44.1228 178.618H35.4899L39.8902 174.553V185.994H30ZM47.5593 185.994L40.3512 175.307H50.8281L58.12 185.994H47.5593ZM39.8902 175.642L35.4899 171.158H43.4942C44.8632 171.158 45.869 170.851 46.5116 170.236C47.1821 169.622 47.5174 168.784 47.5174 167.722C47.5174 166.66 47.1821 165.822 46.5116 165.207C45.869 164.593 44.8632 164.285 43.4942 164.285H35.4899L39.8902 159.801V175.642Z" fill="#ED1846"/>
<path d="M77.0252 186.664C74.6504 186.664 72.4433 186.287 70.4038 185.533C68.3922 184.778 66.6461 183.717 65.1654 182.348C63.6846 180.951 62.5252 179.316 61.687 177.444C60.8768 175.573 60.4717 173.533 60.4717 171.326C60.4717 169.091 60.8768 167.051 61.687 165.207C62.5252 163.336 63.6846 161.715 65.1654 160.346C66.6461 158.949 68.3922 157.874 70.4038 157.119C72.4433 156.365 74.6504 155.988 77.0252 155.988C79.4279 155.988 81.635 156.365 83.6466 157.119C85.6582 157.874 87.4043 158.949 88.885 160.346C90.3658 161.715 91.5112 163.336 92.3215 165.207C93.1596 167.051 93.5787 169.091 93.5787 171.326C93.5787 173.533 93.1596 175.573 92.3215 177.444C91.5112 179.316 90.3658 180.951 88.885 182.348C87.4043 183.717 85.6582 184.778 83.6466 185.533C81.635 186.287 79.4279 186.664 77.0252 186.664ZM77.0252 178.66C77.9472 178.66 78.7993 178.492 79.5816 178.157C80.3918 177.822 81.0902 177.347 81.6769 176.732C82.2916 176.089 82.7665 175.321 83.1018 174.427C83.4371 173.505 83.6047 172.471 83.6047 171.326C83.6047 170.18 83.4371 169.161 83.1018 168.267C82.7665 167.345 82.2916 166.576 81.6769 165.962C81.0902 165.319 80.3918 164.83 79.5816 164.495C78.7993 164.16 77.9472 163.992 77.0252 163.992C76.1032 163.992 75.2371 164.16 74.4269 164.495C73.6447 164.83 72.9462 165.319 72.3316 165.962C71.7448 166.576 71.2839 167.345 70.9486 168.267C70.6133 169.161 70.4457 170.18 70.4457 171.326C70.4457 172.471 70.6133 173.505 70.9486 174.427C71.2839 175.321 71.7448 176.089 72.3316 176.732C72.9462 177.347 73.6447 177.822 74.4269 178.157C75.2371 178.492 76.1032 178.66 77.0252 178.66Z" fill="#ED1846"/>
<path d="M112.046 186.664C107.547 186.664 104.041 185.449 101.527 183.018C99.0123 180.588 97.755 177.179 97.755 172.793V156.658H107.645V172.499C107.645 174.734 108.05 176.327 108.861 177.277C109.671 178.199 110.76 178.66 112.129 178.66C113.526 178.66 114.616 178.199 115.398 177.277C116.208 176.327 116.613 174.734 116.613 172.499V156.658H126.336V172.793C126.336 177.179 125.079 180.588 122.564 183.018C120.05 185.449 116.544 186.664 112.046 186.664Z" fill="#ED1846"/>
<path d="M138.916 185.994V164.327H130.325V156.658H157.397V164.327H148.806V185.994H138.916Z" fill="#ED1846"/>
<path d="M170.275 167.554H183.35V174.679H170.275V167.554ZM170.946 178.534H185.613V185.994H161.223V156.658H185.068V164.118H170.946V178.534Z" fill="#ED1846"/>
<path d="M74.2694 54.6784V111.02C74.2694 111.534 74.6863 111.951 75.2007 111.951H102.057C115.861 111.951 127.92 121.283 131.383 134.646C131.521 135.178 131.118 135.698 130.568 135.698H51.4535C50.9392 135.698 50.5222 135.281 50.5222 134.767V30.9313C50.5222 30.4169 50.9392 30 51.4535 30H138.632C138.93 30 139.209 30.1421 139.384 30.3823L177.27 82.3002C177.509 82.6272 177.509 83.071 177.27 83.3981L142.488 131.063C142.116 131.573 141.355 131.573 140.983 131.063L127.437 112.5C127.199 112.173 127.199 111.729 127.437 111.402L147.873 83.3981C148.111 83.071 148.111 82.6272 147.873 82.3002L127.316 54.1295C127.14 53.8892 126.861 53.7472 126.563 53.7472H75.2007C74.6863 53.7472 74.2694 54.1641 74.2694 54.6784Z" fill="#ED1846"/>
</svg>
