<svg width="128" height="106" viewBox="0 0 128 106" fill="none" xmlns="http://www.w3.org/2000/svg">
<path d="M24.1462 25.748V79.9539C24.1462 81.0585 25.0416 81.9539 26.1462 81.9539H37.6605C54.3412 81.9539 70.0185 89.9214 79.8513 103.396C80.5508 104.355 79.8661 105.702 78.6793 105.702H1.32946C0.815118 105.702 0.398163 105.285 0.398163 104.771V0.931294C0.398163 0.416955 0.81512 0 1.32946 0H88.5111C88.8085 0 89.0881 0.142066 89.2634 0.382326L127.151 52.302C127.389 52.6291 127.389 53.0729 127.151 53.3999L93.2303 99.8835C92.4314 100.978 90.798 100.978 89.9991 99.8835L77.7756 83.1329C77.2631 82.4305 77.2631 81.4774 77.7756 80.775L97.2923 54.0299C97.8049 53.3275 97.8049 52.3744 97.2923 51.672L77.5145 24.5691C77.138 24.0531 76.5376 23.748 75.8989 23.748H26.1462C25.0416 23.748 24.1462 24.6434 24.1462 25.748Z" fill="#ED1846"/>
</svg>
