<svg width="157" height="31" viewBox="0 0 157 31" fill="none" xmlns="http://www.w3.org/2000/svg">
<path d="M0.594391 30.0058V0.67052H14.7172C17.4552 0.67052 19.816 1.11753 21.7996 2.01156C23.8112 2.90559 25.3618 4.19076 26.4514 5.86706C27.541 7.51542 28.0858 9.47111 28.0858 11.7341C28.0858 13.9971 27.541 15.9528 26.4514 17.6012C25.3618 19.2216 23.8112 20.4649 21.7996 21.3309C19.816 22.197 17.4552 22.6301 14.7172 22.6301H6.08428L10.4846 18.5651V30.0058H0.594391ZM18.1537 30.0058L10.9456 19.3194H21.4224L28.7144 30.0058H18.1537ZM10.4846 19.6546L6.08428 15.1705H14.0886C15.4576 15.1705 16.4634 14.8632 17.106 14.2486C17.7765 13.6339 18.1118 12.7958 18.1118 11.7341C18.1118 10.6725 17.7765 9.83431 17.106 9.21966C16.4634 8.60502 15.4576 8.2977 14.0886 8.2977H6.08428L10.4846 3.81359V19.6546Z" fill="#ED1846"/>
<path d="M47.6196 30.6763C45.2448 30.6763 43.0377 30.2992 40.9982 29.5448C38.9866 28.7905 37.2405 27.7288 35.7597 26.3599C34.279 24.9629 33.1196 23.3285 32.2814 21.4567C31.4712 19.5848 31.0661 17.5453 31.0661 15.3382C31.0661 13.1031 31.4712 11.0636 32.2814 9.21966C33.1196 7.34779 34.279 5.72737 35.7597 4.35839C37.2405 2.96147 38.9866 1.88584 40.9982 1.13151C43.0377 0.377169 45.2448 0 47.6196 0C50.0223 0 52.2294 0.377169 54.241 1.13151C56.2525 1.88584 57.9987 2.96147 59.4794 4.35839C60.9602 5.72737 62.1056 7.34779 62.9158 9.21966C63.754 11.0636 64.1731 13.1031 64.1731 15.3382C64.1731 17.5453 63.754 19.5848 62.9158 21.4567C62.1056 23.3285 60.9602 24.9629 59.4794 26.3599C57.9987 27.7288 56.2525 28.7905 54.241 29.5448C52.2294 30.2992 50.0223 30.6763 47.6196 30.6763ZM47.6196 22.672C48.5416 22.672 49.3937 22.5044 50.1759 22.1691C50.9862 21.8338 51.6846 21.3589 52.2713 20.7442C52.886 20.1017 53.3609 19.3334 53.6962 18.4393C54.0314 17.5174 54.1991 16.4836 54.1991 15.3382C54.1991 14.1927 54.0314 13.1729 53.6962 12.2789C53.3609 11.3569 52.886 10.5886 52.2713 9.974C51.6846 9.33142 50.9862 8.84249 50.1759 8.50723C49.3937 8.17197 48.5416 8.00434 47.6196 8.00434C46.6976 8.00434 45.8315 8.17197 45.0213 8.50723C44.239 8.84249 43.5406 9.33142 42.9259 9.974C42.3392 10.5886 41.8783 11.3569 41.543 12.2789C41.2077 13.1729 41.0401 14.1927 41.0401 15.3382C41.0401 16.4836 41.2077 17.5174 41.543 18.4393C41.8783 19.3334 42.3392 20.1017 42.9259 20.7442C43.5406 21.3589 44.239 21.8338 45.0213 22.1691C45.8315 22.5044 46.6976 22.672 47.6196 22.672Z" fill="#ED1846"/>
<path d="M82.6399 30.6763C78.1418 30.6763 74.6356 29.461 72.1211 27.0304C69.6066 24.5997 68.3494 21.1913 68.3494 16.8049V0.67052H78.2396V16.5116C78.2396 18.7466 78.6447 20.3391 79.4549 21.289C80.2651 22.211 81.3547 22.672 82.7237 22.672C84.1206 22.672 85.2102 22.211 85.9925 21.289C86.8027 20.3391 87.2078 18.7466 87.2078 16.5116V0.67052H96.9304V16.8049C96.9304 21.1913 95.6731 24.5997 93.1587 27.0304C90.6442 29.461 87.138 30.6763 82.6399 30.6763Z" fill="#ED1846"/>
<path d="M109.51 30.0058V8.3396H100.919V0.67052H127.991V8.3396H119.4V30.0058H109.51Z" fill="#ED1846"/>
<path d="M140.869 11.5665H153.945V18.6908H140.869V11.5665ZM141.54 22.5463H156.208V30.0058H131.817V0.67052H155.663V8.13007H141.54V22.5463Z" fill="#ED1846"/>
</svg>
