<svg width="886" height="167" viewBox="0 0 886 167" fill="none" xmlns="http://www.w3.org/2000/svg">
<rect width="886" height="167" fill="white"/>
<path d="M216.582 116.842C211.43 116.842 206.642 116.023 202.217 114.387C197.853 112.75 194.065 110.447 190.852 107.477C187.64 104.446 185.125 100.901 183.306 96.8397C181.548 92.7786 180.67 88.3539 180.67 83.5656C180.67 78.7166 181.548 74.2919 183.306 70.2915C185.125 66.2305 187.64 62.7149 190.852 59.7449C194.065 56.7143 197.853 54.3808 202.217 52.7442C206.642 51.1077 211.43 50.2894 216.582 50.2894C221.795 50.2894 226.583 51.1077 230.947 52.7442C235.312 54.3808 239.1 56.7143 242.312 59.7449C245.525 62.7149 248.01 66.2305 249.768 70.2915C251.586 74.2919 252.495 78.7166 252.495 83.5656C252.495 88.3539 251.586 92.7786 249.768 96.8397C248.01 100.901 245.525 104.446 242.312 107.477C239.1 110.447 235.312 112.75 230.947 114.387C226.583 116.023 221.795 116.842 216.582 116.842ZM216.582 99.4763C218.583 99.4763 220.431 99.1126 222.128 98.3853C223.886 97.6579 225.401 96.6275 226.674 95.294C228.008 93.9 229.038 92.2331 229.765 90.2935C230.493 88.2933 230.856 86.0507 230.856 83.5656C230.856 81.0805 230.493 78.8681 229.765 76.9285C229.038 74.9283 228.008 73.2615 226.674 71.928C225.401 70.5339 223.886 69.4732 222.128 68.7459C220.431 68.0185 218.583 67.6548 216.582 67.6548C214.582 67.6548 212.703 68.0185 210.945 68.7459C209.248 69.4732 207.733 70.5339 206.399 71.928C205.127 73.2615 204.126 74.9283 203.399 76.9285C202.672 78.8681 202.308 81.0805 202.308 83.5656C202.308 86.0507 202.672 88.2933 203.399 90.2935C204.126 92.2331 205.127 93.9 206.399 95.294C207.733 96.6275 209.248 97.6579 210.945 98.3853C212.703 99.1126 214.582 99.4763 216.582 99.4763Z" fill="#ED1846"/>
<path d="M261.192 115.387V51.7441H295.195C303.984 51.7441 310.47 53.32 314.652 56.4719C318.834 59.5631 320.925 63.5332 320.925 68.3822C320.925 71.5946 320.016 74.4737 318.198 77.0194C316.44 79.5045 313.864 81.4744 310.47 82.9291C307.076 84.3838 302.893 85.1112 297.923 85.1112L299.741 80.2016C304.712 80.2016 308.985 80.8986 312.561 82.2927C316.198 83.6868 318.986 85.7173 320.925 88.3842C322.926 90.9906 323.926 94.1424 323.926 97.8398C323.926 103.355 321.622 107.659 317.016 110.75C312.47 113.841 305.803 115.387 297.014 115.387H261.192ZM282.285 100.385H295.195C297.559 100.385 299.317 99.9612 300.469 99.1126C301.681 98.264 302.287 97.0215 302.287 95.385C302.287 93.7484 301.681 92.5059 300.469 91.6573C299.317 90.8087 297.559 90.3844 295.195 90.3844H280.83V76.2012H292.286C294.711 76.2012 296.468 75.8072 297.559 75.0192C298.711 74.1707 299.287 72.9887 299.287 71.4734C299.287 69.8975 298.711 68.7156 297.559 67.9276C296.468 67.1396 294.711 66.7457 292.286 66.7457H282.285V100.385Z" fill="#ED1846"/>
<path d="M358.878 116.842C353.544 116.842 348.392 116.236 343.422 115.023C338.452 113.811 334.361 112.235 331.148 110.296L338.058 94.6576C341.088 96.4154 344.452 97.8398 348.15 98.9308C351.908 99.9612 355.545 100.476 359.06 100.476C361.121 100.476 362.727 100.355 363.879 100.113C365.091 99.8097 365.97 99.4157 366.515 98.9308C367.061 98.3853 367.334 97.7488 367.334 97.0215C367.334 95.8699 366.697 94.9607 365.424 94.2939C364.151 93.6272 362.454 93.0817 360.333 92.6574C358.272 92.1725 355.999 91.6876 353.514 91.2027C351.029 90.6572 348.513 89.9602 345.968 89.1116C343.483 88.263 341.179 87.1417 339.058 85.7476C336.997 84.3535 335.33 82.5352 334.057 80.2925C332.785 77.9892 332.148 75.1405 332.148 71.7462C332.148 67.8064 333.239 64.2303 335.421 61.0178C337.664 57.7447 340.967 55.1384 345.331 53.1988C349.756 51.2592 355.241 50.2894 361.788 50.2894C366.091 50.2894 370.334 50.744 374.516 51.6532C378.698 52.5624 382.456 53.9565 385.79 55.8355L379.335 71.3825C376.183 69.8066 373.122 68.6246 370.152 67.8367C367.243 67.0487 364.394 66.6547 361.606 66.6547C359.545 66.6547 357.908 66.8366 356.696 67.2003C355.484 67.5639 354.605 68.0488 354.06 68.655C353.575 69.2611 353.332 69.9278 353.332 70.6552C353.332 71.7462 353.969 72.6251 355.241 73.2918C356.514 73.8979 358.181 74.4131 360.242 74.8374C362.363 75.2617 364.667 75.7163 367.152 76.2012C369.697 76.6861 372.213 77.3528 374.698 78.2014C377.183 79.05 379.456 80.1713 381.517 81.5654C383.638 82.9594 385.335 84.7778 386.608 87.0205C387.881 89.2631 388.518 92.0513 388.518 95.385C388.518 99.2641 387.396 102.84 385.154 106.113C382.972 109.326 379.698 111.932 375.334 113.932C370.97 115.872 365.485 116.842 358.878 116.842Z" fill="#ED1846"/>
<path d="M418.178 75.3829H446.544V90.839H418.178V75.3829ZM419.632 99.2035H451.454V115.387H398.539V51.7441H450.272V67.9276H419.632V99.2035Z" fill="#ED1846"/>
<path d="M463.351 115.387V51.7441H493.99C499.93 51.7441 505.052 52.7139 509.355 54.6535C513.719 56.5931 517.083 59.3813 519.447 63.018C521.811 66.5941 522.993 70.837 522.993 75.7466C522.993 80.6562 521.811 84.899 519.447 88.4752C517.083 91.9907 513.719 94.6879 509.355 96.5669C505.052 98.4459 499.93 99.3854 493.99 99.3854H475.261L484.807 90.5663V115.387H463.351ZM501.445 115.387L485.807 92.2028H508.537L524.357 115.387H501.445ZM484.807 92.9302L475.261 83.2019H492.626C495.596 83.2019 497.778 82.5352 499.172 81.2017C500.627 79.8682 501.354 78.0498 501.354 75.7466C501.354 73.4433 500.627 71.6249 499.172 70.2915C497.778 68.958 495.596 68.2913 492.626 68.2913H475.261L484.807 58.563V92.9302Z" fill="#ED1846"/>
<path d="M552.007 115.387L525.095 51.7441H548.188L570.099 105.477H556.371L578.919 51.7441H600.012L573.1 115.387H552.007Z" fill="#ED1846"/>
<path d="M587.477 115.387L615.298 51.7441H636.391L664.212 115.387H642.028L621.48 61.927H629.845L609.297 115.387H587.477ZM604.024 104.295L609.479 88.8388H638.755L644.21 104.295H604.024Z" fill="#ED1846"/>
<path d="M671.273 115.387V51.7441H705.277C714.065 51.7441 720.551 53.32 724.733 56.4719C728.915 59.5631 731.007 63.5332 731.007 68.3822C731.007 71.5946 730.097 74.4737 728.279 77.0194C726.521 79.5045 723.945 81.4744 720.551 82.9291C717.157 84.3838 712.974 85.1112 708.004 85.1112L709.823 80.2016C714.793 80.2016 719.066 80.8986 722.642 82.2927C726.279 83.6868 729.067 85.7173 731.007 88.3842C733.007 90.9906 734.007 94.1424 734.007 97.8398C734.007 103.355 731.704 107.659 727.097 110.75C722.551 113.841 715.884 115.387 707.095 115.387H671.273ZM692.366 100.385H705.277C707.641 100.385 709.398 99.9612 710.55 99.1126C711.762 98.264 712.368 97.0215 712.368 95.385C712.368 93.7484 711.762 92.5059 710.55 91.6573C709.398 90.8087 707.641 90.3844 705.277 90.3844H690.912V76.2012H702.367C704.792 76.2012 706.55 75.8072 707.641 75.0192C708.792 74.1707 709.368 72.9887 709.368 71.4734C709.368 69.8975 708.792 68.7156 707.641 67.9276C706.55 67.1396 704.792 66.7457 702.367 66.7457H692.366V100.385Z" fill="#ED1846"/>
<path d="M745.23 115.387V51.7441H766.686V98.7489H795.417V115.387H745.23Z" fill="#ED1846"/>
<path d="M823.709 75.3829H852.076V90.839H823.709V75.3829ZM825.164 99.2035H856.985V115.387H804.071V51.7441H855.804V67.9276H825.164V99.2035Z" fill="#ED1846"/>
<path fill-rule="evenodd" clip-rule="evenodd" d="M51.6864 83.5829C51.6864 65.1954 66.5924 50.2894 84.9799 50.2894V50.2894C99.4139 50.2894 112.487 41.7681 118.313 28.5621L118.715 27.6517C118.946 27.1289 118.563 26.5416 117.991 26.5416L84.9799 26.5416C53.4768 26.5416 27.9386 52.0799 27.9386 83.5829C27.9386 115.086 53.4768 140.624 84.9799 140.624C116.483 140.624 142.021 115.086 142.021 83.5829C142.021 70.7072 137.748 58.824 130.558 49.2826C127.899 45.7537 122.781 45.7819 119.657 48.9063L111.351 57.2117C109.789 58.774 109.811 61.294 111.176 63.0309C115.63 68.6963 118.273 75.8279 118.273 83.5829C118.273 101.97 103.367 116.876 84.9799 116.876C66.5924 116.876 51.6864 101.97 51.6864 83.5829Z" fill="#ED1846"/>
</svg>
