<svg width="115" height="115" viewBox="0 0 115 115" fill="none" xmlns="http://www.w3.org/2000/svg">
<path fill-rule="evenodd" clip-rule="evenodd" d="M23.7478 57.0413C23.7478 38.6538 38.6538 23.7478 57.0413 23.7478C71.4754 23.7478 84.5485 15.2265 90.3746 2.02052L90.7763 1.11004C91.0069 0.587294 90.6241 0 90.0528 0L57.0413 0C25.5382 0 0 25.5382 0 57.0413C0 88.5443 25.5382 114.083 57.0413 114.083C88.5443 114.083 114.083 88.5443 114.083 57.0413C114.083 44.1656 109.809 32.2824 102.62 22.741C99.9607 19.2121 94.8423 19.2402 91.7179 22.3646L83.4124 30.6701C81.8502 32.2324 81.8724 34.7524 83.2378 36.4893C87.6914 42.1547 90.3348 49.2862 90.3348 57.0413C90.3348 75.4288 75.4288 90.3347 57.0413 90.3347C38.6538 90.3347 23.7478 75.4288 23.7478 57.0413Z" fill="#ED1846"/>
</svg>
