<svg width="312" height="31" viewBox="0 0 312 31" fill="none" xmlns="http://www.w3.org/2000/svg">
<path d="M16.5535 30.6764C14.1787 30.6764 11.9716 30.2992 9.93211 29.5449C7.92054 28.7905 6.17439 27.7289 4.69365 26.3599C3.21292 24.963 2.05347 23.3286 1.21532 21.4567C0.405107 19.5848 0 17.5453 0 15.3382C0 13.1031 0.405107 11.0636 1.21532 9.21968C2.05347 7.3478 3.21292 5.72738 4.69365 4.35839C6.17439 2.96147 7.92054 1.88584 9.93211 1.13151C11.9716 0.377169 14.1787 0 16.5535 0C18.9562 0 21.1634 0.377169 23.1749 1.13151C25.1865 1.88584 26.9326 2.96147 28.4134 4.35839C29.8941 5.72738 31.0396 7.3478 31.8498 9.21968C32.688 11.0636 33.107 13.1031 33.107 15.3382C33.107 17.5453 32.688 19.5848 31.8498 21.4567C31.0396 23.3286 29.8941 24.963 28.4134 26.3599C26.9326 27.7289 25.1865 28.7905 23.1749 29.5449C21.1634 30.2992 18.9562 30.6764 16.5535 30.6764ZM16.5535 22.672C17.4755 22.672 18.3276 22.5044 19.1099 22.1691C19.9201 21.8339 20.6186 21.3589 21.2053 20.7443C21.8199 20.1017 22.2949 19.3334 22.6301 18.4394C22.9654 17.5174 23.133 16.4837 23.133 15.3382C23.133 14.1927 22.9654 13.173 22.6301 12.2789C22.2949 11.357 21.8199 10.5887 21.2053 9.97402C20.6186 9.33143 19.9201 8.84251 19.1099 8.50725C18.3276 8.17199 17.4755 8.00436 16.5535 8.00436C15.6315 8.00436 14.7655 8.17199 13.9552 8.50725C13.173 8.84251 12.4745 9.33143 11.8599 9.97402C11.2732 10.5887 10.8122 11.357 10.4769 12.2789C10.1416 13.173 9.97402 14.1927 9.97402 15.3382C9.97402 16.4837 10.1416 17.5174 10.4769 18.4394C10.8122 19.3334 11.2732 20.1017 11.8599 20.7443C12.4745 21.3589 13.173 21.8339 13.9552 22.1691C14.7655 22.5044 15.6315 22.672 16.5535 22.672Z" fill="#ED1846"/>
<path d="M37.1158 30.0059V0.670521H52.7892C56.8403 0.670521 59.8297 1.39692 61.7574 2.84972C63.6852 4.27458 64.6491 6.10455 64.6491 8.33962C64.6491 9.82035 64.23 11.1474 63.3918 12.3208C62.5816 13.4663 61.3942 14.3743 59.8297 15.0448C58.2651 15.7154 56.3374 16.0506 54.0464 16.0506L54.8846 13.7876C57.1755 13.7876 59.1452 14.1089 60.7936 14.7515C62.4699 15.3941 63.755 16.33 64.6491 17.5593C65.571 18.7606 66.032 20.2134 66.032 21.9177C66.032 24.4601 64.9704 26.4437 62.847 27.8686C60.7517 29.2934 57.6784 30.0059 53.6274 30.0059H37.1158ZM46.8383 23.0911H52.7892C53.8788 23.0911 54.689 22.8955 55.2198 22.5044C55.7786 22.1133 56.058 21.5405 56.058 20.7862C56.058 20.0318 55.7786 19.4591 55.2198 19.068C54.689 18.6768 53.8788 18.4813 52.7892 18.4813H46.1678V11.9437H51.4482C52.5657 11.9437 53.3759 11.7621 53.8788 11.3989C54.4096 11.0077 54.675 10.4629 54.675 9.76448C54.675 9.03808 54.4096 8.49328 53.8788 8.13008C53.3759 7.76688 52.5657 7.58528 51.4482 7.58528H46.8383V23.0911Z" fill="#ED1846"/>
<path d="M82.1429 30.6764C79.6843 30.6764 77.3095 30.397 75.0186 29.8382C72.7276 29.2795 70.8418 28.5531 69.3611 27.659L72.546 20.4509C73.9429 21.2611 75.4935 21.9177 77.1978 22.4206C78.93 22.8955 80.6063 23.133 82.2267 23.133C83.1766 23.133 83.917 23.0771 84.4478 22.9654C85.0066 22.8257 85.4117 22.6441 85.6631 22.4206C85.9146 22.1691 86.0403 21.8758 86.0403 21.5405C86.0403 21.0097 85.7469 20.5906 85.1602 20.2833C84.5735 19.976 83.7912 19.7245 82.8134 19.529C81.8635 19.3054 80.8158 19.0819 79.6703 18.8584C78.5248 18.607 77.3654 18.2857 76.192 17.8946C75.0465 17.5034 73.9849 16.9866 73.007 16.344C72.0571 15.7014 71.2888 14.8632 70.7021 13.8295C70.1154 12.7679 69.822 11.4548 69.822 9.8902C69.822 8.0742 70.3249 6.42584 71.3307 4.9451C72.3644 3.43643 73.8871 2.23507 75.8986 1.34104C77.9381 0.447015 80.4666 0 83.4839 0C85.4676 0 87.4232 0.209538 89.351 0.628614C91.2787 1.04769 93.0109 1.69027 94.5475 2.55637L91.5721 9.72257C90.1193 8.99617 88.7084 8.45137 87.3394 8.08817C85.9984 7.72497 84.6853 7.54337 83.4001 7.54337C82.4502 7.54337 81.6959 7.62719 81.1371 7.79482C80.5783 7.96245 80.1732 8.18596 79.9218 8.46534C79.6983 8.74473 79.5865 9.05205 79.5865 9.38731C79.5865 9.8902 79.8799 10.2953 80.4666 10.6026C81.0533 10.882 81.8216 11.1195 82.7715 11.3151C83.7493 11.5106 84.811 11.7202 85.9565 11.9437C87.1299 12.1672 88.2893 12.4745 89.4348 12.8656C90.5803 13.2568 91.628 13.7736 92.5779 14.4162C93.5557 15.0588 94.338 15.897 94.9247 16.9307C95.5114 17.9644 95.8048 19.2496 95.8048 20.7862C95.8048 22.5742 95.2879 24.2226 94.2542 25.7313C93.2484 27.212 91.7397 28.4134 89.7282 29.3353C87.7166 30.2294 85.1882 30.6764 82.1429 30.6764Z" fill="#ED1846"/>
<path d="M109.476 11.5665H122.551V18.6908H109.476V11.5665ZM110.147 22.5463H124.814V30.0059H100.424V0.670521H124.27V8.13008H110.147V22.5463Z" fill="#ED1846"/>
<path d="M130.298 30.0059V0.670521H144.421C147.159 0.670521 149.52 1.11754 151.503 2.01157C153.515 2.90559 155.065 4.19076 156.155 5.86707C157.245 7.51543 157.789 9.47112 157.789 11.7341C157.789 13.9971 157.245 15.9528 156.155 17.6012C155.065 19.2216 153.515 20.4649 151.503 21.331C149.52 22.1971 147.159 22.6301 144.421 22.6301H135.788L140.188 18.5651V30.0059H130.298ZM147.857 30.0059L140.649 19.3194H151.126L158.418 30.0059H147.857ZM140.188 19.6547L135.788 15.1706H143.792C145.161 15.1706 146.167 14.8632 146.81 14.2486C147.48 13.6339 147.815 12.7958 147.815 11.7341C147.815 10.6725 147.48 9.83432 146.81 9.21968C146.167 8.60503 145.161 8.29771 143.792 8.29771H135.788L140.188 3.8136V19.6547Z" fill="#ED1846"/>
<path d="M171.163 30.0059L158.758 0.670521H169.403L179.502 25.4379H173.174L183.568 0.670521H193.29L180.885 30.0059H171.163Z" fill="#ED1846"/>
<path d="M187.512 30.0059L200.336 0.670521H210.059L222.882 30.0059H212.657L203.186 5.36418H207.041L197.57 30.0059H187.512ZM195.14 24.8931L197.654 17.7688H211.148L213.663 24.8931H195.14Z" fill="#ED1846"/>
<path d="M226.137 30.0059V0.670521H241.811C245.862 0.670521 248.851 1.39692 250.779 2.84972C252.707 4.27458 253.67 6.10455 253.67 8.33962C253.67 9.82035 253.251 11.1474 252.413 12.3208C251.603 13.4663 250.416 14.3743 248.851 15.0448C247.287 15.7154 245.359 16.0506 243.068 16.0506L243.906 13.7876C246.197 13.7876 248.167 14.1089 249.815 14.7515C251.491 15.3941 252.776 16.33 253.67 17.5593C254.592 18.7606 255.053 20.2134 255.053 21.9177C255.053 24.4601 253.992 26.4437 251.868 27.8686C249.773 29.2934 246.7 30.0059 242.649 30.0059H226.137ZM235.86 23.0911H241.811C242.9 23.0911 243.71 22.8955 244.241 22.5044C244.8 22.1133 245.079 21.5405 245.079 20.7862C245.079 20.0318 244.8 19.4591 244.241 19.068C243.71 18.6768 242.9 18.4813 241.811 18.4813H235.189V11.9437H240.47C241.587 11.9437 242.397 11.7621 242.9 11.3989C243.431 11.0077 243.696 10.4629 243.696 9.76448C243.696 9.03808 243.431 8.49328 242.9 8.13008C242.397 7.76688 241.587 7.58528 240.47 7.58528H235.86V23.0911Z" fill="#ED1846"/>
<path d="M260.226 30.0059V0.670521H270.117V22.3368H283.359V30.0059H260.226Z" fill="#ED1846"/>
<path d="M296.401 11.5665H309.476V18.6908H296.401V11.5665ZM297.071 22.5463H311.739V30.0059H287.349V0.670521H311.194V8.13008H297.071V22.5463Z" fill="#ED1846"/>
</svg>
