<svg width="372" height="217" viewBox="0 0 372 217" fill="none" xmlns="http://www.w3.org/2000/svg">
<path d="M46.5535 186.672C44.1787 186.672 41.9716 186.294 39.9321 185.54C37.9205 184.786 36.1744 183.724 34.6937 182.355C33.2129 180.958 32.0535 179.324 31.2153 177.452C30.4051 175.58 30 173.54 30 171.333C30 169.098 30.4051 167.059 31.2153 165.215C32.0535 163.343 33.2129 161.722 34.6937 160.354C36.1744 158.957 37.9205 157.881 39.9321 157.127C41.9716 156.372 44.1787 155.995 46.5535 155.995C48.9562 155.995 51.1634 156.372 53.1749 157.127C55.1865 157.881 56.9326 158.957 58.4134 160.354C59.8941 161.722 61.0396 163.343 61.8498 165.215C62.688 167.059 63.107 169.098 63.107 171.333C63.107 173.54 62.688 175.58 61.8498 177.452C61.0396 179.324 59.8941 180.958 58.4134 182.355C56.9326 183.724 55.1865 184.786 53.1749 185.54C51.1634 186.294 48.9562 186.672 46.5535 186.672ZM46.5535 178.667C47.4755 178.667 48.3276 178.5 49.1099 178.164C49.9201 177.829 50.6186 177.354 51.2053 176.739C51.8199 176.097 52.2949 175.329 52.6301 174.434C52.9654 173.513 53.133 172.479 53.133 171.333C53.133 170.188 52.9654 169.168 52.6301 168.274C52.2949 167.352 51.8199 166.584 51.2053 165.969C50.6186 165.327 49.9201 164.838 49.1099 164.502C48.3276 164.167 47.4755 163.999 46.5535 163.999C45.6315 163.999 44.7655 164.167 43.9552 164.502C43.173 164.838 42.4745 165.327 41.8599 165.969C41.2732 166.584 40.8122 167.352 40.4769 168.274C40.1416 169.168 39.974 170.188 39.974 171.333C39.974 172.479 40.1416 173.513 40.4769 174.434C40.8122 175.329 41.2732 176.097 41.8599 176.739C42.4745 177.354 43.173 177.829 43.9552 178.164C44.7655 178.5 45.6315 178.667 46.5535 178.667Z" fill="#ED1846"/>
<path d="M67.1158 186.001V156.666H82.7892C86.8403 156.666 89.8297 157.392 91.7574 158.845C93.6852 160.27 94.6491 162.1 94.6491 164.335C94.6491 165.815 94.23 167.143 93.3918 168.316C92.5816 169.461 91.3942 170.369 89.8297 171.04C88.2651 171.71 86.3374 172.046 84.0464 172.046L84.8846 169.783C87.1755 169.783 89.1452 170.104 90.7936 170.747C92.4699 171.389 93.755 172.325 94.6491 173.554C95.571 174.756 96.032 176.209 96.032 177.913C96.032 180.455 94.9704 182.439 92.847 183.864C90.7517 185.289 87.6784 186.001 83.6274 186.001H67.1158ZM76.8383 179.086H82.7892C83.8788 179.086 84.689 178.891 85.2198 178.5C85.7786 178.108 86.058 177.536 86.058 176.781C86.058 176.027 85.7786 175.454 85.2198 175.063C84.689 174.672 83.8788 174.476 82.7892 174.476H76.1678V167.939H81.4482C82.5657 167.939 83.3759 167.757 83.8788 167.394C84.4096 167.003 84.675 166.458 84.675 165.76C84.675 165.033 84.4096 164.488 83.8788 164.125C83.3759 163.762 82.5657 163.58 81.4482 163.58H76.8383V179.086Z" fill="#ED1846"/>
<path d="M112.143 186.672C109.684 186.672 107.31 186.392 105.019 185.833C102.728 185.275 100.842 184.548 99.3611 183.654L102.546 176.446C103.943 177.256 105.494 177.913 107.198 178.416C108.93 178.891 110.606 179.128 112.227 179.128C113.177 179.128 113.917 179.072 114.448 178.96C115.007 178.821 115.412 178.639 115.663 178.416C115.915 178.164 116.04 177.871 116.04 177.536C116.04 177.005 115.747 176.586 115.16 176.278C114.574 175.971 113.791 175.72 112.813 175.524C111.863 175.301 110.816 175.077 109.67 174.854C108.525 174.602 107.365 174.281 106.192 173.89C105.047 173.499 103.985 172.982 103.007 172.339C102.057 171.697 101.289 170.858 100.702 169.825C100.115 168.763 99.822 167.45 99.822 165.885C99.822 164.069 100.325 162.421 101.331 160.94C102.364 159.432 103.887 158.23 105.899 157.336C107.938 156.442 110.467 155.995 113.484 155.995C115.468 155.995 117.423 156.205 119.351 156.624C121.279 157.043 123.011 157.685 124.548 158.551L121.572 165.718C120.119 164.991 118.708 164.446 117.339 164.083C115.998 163.72 114.685 163.538 113.4 163.538C112.45 163.538 111.696 163.622 111.137 163.79C110.578 163.958 110.173 164.181 109.922 164.46C109.698 164.74 109.587 165.047 109.587 165.382C109.587 165.885 109.88 166.29 110.467 166.598C111.053 166.877 111.822 167.115 112.771 167.31C113.749 167.506 114.811 167.715 115.956 167.939C117.13 168.162 118.289 168.47 119.435 168.861C120.58 169.252 121.628 169.769 122.578 170.411C123.556 171.054 124.338 171.892 124.925 172.926C125.511 173.96 125.805 175.245 125.805 176.781C125.805 178.569 125.288 180.218 124.254 181.726C123.248 183.207 121.74 184.408 119.728 185.33C117.717 186.224 115.188 186.672 112.143 186.672Z" fill="#ED1846"/>
<path d="M139.476 167.562H152.551V174.686H139.476V167.562ZM140.147 178.541H154.814V186.001H130.424V156.666H154.27V164.125H140.147V178.541Z" fill="#ED1846"/>
<path d="M160.298 186.001V156.666H174.421C177.159 156.666 179.52 157.113 181.503 158.007C183.515 158.901 185.065 160.186 186.155 161.862C187.245 163.511 187.789 165.466 187.789 167.729C187.789 169.992 187.245 171.948 186.155 173.596C185.065 175.217 183.515 176.46 181.503 177.326C179.52 178.192 177.159 178.625 174.421 178.625H165.788L170.188 174.56V186.001H160.298ZM177.857 186.001L170.649 175.315H181.126L188.418 186.001H177.857ZM170.188 175.65L165.788 171.166H173.792C175.161 171.166 176.167 170.858 176.81 170.244C177.48 169.629 177.815 168.791 177.815 167.729C177.815 166.668 177.48 165.829 176.81 165.215C176.167 164.6 175.161 164.293 173.792 164.293H165.788L170.188 159.809V175.65Z" fill="#ED1846"/>
<path d="M201.163 186.001L188.758 156.666H199.403L209.502 181.433H203.174L213.568 156.666H223.29L210.885 186.001H201.163Z" fill="#ED1846"/>
<path d="M217.512 186.001L230.336 156.666H240.059L252.882 186.001H242.657L233.186 161.359H237.041L227.57 186.001H217.512ZM225.14 180.888L227.654 173.764H241.148L243.663 180.888H225.14Z" fill="#ED1846"/>
<path d="M256.137 186.001V156.666H271.811C275.862 156.666 278.851 157.392 280.779 158.845C282.707 160.27 283.67 162.1 283.67 164.335C283.67 165.815 283.251 167.143 282.413 168.316C281.603 169.461 280.416 170.369 278.851 171.04C277.287 171.71 275.359 172.046 273.068 172.046L273.906 169.783C276.197 169.783 278.167 170.104 279.815 170.747C281.491 171.389 282.776 172.325 283.67 173.554C284.592 174.756 285.053 176.209 285.053 177.913C285.053 180.455 283.992 182.439 281.868 183.864C279.773 185.289 276.7 186.001 272.649 186.001H256.137ZM265.86 179.086H271.811C272.9 179.086 273.71 178.891 274.241 178.5C274.8 178.108 275.079 177.536 275.079 176.781C275.079 176.027 274.8 175.454 274.241 175.063C273.71 174.672 272.9 174.476 271.811 174.476H265.189V167.939H270.47C271.587 167.939 272.397 167.757 272.9 167.394C273.431 167.003 273.696 166.458 273.696 165.76C273.696 165.033 273.431 164.488 272.9 164.125C272.397 163.762 271.587 163.58 270.47 163.58H265.86V179.086Z" fill="#ED1846"/>
<path d="M290.226 186.001V156.666H300.117V178.332H313.359V186.001H290.226Z" fill="#ED1846"/>
<path d="M326.401 167.562H339.476V174.686H326.401V167.562ZM327.071 178.541H341.739V186.001H317.349V156.666H341.194V164.125H327.071V178.541Z" fill="#ED1846"/>
<path fill-rule="evenodd" clip-rule="evenodd" d="M153.515 82.5323C153.515 64.1454 168.421 49.2398 186.808 49.2398C201.242 49.2398 214.314 40.7188 220.14 27.5131L220.542 26.6027C220.773 26.08 220.39 25.4927 219.819 25.4927L186.808 25.4927C155.306 25.4927 129.768 51.0302 129.768 82.5323C129.768 114.034 155.306 139.572 186.808 139.572C218.31 139.572 243.848 114.034 243.848 82.5323C243.848 68.1196 238.493 54.9505 229.687 44.9177C228.33 43.3713 225.961 43.3789 224.507 44.8337L211.667 57.6735C210.939 58.401 210.944 59.5771 211.63 60.3436C216.908 66.2414 220.101 74.0104 220.101 82.5323C220.101 100.919 205.195 115.825 186.808 115.825C168.421 115.825 153.515 100.919 153.515 82.5323Z" fill="#ED1846"/>
</svg>
