<svg width="115" height="115" viewBox="0 0 115 115" fill="none" xmlns="http://www.w3.org/2000/svg">
<path fill-rule="evenodd" clip-rule="evenodd" d="M23.7473 57.04C23.7473 38.6529 38.6529 23.7473 57.04 23.7473C71.4738 23.7473 84.5466 15.2262 90.3726 2.02046L90.7743 1.11002C91.0049 0.587283 90.6221 0 90.0508 0L57.04 0C25.5377 0 0 25.5377 0 57.04C0 88.5423 25.5377 114.08 57.04 114.08C88.5423 114.08 114.08 88.5423 114.08 57.04C114.08 42.6272 108.725 29.458 99.9198 19.4251C98.5626 17.8788 96.1937 17.8863 94.7389 19.3411L81.899 32.181C81.1715 32.9085 81.1759 34.0846 81.862 34.8512C87.1406 40.749 90.3327 48.518 90.3327 57.04C90.3327 75.4271 75.4271 90.3327 57.04 90.3327C38.6529 90.3327 23.7473 75.4271 23.7473 57.04Z" fill="#ED1846"/>
</svg>
