<svg width="130" height="112" viewBox="0 0 130 112" fill="none" xmlns="http://www.w3.org/2000/svg">
<path fill-rule="evenodd" clip-rule="evenodd" d="M97.5569 1.00001C97.1997 0.381204 96.5394 4.82897e-06 95.8249 4.77508e-06L33.6683 8.70902e-08C32.9538 3.31986e-08 32.2935 0.381198 31.9363 1L0.85799 54.8292C0.500725 55.448 0.500724 56.2104 0.85799 56.8292L31.9363 110.658C32.2935 111.277 32.9538 111.658 33.6683 111.658L95.8249 111.658C96.5394 111.658 97.1997 111.277 97.5569 110.658L128.158 57.6559C128.627 56.844 128.041 55.8292 127.103 55.8292C111.44 55.8292 96.9664 64.1854 89.1348 77.7502L83.7694 87.0434C83.4596 87.58 82.8871 87.9105 82.2676 87.9105L47.3791 87.9105C46.6646 87.9105 46.0043 87.5293 45.6471 86.9105L28.2796 56.8292C27.9223 56.2104 27.9223 55.448 28.2796 54.8292L45.6471 24.7478C46.0043 24.129 46.6646 23.7478 47.3791 23.7478L82.1141 23.7478C82.8286 23.7478 83.4888 24.129 83.8461 24.7478L94.9796 44.0315C96.0841 45.9447 98.5305 46.6002 100.444 45.4956L110.618 39.6217C114.444 37.4126 115.755 32.5199 113.546 28.6935L97.5569 1.00001Z" fill="#303030"/>
</svg>
