<svg width="466" height="31" viewBox="0 0 466 31" fill="none" xmlns="http://www.w3.org/2000/svg">
<path d="M17.173 30.6766C14.8262 30.6766 12.647 30.3134 10.6354 29.587C8.65178 28.8326 6.91959 27.7709 5.43885 26.402C3.98604 25.033 2.85453 23.4125 2.04431 21.5406C1.23409 19.6688 0.828979 17.6013 0.828979 15.3383C0.828979 13.0753 1.23409 11.0078 2.04431 9.13591C2.85453 7.26403 3.98604 5.64359 5.43885 4.2746C6.91959 2.90561 8.65178 1.85792 10.6354 1.13151C12.647 0.377172 14.8262 0 17.173 0C20.0507 0 22.5931 0.502895 24.8003 1.50868C27.0354 2.51447 28.8793 3.96728 30.3321 5.8671L24.0878 11.4408C23.2218 10.3512 22.2579 9.51309 21.1962 8.92638C20.1625 8.31173 18.9891 8.0044 17.6759 8.0044C16.6422 8.0044 15.7063 8.17203 14.8681 8.5073C14.03 8.84256 13.3036 9.33148 12.6889 9.97407C12.1022 10.6167 11.6412 11.3989 11.3059 12.3209C10.9707 13.2149 10.8031 14.2207 10.8031 15.3383C10.8031 16.4558 10.9707 17.4756 11.3059 18.3976C11.6412 19.2916 12.1022 20.0599 12.6889 20.7025C13.3036 21.3451 14.03 21.834 14.8681 22.1693C15.7063 22.5045 16.6422 22.6722 17.6759 22.6722C18.9891 22.6722 20.1625 22.3788 21.1962 21.7921C22.2579 21.1774 23.2218 20.3253 24.0878 19.2357L30.3321 24.8095C28.8793 26.6813 27.0354 28.1341 24.8003 29.1679C22.5931 30.1737 20.0507 30.6766 17.173 30.6766Z" fill="#303030"/>
<path d="M47.6558 30.6766C43.1577 30.6766 39.6514 29.4612 37.1369 27.0306C34.6224 24.5999 33.3652 21.1914 33.3652 16.8051V0.670525H43.2555V16.5117C43.2555 18.7468 43.6606 20.3393 44.4708 21.2892C45.281 22.2112 46.3706 22.6722 47.7396 22.6722C49.1365 22.6722 50.2261 22.2112 51.0084 21.2892C51.8186 20.3393 52.2237 18.7468 52.2237 16.5117V0.670525H61.9464V16.8051C61.9464 21.1914 60.6891 24.5999 58.1747 27.0306C55.6602 29.4612 52.1539 30.6766 47.6558 30.6766Z" fill="#303030"/>
<path d="M78.2561 30.6766C75.7975 30.6766 73.4227 30.3972 71.1317 29.8384C68.8408 29.2796 66.9549 28.5532 65.4742 27.6592L68.6591 20.451C70.0561 21.2613 71.6067 21.9178 73.3109 22.4207C75.0431 22.8957 76.7194 23.1331 78.3399 23.1331C79.2898 23.1331 80.0302 23.0773 80.561 22.9655C81.1198 22.8258 81.5249 22.6442 81.7763 22.4207C82.0278 22.1693 82.1535 21.8759 82.1535 21.5406C82.1535 21.0098 81.8601 20.5907 81.2734 20.2834C80.6867 19.9761 79.9044 19.7246 78.9266 19.5291C77.9767 19.3056 76.929 19.0821 75.7835 18.8585C74.638 18.6071 73.4786 18.2858 72.3051 17.8947C71.1597 17.5035 70.098 16.9867 69.1201 16.3441C68.1702 15.7015 67.4019 14.8633 66.8152 13.8296C66.2285 12.7679 65.9351 11.4548 65.9351 9.89026C65.9351 8.07425 66.438 6.42587 67.4438 4.94513C68.4776 3.43645 70.0002 2.23509 72.0118 1.34105C74.0513 0.447018 76.5797 0 79.5971 0C81.5807 0 83.5365 0.209539 85.4642 0.628617C87.392 1.0477 89.1242 1.69028 90.6608 2.55638L87.6853 9.72263C86.2325 8.99622 84.8216 8.45142 83.4526 8.08822C82.1116 7.72502 80.7985 7.54342 79.5133 7.54342C78.5634 7.54342 77.809 7.62723 77.2503 7.79486C76.6915 7.96249 76.2864 8.186 76.0349 8.46539C75.8114 8.74478 75.6997 9.0521 75.6997 9.38736C75.6997 9.89026 75.993 10.2954 76.5797 10.6027C77.1665 10.8821 77.9348 11.1196 78.8847 11.3151C79.8625 11.5107 80.9242 11.7202 82.0697 11.9437C83.2431 12.1673 84.4025 12.4746 85.548 12.8657C86.6935 13.2569 87.7412 13.7737 88.6911 14.4163C89.669 15.0589 90.4512 15.8971 91.038 16.9308C91.6247 17.9645 91.918 19.2497 91.918 20.7863C91.918 22.5744 91.4012 24.2227 90.3674 25.7314C89.3616 27.2122 87.853 28.4135 85.8414 29.3355C83.8298 30.2295 81.3014 30.6766 78.2561 30.6766Z" fill="#303030"/>
<path d="M102.488 30.006V8.33967H93.8972V0.670525H120.97V8.33967H112.379V30.006H102.488Z" fill="#303030"/>
<path d="M138.919 30.6766C136.544 30.6766 134.337 30.2994 132.297 29.545C130.286 28.7907 128.539 27.729 127.059 26.36C125.578 24.9631 124.419 23.3287 123.58 21.4568C122.77 19.5849 122.365 17.5454 122.365 15.3383C122.365 13.1032 122.77 11.0637 123.58 9.21973C124.419 7.34785 125.578 5.72741 127.059 4.35842C128.539 2.96149 130.286 1.88585 132.297 1.13151C134.337 0.377172 136.544 0 138.919 0C141.321 0 143.529 0.377172 145.54 1.13151C147.552 1.88585 149.298 2.96149 150.779 4.35842C152.259 5.72741 153.405 7.34785 154.215 9.21973C155.053 11.0637 155.472 13.1032 155.472 15.3383C155.472 17.5454 155.053 19.5849 154.215 21.4568C153.405 23.3287 152.259 24.9631 150.779 26.36C149.298 27.729 147.552 28.7907 145.54 29.545C143.529 30.2994 141.321 30.6766 138.919 30.6766ZM138.919 22.6722C139.841 22.6722 140.693 22.5045 141.475 22.1693C142.285 21.834 142.984 21.359 143.57 20.7444C144.185 20.1018 144.66 19.3335 144.995 18.4395C145.331 17.5175 145.498 16.4838 145.498 15.3383C145.498 14.1928 145.331 13.173 144.995 12.279C144.66 11.357 144.185 10.5887 143.57 9.97407C142.984 9.33148 142.285 8.84256 141.475 8.5073C140.693 8.17203 139.841 8.0044 138.919 8.0044C137.997 8.0044 137.131 8.17203 136.32 8.5073C135.538 8.84256 134.84 9.33148 134.225 9.97407C133.638 10.5887 133.177 11.357 132.842 12.279C132.507 13.173 132.339 14.1928 132.339 15.3383C132.339 16.4838 132.507 17.5175 132.842 18.4395C133.177 19.3335 133.638 20.1018 134.225 20.7444C134.84 21.359 135.538 21.834 136.32 22.1693C137.131 22.5045 137.997 22.6722 138.919 22.6722Z" fill="#303030"/>
<path d="M159.481 30.006V0.670525H167.611L179.345 19.8224H175.071L186.47 0.670525H194.6L194.684 30.006H185.673L185.59 14.2487H187.015L179.22 27.3658H174.861L166.731 14.2487H168.491V30.006H159.481Z" fill="#303030"/>
<path d="M200.639 21.4568V14.3325H213.211V21.4568H200.639Z" fill="#303030"/>
<path d="M228.199 11.5666H241.275V18.6909H228.199V11.5666ZM228.87 22.5464H243.538V30.006H219.147V0.670525H242.993V8.13013H228.87V22.5464Z" fill="#303030"/>
<path d="M249.021 30.006V0.670525H258.912V22.3369H272.155V30.006H249.021Z" fill="#303030"/>
<path d="M285.615 11.5666H298.69V18.6909H285.615V11.5666ZM286.285 22.5464H300.953V30.006H276.563V0.670525H300.408V8.13013H286.285V22.5464Z" fill="#303030"/>
<path d="M306.437 30.006V0.670525H314.567L326.301 19.8224H322.027L333.426 0.670525H341.556L341.639 30.006H332.629L332.545 14.2487H333.97L326.175 27.3658H321.817L313.687 14.2487H315.447V30.006H306.437Z" fill="#303030"/>
<path d="M356.731 11.5666H369.806V18.6909H356.731V11.5666ZM357.401 22.5464H372.069V30.006H347.678V0.670525H371.524V8.13013H357.401V22.5464Z" fill="#303030"/>
<path d="M377.553 30.006V0.670525H385.683L400.602 18.5233H396.83V0.670525H406.469V30.006H398.339L383.42 12.1533H387.191V30.006H377.553Z" fill="#303030"/>
<path d="M418.862 30.006V8.33967H410.27V0.670525H437.343V8.33967H428.752V30.006H418.862Z" fill="#303030"/>
<path d="M452.107 30.6766C449.648 30.6766 447.274 30.3972 444.983 29.8384C442.692 29.2796 440.806 28.5532 439.325 27.6592L442.51 20.451C443.907 21.2613 445.458 21.9178 447.162 22.4207C448.894 22.8957 450.57 23.1331 452.191 23.1331C453.141 23.1331 453.881 23.0773 454.412 22.9655C454.971 22.8258 455.376 22.6442 455.627 22.4207C455.879 22.1693 456.004 21.8759 456.004 21.5406C456.004 21.0098 455.711 20.5907 455.124 20.2834C454.538 19.9761 453.755 19.7246 452.777 19.5291C451.828 19.3056 450.78 19.0821 449.634 18.8585C448.489 18.6071 447.329 18.2858 446.156 17.8947C445.011 17.5035 443.949 16.9867 442.971 16.3441C442.021 15.7015 441.253 14.8633 440.666 13.8296C440.079 12.7679 439.786 11.4548 439.786 9.89026C439.786 8.07425 440.289 6.42587 441.295 4.94513C442.328 3.43645 443.851 2.23509 445.863 1.34105C447.902 0.447018 450.431 0 453.448 0C455.432 0 457.387 0.209539 459.315 0.628617C461.243 1.0477 462.975 1.69028 464.512 2.55638L461.536 9.72263C460.083 8.99622 458.673 8.45142 457.304 8.08822C455.963 7.72502 454.649 7.54342 453.364 7.54342C452.414 7.54342 451.66 7.62723 451.101 7.79486C450.542 7.96249 450.137 8.186 449.886 8.46539C449.662 8.74478 449.551 9.0521 449.551 9.38736C449.551 9.89026 449.844 10.2954 450.431 10.6027C451.017 10.8821 451.786 11.1196 452.736 11.3151C453.713 11.5107 454.775 11.7202 455.921 11.9437C457.094 12.1673 458.253 12.4746 459.399 12.8657C460.544 13.2569 461.592 13.7737 462.542 14.4163C463.52 15.0589 464.302 15.8971 464.889 16.9308C465.476 17.9645 465.769 19.2497 465.769 20.7863C465.769 22.5744 465.252 24.2227 464.218 25.7314C463.213 27.2122 461.704 28.4135 459.692 29.3355C457.681 30.2295 455.152 30.6766 452.107 30.6766Z" fill="#303030"/>
</svg>
