<svg width="130" height="112" viewBox="0 0 130 112" fill="none" xmlns="http://www.w3.org/2000/svg">
<path fill-rule="evenodd" clip-rule="evenodd" d="M97.1337 0.465655C96.9674 0.17751 96.6599 4.80623e-06 96.3272 4.78114e-06L32.9357 0C32.6029 -2.50947e-08 32.2955 0.177505 32.1291 0.465651L0.433364 55.3643C0.267003 55.6525 0.267004 56.0075 0.433365 56.2957L32.1291 111.194C32.2955 111.482 32.6029 111.66 32.9357 111.66L96.3272 111.66C96.6599 111.66 96.9674 111.483 97.1337 111.194L128.292 57.227C128.65 56.6061 128.202 55.83 127.485 55.83H121.033C109.055 55.83 97.987 62.2202 91.998 72.5934L83.4227 87.4462C83.2564 87.7343 82.9489 87.9118 82.6162 87.9118L46.6467 87.9118C46.314 87.9118 46.0065 87.7343 45.8402 87.4462L27.8554 56.2957C27.689 56.0075 27.689 55.6525 27.8554 55.3643L45.8402 24.2138C46.0065 23.9257 46.314 23.7482 46.6467 23.7482L82.6162 23.7482C82.9489 23.7482 83.2564 23.9257 83.4227 24.2138L95.9336 45.8833C96.4479 46.7742 97.5871 47.0794 98.478 46.5651L115.818 36.5536C116.709 36.0392 117.014 34.9001 116.5 34.0092L97.1337 0.465655Z" fill="#ED1846"/>
</svg>
