<svg width="1219" height="167" viewBox="0 0 1219 167" fill="none" xmlns="http://www.w3.org/2000/svg">
<rect width="1218" height="167" transform="translate(0.00292969)" fill="white"/>
<path d="M215.131 116.842C210.039 116.842 205.312 116.054 200.947 114.478C196.644 112.842 192.886 110.538 189.673 107.568C186.522 104.598 184.067 101.083 182.309 97.0218C180.551 92.9607 179.672 88.4754 179.672 83.5658C179.672 78.6561 180.551 74.1708 182.309 70.1098C184.067 66.0487 186.522 62.5332 189.673 59.5632C192.886 56.5931 196.644 54.3202 200.947 52.7442C205.312 51.1077 210.039 50.2894 215.131 50.2894C221.374 50.2894 226.89 51.3805 231.678 53.5625C236.527 55.7446 240.527 58.8964 243.679 63.0181L230.132 75.1103C228.253 72.7464 226.162 70.928 223.859 69.6552C221.616 68.3217 219.071 67.6549 216.222 67.6549C213.979 67.6549 211.949 68.0186 210.13 68.746C208.312 69.4733 206.736 70.534 205.402 71.9281C204.13 73.3222 203.129 75.0194 202.402 77.0196C201.675 78.9592 201.311 81.1413 201.311 83.5658C201.311 85.9903 201.675 88.2026 202.402 90.2028C203.129 92.1424 204.13 93.8093 205.402 95.2034C206.736 96.5975 208.312 97.6582 210.13 98.3855C211.949 99.1129 213.979 99.4766 216.222 99.4766C219.071 99.4766 221.616 98.8401 223.859 97.5673C226.162 96.2338 228.253 94.3851 230.132 92.0212L243.679 104.113C240.527 108.174 236.527 111.326 231.678 113.569C226.89 115.751 221.374 116.842 215.131 116.842Z" fill="#303030"/>
<path d="M281.263 116.842C271.504 116.842 263.897 114.205 258.442 108.932C252.987 103.659 250.26 96.2641 250.26 86.7479V51.7441H271.716V86.1115C271.716 90.9605 272.595 94.4154 274.353 96.4762C276.111 98.4765 278.475 99.4766 281.445 99.4766C284.475 99.4766 286.839 98.4765 288.536 96.4762C290.294 94.4154 291.173 90.9605 291.173 86.1115V51.7441H312.266V86.7479C312.266 96.2641 309.539 103.659 304.084 108.932C298.628 114.205 291.022 116.842 281.263 116.842Z" fill="#303030"/>
<path d="M347.65 116.842C342.316 116.842 337.164 116.236 332.194 115.024C327.224 113.811 323.132 112.236 319.92 110.296L326.83 94.6579C329.86 96.4156 333.224 97.84 336.922 98.9311C340.68 99.9615 344.316 100.477 347.832 100.477C349.893 100.477 351.499 100.355 352.651 100.113C353.863 99.8099 354.742 99.416 355.287 98.9311C355.833 98.3855 356.106 97.7491 356.106 97.0218C356.106 95.8701 355.469 94.9609 354.196 94.2942C352.923 93.6275 351.226 93.0819 349.105 92.6577C347.044 92.1728 344.771 91.6879 342.286 91.203C339.801 90.6574 337.285 89.9604 334.74 89.1118C332.254 88.2632 329.951 87.1419 327.83 85.7478C325.769 84.3537 324.102 82.5353 322.829 80.2927C321.556 77.9894 320.92 75.1406 320.92 71.7463C320.92 67.8065 322.011 64.2303 324.193 61.0179C326.436 57.7448 329.739 55.1384 334.103 53.1988C338.528 51.2592 344.013 50.2894 350.559 50.2894C354.863 50.2894 359.106 50.744 363.288 51.6532C367.47 52.5624 371.228 53.9565 374.562 55.8355L368.107 71.3826C364.955 69.8067 361.894 68.6247 358.924 67.8368C356.015 67.0488 353.166 66.6548 350.378 66.6548C348.317 66.6548 346.68 66.8367 345.468 67.2003C344.256 67.564 343.377 68.0489 342.831 68.6551C342.346 69.2612 342.104 69.9279 342.104 70.6553C342.104 71.7463 342.74 72.6252 344.013 73.2919C345.286 73.898 346.953 74.4133 349.014 74.8375C351.135 75.2618 353.439 75.7164 355.924 76.2013C358.469 76.6862 360.985 77.353 363.47 78.2015C365.955 79.0501 368.228 80.1715 370.289 81.5655C372.41 82.9596 374.108 84.778 375.38 87.0207C376.653 89.2633 377.29 92.0515 377.29 95.3852C377.29 99.2644 376.168 102.841 373.926 106.114C371.744 109.326 368.471 111.932 364.106 113.933C359.742 115.872 354.257 116.842 347.65 116.842Z" fill="#303030"/>
<path d="M400.222 115.387V68.3823H381.583V51.7441H440.317V68.3823H421.679V115.387H400.222Z" fill="#303030"/>
<path d="M479.257 116.842C474.105 116.842 469.317 116.024 464.892 114.387C460.528 112.751 456.74 110.447 453.527 107.477C450.315 104.447 447.799 100.901 445.981 96.8399C444.223 92.7789 443.344 88.3542 443.344 83.5658C443.344 78.7167 444.223 74.292 445.981 70.2916C447.799 66.2305 450.315 62.715 453.527 59.745C456.74 56.7144 460.528 54.3808 464.892 52.7442C469.317 51.1077 474.105 50.2894 479.257 50.2894C484.47 50.2894 489.258 51.1077 493.623 52.7442C497.987 54.3808 501.775 56.7144 504.987 59.745C508.2 62.715 510.685 66.2305 512.443 70.2916C514.261 74.292 515.17 78.7167 515.17 83.5658C515.17 88.3542 514.261 92.7789 512.443 96.8399C510.685 100.901 508.2 104.447 504.987 107.477C501.775 110.447 497.987 112.751 493.623 114.387C489.258 116.024 484.47 116.842 479.257 116.842ZM479.257 99.4766C481.258 99.4766 483.106 99.1129 484.803 98.3855C486.561 97.6582 488.077 96.6278 489.349 95.2943C490.683 93.9002 491.713 92.2334 492.441 90.2938C493.168 88.2935 493.532 86.0509 493.532 83.5658C493.532 81.0806 493.168 78.8683 492.441 76.9287C491.713 74.9285 490.683 73.2616 489.349 71.9281C488.077 70.534 486.561 69.4733 484.803 68.746C483.106 68.0186 481.258 67.6549 479.257 67.6549C477.257 67.6549 475.378 68.0186 473.62 68.746C471.923 69.4733 470.408 70.534 469.074 71.9281C467.802 73.2616 466.802 74.9285 466.074 76.9287C465.347 78.8683 464.983 81.0806 464.983 83.5658C464.983 86.0509 465.347 88.2935 466.074 90.2938C466.802 92.2334 467.802 93.9002 469.074 95.2943C470.408 96.6278 471.923 97.6582 473.62 98.3855C475.378 99.1129 477.257 99.4766 479.257 99.4766Z" fill="#303030"/>
<path d="M523.867 115.387V51.7441H541.506L566.963 93.2941H557.689L582.419 51.7441H600.057L600.239 115.387H580.692L580.51 81.2019H583.601L566.69 109.659H557.235L539.596 81.2019H543.415V115.387H523.867Z" fill="#303030"/>
<path d="M613.159 96.8399V81.3837H640.435V96.8399H613.159Z" fill="#303030"/>
<path d="M672.952 75.3831H701.318V90.8393H672.952V75.3831ZM674.406 99.2038H706.228V115.387H653.313V51.7441H705.046V67.9277H674.406V99.2038Z" fill="#303030"/>
<path d="M718.125 115.387V51.7441H739.582V98.7492H768.312V115.387H718.125Z" fill="#303030"/>
<path d="M797.514 75.3831H825.881V90.8393H797.514V75.3831ZM798.969 99.2038H830.791V115.387H777.876V51.7441H829.609V67.9277H798.969V99.2038Z" fill="#303030"/>
<path d="M842.687 115.387V51.7441H860.326L885.783 93.2941H876.509L901.239 51.7441H918.878L919.059 115.387H899.512L899.33 81.2019H902.421L885.51 109.659H876.055L858.416 81.2019H862.235V115.387H842.687Z" fill="#303030"/>
<path d="M951.799 75.3831H980.166V90.8393H951.799V75.3831ZM953.254 99.2038H985.076V115.387H932.161V51.7441H983.894V67.9277H953.254V99.2038Z" fill="#303030"/>
<path d="M996.973 115.387V51.7441H1014.61L1046.98 90.4756H1038.8V51.7441H1059.71V115.387H1042.07L1009.7 76.6559H1017.88V115.387H996.973Z" fill="#303030"/>
<path d="M1086.59 115.387V68.3823H1067.95V51.7441H1126.69V68.3823H1108.05V115.387H1086.59Z" fill="#303030"/>
<path d="M1158.72 116.842C1153.38 116.842 1148.23 116.236 1143.26 115.024C1138.29 113.811 1134.2 112.236 1130.99 110.296L1137.9 94.6579C1140.93 96.4156 1144.29 97.84 1147.99 98.9311C1151.75 99.9615 1155.38 100.477 1158.9 100.477C1160.96 100.477 1162.57 100.355 1163.72 100.113C1164.93 99.8099 1165.81 99.416 1166.36 98.9311C1166.9 98.3855 1167.17 97.7491 1167.17 97.0218C1167.17 95.8701 1166.54 94.9609 1165.26 94.2942C1163.99 93.6275 1162.29 93.0819 1160.17 92.6577C1158.11 92.1728 1155.84 91.6879 1153.35 91.203C1150.87 90.6574 1148.35 89.9604 1145.81 89.1118C1143.32 88.2632 1141.02 87.1419 1138.9 85.7478C1136.84 84.3537 1135.17 82.5353 1133.9 80.2927C1132.62 77.9894 1131.99 75.1406 1131.99 71.7463C1131.99 67.8065 1133.08 64.2303 1135.26 61.0179C1137.5 57.7448 1140.81 55.1384 1145.17 53.1988C1149.6 51.2592 1155.08 50.2894 1161.63 50.2894C1165.93 50.2894 1170.17 50.744 1174.36 51.6532C1178.54 52.5624 1182.3 53.9565 1185.63 55.8355L1179.17 71.3826C1176.02 69.8067 1172.96 68.6247 1169.99 67.8368C1167.08 67.0488 1164.23 66.6548 1161.45 66.6548C1159.38 66.6548 1157.75 66.8367 1156.54 67.2003C1155.32 67.564 1154.44 68.0489 1153.9 68.6551C1153.41 69.2612 1153.17 69.9279 1153.17 70.6553C1153.17 71.7463 1153.81 72.6252 1155.08 73.2919C1156.35 73.898 1158.02 74.4133 1160.08 74.8375C1162.2 75.2618 1164.51 75.7164 1166.99 76.2013C1169.54 76.6862 1172.05 77.353 1174.54 78.2015C1177.02 79.0501 1179.3 80.1715 1181.36 81.5655C1183.48 82.9596 1185.18 84.778 1186.45 87.0207C1187.72 89.2633 1188.36 92.0515 1188.36 95.3852C1188.36 99.2644 1187.24 102.841 1184.99 106.114C1182.81 109.326 1179.54 111.932 1175.17 113.933C1170.81 115.872 1165.32 116.842 1158.72 116.842Z" fill="#303030"/>
<path fill-rule="evenodd" clip-rule="evenodd" d="M120.027 28.9386C119.67 28.3198 119.009 27.9386 118.295 27.9386L56.1383 27.9386C55.4238 27.9386 54.7636 28.3198 54.4063 28.9386L23.328 82.7678C22.9707 83.3866 22.9707 84.149 23.328 84.7678L54.4063 138.597C54.7636 139.216 55.4238 139.597 56.1383 139.597L118.295 139.597C119.009 139.597 119.67 139.216 120.027 138.597L150.628 85.5945C151.097 84.7826 150.511 83.7678 149.573 83.7678C133.91 83.7678 119.436 92.124 111.605 105.689L106.239 114.982C105.93 115.519 105.357 115.849 104.738 115.849L69.8492 115.849C69.1346 115.849 68.4744 115.468 68.1171 114.849L50.7496 84.7678C50.3924 84.149 50.3924 83.3866 50.7496 82.7678L68.1171 52.6864C68.4744 52.0676 69.1346 51.6864 69.8491 51.6864L104.584 51.6864C105.299 51.6864 105.959 52.0676 106.316 52.6864L118.45 73.7022C119.002 74.6588 120.225 74.9865 121.182 74.4342L136.552 65.5603C138.465 64.4558 139.12 62.0094 138.016 60.0962L120.027 28.9386Z" fill="#303030"/>
</svg>
