<svg width="130" height="112" viewBox="0 0 130 112" fill="none" xmlns="http://www.w3.org/2000/svg">
<path fill-rule="evenodd" clip-rule="evenodd" d="M97.5569 1.00001C97.1996 0.381204 96.5394 4.74188e-06 95.8249 4.68799e-06L33.6683 0C32.9538 -5.38916e-08 32.2935 0.381198 31.9363 1L0.857976 54.8292C0.500711 55.448 0.50071 56.2104 0.857976 56.8292L31.9363 110.658C32.2935 111.277 32.9538 111.658 33.6683 111.658L95.8249 111.658C96.5394 111.658 97.1997 111.277 97.5569 110.658L128.158 57.6559C128.627 56.844 128.041 55.8292 127.103 55.8292C111.44 55.8292 96.9664 64.1854 89.1348 77.7502L83.7694 87.0434C83.4596 87.58 82.8871 87.9105 82.2676 87.9105L47.3791 87.9105C46.6646 87.9105 46.0043 87.5293 45.6471 86.9105L28.2796 56.8292C27.9223 56.2104 27.9223 55.448 28.2796 54.8292L45.6471 24.7478C46.0043 24.129 46.6646 23.7478 47.3791 23.7478L82.114 23.7478C82.8286 23.7478 83.4888 24.129 83.8461 24.7478L95.9796 45.7636C96.5318 46.7202 97.755 47.0479 98.7116 46.4956L114.082 37.6217C115.995 36.5172 116.65 34.0708 115.546 32.1576L97.5569 1.00001Z" fill="#303030"/>
</svg>
