<svg width="525" height="217" viewBox="0 0 525 217" fill="none" xmlns="http://www.w3.org/2000/svg">
<rect width="525" height="217" fill="white"/>
<path d="M47.3441 186.683C44.9972 186.683 42.818 186.319 40.8064 185.593C38.8228 184.839 37.0906 183.777 35.6099 182.408C34.1571 181.039 33.0255 179.419 32.2153 177.547C31.4051 175.675 31 173.607 31 171.344C31 169.081 31.4051 167.014 32.2153 165.142C33.0255 163.27 34.1571 161.65 35.6099 160.281C37.0906 158.912 38.8228 157.864 40.8064 157.138C42.818 156.383 44.9972 156.006 47.3441 156.006C50.2217 156.006 52.7642 156.509 54.9713 157.515C57.2064 158.521 59.0503 159.973 60.5031 161.873L54.2589 167.447C53.3928 166.357 52.4289 165.519 51.3672 164.932C50.3335 164.318 49.1601 164.011 47.847 164.011C46.8132 164.011 45.8773 164.178 45.0391 164.513C44.201 164.849 43.4746 165.338 42.8599 165.98C42.2732 166.623 41.8122 167.405 41.477 168.327C41.1417 169.221 40.9741 170.227 40.9741 171.344C40.9741 172.462 41.1417 173.482 41.477 174.404C41.8122 175.298 42.2732 176.066 42.8599 176.709C43.4746 177.351 44.201 177.84 45.0391 178.175C45.8773 178.511 46.8132 178.678 47.847 178.678C49.1601 178.678 50.3335 178.385 51.3672 177.798C52.4289 177.184 53.3928 176.331 54.2589 175.242L60.5031 180.816C59.0503 182.687 57.2064 184.14 54.9713 185.174C52.7642 186.18 50.2217 186.683 47.3441 186.683Z" fill="#303030"/>
<path d="M77.8268 186.683C73.3287 186.683 69.8224 185.467 67.3079 183.037C64.7935 180.606 63.5362 177.198 63.5362 172.811V156.677H73.4265V172.518C73.4265 174.753 73.8316 176.345 74.6418 177.295C75.452 178.217 76.5416 178.678 77.9106 178.678C79.3075 178.678 80.3972 178.217 81.1794 177.295C81.9897 176.345 82.3948 174.753 82.3948 172.518V156.677H92.1174V172.811C92.1174 177.198 90.8602 180.606 88.3457 183.037C85.8312 185.467 82.3249 186.683 77.8268 186.683Z" fill="#303030"/>
<path d="M108.427 186.683C105.968 186.683 103.594 186.403 101.303 185.845C99.0118 185.286 97.1259 184.559 95.6452 183.665L98.8302 176.457C100.227 177.267 101.778 177.924 103.482 178.427C105.214 178.902 106.89 179.139 108.511 179.139C109.461 179.139 110.201 179.083 110.732 178.972C111.291 178.832 111.696 178.65 111.947 178.427C112.199 178.175 112.325 177.882 112.325 177.547C112.325 177.016 112.031 176.597 111.444 176.29C110.858 175.982 110.075 175.731 109.098 175.535C108.148 175.312 107.1 175.088 105.955 174.865C104.809 174.613 103.65 174.292 102.476 173.901C101.331 173.51 100.269 172.993 99.2912 172.35C98.3413 171.708 97.5729 170.869 96.9862 169.836C96.3995 168.774 96.1062 167.461 96.1062 165.896C96.1062 164.08 96.6091 162.432 97.6148 160.951C98.6486 159.443 100.171 158.241 102.183 157.347C104.222 156.453 106.751 156.006 109.768 156.006C111.752 156.006 113.707 156.216 115.635 156.635C117.563 157.054 119.295 157.696 120.832 158.562L117.856 165.729C116.404 165.002 114.993 164.458 113.624 164.094C112.283 163.731 110.969 163.55 109.684 163.55C108.734 163.55 107.98 163.633 107.421 163.801C106.863 163.969 106.457 164.192 106.206 164.471C105.982 164.751 105.871 165.058 105.871 165.393C105.871 165.896 106.164 166.301 106.751 166.609C107.337 166.888 108.106 167.126 109.056 167.321C110.034 167.517 111.095 167.726 112.241 167.95C113.414 168.173 114.574 168.481 115.719 168.872C116.865 169.263 117.912 169.78 118.862 170.422C119.84 171.065 120.622 171.903 121.209 172.937C121.796 173.971 122.089 175.256 122.089 176.792C122.089 178.58 121.572 180.229 120.538 181.738C119.533 183.218 118.024 184.42 116.012 185.342C114.001 186.236 111.472 186.683 108.427 186.683Z" fill="#303030"/>
<path d="M132.659 186.012V164.346H124.068V156.677H151.141V164.346H142.55V186.012H132.659Z" fill="#303030"/>
<path d="M169.09 186.683C166.715 186.683 164.508 186.305 162.468 185.551C160.457 184.797 158.711 183.735 157.23 182.366C155.749 180.969 154.59 179.335 153.751 177.463C152.941 175.591 152.536 173.552 152.536 171.344C152.536 169.109 152.941 167.07 153.751 165.226C154.59 163.354 155.749 161.734 157.23 160.365C158.711 158.968 160.457 157.892 162.468 157.138C164.508 156.383 166.715 156.006 169.09 156.006C171.492 156.006 173.7 156.383 175.711 157.138C177.723 157.892 179.469 158.968 180.95 160.365C182.43 161.734 183.576 163.354 184.386 165.226C185.224 167.07 185.643 169.109 185.643 171.344C185.643 173.552 185.224 175.591 184.386 177.463C183.576 179.335 182.43 180.969 180.95 182.366C179.469 183.735 177.723 184.797 175.711 185.551C173.7 186.305 171.492 186.683 169.09 186.683ZM169.09 178.678C170.012 178.678 170.864 178.511 171.646 178.175C172.456 177.84 173.155 177.365 173.741 176.75C174.356 176.108 174.831 175.34 175.166 174.446C175.502 173.524 175.669 172.49 175.669 171.344C175.669 170.199 175.502 169.179 175.166 168.285C174.831 167.363 174.356 166.595 173.741 165.98C173.155 165.338 172.456 164.849 171.646 164.513C170.864 164.178 170.012 164.011 169.09 164.011C168.168 164.011 167.302 164.178 166.491 164.513C165.709 164.849 165.011 165.338 164.396 165.98C163.809 166.595 163.348 167.363 163.013 168.285C162.678 169.179 162.51 170.199 162.51 171.344C162.51 172.49 162.678 173.524 163.013 174.446C163.348 175.34 163.809 176.108 164.396 176.75C165.011 177.365 165.709 177.84 166.491 178.175C167.302 178.511 168.168 178.678 169.09 178.678Z" fill="#303030"/>
<path d="M189.652 186.012V156.677H197.782L209.516 175.829H205.242L216.641 156.677H224.771L224.855 186.012H215.844L215.761 170.255H217.186L209.391 183.372H205.032L196.902 170.255H198.662V186.012H189.652Z" fill="#303030"/>
<path d="M230.81 177.463V170.339H243.382V177.463H230.81Z" fill="#303030"/>
<path d="M258.37 167.573H271.446V174.697H258.37V167.573ZM259.041 178.553H273.709V186.012H249.318V156.677H273.164V164.136H259.041V178.553Z" fill="#303030"/>
<path d="M279.192 186.012V156.677H289.083V178.343H302.326V186.012H279.192Z" fill="#303030"/>
<path d="M315.786 167.573H328.861V174.697H315.786V167.573ZM316.456 178.553H331.124V186.012H306.734V156.677H330.579V164.136H316.456V178.553Z" fill="#303030"/>
<path d="M336.608 186.012V156.677H344.738L356.472 175.829H352.198L363.597 156.677H371.727L371.81 186.012H362.8L362.716 170.255H364.141L356.347 183.372H351.988L343.858 170.255H345.618V186.012H336.608Z" fill="#303030"/>
<path d="M386.902 167.573H399.977V174.697H386.902V167.573ZM387.572 178.553H402.24V186.012H377.849V156.677H401.695V164.136H387.572V178.553Z" fill="#303030"/>
<path d="M407.724 186.012V156.677H415.854L430.773 174.529H427.001V156.677H436.64V186.012H428.51L413.591 168.159H417.362V186.012H407.724Z" fill="#303030"/>
<path d="M449.033 186.012V164.346H440.441V156.677H467.514V164.346H458.923V186.012H449.033Z" fill="#303030"/>
<path d="M482.278 186.683C479.819 186.683 477.445 186.403 475.154 185.845C472.863 185.286 470.977 184.559 469.496 183.665L472.681 176.457C474.078 177.267 475.629 177.924 477.333 178.427C479.065 178.902 480.741 179.139 482.362 179.139C483.312 179.139 484.052 179.083 484.583 178.972C485.142 178.832 485.547 178.65 485.798 178.427C486.05 178.175 486.175 177.882 486.175 177.547C486.175 177.016 485.882 176.597 485.295 176.29C484.709 175.982 483.926 175.731 482.949 175.535C481.999 175.312 480.951 175.088 479.805 174.865C478.66 174.613 477.501 174.292 476.327 173.901C475.182 173.51 474.12 172.993 473.142 172.35C472.192 171.708 471.424 170.869 470.837 169.836C470.25 168.774 469.957 167.461 469.957 165.896C469.957 164.08 470.46 162.432 471.466 160.951C472.5 159.443 474.022 158.241 476.034 157.347C478.073 156.453 480.602 156.006 483.619 156.006C485.603 156.006 487.558 156.216 489.486 156.635C491.414 157.054 493.146 157.696 494.683 158.562L491.707 165.729C490.254 165.002 488.844 164.458 487.475 164.094C486.134 163.731 484.82 163.55 483.535 163.55C482.585 163.55 481.831 163.633 481.272 163.801C480.713 163.969 480.308 164.192 480.057 164.471C479.833 164.751 479.722 165.058 479.722 165.393C479.722 165.896 480.015 166.301 480.602 166.609C481.188 166.888 481.957 167.126 482.907 167.321C483.884 167.517 484.946 167.726 486.092 167.95C487.265 168.173 488.425 168.481 489.57 168.872C490.715 169.263 491.763 169.78 492.713 170.422C493.691 171.065 494.473 171.903 495.06 172.937C495.647 173.971 495.94 175.256 495.94 176.792C495.94 178.58 495.423 180.229 494.389 181.738C493.384 183.218 491.875 184.42 489.863 185.342C487.852 186.236 485.323 186.683 482.278 186.683Z" fill="#303030"/>
<path fill-rule="evenodd" clip-rule="evenodd" d="M296.064 28.5C295.707 27.8812 295.046 27.5 294.332 27.5L232.175 27.5C231.461 27.5 230.8 27.8812 230.443 28.5L199.365 82.3292C199.008 82.948 199.008 83.7104 199.365 84.3292L230.443 138.158C230.8 138.777 231.461 139.158 232.175 139.158L294.332 139.158C295.046 139.158 295.707 138.777 296.064 138.158L326.665 85.1559C327.134 84.344 326.548 83.3292 325.61 83.3292V83.3292C309.947 83.3292 295.473 91.6854 287.642 105.25L282.276 114.543C281.967 115.08 281.394 115.41 280.775 115.41L245.886 115.411C245.172 115.411 244.511 115.029 244.154 114.411L226.787 84.3292C226.429 83.7104 226.429 82.948 226.787 82.3292L244.154 52.2478C244.511 51.629 245.172 51.2478 245.886 51.2478L280.621 51.2478C281.336 51.2478 281.996 51.629 282.353 52.2478L293.487 71.5315C294.591 73.4447 297.037 74.1002 298.951 72.9956L309.125 67.1217C312.951 64.9126 314.262 60.0199 312.053 56.1935L296.064 28.5Z" fill="#303030"/>
</svg>
